<svg width="193" height="34" viewBox="0 0 193 34" fill="none" xmlns="http://www.w3.org/2000/svg">
<path fill-rule="evenodd" clip-rule="evenodd" d="M75.015 0.0717869C74.8437 0.335894 74.2612 0.186509 74.0029 0.36241C74.0883 -0.139801 74.7166 0.00499532 75.015 0.0717869Z" fill="#FF0600"/>
<path fill-rule="evenodd" clip-rule="evenodd" d="M73.859 0.21834C72.9166 0.600224 71.3982 0.699661 69.9561 0.943374C70.9336 0.152072 72.667 0.138802 73.859 0.21834Z" fill="#FF0600"/>
<path fill-rule="evenodd" clip-rule="evenodd" d="M96.2627 0.0712891C96.6485 0.0712891 97.0333 0.0712891 97.4186 0.0712891C97.3073 0.201303 97.2631 0.399642 97.2743 0.652023C96.6882 0.708617 96.2673 0.598993 96.2627 0.0712891Z" fill="#FF0600"/>
<path fill-rule="evenodd" clip-rule="evenodd" d="M94.5271 0.363191C94.4503 0.479949 94.3756 0.598235 94.3822 0.798099C94.2414 0.794021 94.2699 0.620162 94.2373 0.508503C94.0589 0.572235 93.9405 0.69409 93.9481 0.943411C93.21 0.728251 94.1926 -0.0676399 94.5271 0.363191Z" fill="#FF0600"/>
<path fill-rule="evenodd" clip-rule="evenodd" d="M69.6673 0.652991C69.674 1.38158 68.6817 0.676951 68.8001 1.2327C67.7941 0.945137 67.3656 1.42848 66.1985 1.52229C66.1965 1.23422 65.804 1.33875 65.9082 0.942588C67.2955 1.13735 68.5165 0.554079 69.6673 0.652991Z" fill="#FF0600"/>
<path fill-rule="evenodd" clip-rule="evenodd" d="M65.9078 1.37734C66.0115 1.77146 65.2266 1.27333 65.3308 1.66745C64.8393 1.21163 65.7024 0.887364 65.9078 1.37734Z" fill="#FF0600"/>
<path fill-rule="evenodd" clip-rule="evenodd" d="M113.317 1.81213C112.224 1.88963 111.342 2.00996 110.571 1.81213C111.243 1.50418 112.308 1.35479 113.317 1.81213Z" fill="#FF0600"/>
<path fill-rule="evenodd" clip-rule="evenodd" d="M125.023 1.66699C125.22 1.71186 125.144 2.03052 125.168 2.24721C124.922 2.30075 124.895 2.13403 124.879 1.95762C124.735 1.95762 124.59 1.95762 124.445 1.95762C124.576 1.53341 124.977 1.91529 125.023 1.66699Z" fill="#FF0600"/>
<path fill-rule="evenodd" clip-rule="evenodd" d="M133.263 4.85583C133.719 4.78445 133.774 5.1179 134.275 5.00114C134.002 5.16226 133.768 5.36315 133.407 5.43708C133.296 5.30706 133.253 5.10872 133.263 4.85583Z" fill="#FF0600"/>
<path fill-rule="evenodd" clip-rule="evenodd" d="M124.445 6.59587C124.586 7.18017 123.581 7.18017 123.723 6.59587C124 6.32411 123.985 6.68255 124.445 6.59587Z" fill="#FF0600"/>
<path fill-rule="evenodd" clip-rule="evenodd" d="M149.451 9.93066C149.972 10.1519 150.372 9.6533 150.462 10.3656C150.106 10.2401 149.462 10.4023 149.451 9.93066Z" fill="#FF0600"/>
<path fill-rule="evenodd" clip-rule="evenodd" d="M150.607 10.3655C150.679 10.1651 151.91 10.0142 151.764 10.5108C151.228 10.6133 151.145 10.263 150.607 10.3655Z" fill="#FF0600"/>
<path fill-rule="evenodd" clip-rule="evenodd" d="M26.8837 11.8147C26.5075 11.728 26.3636 11.8728 26.45 12.2496C26.0703 12.2929 26.3362 11.6872 25.8721 11.8147C26.0383 11.5307 26.8857 11.027 26.8837 11.8147Z" fill="#FF0600"/>
<path fill-rule="evenodd" clip-rule="evenodd" d="M31.5081 15.2949C30.986 15.8338 30.0319 15.9399 29.0508 16.0194C29.7081 15.6141 30.7705 15.6161 31.5081 15.2949Z" fill="#FF0600"/>
<path fill-rule="evenodd" clip-rule="evenodd" d="M166.507 25.0068C166.289 25.6344 165.601 24.94 164.916 25.1516C165.018 24.4888 166.106 25.0364 166.507 25.0068Z" fill="#FF0600"/>
<path fill-rule="evenodd" clip-rule="evenodd" d="M38.736 27.1816C38.4753 27.6446 37.8221 27.7144 37.1465 27.7619C37.4591 27.1133 37.9934 27.4845 38.736 27.1816Z" fill="#FF0600"/>
<path fill-rule="evenodd" clip-rule="evenodd" d="M121.99 27.6181C120.905 27.4569 120.666 27.8929 119.966 27.7629C119.661 27.4615 121.866 27.02 121.99 27.6181Z" fill="#FF0600"/>
<path fill-rule="evenodd" clip-rule="evenodd" d="M1.73471 27.6175C1.71793 28.1325 1.25687 28.2008 0.723633 28.1972C0.907141 27.8505 1.19486 27.6068 1.73471 27.6175Z" fill="#FF0600"/>
<path fill-rule="evenodd" clip-rule="evenodd" d="M0.577974 27.9058C0.577974 28.1001 0.577974 28.2933 0.577974 28.4866C0.318724 28.5049 0.272975 28.3096 0 28.3423C0.125558 28.1297 0.216549 27.8824 0.577974 27.9058Z" fill="#FF0600"/>
<path fill-rule="evenodd" clip-rule="evenodd" d="M114.618 28.9221C114.521 29.4136 113.651 29.0266 113.607 29.2117C113.071 28.8048 114.28 28.9328 114.618 28.9221Z" fill="#FF0600"/>
<path fill-rule="evenodd" clip-rule="evenodd" d="M121.845 29.0672C122.25 29.0463 122.261 29.4216 122.278 29.7923C121.855 29.7821 121.464 29.7392 121.556 29.2115C121.724 29.2355 121.813 29.1794 121.845 29.0672Z" fill="#FF0600"/>
<path fill-rule="evenodd" clip-rule="evenodd" d="M115.919 30.9512C116.008 31.5227 115.126 31.1215 114.764 31.2408C115.025 30.761 115.288 31.1225 115.919 30.9512Z" fill="#FF0600"/>
<path fill-rule="evenodd" clip-rule="evenodd" d="M112.161 31.096C112.145 31.4666 111.677 31.3835 111.295 31.3861C111.157 30.8619 111.863 31.1837 112.161 31.096Z" fill="#FF0600"/>
<path fill-rule="evenodd" clip-rule="evenodd" d="M109.559 31.2404C109.43 31.8854 108.387 31.6116 107.681 31.6753C107.738 30.961 108.883 31.3368 109.559 31.2404Z" fill="#FF0600"/>
<path fill-rule="evenodd" clip-rule="evenodd" d="M111.005 31.2404C110.738 31.4556 110.318 31.5183 109.849 31.53C109.761 30.959 110.642 31.3608 111.005 31.2404Z" fill="#FF0600"/>
<path fill-rule="evenodd" clip-rule="evenodd" d="M104.934 31.967C104.334 32.0063 104.37 31.7769 103.923 31.967C103.736 31.5097 105.12 31.5097 104.934 31.967Z" fill="#FF0600"/>
<path fill-rule="evenodd" clip-rule="evenodd" d="M78.1939 31.9658C78.3118 31.9928 78.3378 32.1111 78.4831 32.1111C78.4831 32.2075 78.4831 32.3039 78.4831 32.4002C78.2427 32.4002 78.0012 32.4002 77.7608 32.4002C77.7166 32.0657 78.1781 32.2391 78.1939 31.9658Z" fill="#FF0600"/>
<path fill-rule="evenodd" clip-rule="evenodd" d="M100.454 32.1104C100.311 32.6273 99.2191 32.3535 99.1531 32.5447C98.756 32.1374 100.069 32.2139 100.454 32.1104Z" fill="#FF0600"/>
<path fill-rule="evenodd" clip-rule="evenodd" d="M107.247 32.2558C104.72 32.7437 101.833 32.9145 98.4307 33.1261C101.361 32.5739 104.471 32.2349 107.247 32.2558Z" fill="#FF0600"/>
<path fill-rule="evenodd" clip-rule="evenodd" d="M76.7486 32.2559C77.2036 32.4185 77.076 32.2686 77.6158 32.2559C77.7033 32.5873 76.6154 32.7825 76.7486 32.2559Z" fill="#FF0600"/>
<path fill-rule="evenodd" clip-rule="evenodd" d="M97.2726 32.836C97.6422 32.7234 97.937 33.4035 98.1398 32.9803C98.2568 33.5458 97.1511 33.2347 96.4054 33.4163C96.199 32.7249 97.48 33.5274 97.2726 32.836Z" fill="#FF0600"/>
<path fill-rule="evenodd" clip-rule="evenodd" d="M96.2617 33.2716C96.2571 33.7172 95.8372 33.448 95.2496 33.5607C95.1342 33.01 95.9338 33.3771 96.2617 33.2716Z" fill="#FF0600"/>
<path fill-rule="evenodd" clip-rule="evenodd" d="M94.961 33.4162C94.7622 33.8313 94.4308 33.5396 93.805 33.7053C93.7166 33.1338 94.599 33.535 94.961 33.4162Z" fill="#FF0600"/>
<path fill-rule="evenodd" clip-rule="evenodd" d="M76.4607 4.42239C76.7993 4.46879 76.784 4.87005 77.0387 5.0016C76.935 4.41067 78.3497 4.18224 78.9175 4.71199C79.069 4.28472 79.8462 4.48306 80.2188 4.27708C80.3307 4.40607 80.3739 4.60391 80.3622 4.85629C81.1308 4.90523 81.1735 4.65692 81.2299 4.27708C81.2752 4.96488 83.2765 4.86036 83.3985 3.98748C83.4859 4.23731 84.0847 3.97575 84.1208 4.27708C86.2838 3.61426 91.1312 4.0818 93.371 3.40726C93.5794 3.43938 93.4208 3.83962 93.6597 3.84166C93.8315 2.8719 94.2036 4.40862 94.2387 3.40726C94.4751 3.96352 96.9817 3.61834 98.4304 3.55206C102.393 3.37106 106.681 2.84387 108.981 2.97235C110.079 2.15658 111.145 2.71131 112.306 2.24733C112.23 2.36358 112.155 2.48238 112.161 2.68224C113.081 2.27639 115.5 1.72676 116.353 2.53693C116.528 2.58231 116.851 2.11834 116.497 2.10202C118.545 1.99444 121.32 1.62888 124.158 1.95774C124.064 2.10509 123.825 2.10713 123.868 2.39265C122.545 1.65692 121.047 2.98154 119.677 2.24785C119.766 2.74853 118.283 2.97083 118.232 2.39265C117.581 3.17885 115.321 2.15606 115.052 3.55206C112.546 3.09421 109.598 3.79425 107.968 3.26246C102.425 4.31736 94.5498 4.45911 88.7451 5.58182C90.1171 6.10646 92.1443 5.56702 93.8051 5.29221C94.2799 5.8245 92.5663 5.39572 92.5037 5.87193C96.9893 5.43855 103.824 5.15251 107.681 4.27759C111.262 4.42596 115.131 3.90284 118.953 3.84217C121.928 3.79628 124.999 3.13449 127.916 3.69737C130.012 2.97796 132.518 3.36036 134.276 3.26349C133.845 3.92733 133.383 3.497 132.685 3.55309C129.696 3.79272 126.95 3.99462 124.447 4.13331C124.278 4.39843 124.236 4.79102 123.868 4.8573C125.85 4.79255 127.207 4.91033 129.794 4.71301C129.957 4.93633 130.209 5.06991 130.373 5.29323C130.881 4.76298 132.265 4.5881 133.12 4.85781C133.076 5.15302 132.829 5.2448 132.685 5.43906C132.603 5.0378 132.172 4.98681 131.818 4.85781C131.341 5.1469 132.177 5.47729 131.818 5.58334C131.144 5.27335 131.042 5.41407 130.807 5.14792C130.638 5.17188 130.685 5.41305 130.663 5.58334C129.361 5.41458 129.589 5.70826 128.349 5.72814C128.309 5.49361 128.486 5.47831 128.493 5.29323C128.186 5.22491 128.218 5.50023 128.205 5.72814C126.897 5.71539 124.932 6.34915 123.58 6.30785C123.384 6.35322 123.46 6.67138 123.435 6.88858C122.85 7.08845 122.978 6.57349 122.568 6.59847C122.076 6.75347 122.97 6.64334 122.712 7.03389C122.45 7.0446 121.763 6.6622 121.557 7.17869C124.982 7.55905 130.281 7.298 133.408 7.32248C133.578 7.34644 133.53 7.58759 133.553 7.7584C136.953 8.03882 142.669 7.36428 146.272 7.7584C146.949 7.83233 147.585 8.21166 148.296 7.7584C150.125 8.32434 151.971 7.57077 153.933 8.48342C145.593 8.13212 137.383 8.3376 132.686 8.19331C133.111 8.84134 134.008 8.30802 134.276 8.91832C134.33 8.5859 134.855 8.72458 134.999 8.48393C135.301 8.49005 135.103 8.91679 135.432 8.91832C137.076 8.92648 140.51 9.20588 143.093 9.20843C144.768 9.20945 146.622 8.59712 147.718 9.49805C147.409 9.12585 146.911 9.61939 146.706 9.35222C147.012 10.1129 147.852 9.52557 148.73 9.78764C148.753 9.00603 148.14 9.70249 147.863 9.35222C148.3 8.7205 149.127 9.84015 149.164 9.20843C149.612 9.46999 149.241 9.65151 149.308 10.2226C146.571 10.2006 143.267 9.53169 140.636 9.78764C143.255 10.3719 147.26 10.3026 150.175 10.8023C150.251 10.9185 150.326 11.0373 150.32 11.2372C150.455 11.1316 150.538 10.9736 150.608 10.8023C152.651 11.4661 155.893 10.997 156.534 11.9617C156.763 11.4855 157.038 11.4483 157.257 12.2513C157.458 11.409 158.368 12.4471 158.703 11.8164C158.897 11.9112 158.972 12.1253 158.991 12.3956C159.653 11.4855 160.443 12.6658 161.449 12.2513C161.202 12.7662 161.863 12.6408 162.027 12.9763C162.399 12.9416 161.829 12.727 162.027 12.3956C162.324 12.5342 162.715 12.5761 162.75 12.9763C163.195 13.0844 163.028 12.5781 163.472 12.6867C164.405 12.8458 166.734 13.3883 167.809 13.2669C168.887 13.9155 171.862 14.6038 173.879 14.8607C174.529 14.9443 176.107 14.7572 175.758 15.2967C181.856 16.0961 187.13 17.2183 192.669 18.7754C190.981 19.1283 188.045 18.3094 186.888 18.9202C187.24 19.4362 188.499 19.0431 188.766 19.6448C187.99 19.4464 187.987 19.6799 187.032 19.4999C186.87 19.7085 186.875 19.8538 187.177 19.9343C186.345 20.3494 184.666 20.2612 184.285 19.9343C184.04 19.8823 184.012 20.048 183.997 20.2245C170.028 18.8682 155.877 19.3444 143.382 18.4853C142.505 18.9692 142.118 18.4838 141.069 18.7749C140.854 18.8381 141.125 18.96 141.069 19.2093C140.608 18.8591 139.47 18.5491 138.901 18.7749C138.842 19.1242 139.165 19.0905 139.045 19.4994C141.49 19.6626 144.501 19.9094 147.429 20.0802C149.622 20.2061 152.082 19.8456 153.787 20.3693C153.79 20.3703 153.608 20.6507 153.644 20.6589C153.87 20.7139 154.185 20.4682 154.366 20.5146C154.744 20.6109 155.684 21.4089 156.245 20.8042C160.875 21.7117 164.812 21.5633 169.253 22.2542C169.253 22.3985 169.253 22.5443 169.253 22.6891C172.446 22.3424 175.697 23.5967 179.805 23.5589C179.669 24.6302 177.912 23.2336 177.926 24.2834C177.141 23.5136 176.588 24.466 176.047 23.8485C175.547 23.976 175.443 24.4986 174.891 24.5741C174.64 24.4395 174.115 24.5787 174.169 24.1392C173.874 24.284 173.319 24.7357 173.301 23.9933C170.838 24.4104 166.805 23.7404 163.328 23.8485C163.78 24.3625 164.855 24.2503 165.786 24.2834C165.166 24.7301 163.853 24.4558 162.75 24.2834C162.804 25.1951 164.486 24.4752 164.773 25.1533C162.172 24.9417 156.778 24.5185 154.077 24.4282C155.626 25.0783 157.509 24.6271 159.28 25.1533C159.087 25.6177 158.173 25.4403 157.835 25.1533C156.133 25.2665 154.325 25.1528 152.776 24.8637C149.268 24.2085 144.434 25.1711 140.49 24.2834C137.699 25.0324 132.369 24.3135 129.362 25.0085C130.144 25.4515 130.577 25.3751 131.385 25.1533C131.031 25.9461 130.354 25.5413 129.795 25.5882C126.504 25.8666 122.639 26.1276 118.811 26.3132C115.951 26.4519 113.193 26.9505 110.427 27.183C108.542 27.3416 106.539 26.9928 104.935 27.907C109.385 27.8433 114.352 27.7066 119.678 27.4726C119.148 28.2721 118.146 27.854 117.365 27.907C113.961 28.1461 110.462 28.555 106.669 28.7773C105.466 28.8482 104.522 28.7269 103.779 29.3576C105.269 29.7226 107.127 29.3428 109.415 29.2123C110.742 29.1373 112.466 28.6055 113.318 29.3576C108.733 29.4825 103.894 30.0377 99.5863 30.6628C101.043 30.8642 102.56 30.2947 103.489 30.8076C103.659 30.7836 103.611 30.543 103.634 30.3727C107.174 30.0953 110.494 30.0173 114.04 29.6487C115.225 29.5248 116.98 29.3428 117.798 29.6487C118.077 29.5896 117.913 29.0858 118.377 29.2128C118.461 29.6992 119.566 29.4065 119.967 29.0685C120.326 29.4346 121.317 29.1648 121.412 29.7935C113.575 30.2932 105.282 31.0717 98.864 31.8227C98.984 31.4133 98.6617 31.448 98.7201 31.0977C98.6002 31.189 98.2133 31.8299 98.7201 31.6774C98.4578 32.1572 98.194 31.7967 97.5642 31.9675C97.5962 31.759 97.9953 31.9165 97.9978 31.6774C97.7752 31.3695 97.1499 31.6382 97.1296 31.6774C96.73 31.6152 97.123 31.2216 97.4188 31.3883C97.2963 30.8708 97.063 31.37 96.5526 31.243C96.9293 31.8079 96.0295 31.8079 96.4072 31.243C96.1475 31.2252 96.1027 31.421 95.8293 31.3883C95.9111 31.5234 96.2308 31.6081 95.9731 31.6774C95.599 31.94 95.5192 31.6336 95.6844 31.2425C95.2447 31.4148 94.4344 31.2338 94.0948 31.8227C93.9596 31.7167 93.8757 31.5591 93.8061 31.3878C89.0547 31.9594 85.0714 32.8848 80.9422 32.692C81.4673 32.3438 82.6721 32.3805 83.2551 31.8227C82.1409 32.0211 80.898 31.9614 79.6414 32.2576C79.8051 31.3888 82.0671 31.7947 83.3995 31.6774C83.9597 31.6295 84.7089 30.9315 84.9895 31.8227C85.293 31.7824 84.7791 31.4352 85.1334 31.2425C87.1739 30.8841 89.2712 30.5608 91.0601 30.3727C93.376 30.1285 97.7253 30.2386 101.033 29.2128C100.244 29.227 98.9118 29.1241 98.1427 29.5029C97.9642 29.4397 97.8458 29.3178 97.8545 29.0685C96.5923 29.3362 95.3926 29.3759 93.8071 29.2128C93.615 29.7104 93.3684 29.587 93.2296 29.2128C85.7282 30.4711 73.4707 31.1222 64.8997 32.8374C65.0303 32.534 65.7161 32.7859 65.7669 32.4019C63.5348 31.3277 61.1411 33.3151 58.5399 32.6915C58.1104 32.2429 59.1032 32.404 58.8287 31.6769C58.5379 32.1888 58.3559 31.9099 57.9615 32.2571C58.177 32.4274 58.3696 32.6212 58.5399 32.8374C58.2639 33.2891 57.9127 32.6105 57.5284 32.692C57.6219 32.8394 57.8608 32.8425 57.8171 33.1275C56.2596 33.0087 55.1844 33.5323 54.2034 33.5619C54.5277 32.5763 56.5142 33.3895 55.9383 32.1128C55.6846 32.8042 55.0599 32.2694 54.4926 32.692C54.2217 32.0343 55.067 32.4947 54.9267 31.9675C57.3367 31.5398 60.0848 30.8295 62.5863 30.0836C59.703 29.9939 58.0525 30.5644 55.3603 30.9529C55.5316 29.9658 57.3525 30.6317 57.8171 29.9378C56.5229 29.6961 55.2032 30.2702 54.0595 30.3732C54.9079 29.6584 57.1364 29.7864 57.8171 29.3586C57.8135 29.2174 57.6402 29.2459 57.5284 29.2133C58.4454 29.0389 58.1592 29.0685 59.1179 28.7789C58.6838 29.2882 59.7452 29.0119 59.9851 28.9237C59.9618 28.7539 59.7218 28.8018 59.5515 28.7789C59.8316 28.4796 60.432 28.502 60.8529 28.3445C60.8168 28.1864 60.5651 28.2461 60.5641 28.0544C59.2125 28.4475 57.4089 28.6254 55.9388 29.069C58.2121 27.4379 61.4944 27.4135 64.8997 26.7486C62.6391 26.4906 60.4538 27.2835 57.8176 27.6195C58.2558 26.8837 59.3797 27.3441 59.8408 26.8934C57.3682 26.4136 56.8543 27.5644 54.4931 27.3288C54.2842 27.6745 54.274 27.6847 54.0595 27.7637C51.9301 27.3467 48.5903 28.6218 45.0981 29.0685C44.9522 27.8933 43.2066 29.2357 41.9179 29.0685C42.2397 28.4551 44.33 28.9002 43.6524 28.0539C45.1296 27.9498 46.7873 26.6104 48.1328 27.4731C48.1593 27.1575 48.0144 27.0127 47.6992 27.0387C47.8919 26.6584 48.3407 26.7614 48.7108 26.8929C48.6168 26.7455 48.3784 26.7435 48.4221 26.4585C49.0382 26.3734 49.3782 26.5625 49.8678 26.6038C50.1941 26.5217 49.6924 26.3779 50.0121 26.1684C51.009 26.1449 52.7851 25.8834 53.481 25.1533C54.8306 25.5729 58.5852 24.2845 60.8523 23.7037C56.9514 23.9016 51.3465 25.6693 47.4105 25.4424C47.5045 25.5902 47.7429 25.5933 47.6992 25.8783C45.1911 25.8681 43.0739 27.0377 41.1951 26.7471C44.1678 25.6432 45.7426 25.6111 48.7108 24.7184C46.9088 24.1483 44.8724 25.293 42.6408 25.4424C42.9992 24.8326 46.0253 24.4084 47.5549 24.2834C48.6778 23.6089 49.8296 23.7914 51.1681 23.2688C51.2123 22.9354 50.7513 23.1082 50.735 22.8344C48.2452 23.3392 44.7824 24.3436 41.6292 24.5741C41.465 24.6016 41.5489 24.7184 41.6292 24.7184C41.5682 25.0411 40.8621 24.8315 40.762 24.7184C40.1052 25.4225 38.3352 25.1436 37.0039 25.8783C34.3102 26.1087 31.3954 27.2998 28.621 27.7627C27.9205 27.8795 27.1692 28.4362 26.7416 28.4872C26.67 28.4959 26.1444 28.1757 26.0193 28.1976C25.9278 28.214 25.8678 28.4872 25.8744 28.4872C25.4444 28.4872 25.0631 28.163 24.718 28.1976C24.3723 28.2323 23.2514 29.2984 22.9835 28.1976C23.1121 28.3108 23.3099 28.3537 23.562 28.3429C23.531 27.3747 22.4371 28.3348 22.2607 28.0528C22.3344 27.6434 22.6104 27.4369 22.6943 27.0382C25.0906 26.8078 26.8992 25.3608 28.9092 24.5741C26.6669 24.2085 24.3687 25.657 22.1163 25.2986C23.9809 24.5042 25.1531 24.6312 27.1747 23.9933C20.5669 24.5057 11.666 27.2075 4.91584 28.9221C4.87466 28.6881 5.05258 28.6728 5.06071 28.4872C4.84416 28.6575 4.46952 28.6672 4.33787 28.9221C4.06438 28.9068 4.23772 28.4429 3.90375 28.4872C3.67297 28.6902 3.5347 28.9869 3.47065 29.357C3.28867 29.3219 3.32476 29.0695 3.47065 29.0675C3.45235 28.7473 2.85658 29.0058 2.60292 28.9221C4.5229 27.7158 6.72347 27.4053 8.81832 26.6033C6.23395 26.6217 3.68821 27.674 2.02495 28.1976C1.71131 28.2226 1.95988 27.6832 1.88058 27.4721C2.089 27.5761 2.77423 27.1881 2.89216 26.7471C3.91087 27.2243 4.24586 26.0578 5.49382 26.3127C5.41757 26.1959 5.34335 26.0771 5.34894 25.8778C4.99057 26.3489 5.17509 25.7564 4.48172 26.0226C4.70996 24.9799 5.94521 25.7794 6.21666 24.7173C6.96239 24.8637 7.19114 24.6873 7.51749 24.1381C7.50123 23.7823 7.03966 24.1055 7.08388 24.2819C6.57199 24.2661 7.39092 23.8032 6.93952 23.847C6.87699 23.4468 7.47784 23.7099 7.51749 23.4116C7.36804 23.7088 8.12444 23.8088 8.09546 23.1215C8.41114 23.0955 8.55551 23.2408 8.52958 23.5569C8.66429 23.4019 9.06282 23.5115 8.96319 23.1215C9.23057 23.1444 9.05164 23.613 9.25192 23.7022C9.9397 23.6691 9.44306 22.8803 10.264 23.2668C9.50965 22.5795 11.6736 23.3739 11.5654 22.2527C13.1275 22.1063 14.0201 21.0729 15.4673 20.513C15.3626 19.9777 14.6433 20.9653 14.7445 20.2229C15.0978 20.5905 15.0525 19.917 15.6117 20.0786C15.2599 20.4177 15.7728 20.4034 15.9009 20.6578C16.8861 19.992 17.3781 20.1215 18.3577 19.6432C17.8209 19.4525 16.8622 19.992 16.3345 19.9328C19.0353 18.571 23.1889 17.6808 26.8855 16.5989C26.7732 16.7278 26.73 16.9262 26.7411 17.1791C28.623 16.6779 30.7651 16.2348 32.0893 15.5842C32.0537 15.4022 31.8021 15.4379 31.8001 15.5842C32.0446 14.9352 33.4293 14.591 34.691 14.7144C34.8104 14.3045 34.4876 14.3392 34.5461 13.9899C33.1334 14.1714 32.8793 14.4799 31.9444 14.279C32.0344 15.0846 30.9166 14.5196 30.21 15.1493C30.0138 15.1044 30.09 14.7858 30.0651 14.5686C29.753 15.4629 27.9337 15.5536 27.4635 15.004C28.1279 14.3652 29.1369 14.072 30.0651 13.6988C30.0651 13.4571 30.0651 13.2154 30.0651 12.9737C29.1593 12.9472 29.2737 14.0608 28.6199 13.5545C28.4624 14.023 28.8289 14.1984 28.4751 13.8431C28.2499 13.6187 27.5834 13.84 27.6078 13.5545C27.4381 13.5774 27.4858 13.8176 27.463 13.9894C25.8739 13.5127 24.538 14.8189 23.1269 14.2785C22.616 14.5115 22.4483 15.1172 21.9709 14.7134C21.9018 14.1729 22.6399 14.9076 22.4051 13.9889C25.7463 13.0028 28.0598 12.0208 31.5103 10.944C30.1221 11.0791 28.8172 11.6649 27.0304 11.8138C27.0436 11.4182 26.7894 11.5222 27.0304 11.2336C27.3384 11.1663 27.3054 11.4406 27.3191 11.669C27.5108 11.4253 27.8783 11.36 27.7527 10.7987C28.0125 10.7798 28.0582 10.9766 28.3312 10.9435C28.6942 10.1756 31.0254 10.1695 32.9565 9.63877C34.0347 9.34152 35.4606 8.49004 35.8474 9.05904C39.3885 7.61105 43.4501 7.32094 47.4105 6.30377C47.5452 6.41033 47.6296 6.56788 47.6992 6.73868C47.8954 6.69381 47.8187 6.37617 47.8436 6.15846C49.6045 5.77657 50.1763 5.3743 52.0353 5.28916C52.2209 5.47984 52.2209 5.82349 52.0353 6.01469C52.3439 6.0825 52.3103 5.80717 52.324 5.57927C52.4791 5.85969 52.6011 6.17223 53.1918 6.01469C52.8044 5.54715 52.564 5.71081 52.324 4.99905C53.5979 5.3223 54.4824 4.13483 55.7934 4.85373C55.9393 4.22712 56.9097 4.42799 57.5279 4.27453C57.7688 4.56209 57.5151 4.45808 57.5279 4.85373C58.0631 4.9552 58.1663 4.62531 58.1063 4.12973C58.3198 4.53354 58.7524 3.82279 58.6838 4.41984C58.8556 3.86664 59.5881 3.87685 60.2739 3.83861C60.4736 3.92783 60.2952 4.3974 60.5631 4.41984C60.9957 4.32398 60.4243 4.10934 60.5631 3.83861C61.0298 3.96964 61.3195 3.32059 61.4303 3.83861C61.7033 3.82331 61.5305 3.35984 61.8644 3.4042C62.4358 3.37972 61.8177 3.6265 62.1527 3.83861C62.4073 3.80445 62.4821 3.5903 62.4419 3.2594C65.0715 2.7215 69.3832 2.13363 72.9934 1.95467C73.0549 2.25753 72.8943 2.3381 72.8485 2.53388C74.6089 2.0434 77.0768 2.3391 77.7631 1.80885C78.0777 1.78233 78.2231 1.92816 78.1962 2.24427C78.5479 1.64162 79.5336 1.42033 80.0755 1.80885C80.1497 1.23475 82.9832 1.02265 83.6882 1.51925C83.5596 1.39026 84.196 0.877848 84.2667 1.51925C84.4629 1.47438 84.3862 1.15623 84.4111 0.939545C85.873 0.914052 87.3192 0.907937 88.1697 0.649948C88.4772 0.582137 88.4442 0.856949 88.4579 1.08486C89.1558 0.67238 91.118 -0.0414208 91.638 0.940058C91.8332 0.798317 91.8246 0.452126 92.0711 0.360352C92.5388 0.746315 93.4604 -0.100055 93.3715 0.940058C91.2731 1.20722 87.3152 1.55035 85.5665 1.80936C84.7313 3.17629 83.3944 2.57568 81.8084 2.9698C81.8847 2.85304 81.9589 2.73424 81.9528 2.53438C81.8242 2.62462 81.695 2.71028 81.664 2.53438C81.4536 2.66082 81.1033 2.65012 81.2304 3.1146C78.7442 3.23646 77.1388 3.50107 74.8712 3.98493C74.736 3.82993 74.3379 3.93955 74.4371 3.55002C70.7989 4.90115 64.1753 4.54373 60.7065 6.01519C60.311 6.12022 60.4147 5.72611 60.1275 5.72458C59.9912 6.16714 59.5165 6.27165 58.972 6.30428C59.2928 7.45759 60.6612 6.54953 61.1396 7.02982C63.1251 5.96013 66.2137 6.43378 68.3665 5.43548C68.5317 5.46199 68.4469 5.57978 68.3665 5.57978C71.2366 4.90728 74.2312 5.19228 76.4607 4.42239ZM35.4118 14.4243C35.6095 14.2387 35.6095 13.7401 35.4118 13.5555C35.1276 13.5116 35.1256 13.7503 34.9782 13.8441C34.9477 13.6825 34.8175 13.6197 34.6889 13.5555C34.6889 13.7961 34.6889 14.0378 34.6889 14.2795C35.0976 14.1592 35.0636 14.484 35.4118 14.4243ZM122.135 4.56669C122.099 4.31227 121.885 4.23629 121.556 4.27708C121.624 4.87361 121.166 4.13737 121.123 4.71199C121.92 4.78439 123.199 4.61511 123.724 4.27708C123.073 4.05988 122.571 4.27454 122.135 4.56669ZM90.1908 6.01722C90.0271 6.41236 91.4652 6.21761 91.4922 5.87141C90.962 6.06159 90.5019 5.89027 90.1908 6.01722ZM88.0233 6.45112C88.5148 6.46081 89.0313 6.49599 89.1797 6.16101C88.674 6.13756 88.2541 6.20027 88.0233 6.45112ZM85.8558 6.59592C86.5171 6.53525 87.4875 6.78253 87.734 6.30581C87.124 6.39147 85.9986 6.30275 85.8558 6.59592ZM55.2139 7.03134C55.5784 8.05973 56.9056 6.3048 57.6712 7.31993C57.3174 6.47611 59.0422 6.96659 58.5379 6.45112C57.3306 6.39249 56.6957 6.89776 55.2139 7.03134ZM120.111 6.74123C120.111 6.93498 120.111 7.12822 120.111 7.32044C120.379 7.30208 120.594 7.2256 120.689 7.03185C120.44 7.03899 120.318 6.91968 120.255 6.74174C120.457 6.75296 120.808 6.70912 120.544 6.59695C120.333 6.67546 119.797 6.42716 119.821 6.74174C119.918 6.74123 120.014 6.74123 120.111 6.74123ZM146.56 9.49601C146.35 9.27218 145.821 9.36752 145.404 9.35018C145.258 9.84781 146.49 9.69536 146.56 9.49601ZM135.431 9.7856C137.328 9.63825 139.186 10.115 140.346 9.64081C139.078 9.49753 136.459 9.20844 135.431 9.7856ZM42.7831 13.2654C45.3467 13.114 50.3288 11.9882 54.0575 10.9455C49.7803 11.3473 46.2164 12.0687 42.7831 13.2654ZM38.1578 11.5258C38.1878 11.6848 39.2304 11.6461 39.1694 11.2351C38.6361 11.4029 38.1746 11.0914 38.1578 11.5258ZM42.7831 12.5404C42.3383 12.3951 42.9443 12.1488 43.0724 12.1055C43.0891 12.2824 43.1156 12.4491 43.3616 12.3946C43.5329 12.1799 43.9076 12.1702 44.0845 11.9601C43.7866 11.9209 43.9482 11.4202 43.6503 11.3799C43.0642 11.8337 41.8244 11.9515 41.0487 12.2498C41.0162 12.5241 41.2119 12.5694 41.1931 12.8305C41.6882 12.8911 41.6277 12.3951 41.9159 12.2498C42.1162 12.3395 41.9378 12.8075 42.2052 12.8305C42.2189 12.289 42.7694 12.8203 42.7831 12.5404ZM44.0845 11.6711C44.2751 11.6721 44.2166 11.9239 44.3737 11.9601C44.4159 11.6649 44.7646 11.6756 44.8068 11.3799C44.4479 11.358 44.207 11.4554 44.0845 11.6711ZM33.8222 12.5404C35.0529 12.4297 36.5804 12.2819 37.5803 11.5263C36.2343 11.822 34.6844 12.0014 33.8222 12.5404ZM44.6624 11.9601C45.0208 11.981 45.3639 11.9872 45.3853 11.6711C45.0976 11.3687 44.7677 11.666 44.6624 11.9601ZM37.8691 14.4243C38.6529 14.4462 38.9208 14.8954 39.7479 14.7144C39.7311 14.3443 39.7204 13.9685 39.3138 13.9899C38.96 14.743 38.0444 13.35 37.8691 14.4243ZM40.9043 13.1196C40.9633 12.7703 40.641 12.805 40.76 12.394C40.1855 12.4828 39.4525 12.8218 39.1699 12.394C38.8161 12.5878 39.3285 12.9345 39.025 12.9748C38.6067 12.9212 37.9784 12.6056 37.7242 13.4097C38.1187 13.3047 38.015 13.6983 38.3022 13.6998C38.3083 13.5004 38.2341 13.3811 38.1578 13.2649C38.506 13.3245 38.472 12.9998 38.8807 13.1196C38.7759 13.5632 39.0281 13.6483 39.0245 13.9899C39.4485 13.9792 39.45 13.5468 39.7474 13.4092C39.4474 13.7589 39.9075 14.3361 40.181 13.9899C40.0498 13.9491 39.6955 13.4494 40.0361 13.4092C40.0727 13.7533 40.4331 13.7533 40.4702 13.4092C40.6049 13.6575 41.0584 13.7018 40.7595 13.9899C41.129 13.9741 41.4482 13.9068 41.6267 13.6998C40.944 13.708 40.7544 13.2215 40.4702 12.8305C40.6771 12.8646 40.7147 13.0691 40.9043 13.1196ZM30.3528 13.4097C30.7133 13.5122 30.9466 13.5524 31.2201 13.2654C30.944 13.2032 30.9583 12.8498 30.4977 12.9753C30.5038 13.1746 30.4291 13.2934 30.3528 13.4097ZM35.701 13.6998C36.1006 13.6376 35.8373 14.2397 36.1351 14.2795C36.2683 13.8242 36.5906 13.6631 37.0024 13.8441C37.1066 13.4668 37.5229 13.4 37.5803 12.9748C36.8041 13.3791 36.2729 13.1272 35.701 13.6998ZM41.4823 13.5555C41.7355 13.1262 42.2524 13.6381 42.6388 13.5555C42.6388 13.4097 42.6388 13.2654 42.6388 13.1201C42.4883 13.5264 41.2261 13.0314 41.4823 13.5555ZM33.3881 15.2951C34.4246 15.3339 35.0356 14.954 35.7005 15.005C35.7341 15.5694 34.8074 15.1718 34.6889 15.5847C35.0392 15.9182 35.3914 15.4364 35.8454 15.4394C35.6456 14.8531 36.159 14.9816 36.1346 14.5696C35.0331 14.9459 34.267 14.7781 33.3881 15.2951ZM35.9903 15.2951C36.8458 15.2763 37.2326 15.2579 37.4355 14.8592C37.1508 14.6303 36.1362 14.9031 35.9903 15.2951ZM20.5247 19.3536C20.2782 19.294 20.5552 19.167 20.5247 18.9187C19.8446 18.7678 19.7978 19.2527 19.5126 19.4984C19.6585 19.0625 19.1909 19.2409 18.9347 19.2083C19.1593 19.7233 18.4441 19.296 18.5011 19.6437C18.956 19.478 18.8523 19.8711 19.079 19.9333C19.9254 19.4984 21.1764 19.3959 22.2587 19.2083C22.5301 18.932 22.1727 18.9468 22.2587 18.4843C22.5535 18.7744 22.644 18.5215 22.8366 18.339C22.8687 18.4517 22.8407 18.625 22.9815 18.6286C22.9164 18.2253 23.7694 18.7423 23.7038 18.339C23.1904 18.5638 23.6169 17.847 23.2702 17.9041C23.2504 18.5067 23.1747 17.9337 22.981 17.9041C22.4208 18.2788 21.4092 18.7663 20.6681 18.7744C20.6447 18.9911 20.7209 19.3082 20.5247 19.3536ZM138.467 18.7739C137.837 18.5771 137.945 19.1191 137.6 19.2083C137.577 19.039 137.625 18.7974 137.455 18.7739C137.433 18.9447 137.48 19.1859 137.311 19.2083C137.043 19.0915 136.727 19.0217 136.589 18.7739C136.715 19.2379 136.366 19.2267 136.155 19.3536C135.822 19.398 135.994 18.935 135.721 18.9187C135.681 19.2542 135.335 19.2511 135.144 19.064C135.935 19.7584 137.953 19.5688 138.901 19.4984C138.823 19.2399 138.827 18.8963 138.613 18.7739C138.468 18.9671 138.374 19.2114 138.179 19.3536C138.17 19.2649 138.158 19.1828 138.035 19.2083C138.049 18.935 138.511 19.1079 138.467 18.7739ZM51.3109 23.1225C51.3841 23.3259 52.1365 22.9966 52.3225 22.8339C51.9946 22.9384 51.195 22.5718 51.3109 23.1225ZM60.9942 23.8475C61.8156 23.6074 63.0977 23.8302 63.5963 23.2673C62.6117 23.3422 61.4461 23.2372 60.9942 23.8475ZM162.749 23.9928C162.896 23.4957 161.663 23.6477 161.593 23.848C162.138 23.7359 162.284 24.0249 162.749 23.9928ZM75.8817 24.7173C77.7478 24.6862 80.0358 24.417 81.6635 23.9923C79.5814 24.0611 78.001 24.1764 75.8817 24.7173ZM49.4321 24.4272C49.9847 24.4502 50.4844 24.4206 50.733 24.1386C50.3731 23.849 49.8286 24.3043 49.4321 24.4272ZM74.7263 25.0074C75.0826 24.8815 75.7262 25.0442 75.7379 24.573C75.2514 24.569 74.9728 24.7714 74.7263 25.0074ZM60.5616 26.8914C60.8188 26.8113 61.1609 26.8174 61.2839 26.6028C60.9825 26.5594 61.4984 26.2107 60.9937 26.1674C61.1482 26.7078 60.4528 26.3968 60.5616 26.8914ZM101.899 26.6028C102.299 26.7608 102.933 26.6783 103.344 26.4575C102.85 26.3932 102.364 26.3259 101.899 26.6028ZM98.2855 27.0372C98.7939 27.7107 101.617 26.329 101.754 26.6023C100.851 26.1276 98.5712 27.415 98.2855 27.0372ZM66.6321 27.182C67.783 27.1759 68.9237 27.1606 69.5225 26.6023C68.6131 26.8491 67.2568 26.6482 66.6321 27.182ZM62.4404 28.0523C63.1637 27.9896 66.0338 27.2524 65.62 27.0377C64.2577 27.4099 62.4546 27.3411 61.2844 27.9065C61.5569 27.8606 61.992 28.0911 62.4404 28.0523ZM101.176 29.2112C101.504 29.1062 102.304 29.4728 102.187 28.9216C101.81 28.9782 101.394 28.9961 101.176 29.2112ZM58.6818 29.5014C58.819 29.9791 59.6303 29.8353 59.6944 29.3565C59.1759 29.4096 59.1647 29.7461 58.6818 29.5014ZM91.4922 31.241C91.8785 31.1451 92.3955 31.1803 92.6481 30.9514C92.1703 30.7994 91.513 30.6353 91.4922 31.241ZM57.3809 31.6759C57.2366 31.8696 57.143 32.1134 56.9478 32.2561C57.0749 31.9578 56.5732 31.606 56.5142 31.9665C57.417 32.2566 55.827 32.3851 56.3694 32.691C56.8711 32.5268 57.0363 32.6864 57.8151 32.5462C57.8557 32.2153 57.7805 32.0022 57.5263 31.9665C57.4562 32.1378 57.3718 32.2954 57.2376 32.4009C56.9641 31.9135 57.8913 31.9267 57.3809 31.6759Z" fill="#FF0600"/>
<path fill-rule="evenodd" clip-rule="evenodd" d="M116.931 1.37766C115.609 1.74731 114.813 1.90996 113.462 1.66777C114.131 1.07277 116.422 1.5811 116.931 1.37766Z" fill="#FF0600"/>
<path fill-rule="evenodd" clip-rule="evenodd" d="M126.47 1.66699C126.634 1.69401 126.55 1.81128 126.47 1.81128C126.492 2.07946 126.96 1.89999 127.049 2.10139C126.865 2.41546 125.938 2.25995 126.037 1.81128C126.242 1.82453 126.445 1.83576 126.47 1.66699Z" fill="#FF0600"/>
<path fill-rule="evenodd" clip-rule="evenodd" d="M57.671 27.4717C57.4982 27.901 56.9314 27.6206 56.3691 27.9061C56.515 27.4727 57.2404 27.6216 57.671 27.4717Z" fill="#FF0600"/>
<path fill-rule="evenodd" clip-rule="evenodd" d="M125.025 29.2116C124.262 29.9596 123.211 29.8714 122.423 29.5017C122.38 29.1208 122.984 29.387 122.857 28.9215C125.327 29.1698 131.186 28.6191 134.42 28.9215C131.867 29.4421 128.089 29.3013 125.025 29.6475C125.025 29.5017 125.025 29.3569 125.025 29.2116Z" fill="#FF0600"/>
<path fill-rule="evenodd" clip-rule="evenodd" d="M53.6221 32.5465C53.6984 32.3232 53.7731 32.5378 53.767 32.6913C53.3756 32.7693 53.4071 32.8081 52.9003 32.9809C52.7605 32.2686 53.6094 32.7729 53.6221 32.5465Z" fill="#FF0600"/>
<path fill-rule="evenodd" clip-rule="evenodd" d="M52.179 32.8359C52.0077 33.459 51.4668 32.9547 51.1664 33.2714C50.9066 32.7793 51.7174 33.0343 52.179 32.8359Z" fill="#FF0600"/>
<path fill-rule="evenodd" clip-rule="evenodd" d="M92.6475 33.5605C93.1375 33.8736 91.9861 34.1979 91.7803 33.8507C91.9018 33.5264 92.525 34.0837 92.6475 33.5605Z" fill="#FF0600"/>
</svg>
