<svg width="251" height="50" viewBox="0 0 251 50" fill="none" xmlns="http://www.w3.org/2000/svg">
<path fill-rule="evenodd" clip-rule="evenodd" d="M221.104 1.24151C221.562 1.19077 221.856 1.30606 221.803 1.77271C221.686 1.77271 221.57 1.77271 221.454 1.77271C221.421 1.9244 221.522 1.93986 221.628 1.94979C221.58 2.57089 220.855 1.62985 220.929 2.12684C220.456 1.96577 221.108 1.50683 221.104 1.24151Z" fill="#FF0600"/>
<path fill-rule="evenodd" clip-rule="evenodd" d="M220.406 3.0127C220.912 3.25154 220.61 3.60512 221.104 4.07619C220.61 4.22237 220.652 3.82631 220.231 3.89912C220.378 3.69282 220.461 3.42254 220.406 3.0127Z" fill="#FF0600"/>
<path fill-rule="evenodd" clip-rule="evenodd" d="M106.537 6.02441C107.137 6.69847 106.505 7.2909 106.537 7.97433C106.331 7.59207 106.174 7.16072 106.013 6.73378C106.371 6.68524 106.361 6.2616 106.537 6.02441Z" fill="#FF0600"/>
<path fill-rule="evenodd" clip-rule="evenodd" d="M220.58 7.26541C220.216 7.65815 219.843 7.59858 219.531 7.26541C219.762 6.52075 220.105 7.26596 220.58 7.26541Z" fill="#FF0600"/>
<path fill-rule="evenodd" clip-rule="evenodd" d="M93.4378 8.68287C92.912 8.86214 93.1284 8.28847 93.0887 7.97461C93.3214 7.97461 93.5547 7.97461 93.7869 7.97461C93.7842 8.32543 93.31 8.19856 93.4378 8.68287Z" fill="#FF0600"/>
<path fill-rule="evenodd" clip-rule="evenodd" d="M250.094 16.124C250.427 16.2001 250.534 16.5052 250.968 16.4782C251.112 16.9796 250.723 16.9376 250.794 17.3646C250.202 17.4319 250.518 16.5802 249.746 16.8323C249.821 16.5537 250.295 16.6811 250.094 16.124Z" fill="#FF0600"/>
<path fill-rule="evenodd" clip-rule="evenodd" d="M26.897 18.9581C27.301 19.5538 26.6659 19.8726 26.1982 19.4893C26.3499 19.2295 26.4592 18.9283 26.897 18.9581Z" fill="#FF0600"/>
<path fill-rule="evenodd" clip-rule="evenodd" d="M234.552 23.2111C234.563 23.7103 233.655 23.5382 233.679 23.0335C233.987 22.7047 234.188 23.1102 234.552 23.2111Z" fill="#FF0600"/>
<path fill-rule="evenodd" clip-rule="evenodd" d="M229.661 25.5127C230.057 26.3572 229.806 25.6054 230.536 25.5127C230.567 25.8028 229.879 26.3633 230.361 26.045C230.55 26.0875 230.479 26.3969 230.711 26.3991C230.397 27.2342 229.854 26.222 229.314 26.2226C229.186 25.7388 229.66 25.8641 229.661 25.5127Z" fill="#FF0600"/>
<path fill-rule="evenodd" clip-rule="evenodd" d="M12.5766 25.6907C12.6403 25.9924 12.4402 26.025 12.227 26.0454C12.4777 26.3052 12.3613 26.6064 11.8779 26.5766C12.1411 26.3118 11.9301 25.566 12.5766 25.6907Z" fill="#FF0600"/>
<path fill-rule="evenodd" clip-rule="evenodd" d="M10.1311 25.8682C10.4873 25.9796 10.18 26.7634 10.8298 26.577C10.7847 26.9918 10.0626 26.679 9.95657 26.577C9.93427 26.2587 10.1703 26.203 10.1311 25.8682Z" fill="#FF0600"/>
<path fill-rule="evenodd" clip-rule="evenodd" d="M9.95605 27.2852C10.1306 27.2852 10.3057 27.2852 10.4802 27.2852C9.82718 28.1197 11.5112 27.8108 11.1789 28.8793C10.6004 28.5207 10.0153 28.1705 9.95605 27.2852Z" fill="#FF0600"/>
<path fill-rule="evenodd" clip-rule="evenodd" d="M25.6737 31.0059C26.118 31.023 26.0864 31.665 25.8477 31.8912C25.708 31.7974 25.565 31.7069 25.3241 31.7141C25.1088 31.141 25.8896 31.579 25.6737 31.0059Z" fill="#FF0600"/>
<path fill-rule="evenodd" clip-rule="evenodd" d="M21.4824 32.7783C21.6575 32.7783 21.8321 32.7783 22.0071 32.7783C22.1561 33.3426 21.732 33.3249 21.6575 33.6636C21.1099 33.5417 21.4297 33.1915 21.4824 32.7783Z" fill="#FF0600"/>
<path fill-rule="evenodd" clip-rule="evenodd" d="M6.11378 34.0174C6.32911 33.4448 5.54774 33.8822 5.76415 33.3097C6.25788 33.1618 6.21655 33.5584 6.63741 33.4862C6.63578 34.0163 6.32313 34.2308 5.93869 34.371C5.42974 34.4156 5.33622 34.0383 5.06543 33.8403C5.30957 33.3268 5.92782 33.8899 6.11378 34.0174Z" fill="#FF0600"/>
<path fill-rule="evenodd" clip-rule="evenodd" d="M12.4014 34.7258C13.2888 34.6933 12.4395 35.3238 13.0996 35.4335C12.8739 35.8765 12.2535 35.2476 12.4014 34.7258Z" fill="#FF0600"/>
<path fill-rule="evenodd" clip-rule="evenodd" d="M176.219 38.6236C176.465 38.0554 176.229 39.4151 176.919 38.9783C176.567 39.3649 176.396 39.3914 175.522 39.5106C175.293 38.7466 176.353 39.2905 176.219 38.6236Z" fill="#FF0600"/>
<path fill-rule="evenodd" clip-rule="evenodd" d="M183.38 39.8652C183.634 40.1973 184.523 39.8862 184.777 40.2194C184.701 40.7919 184.19 40.9221 183.904 41.2823C183.524 41.3154 183.348 41.1378 183.38 40.7511C182.871 41.4202 182.521 40.8041 181.808 40.7511C181.777 40.5994 181.876 40.5834 181.982 40.5735C181.982 40.4554 181.982 40.3374 181.982 40.2194C182.585 40.606 183.035 40.5349 183.38 39.8652Z" fill="#FF0600"/>
<path fill-rule="evenodd" clip-rule="evenodd" d="M175.522 40.2188C175.662 40.3125 175.805 40.4024 176.046 40.3958C176.046 40.7505 176.046 41.1046 176.046 41.4582C175.754 41.4582 175.464 41.4582 175.173 41.4582C175.177 41.2867 175.386 41.3214 175.523 41.2817C175.517 41.1096 175.308 41.1443 175.173 41.1052C175.35 40.8713 175.343 40.4515 175.522 40.2188Z" fill="#FF0600"/>
<path fill-rule="evenodd" clip-rule="evenodd" d="M142.863 41.8128C142.489 42.4891 143.131 42.7169 143.911 42.6982C143.353 43.5063 142.715 42.9359 141.991 42.6982C141.908 42.36 142.527 41.9364 141.815 41.9899C142.118 41.4929 142.272 41.8233 142.863 41.8128Z" fill="#FF0600"/>
<path fill-rule="evenodd" clip-rule="evenodd" d="M50.8239 44.6475C51.3154 44.6811 51.5677 44.9569 51.5226 45.5344C51.0207 45.5113 50.6928 45.3127 50.8239 44.6475Z" fill="#FF0600"/>
<path fill-rule="evenodd" clip-rule="evenodd" d="M116.491 44.6481C116.952 44.5951 116.942 45.0193 117.015 45.358C116.39 45.502 116.147 44.9796 116.491 44.6481Z" fill="#FF0600"/>
<path fill-rule="evenodd" clip-rule="evenodd" d="M94.835 45.3571C95.4005 45.1381 94.9687 45.9291 95.5337 45.7112C95.5125 46.1613 95.2792 46.3985 94.835 46.4195C94.9921 45.9004 94.9921 45.8756 94.835 45.3571Z" fill="#FF0600"/>
<path fill-rule="evenodd" clip-rule="evenodd" d="M94.135 45.7109C94.3095 45.7109 94.4841 45.7109 94.6597 45.7109C94.4727 46.3023 94.7146 46.3155 94.4841 46.9515C94.3438 46.8572 94.2008 46.7662 93.961 46.7744C93.9561 46.3558 94.2606 46.2526 94.135 45.7109Z" fill="#FF0600"/>
<path fill-rule="evenodd" clip-rule="evenodd" d="M43.1383 46.9521C43.5771 47.2859 44.0741 46.5511 44.0116 47.4822C43.8925 47.1325 42.9714 47.5942 43.1383 46.9521Z" fill="#FF0600"/>
<path fill-rule="evenodd" clip-rule="evenodd" d="M84.0061 47.6592C84.3525 47.6619 84.2274 48.1435 84.7043 48.0144C84.5896 48.2522 84.3313 48.3448 84.0061 48.3691C84.0213 47.8848 83.7146 48.0106 84.0061 47.6592Z" fill="#FF0600"/>
<path fill-rule="evenodd" clip-rule="evenodd" d="M78.5925 47.8359C78.9361 48.04 79.7605 48.2237 79.2907 48.7224C79.1351 48.3484 78.5457 48.414 78.5925 47.8359Z" fill="#FF0600"/>
<path fill-rule="evenodd" clip-rule="evenodd" d="M191.589 0.532125C192.205 0.584528 190.972 1.01202 191.589 1.06498C191.418 1.56032 191.124 0.806813 190.891 1.24148C190.809 1.79749 191.329 1.74014 191.589 1.94975C191.999 1.55921 192.759 1.32699 192.287 0.532125C193.49 0.917696 194.274 -0.0426484 196.129 0.0014799C196.344 0.0787043 196.488 0.228192 196.479 0.532125C197.464 0.104633 197.556 0.372713 199.098 0.177997C198.594 0.529368 198.438 1.33305 199.098 1.77268C199.647 1.64967 199.327 1.30105 199.272 0.887348C200.297 0.735105 200.28 0.413535 201.369 0.178552C202.016 1.08759 202.967 -0.489454 203.639 0.887348C204.768 -0.273225 207.773 -0.126498 207.481 1.95029C208.331 1.98614 209.033 1.87251 208.878 0.887348C209.11 0.887348 209.343 0.887348 209.576 0.887348C209.485 1.15046 209.317 1.33416 209.226 1.59507C209.232 1.76827 209.441 1.73351 209.576 1.77268C209.863 1.74841 209.863 0.556947 209.576 0.532125C209.97 -0.0426453 210.612 1.2128 210.101 1.59507C210.624 1.12069 211.032 1.33305 211.848 1.41855C211.342 2.73357 213.943 1.2685 214.99 2.48258C215.454 2.58187 215.88 1.75282 216.213 2.30497C216.82 1.37993 216.826 2.21892 217.785 1.95029C217.8 2.23161 217.7 2.62656 217.958 2.6591C218.472 2.50796 217.733 2.21286 217.958 1.77268C218.725 2.06613 218.331 2.96358 218.308 3.72149C218.425 3.72149 218.541 3.72149 218.658 3.72149C219.342 3.22945 218.553 2.68944 218.833 2.30442C219.546 2.41419 218.932 3.04412 219.53 3.01323C219.321 3.54332 219.343 3.7579 219.88 3.89911C219.855 4.33929 219.289 3.95096 219.182 3.89911C219.087 4.79878 219.801 3.90186 219.705 4.60626C219.169 4.73864 219.37 4.1203 218.833 4.25213C216.53 6.2903 212.849 4.42092 209.751 4.96094C209.514 5.01665 209.606 5.40554 209.576 5.67087C209.285 5.67087 208.995 5.67087 208.703 5.67087C208.721 5.33494 209.28 5.5462 209.226 5.13746C209.165 4.90523 208.919 4.85946 208.878 4.60572C208.308 4.79658 208.565 5.82421 207.828 5.84683C207.481 5.43864 207.872 5.6499 208.003 5.31563C208.033 4.93116 207.383 5.23454 207.131 5.13746C206.749 6.62899 207.806 6.19543 207.828 6.91031C208.482 6.71725 209.133 6.8568 209.75 6.91031C209.721 7.11826 209.432 7.06035 209.225 7.08793C209.339 7.26776 209.627 7.27051 209.575 7.61802C210.387 7.31906 210.691 6.50599 212.02 6.7327C212.369 7.94843 214.41 6.12428 214.816 7.61802C214.967 6.82758 215.927 6.8568 216.911 6.91031C216.547 7.69469 217.12 6.63671 217.785 6.91031C217.574 7.14253 217.717 7.18887 217.785 7.44151C217.981 7.05042 218.554 7.03993 219.007 6.91031C218.64 7.56561 219.391 7.54742 219.182 8.505C218.618 8.66387 218.936 7.92637 218.658 7.79564C218.503 7.93409 218.262 7.98649 217.958 7.97325C217.89 8.39743 218.754 7.87507 218.482 8.505C218.026 8.45426 217.73 8.56898 217.785 9.03563C217.422 8.93193 217.189 8.69585 217.086 8.32738C216.812 8.4046 216.937 8.8845 216.386 8.68206C216.367 9.46313 216.145 9.40797 216.386 9.92261C219.833 9.88565 222.744 10.0875 225.469 9.745C225.376 9.88842 225.286 10.0329 225.294 10.2767C225.55 10.1217 225.97 10.1361 225.818 9.56848C227.078 9.69204 228.354 9.82333 229.312 9.03619C229.671 9.2629 230.198 9.31861 230.185 9.92261C230.807 9.46423 231.752 9.9022 232.106 10.2767C232.562 10.0318 233.412 10.1841 233.503 9.56848C234.043 9.7279 234.464 10.0098 234.899 10.2767C235.423 10.0395 235.83 9.68543 236.646 9.745C236.646 9.92262 236.646 10.0997 236.646 10.2767C237.283 10.3694 237.43 9.49898 237.868 9.92261C237.805 10.5365 237.458 11.0738 238.391 10.9856C239.549 9.11507 239.134 12.8869 238.391 14.1749C238.73 14.7183 239.402 14.9218 239.788 15.4144C240.398 14.9863 240.817 15.4177 241.012 14.7056C241.435 15.1606 242.964 14.4976 242.932 15.4144C242.791 15.3211 242.65 15.2296 242.409 15.2368C242.547 15.806 243.044 16.0112 243.282 16.4773C243.608 15.9814 244.943 16.5077 244.854 15.5926C245.677 15.4078 245.733 16.0002 246.077 16.3008C246.732 16.2451 246.786 15.7078 246.601 15.2368C246.914 15.2147 246.97 15.4546 247.299 15.4144C247.384 15.9731 246.763 15.8159 246.949 16.4773C247.145 15.6703 248.24 16.5799 248.521 16.1232C248.811 16.3025 248.712 16.8756 248.871 17.1872C248.73 17.0929 248.588 17.0019 248.347 17.0091C248.331 17.5689 248.813 18.0659 247.997 18.0725C248.484 18.6721 249.364 18.1531 249.744 18.6043C249.496 19.4841 249.333 19.3594 249.22 20.3761C248.606 20.408 248.645 19.7776 248.172 19.6672C247.184 19.7886 247.942 21.6784 246.6 21.439C246.6 21.2024 246.6 20.9663 246.6 20.7307C245.772 20.9525 245.193 21.4313 244.329 21.616C243.169 20.8102 242.73 21.225 241.709 21.616C241.3 21.5697 241.608 20.8377 241.709 20.7307C241.492 20.242 241.202 20.4582 240.837 20.5531C240.934 20.8091 241.108 20.985 241.36 21.0849C241.041 21.9156 239.914 20.8769 240.312 20.5531C240.27 20.3606 239.965 20.4329 239.963 20.199C239.768 20.3606 239.908 20.5277 239.788 21.0843C239.248 20.9315 239.268 20.4831 239.265 21.439C238.717 21.2266 239.204 20.8317 238.74 20.3761C238.404 20.6237 237.671 20.4726 237.868 21.2608C237.562 21.1086 237.261 20.6011 237.344 21.4384C236.778 21.658 237.21 20.8642 236.645 21.0838C236.893 20.5399 236.724 20.2872 236.471 19.8432C235.954 20.0859 235.643 19.809 235.598 19.1355C235.457 19.2287 235.314 19.3203 235.075 19.3114C235.03 20.3965 235.629 19.9287 236.471 20.3755C236.307 20.7837 236.46 20.9464 236.296 21.6155C235.671 21.76 235.43 21.2376 235.772 20.9067C235.144 20.8592 234.931 21.2344 234.375 21.2608C235.195 20.6656 234.588 20.0142 234.724 19.4896C234.096 19.916 233.418 20.29 233.152 21.0843C232.715 21.1146 232.605 20.8118 232.453 20.5526C232.29 20.6827 232.189 20.8747 232.105 21.0843C230.911 20.8747 229.099 20.5244 228.087 20.9072C228.28 20.3518 228.2 20.4086 227.738 20.199C227.409 20.2652 228.426 21.1406 227.389 21.0843C227.443 21.5019 227.996 21.4142 227.913 21.9696C228.367 21.899 228.439 21.4412 228.961 21.4384C228.79 22.2476 228.731 22.0678 228.436 22.679C227.65 22.8064 227.565 22.6211 227.04 22.8555C227.417 22.9581 227.992 24.0641 227.215 23.9179C227.243 24.1264 227.532 24.0679 227.739 24.0961C227.944 24.0663 227.885 23.7728 227.913 23.5638C228.168 24.0376 228.866 24.7271 228.611 25.159C229.394 25.3157 228.891 24.3393 229.658 24.8049C229.272 25.0608 229.197 25.635 229.136 26.2219C228.934 26.7945 228.938 25.7465 228.961 25.5126C228.735 26.052 228.6 26.6814 228.262 27.1073C227.907 27.0554 227.919 26.629 227.564 26.5761C227.607 26.383 227.911 26.4553 227.913 26.2219C227.679 26.1651 227.506 25.9175 227.04 25.6896C226.733 25.7327 226.642 25.9947 226.69 26.3985C226.135 26.0642 225.96 26.4437 225.293 26.2219C224.787 26.3207 225.562 26.4977 225.468 26.752C225.526 27.0902 224.582 25.9737 224.77 27.1067C224.497 26.3841 223.114 26.859 223.023 26.3985C222.638 26.5981 222.06 26.6025 221.976 27.1067C221.524 26.9341 220.593 26.7316 220.579 27.4614C219.969 27.3406 219.07 27.6147 218.658 26.9296C218.214 27.0697 219.149 27.5496 218.658 27.8166C218.43 27.3963 217.549 27.6418 217.609 26.9296C216.889 27.2623 216.554 27.3058 216.212 26.5755C215.68 26.7928 216.467 27.2523 216.038 27.4608C215.808 27.3985 215.762 27.1492 215.514 27.1062C215.847 27.9595 213.575 28.1244 213.244 27.2838C212.793 27.3262 213.482 27.5883 213.244 27.992C212.776 27.8894 212.152 28.516 211.847 27.992C211.202 28.1211 211.921 28.5249 211.497 28.8774C211.865 29.1129 212.013 28.7897 212.544 29.0544C211.714 30.3016 213.889 29.4207 213.419 30.8256C214.628 31.0435 215.444 30.5597 216.212 31.1803C216.449 31.0071 216.439 30.5835 216.736 30.4715C217.129 31.0733 217.67 31.4533 218.482 31.1803C218.391 31.3226 218.301 31.4682 218.308 31.712C219.791 31.5118 220.731 31.2062 221.627 31.535C222.163 31.7093 221.426 32.0077 221.452 32.2438C221.808 32.4115 222.524 32.2521 222.675 31.8891C223.145 31.7666 223.012 32.2559 223.2 32.4203C223.404 32.3922 223.345 32.0976 223.374 31.8891C223.8 32.6718 224.916 32.8555 225.644 32.4203C225.419 32.0033 225.667 32.091 225.469 31.535C225.58 31.6332 225.996 32.2548 226.168 31.712C226.579 31.7143 226.104 32.1947 225.819 32.0667C225.748 32.4931 226.137 32.4523 225.993 32.952C227.89 32.8136 228.212 33.5257 230.36 33.4838C231.014 35.1033 233.307 33.0602 234.551 34.1921C234.756 34.1634 234.698 33.8688 234.725 33.6609C235.007 34.1176 235.537 34.325 236.122 34.015C236.223 34.3851 236.556 34.5214 236.471 35.079C236.107 35.0035 236.009 35.2004 235.773 35.2555C235.196 36.4178 236.796 37.6307 235.598 38.799C235.505 38.8895 235.176 38.718 235.075 38.799C234.515 39.2442 233.174 40.1003 232.629 39.1532C231.161 39.6932 229.27 39.3291 228.088 40.2167C227.8 40.0379 227.899 39.4643 227.739 39.1532C227.121 39.4643 227.31 39.0357 226.69 38.9761C226.349 39.4571 226.133 40.065 225.468 40.2167C225.408 39.8609 225.503 39.6628 225.818 39.6855C225.888 39.3413 225.022 39.4262 225.293 39.8625C224.885 39.8046 225.124 39.0892 224.77 38.9761C224.319 39.0197 225.009 39.2811 224.77 39.6855C224.457 39.707 224.402 39.4676 224.071 39.5084C225.115 38.0031 221.76 38.141 221.276 37.0273C220.544 37.4255 220.783 37.9209 220.404 38.4449C219.992 38.3881 219.747 38.1647 219.181 38.2678C218.924 37.5938 219.962 38.232 219.704 37.559C219.675 37.3516 219.386 37.409 219.181 37.3814C218.829 37.933 218.915 37.9021 218.482 38.4455C218.84 38.7571 219.498 38.5646 219.704 38.4455C219.941 38.5001 219.849 38.889 219.879 39.1537C221.413 38.7571 221 38.0285 222.498 38.4455C222.133 38.8779 222.25 38.8228 222.324 39.5089C222.034 39.5089 221.742 39.5089 221.451 39.5089C221.66 39.2751 221.519 39.2298 221.451 38.9767C220.647 39.0462 220.628 39.9138 219.879 40.0396C219.879 39.8035 219.879 39.5685 219.879 39.3319C219.744 39.7848 219.377 40.0037 218.657 39.8636C218.662 40.0462 218.662 40.5658 218.657 40.749C217.25 41.0821 218.071 37.9705 216.212 38.8002C216.445 37.8293 217.2 38.7671 217.609 38.446C215.886 37.0141 212.549 38.7996 211.146 37.0284C211.051 37.2286 211.008 38.0616 210.796 38.6231C210.148 38.5023 210.34 38.5387 209.574 38.4466C209.172 38.3925 209.381 38.9585 209.051 38.9778C208.981 39.4031 209.846 38.8796 209.574 39.5101C209.036 38.9165 208.462 39.2453 207.827 38.9778C207.592 39.1504 207.601 39.5746 207.305 39.6871C207.15 39.5261 207.273 39.1648 207.13 38.6231C206.881 38.6391 206.635 38.6529 206.605 38.4466C205.985 39.1648 205.216 38.8901 204.161 39.3325C204.292 38.7858 203.558 39.1162 203.811 38.4466C203.159 38.2568 203.313 38.8862 202.763 38.8007C202.244 38.2816 202.655 37.8707 202.239 37.3825C201.592 37.5304 200.68 37.2358 199.969 37.206C200.064 38.3324 199.535 37.4658 199.444 38.6231C199.955 39.2751 200.8 39.3186 200.318 40.5719C199.501 40.6022 199.737 41.0275 198.919 40.7495C198.872 40.2862 198.984 39.9872 199.444 40.0401C199.554 39.5614 198.378 38.9463 199.27 38.8007C199.241 38.5927 198.951 38.6512 198.747 38.6231C198.516 39.5531 197.053 39.429 196.126 39.6871C197.043 40.2459 195.187 39.9933 194.903 40.3954C194.581 40.3689 194.797 39.7952 194.554 39.6871C193.785 39.6149 193.837 40.3761 193.506 40.7501C192.954 40.6596 193.022 39.9409 192.809 39.5101C192.27 39.3777 192.473 39.996 191.934 39.8647C191.86 39.5266 191.435 39.5437 191.586 38.9783C190.101 39.3142 189.951 39.552 189.49 41.2818C188.913 41.3706 188.443 40.814 187.744 41.1053C187.531 40.9917 188.523 40.6105 188.268 39.8653C187.621 39.8868 187.828 40.1223 187.918 40.573C186.913 41.3364 185.934 39.9679 185.298 41.1053C185.15 41.1378 185.134 41.0369 185.124 40.9282C185.007 40.9282 184.891 40.9282 184.774 40.9282C184.869 40.3744 185.504 40.3689 185.474 39.6882C185.72 39.6728 185.968 39.6579 185.997 39.8653C186.286 39.627 186.129 38.9347 186.695 38.9789C186.603 38.836 186.514 38.692 186.521 38.4477C186.278 39.3556 184.764 39.194 184.251 39.3335C183.768 39.4091 184.086 38.6733 183.726 38.6242C183.464 38.7781 183.775 38.8895 183.551 39.3335C183.319 39.3335 183.086 39.3335 182.854 39.3335C182.651 39.071 182.651 38.8868 182.854 38.6242C182.023 38.4306 182.141 39.2012 182.154 39.8653C181.393 40.215 180.512 40.4423 179.535 40.573C179.455 39.889 178.706 39.8736 179.361 39.3335C178.922 38.8928 177.877 39.0671 177.789 38.2701C176.745 38.2833 175.408 38.8046 174.994 37.7383C175.138 38.7395 173.91 39.3683 173.947 40.2189C174.196 40.8256 174.893 40.3016 175.169 40.573C175.098 40.9155 174.369 40.5896 174.645 41.2818C173.951 41.4363 173.768 41.4363 173.072 41.2818C173.683 40.546 173.226 39.5106 173.422 38.6242C172.856 38.4058 173.289 39.1984 172.723 38.9789C172.723 38.7428 172.723 38.5061 172.723 38.2706C171.604 38.4863 170.763 37.8602 169.755 38.6247C169.382 37.8646 168 37.826 168.531 39.1565C168.56 39.365 168.849 39.3071 169.056 39.3341C169.094 40.0346 168.73 41.2388 168.882 41.1059C169.08 41.14 168.978 41.2835 168.882 41.2824C168.882 41.401 168.882 41.5184 168.882 41.637C168.108 40.6767 166.513 41.6222 165.912 40.7517C165.51 42.3337 164.923 40.1847 163.467 40.9288C163.257 40.6954 163.399 40.6497 163.467 40.397C163.095 40.3154 163.135 40.6508 163.117 40.9288C162.889 40.8653 162.843 40.6166 162.593 40.5736C161.913 41.3502 161.361 40.974 160.498 41.9912C158.437 41.6685 158.215 42.1081 156.306 42.1682C155.747 41.9018 156.23 41.4037 155.957 41.1053C155.174 41.6001 155.169 41.2454 154.21 41.4589C153.76 41.5024 154.45 41.765 154.21 42.1682C153.897 42.3784 152.928 41.909 152.813 42.6994C152.48 42.6239 152.373 42.3183 151.941 42.3453C152.273 41.7054 151.891 41.1025 151.241 41.4589C151.392 41.316 151.344 40.9746 151.591 40.9282C151.574 40.4732 150.94 40.6431 150.718 40.3965C150.306 40.445 150.611 41.1803 150.893 41.1053C150.788 41.4247 149.996 40.9668 150.019 40.573C149.188 41.0518 150.441 41.6271 149.494 41.9906C149.666 42.23 149.961 42.3448 150.193 42.5229C150.126 43.0243 149.37 41.8615 149.146 42.5229C148.627 42.2824 149.805 41.904 149.146 41.4583C148.779 41.5091 149.399 41.9321 148.972 42.1677C148.488 42.198 148.371 41.8952 148.621 41.6359C147.996 41.5339 148.09 42.1605 148.097 42.6989C147.328 42.6277 146.692 42.6062 146.002 42.6989C146.046 42.2328 146.361 42.1169 145.652 42.1677C145.691 41.5587 146.172 41.3954 146.699 41.2818C146.111 40.9194 144.551 41.9123 144.08 40.7506C143.842 40.9966 143.704 41.6238 143.906 41.8136C144.238 41.738 144.345 41.433 144.779 41.4583C144.66 42.363 145.534 41.4291 145.652 42.5229C145.177 43.0149 144.066 41.9691 143.557 42.5229C143.194 41.9675 143.053 41.0165 142.508 40.3965C142.054 40.546 142.845 41.1731 142.333 41.4589C141.545 41.225 141.314 41.4655 140.588 41.1053C141.27 40.3921 139.883 40.7782 139.888 40.2194C139.094 40.3833 139.978 41.3293 139.539 41.6365C139.866 42.0143 140.55 42.0276 140.412 42.8765C139.908 42.4534 139.076 42.8346 139.015 43.4088C138.514 43.6559 138.127 42.925 137.967 43.4088C137.251 43.0023 138.523 43.171 138.491 42.8765C138.42 42.6514 136.529 42.7215 137.443 43.053C137.368 43.4496 136.582 43.1253 136.221 43.2306C136.221 43.053 136.221 42.8759 136.221 42.6989C135.184 42.7458 134.444 42.6895 133.775 43.4082C133.891 43.9383 134.148 43.2378 134.474 43.4082C134.319 44.1689 133.461 43.8197 132.553 44.116C132.578 43.6774 132.586 43.256 132.203 43.2306C131.967 43.2858 132.059 43.6747 132.029 43.94C131.538 43.9676 131.591 43.4386 131.331 43.2306C131.189 43.2643 131.156 43.4088 130.981 43.4082C130.591 43.4336 131.208 43.855 130.981 44.2936C130.775 44.0304 130.321 44.0172 130.109 43.7618C129.56 44.6847 128.771 43.8953 127.837 44.116C127.926 43.6741 128.302 43.5241 128.362 43.0525C127.734 43.1837 127.326 43.539 126.616 43.5848C126.685 43.1148 127.368 42.5764 126.44 42.5224C126.627 42.0651 127.446 42.4253 127.49 42.6983C127.752 42.3624 126.873 42.2162 127.314 41.4578C127.031 41.7612 126.334 41.6453 126.266 42.1671C126.02 41.8665 126.422 41.2746 125.393 41.4578C125.446 41.8682 125.766 42.3563 125.218 41.9901C125.068 42.7932 126.091 42.4032 126.093 43.0525C125.589 43.09 125.204 43.0078 125.044 42.6983C125.052 43.0348 125.114 43.181 124.869 43.9394C124.213 44.288 123.507 43.4921 123.646 44.6466C123.324 44.6212 123.54 44.047 123.297 43.9394C123.247 44.4392 122.767 44.8821 121.727 44.8248C121.582 44.1027 121.7 44.2147 121.727 43.4077C121.184 43.5136 120.309 42.9818 119.631 42.6983C119.825 42.2091 119.903 41.7049 119.106 41.813C119.311 41.5477 119.323 41.0882 119.631 40.9277C119.532 40.5581 119.358 40.5515 119.106 40.7506C118.87 40.8058 118.961 41.1941 118.932 41.4583C118.27 41.0606 117.281 41.3651 116.312 41.4583C117.394 41.6012 118.252 41.9713 119.281 42.1677C119.41 42.7121 118.802 42.508 118.931 43.053C119.079 43.6862 119.362 43.0745 119.979 43.2306C119.916 43.5318 120.116 43.5643 120.329 43.5853C120.103 43.9472 119.482 43.908 119.63 44.6477C119.251 44.6786 119.551 44.0189 119.456 43.7629C119.109 43.7646 119.233 44.2461 118.757 44.117C118.831 44.4552 119.256 44.4381 119.105 45.0029C119.246 44.9092 119.389 44.8181 119.63 44.8264C119.726 45.2186 119.296 45.0779 119.281 45.3582C118.991 44.9422 118.353 44.881 118.407 44.117C118.002 44.17 117.589 44.5627 117.709 43.7629C117.494 43.8407 117.35 43.9891 117.359 44.2947C116.45 44.3316 116.344 43.5517 115.787 43.2312C115.13 43.7409 116.138 44.042 116.137 44.4706C115.963 44.4706 115.787 44.4706 115.613 44.4706C115.672 44.8843 115.792 45.2352 116.137 45.3576C115.684 45.5573 114.814 46.2506 114.216 45.5347C114.075 45.5678 114.042 45.7117 113.867 45.7112C114.675 46.115 113.139 46.3676 112.993 45.8871C113.015 45.437 113.247 45.2015 113.692 45.1794C113.506 44.7779 112.595 45.1116 112.12 45.0024C112.12 45.1794 112.12 45.3576 112.12 45.5347C112.247 45.9362 113.115 45.5865 112.993 46.2424C111.847 45.8287 111.068 47.0825 109.849 46.2424C110.118 45.9246 110.873 46.0995 110.898 45.5347C110.087 45.2445 109.646 45.0465 108.627 45.7112C108.653 46.0979 109.067 46.0912 109.5 46.0648C108.998 46.3908 109.106 46.5082 108.976 46.9517C108.12 46.9115 107.414 46.3577 106.532 46.9517C106.633 46.2567 105.813 46.4994 105.658 46.0648C105.31 46.0675 105.435 46.5491 104.96 46.42C105.161 46.6826 105.161 46.8674 104.96 47.1288C104.654 47.4796 105.141 46.409 104.436 46.42C104.054 46.388 103.88 46.5651 103.911 46.9523C103.562 46.9523 103.213 46.9523 102.864 46.9523C102.79 46.2678 103.387 47.0461 103.562 46.42C103.144 45.7305 102.183 46.3786 101.816 46.7747C101.442 46.2005 102.203 46.2082 101.641 45.5347C102.224 45.6428 102.237 46.0537 102.864 45.7112C102.41 44.6554 100.842 45.5606 100.943 43.94C100.836 44.2456 100.115 43.9251 100.069 44.2941C99.9415 43.6559 99.2237 43.6167 98.6718 43.4088C98.3646 43.4513 98.2738 43.7133 98.3233 44.1165C97.941 44.0906 97.9475 43.6703 97.9731 43.2312C97.3233 43.3983 97.0036 43.9003 96.0526 43.7629C96.0074 44.2814 96.4479 44.3068 96.4027 44.8264C95.6181 44.4949 93.6688 44.0415 93.6073 45.3582C93.4453 45.169 92.9635 45.3024 93.0842 44.8264C92.64 44.6334 92.4062 45.656 92.3855 44.8264C91.9434 45.095 92.199 45.9202 92.734 46.2429C92.7862 46.709 92.0565 46.383 92.2104 46.9523C91.8717 46.7046 91.9505 46.035 91.6862 45.7117C90.3073 46.2887 89.1915 45.9947 88.1937 46.0653C87.9566 46.1205 88.0491 46.5099 88.0192 46.7752C87.4156 46.6351 87.2509 46.9407 87.1459 47.3064C86.5712 47.206 86.035 46.4365 85.3999 46.9523C85.4973 47.2077 85.6718 47.3836 85.9236 47.4824C85.743 47.7008 85.2308 47.0251 85.0498 47.8371C85.4483 46.9893 84.3239 47.4493 84.003 47.1288C83.6741 47.6771 83.45 47.8056 83.6534 48.5459C82.8715 48.0958 82.8535 48.1945 81.9069 47.4818C82.6839 47.9413 80.8215 47.9281 80.5094 48.3688C80.6062 48.0053 80.1761 47.9457 80.1603 48.1917C79.8249 47.9634 80.572 47.8255 80.1603 47.3059C80.4154 47.4609 80.8368 47.4465 80.6834 48.0147C80.846 47.8255 81.3283 47.9595 81.2076 47.4818C80.2038 47.0284 80.6008 46.6544 79.4616 46.5971C79.7134 47.1448 79.4323 47.2843 79.1115 47.6594C78.8146 47.7245 78.7825 47.5215 78.7624 47.3053C78.3192 47.6826 78.1892 48.3771 77.3655 48.3688C77.1806 47.6611 76.4335 48.7125 75.794 48.0141C75.5265 48.8162 76.9348 47.9203 76.6673 48.7224C76.5183 48.7549 76.5025 48.6534 76.4922 48.5453C76.0012 48.579 75.7484 48.8531 75.794 49.4312C75.1056 49.2591 75.4716 49.1206 75.4444 48.3683C75.2932 47.8453 75.1828 48.7792 74.7457 48.5448C74.8022 48.1344 74.7179 47.8646 74.5717 47.6589C74.0687 48.2949 73.3107 47.4747 73.3488 48.0141C73.1829 47.6137 72.7854 47.6837 72.4755 48.0141C72.2705 47.9849 72.3282 47.6909 72.3015 47.4813C71.736 47.7769 71.9285 47.7411 71.0786 47.6589C72.2651 47.842 71.1036 48.4262 71.7768 48.8995C71.5517 49.4538 71.4152 48.991 70.9041 49.2536C70.9813 49.4113 71.0569 49.5708 71.2526 49.6083C71.1776 50.0054 70.3924 49.6805 70.0308 49.7853C69.4642 48.8371 68.0195 48.2921 67.2365 48.5453C67.3659 48.1724 67.3659 47.8547 67.2365 47.4813C67.0016 47.5988 66.9108 47.8613 66.8863 48.1912C66.41 48.0241 66.5546 47.2281 65.6639 47.4813C65.5769 48.0423 66.5301 47.548 66.3627 48.1912C65.9184 48.6209 65.5106 48.0141 65.1398 47.836C65.572 48.5663 64.7613 48.1691 64.7907 48.8995C64.1534 49.0567 63.8603 48.5861 63.5683 48.8995C63.6814 49.0787 63.9701 49.0826 63.9174 49.4312C64.1469 49.2034 64.5612 49.2034 64.7907 49.4312C64.6585 49.5901 64.2328 49.5818 63.5683 49.6077C63.6423 49.2376 63.4482 49.1388 63.3938 48.8995C62.831 48.9783 62.3797 49.1703 62.5205 49.9635C61.3574 50.1974 61.3857 49.2232 60.2498 49.4312C60.3857 49.2734 60.4379 49.0307 60.4244 48.7224C60.2547 48.7273 60.2884 48.9403 60.2498 49.0765C60.072 48.9607 60.0693 48.6705 59.7256 48.7224C59.9888 48.227 60.4793 48.4063 60.7734 48.7224C60.7827 47.9518 60.5119 47.9071 60.948 47.4813C59.9671 46.8138 60.2623 44.7773 58.5033 45.0018C58.3717 45.6075 59.2129 45.2269 59.0269 45.8871C58.6387 45.4784 58.3461 45.9484 57.8046 45.8871C58.1689 45.2357 57.7132 45.1044 57.2804 44.8253C57.2467 45.1838 57.6545 45.7139 57.63 46.4194C57.356 46.3428 57.481 45.8618 56.9313 46.0642C57.0759 45.5644 56.685 45.6058 56.7567 45.1789C56.8089 45.6604 55.1119 45.8397 54.8362 45.0018C54.336 45.6169 53.3202 45.7084 52.391 45.8871C52.2142 45.0035 51.8793 44.2814 51.5177 43.5848C50.8255 44.3311 49.9115 44.6488 48.7234 44.4695C48.5445 45.0653 49.2666 44.7464 49.5972 44.8253C48.3547 45.5727 49.1361 46.4387 48.0252 45.5341C47.5505 45.6952 48.4906 45.8629 48.2003 46.4189C47.687 45.9274 47.5037 45.8005 46.8028 46.2418C46.7311 46.6682 47.1215 46.6263 46.9779 47.1283C46.7447 47.1283 46.5114 47.1283 46.2787 47.1283C46.3711 46.9859 46.4614 46.8403 46.4532 46.5971C45.9834 47.0814 45.1645 46.8795 44.8812 46.2418C44.263 46.3229 43.8731 46.6362 43.1352 46.5971C43.0444 46.1569 42.7095 45.9655 42.4365 45.7106C41.8911 46.0339 42.1956 46.6875 42.4365 47.3053C41.8199 48.2976 40.5959 47.0174 39.6422 46.4194C39.4644 46.5353 39.4617 46.8271 39.118 46.7741C39.118 47.1283 39.118 47.4813 39.118 47.8365C38.8662 47.9319 38.6917 47.1459 38.5944 47.6594C38.4856 47.0356 38.3644 45.5948 37.7206 45.0024C37.1828 44.87 37.508 45.6136 36.8473 45.3576C37.0458 44.5804 36.8462 44.7751 36.6733 44.1165C35.688 44.207 35.3063 44.341 34.7517 43.7624C34.8158 44.9665 35.768 44.3261 36.4982 44.6471C35.4537 45.1011 36.7076 45.971 37.546 46.0642C37.7222 46.5987 37.1572 46.3792 36.8473 46.4194C36.8087 47.1674 37.4655 47.2099 37.546 47.8365C36.8881 47.8007 36.4346 47.5497 35.4504 47.6594C36.1486 47.3351 35.3482 46.8116 35.1013 46.4194C34.7544 46.5408 34.7022 46.9595 34.4031 47.1283C34.1296 47.0654 34.5559 46.816 34.228 46.7741C35.9893 45.7509 33.2156 44.1739 33.1797 43.7618C32.885 44.1126 33.0579 44.9362 32.1324 44.6466C32.1439 45.244 32.5315 44.6791 32.8312 45.1789C32.6251 45.2616 32.0857 45.1403 32.3075 46.0642C30.5996 45.7305 31.1945 46.1817 30.0368 45.1789C30.4773 44.3989 29.8362 44.4436 29.6877 43.5842C29.3386 43.5842 28.989 43.5842 28.6399 43.5842C28.7601 44.2301 29.3479 44.4017 29.3386 45.1789C29.1994 45.64 29.0466 44.6725 28.989 44.4695C28.7253 45.1204 27.5611 44.8115 27.7667 43.9394C28.4502 43.935 28.0467 43.5175 28.6399 42.8754C27.9711 42.5246 28.1625 42.219 28.6399 41.8125C28.0663 41.3243 27.4904 41.9404 27.5921 42.3442C25.9304 41.8781 25.1566 43.0232 23.5754 42.8754C23.3373 42.9311 23.4302 43.3194 23.4003 43.5842C22.7119 43.379 20.855 42.8202 20.7811 44.1154C19.979 43.9521 19.9366 44.5594 19.2091 44.4695C19.0291 43.9245 17.7105 43.368 17.8122 44.4695C17.2315 44.528 17.6224 43.5985 16.7638 43.9394C16.6295 43.5004 17.3147 42.9973 16.9384 42.5224C17.114 42.1098 17.5398 41.9504 18.1607 41.9901C18.1096 41.8334 17.6882 41.2145 17.6371 41.6354C17.114 41.519 17.804 41.257 17.6371 40.9271C18.5561 41.1594 18.816 41.2746 19.9073 40.9271C20.1226 40.3535 19.3423 40.792 19.5576 40.2183C20.0247 40.707 19.9372 40.0082 20.4309 40.0407C20.5337 40.6767 20.2281 40.8984 20.0813 41.2813C20.1525 41.8864 20.5532 41.5074 20.2558 42.1671C21.2938 41.7534 22.6712 41.145 22.0023 40.2183C22.0562 39.9773 22.4395 40.0705 22.7011 40.0407C22.6668 39.4852 22.0105 39.5614 22.1774 38.8012C22.6951 38.5585 22.9376 38.9049 23.7489 38.8012C23.7489 39.0379 23.7489 39.274 23.7489 39.5101C24.1839 39.0417 24.5476 39.5305 24.6227 38.6236C24.9196 38.5585 24.9522 38.7615 24.9723 38.9783C25.0077 38.366 25.6922 38.4107 25.671 37.7383C25.9962 37.7631 26.2545 37.8553 26.3698 38.0935C26.677 38.0505 26.7678 37.7874 26.7188 37.3836C27.4594 37.4266 28.1021 37.371 28.2908 36.853C28.4703 37.0262 28.6443 37.2027 28.8145 37.3836C29.3201 37.2474 29.6638 36.9462 29.5137 36.1447C32.1694 36.1811 33.0584 34.4265 34.5777 33.31C34.7332 33.3878 34.8903 33.465 34.9273 33.6642C35.1051 33.5489 35.1078 33.2565 35.4509 33.31C34.8789 31.5477 34.333 32.4777 33.1802 32.7783C33.196 32.5262 33.2096 32.2752 33.0068 32.2465C33.3744 31.9343 33.3102 31.6315 33.8795 31.8919C33.7914 31.4489 33.4151 31.3 33.3553 30.8278C32.7947 32.1732 31.2363 31.1693 30.561 31.5372C30.8671 31.8168 31.4914 31.7749 31.9584 31.8919C31.3239 32.7187 28.9537 31.5615 28.2903 33.3095C28.336 32.7309 28.0826 32.4567 27.5921 32.4231C27.1702 32.5654 28.1397 33.1523 27.5921 33.4865C26.9244 33.2041 27.386 33.2041 26.7188 33.4865C26.7324 32.6459 25.8325 32.7331 25.671 32.0695C26.7417 32.1015 26.6465 31.7975 27.5921 31.5377C27.5584 31.3938 27.417 31.3618 27.417 31.1831C26.9706 31.2619 26.6139 31.4324 26.3692 31.7148C25.9206 31.2868 27.0315 30.7324 26.0196 30.4742C25.6596 30.7158 24.384 31.5763 24.2736 30.4742C23.2002 30.6899 24.7363 31.5361 23.4003 31.3596C23.3818 31.8979 24.31 31.8577 23.7494 32.4231C24.4025 32.6128 24.2475 31.9829 24.7972 32.0689C25.0115 32.7932 24.428 32.9063 24.9723 33.6636C24.7488 33.9063 24.1469 33.9063 23.9245 33.6636C23.875 33.3773 24.0904 33.358 24.0991 33.1319C22.7283 33.2074 22.2041 31.5995 20.6065 32.2465C20.3254 32.3602 20.4478 33.1175 19.7333 32.7783C19.6017 33.3834 20.4434 33.0022 20.2569 33.6636C19.5196 33.5842 19.3151 32.9642 18.3358 33.1319C18.8502 33.4954 19.8524 33.3647 19.9078 34.1948C20.2417 34.2776 20.6593 33.6487 20.6065 34.3713C20.7697 34.2422 20.8708 34.0503 20.9556 33.8407C21.1851 34.0211 21.5994 34.0139 21.8289 34.1948C21.4091 34.9577 19.7469 34.4381 19.2096 34.1948C19.4048 33.9394 19.3978 33.7624 19.0346 33.6636C18.7659 33.7574 19.0231 33.8484 19.2096 33.8407C19.0884 34.1899 18.7436 34.3123 18.3364 34.3713C18.2619 34.0348 17.8378 34.0519 17.9867 33.4865C17.5621 33.6013 17.0885 33.844 17.1135 33.1319C16.9732 33.165 16.9406 33.3095 16.7649 33.3095C17.288 33.705 16.66 34.2417 17.288 34.3713C17.2619 34.8126 16.697 34.4243 16.5898 34.3713C16.5056 34.9301 17.126 34.7729 16.9395 35.4348C16.0064 34.9257 16.2587 35.3692 15.5426 35.7895C15.4153 35.3063 15.8895 35.4332 15.8917 35.0818C15.5208 34.4281 14.8352 35.0603 14.6693 33.8412C15.02 33.9008 15.2158 33.8054 15.193 33.4865C14.8765 32.8456 14.7117 33.7999 14.3197 33.6636C15.1054 32.893 14.1245 32.5179 13.7961 31.8919C13.9537 31.412 14.187 32.2967 14.4948 32.2465C14.9847 32.2438 14.0788 31.7628 14.8444 31.8919C14.349 31.4842 14.8406 30.9922 14.1457 30.6519C13.802 30.6723 12.87 31.5344 12.7482 30.6519C12.3992 31.1323 12.7254 31.4693 11.8755 31.1831C11.7902 31.7424 12.1909 31.8086 12.0506 32.4231C11.7428 32.3806 11.652 32.118 11.701 31.7148C11.0343 31.5697 11.0246 32.0921 10.8277 32.4231C10.9653 32.6001 11.4384 32.358 11.701 32.7777C11.8391 32.3271 12.7711 32.6823 12.7482 32.0689C13.0712 32.0954 12.8554 32.6685 13.0979 32.7777C13.479 32.8092 13.6536 32.6327 13.6215 32.246C14.0772 32.8881 12.9027 33.3189 13.0979 33.8407C12.7716 33.4932 12.4584 33.7861 12.0506 33.8407C11.999 34.3073 12.7281 33.9797 12.5742 34.5489C11.8103 34.528 12.1224 34.892 11.5264 35.2578C11.6613 34.4839 11.0545 33.876 11.5264 33.3095C11.1866 32.5069 10.3345 33.539 9.95445 32.7777C10.0523 32.3773 10.2274 32.9918 10.4786 32.5996C10.6923 31.7931 10.0001 31.9051 10.129 31.1831C9.75055 31.4804 8.85118 31.5124 9.25573 32.2465C9.21441 32.556 8.27046 32.3221 8.38247 31.8919C8.52384 32.0143 8.86151 32.1671 8.90664 31.8919C9.03171 31.4103 8.08286 32.0182 8.20792 31.5372C7.69462 31.797 8.62552 32.5091 7.68429 32.4225C7.65167 32.2719 7.75226 32.2559 7.85829 32.246C6.65823 31.7198 5.48101 31.3684 4.36523 31.5372C4.68115 31.2338 4.31195 30.8405 3.84215 30.8278C3.9982 30.5233 4.55065 30.2724 4.36523 31.006C4.90518 30.9619 5.35214 30.8262 5.76267 30.6513C5.67894 30.0876 5.2124 29.9094 5.23904 29.2348C4.5376 29.1725 4.77903 30.0666 4.36578 30.2972C3.98461 30.2707 3.99113 29.8498 4.01669 29.4113C3.58278 29.3848 3.29241 29.5029 3.14397 29.7654C3.62628 29.4946 3.42726 31.2145 2.96888 31.5377C2.92429 30.9205 1.7748 30.9161 1.74653 31.3601C1.76991 30.7076 0.416513 30.9205 1.22181 30.4748C0.957546 30.2111 0.455664 30.1896 0 30.1207C0.106575 29.1311 0.510038 29.4207 0.523632 28.5254C0.794964 28.7819 1.20441 28.8989 1.57198 29.0572C1.59972 28.793 1.72804 28.4979 2.09562 28.1713C2.28539 28.216 2.2147 28.5243 2.44525 28.526C2.1315 27.8282 3.93295 27.4288 4.01669 28.526C4.66375 28.5045 4.45604 28.2678 4.36578 27.8188C5.01828 27.8337 4.86385 28.0157 5.41413 27.8188C5.26351 27.6749 5.31027 27.3323 5.0645 27.2865C5.891 26.6345 6.59135 26.8353 7.3352 26.7537C7.56956 26.8712 7.66037 27.1337 7.68483 27.463C7.01928 27.6059 7.14815 26.9445 6.63648 26.9313C6.49511 26.9655 6.46303 27.1089 6.28685 27.1084C6.23846 27.5121 6.32926 27.7741 6.63648 27.8183C6.4043 28.173 5.86109 28.2116 5.41413 28.3484C5.31027 29.328 5.51364 29.5382 6.28685 30.2977C6.70228 30.0699 7.12042 29.8438 7.50975 29.5895C7.7615 29.6882 7.93605 29.8653 8.03338 30.1207C8.26828 29.8741 8.9844 29.2111 8.55701 28.8801C8.63531 28.1796 9.30902 29.0947 9.43028 28.3484C9.9376 28.5955 9.38134 29.2232 9.25573 29.4119C9.30956 29.7869 9.86256 29.226 9.77991 28.8801C10.1361 29.3528 10.0975 29.3992 10.8272 29.2359C11.0985 29.8653 10.2334 29.3418 10.3035 29.766C10.7679 29.777 11.7091 29.8096 12.2246 29.2359C12.0767 28.9717 11.6624 28.9789 11.3513 28.8801C11.2959 28.056 11.8935 27.8944 12.0506 27.286C12.3633 27.2623 12.4187 27.5022 12.7488 27.4625C12.9119 27.3334 13.0141 27.1398 13.0984 26.9308C12.9706 26.7658 12.7809 26.6627 12.5748 26.5766C12.7009 26.174 12.7308 25.672 12.9239 25.3355C13.8733 25.6819 14.1631 24.2919 15.1946 24.6284C14.9037 24.9797 15.2104 24.8534 15.1946 25.3355C15.7612 24.6559 16.6529 24.9075 17.4653 24.8054C17.487 24.4872 17.2516 24.4309 17.2902 24.0966C17.5496 24.8038 18.9943 23.47 19.9105 24.2731C20.1623 24.2329 19.9709 23.7436 20.2596 23.7408C20.5881 23.2962 20.1558 23.9113 20.2596 24.2731C20.8251 23.7254 21.1128 23.6901 21.8316 23.9179C22.3433 23.7679 21.7272 23.3492 21.8316 23.0331C22.1454 23.0557 22.1997 22.8163 22.5303 22.8561C22.5793 23.1423 22.3656 23.1611 22.3558 23.3878C22.9599 23.3448 23.6483 21.7164 24.2774 22.8561C24.9457 22.7071 25.4954 22.4385 25.6743 21.7937C26.4225 22.0513 27.0739 20.9238 28.119 21.4384C28.3061 20.7765 27.6856 20.9343 27.7699 20.3755C28.6736 19.8609 29.3403 20.1571 29.3419 21.2603C29.7747 21.2867 30.1891 21.2939 30.2146 20.9061C30.1749 20.1201 29.356 20.124 29.3419 19.3109C28.4936 18.9838 28.5709 19.6877 27.7699 19.3109C27.7145 18.9011 27.7976 18.6319 27.9445 18.4256C27.5345 18.4824 27.2887 18.7058 26.7216 18.6032C26.5835 17.9904 26.9151 17.8547 27.0712 17.5397C27.3083 17.5949 27.2164 17.9832 27.2463 18.248C27.7944 18.3313 27.7079 17.7708 28.119 17.7173C27.9477 17.2203 27.6536 17.9744 27.4203 17.5397C27.9619 17.1188 28.1473 17.2573 27.9445 16.2997C28.6225 16.0222 29.8563 15.7972 30.7388 16.4762C30.7366 16.8287 30.2619 16.7018 30.3892 17.1861C30.9829 17.4001 32.1884 17.5132 32.4848 16.6527C32.2988 16.4884 32.431 16.0002 31.9617 16.1221C32.2254 15.8584 32.7284 15.8364 33.1835 15.768C33.1063 16.6737 33.9855 16.608 34.0568 17.3626C33.8828 17.3626 33.7082 17.3626 33.5331 17.3626C33.4614 17.7896 33.8523 17.7477 33.7082 18.2474C34.4107 18.6275 34.3694 18.5359 34.7555 19.1338C34.4575 19.7571 34.4042 18.6881 34.0568 18.7792C33.824 19.403 34.8213 20.1085 34.93 20.5503C35.6124 19.8211 35.7897 20.6447 36.502 19.8415C36.4574 19.4742 35.7348 19.7935 35.6288 19.4874C35.7293 19.3804 36.0371 18.6468 35.6288 18.6021C36.5009 18.3897 35.7625 17.6451 36.8511 17.7168C36.8511 17.4217 36.8511 17.126 36.8511 16.8303C36.0779 16.9147 35.9827 16.5871 35.4537 16.8303C35.6597 16.0245 36.6586 17.1188 36.6766 16.1221C37.2138 16.2462 37.0121 16.2462 37.5493 16.1221C36.9718 16.8673 37.9756 17.1657 38.7722 17.1861C38.2437 17.7405 39.3719 18.5061 38.9462 18.9573C39.5525 19.0991 39.6177 18.6931 40.1691 18.7803C39.6966 18.1961 39.472 17.361 38.9462 16.8309C39.3736 16.7106 39.1833 15.5898 39.6454 15.0591C39.882 15.1138 39.7906 15.5032 39.8194 15.7685C40.2387 15.3079 40.5165 14.7034 41.3914 14.7045C41.7052 15.154 41.0592 15.7089 41.7411 15.9456C42.0146 15.4078 41.5709 14.9488 42.0901 14.3503C42.5496 14.6432 42.6785 14.2339 43.138 14.5279C42.9226 14.7817 42.5377 14.8628 42.0901 14.8815C41.9281 15.5782 42.6975 15.3283 42.4398 16.1221C42.1576 16.3681 41.5393 16.2716 41.392 16.6527C41.467 17.0499 42.2527 16.7255 42.6149 16.8303C42.3501 17.3842 42.716 17.7559 43.4876 17.7168C43.0896 17.2931 42.8851 16.6737 42.4403 16.2991C42.442 15.9467 42.9166 16.0735 42.7894 15.5909C43.1766 15.4927 43.0384 15.9285 43.313 15.945C43.9068 15.6091 43.0145 15.3234 43.139 14.881C43.8334 14.8859 43.8405 15.587 44.1863 15.945C43.7785 16.0024 43.4647 16.1568 43.139 16.2991C43.1167 16.6169 43.3527 16.6737 43.313 17.0074C43.8269 16.7663 45.0427 15.528 44.3614 15.2351C44.7948 14.796 45.6523 14.8247 46.2825 15.2351C46.1242 15.7172 45.6707 15.0553 45.4097 15.0586C45.158 15.1579 44.9834 15.3349 44.8856 15.5909C45.0074 16.0575 45.6805 15.966 45.7588 16.4757C45.9317 15.6836 47.2232 14.8247 47.8545 15.5909C48.1307 15.2798 48.0883 14.646 48.2046 14.1738C48.5635 14.2781 48.9311 14.5131 48.5532 14.8815C48.7772 14.6388 49.378 14.6388 49.6015 14.8815C49.6015 14.5864 49.6015 14.2919 49.6015 13.9968C50.6847 13.6404 51.3002 13.7513 51.8722 12.7562C52.4073 13.1225 53.3061 12.3309 53.4442 13.2874C53.5856 13.2537 53.6177 13.1098 53.7928 13.1109C54.0494 12.4363 53.0125 13.0767 53.2691 12.4021C54.6372 12.3745 55.6306 12.7832 56.7616 12.7567C55.9901 13.1616 57.0884 13.4931 56.5871 14.1744C56.7567 14.1694 56.7225 13.9565 56.7616 13.8197C57.313 13.7336 57.3783 14.1385 57.984 13.9973C58.0558 13.5709 57.6654 13.6117 57.81 13.1114C58.114 12.9476 58.7474 13.1175 58.6827 12.5802C59.2172 12.4523 59.1966 12.8858 59.7305 12.7567C59.4527 12.0788 59.4527 12.5482 59.7305 11.8709C60.1769 12.1864 60.4271 12.7005 61.128 12.7567C60.5353 11.6888 61.3248 12.551 61.4776 11.5168C61.799 11.781 62.0904 12.0766 62.3503 12.4021C62.6048 11.8913 63.2366 11.7655 63.3987 11.1626C63.5091 11.2608 63.9261 11.8814 64.0974 11.3391C64.4508 11.7468 64.8929 12.0673 65.1447 12.5797C65.6221 12.7082 65.4965 12.2272 65.8439 12.2245C65.5699 11.9702 65.7058 11.3016 65.1447 11.3391C65.7602 10.9453 67.1761 11.6955 68.1135 11.5162C68.3109 11.3562 68.1038 11.1196 68.4637 10.8074C69.2522 11.1885 70.3087 11.2983 70.7344 12.0468C70.8758 12.0132 70.9084 11.8698 71.0835 11.8703C71.1531 11.4456 70.288 11.9685 70.5593 11.3391C71.0139 11.4439 71.1874 11.268 71.0835 10.8074C72.3842 10.4163 73.7539 10.6276 74.402 10.2756C74.4705 9.85091 73.606 10.3749 73.8778 9.74389C74.7261 9.85917 74.8582 9.59606 75.4498 9.38976C76.0991 9.44051 75.9234 10.3269 76.6727 10.2751C77.2442 9.96343 77.9223 9.91158 78.4187 9.92096C78.2752 9.38039 77.9282 9.49567 78.2436 8.85802C78.8678 9.11066 78.9723 9.89061 79.6411 10.098C79.9999 10.0478 79.9901 9.62476 80.1652 9.38922C81.542 9.70529 82.3169 9.86139 83.6583 9.74335C83.9432 9.77369 84.0101 8.58443 83.4832 8.85858C83.9612 8.38475 85.0508 8.79403 85.0546 9.38976C86.0225 8.68867 87.6913 9.71851 88.5477 8.68095C88.7511 8.83043 89.0159 8.91539 89.421 8.85858C89.421 9.03454 89.421 9.21214 89.421 9.38976C89.577 9.31143 89.7342 9.23422 89.7706 9.03454C89.8467 10.2414 90.6836 9.2447 91.6911 9.03454C92.3991 8.88726 94.026 9.31254 94.1364 8.14921C94.1288 8.80727 95.4403 8.12605 95.3593 8.85858C96.2266 8.99317 96.2907 8.31634 96.9313 8.68095C97.7991 7.56175 97.6969 6.52585 99.0274 5.84627C99.1715 6.34713 98.7811 6.30519 98.8523 6.73158C98.9698 7.10061 101.521 7.31023 100.948 5.84627C101.295 6.14138 101.17 5.82917 101.647 5.84627C101.527 6.32231 102.008 6.18881 102.171 6.37746C102.226 6.78895 102.142 7.0576 101.995 7.2639C103.343 6.45249 104.85 8.41123 105.314 6.2004C105.725 6.34988 105.169 6.97706 105.139 7.2639C105.109 7.64781 105.759 7.34387 106.012 7.44095C105.937 7.71896 105.463 7.59209 105.663 8.14921C108.482 9.25738 110.056 6.96051 112.823 7.2639C112.829 6.54902 112.346 6.33058 112.299 5.67031C112.632 6.00182 112.615 5.56495 113.172 5.67031C112.736 5.83745 113.642 6.58156 112.823 6.55508C113.648 7.49226 114.875 6.65491 115.792 6.91031C115.655 7.52148 115.955 7.68862 116.316 7.79508C116.687 7.43654 117.194 7.45365 117.364 6.55508C118.133 6.62734 118.808 6.60307 118.587 5.67031C118.697 5.7685 119.115 6.38905 119.285 5.84627C119.59 6.55012 120.186 5.86612 120.334 6.73158C121.265 6.4955 121.977 6.03712 122.429 5.31507C122.977 5.23123 122.891 5.79111 123.302 5.84627C123.374 5.41988 122.983 5.46069 123.128 4.96039C123.44 4.98355 123.497 4.74362 123.826 4.78333C123.294 5.37686 124.303 4.93778 123.826 4.78333C123.92 4.60461 125.661 4.9273 125.223 5.31563C126.107 5.44525 126.105 4.6686 126.621 5.31563C126.918 4.48326 125.8 5.0845 126.097 4.25157C126.833 4.81807 127.383 4.30122 128.192 4.07561C128.101 5.05305 129.244 4.78003 129.24 5.67087C129.382 5.51807 129.719 5.5644 129.764 5.31563C129.736 5.10712 129.447 5.16559 129.24 5.13746C130.081 4.63329 130.715 4.84952 130.986 4.25213C130.931 4.66307 131.015 4.93171 131.161 5.13746C132.578 4.32219 133.352 4.52022 134.655 4.60572C134.906 4.38949 134.919 3.93 135.178 3.72095C136.332 4.48988 137.797 2.95256 139.021 2.65801C139.386 3.96641 141.133 2.30994 141.815 3.36626C142.3 3.26863 142.303 2.68172 142.513 2.30332C143.593 2.67565 144.797 2.43405 146.182 2.30332C146.825 2.4324 146.106 2.83672 146.531 3.1881C146.974 2.45888 147.777 2.0926 148.451 1.5934C149.032 2.57636 150.017 2.28235 151.07 1.94808C150.996 2.31821 151.191 2.4175 151.245 2.65689C151.771 2.40812 152.513 2.39764 152.642 3.01158C152.865 2.97241 152.871 2.48314 152.642 2.48038C152.982 2.25698 153.67 2.90842 153.516 3.36515C153.891 3.21512 154.133 2.92883 154.039 2.30221C155.175 2.49086 156.003 2.73467 157.008 2.65689C156.856 3.22505 157.462 3.02426 157.533 3.36515C157.674 3.27138 157.816 3.18037 158.057 3.18754C157.935 2.64366 157.935 2.84775 158.057 2.30277C158.523 2.67069 158.887 2.30222 158.58 1.77103C159.132 1.68112 159.348 1.24976 159.977 1.23983C160.986 2.52617 163.232 1.54597 163.995 1.41634C164.386 1.61051 164.869 1.70979 165.217 1.94808C167.048 0.857563 168.653 1.46653 170.631 0.885143C170.235 1.15763 170.235 1.32037 170.631 1.59286C171.493 0.740634 172.655 0.87081 174.298 0.708087C174.255 0.901148 173.951 0.827788 173.95 1.06277C174.265 1.08097 175.732 0.749458 176.395 0.52992C176.523 1.40421 177.341 1.57796 178.141 1.77047C178.471 1.51398 178.914 1.37497 178.839 0.707531C179.142 1.6414 180.196 1.81073 180.585 2.65634C180.622 2.16431 180.894 1.77764 181.284 1.23927C182.574 1.48418 182.614 0.463168 183.554 0.352848C183.554 0.470891 183.554 0.588937 183.554 0.707531C185.472 0.0930454 187.141 1.19459 189.667 0.352848C190.074 0.61872 189.933 0.786405 189.842 1.23927C190.256 0.480816 190.948 0.794688 191.589 0.532125ZM71.7811 11.8714C72.5718 12.0242 72.8692 11.6762 73.004 11.1637C72.6201 10.9613 72.2906 10.7064 71.6071 10.8085C71.4799 11.3502 71.7849 11.4544 71.7811 11.8714ZM185.651 1.77268C185.772 1.17695 185.292 1.19128 185.127 0.887348C184.787 1.22934 184.943 1.97125 185.651 1.77268ZM193.685 2.6591C194.221 2.5543 194.921 2.61332 194.907 1.95029C194.286 2.20954 193.86 1.38104 193.685 1.77323C194.197 1.92437 193.457 2.21892 193.685 2.6591ZM168.186 2.6591C168.393 2.8472 169.291 2.73853 169.409 2.30442C168.963 1.87251 168.454 2.37723 168.186 2.6591ZM205.735 6.02388C205.722 6.89817 206.42 6.37471 206.958 6.37857C207.04 5.57654 206.141 5.89591 205.735 6.02388ZM196.304 6.91142C196.785 7.37807 197.265 6.84523 197.353 6.37912C196.902 5.94391 196.513 6.56997 196.304 6.91142ZM191.415 7.4426C192.183 7.45584 192.916 7.43048 193.16 6.91142C192.627 7.03939 192.647 6.60527 192.112 6.73379C192.241 7.33724 191.468 7.02614 191.415 7.4426ZM198.923 7.26499C199.138 7.36318 199.264 8.42723 199.622 7.79619C198.648 7.33174 199.997 7.43323 199.972 6.91142C199.47 6.87336 199.085 6.95609 198.923 7.26499ZM99.8996 7.61912C101.131 7.37421 100.471 8.71736 100.074 8.86023C100.297 9.10238 100.898 9.10238 101.121 8.86023C101.205 8.0069 100.798 7.65277 100.423 7.26499C100.421 7.55789 99.9388 7.36428 99.8996 7.61912ZM202.067 8.15086C202.76 8.32296 202.61 7.63788 202.766 7.26555C202.218 7.23962 202.166 7.72006 202.067 8.15086ZM103.392 8.15086C103.356 8.65999 103.436 9.05052 103.741 9.2138C103.659 8.37757 103.96 8.88395 104.265 9.03674C104.106 8.29704 103.792 8.28324 104.44 7.79673C104.203 7.74102 104.107 7.54466 103.741 7.61967C103.725 7.89823 103.764 8.23305 103.392 8.15086ZM196.479 8.15086C196.712 8.15086 196.945 8.15086 197.177 8.15086C197.316 7.46908 196.34 7.46908 196.479 8.15086ZM182.857 9.745C182.857 9.44934 182.857 9.15423 182.857 8.86023C182.566 8.86023 182.274 8.86023 181.983 8.86023C181.943 9.49071 182.234 9.78637 182.857 9.745ZM190.191 9.92317C190.84 9.55745 190.649 10.1769 191.415 10.1002C191.363 9.18623 190.447 9.31585 190.365 8.86023C190.369 9.27669 190.066 9.38094 190.191 9.92317ZM86.4515 10.6309C87.0921 10.5001 87.4221 11.0672 87.8484 10.6309C88.0148 9.39086 86.494 9.75161 86.4515 10.6309ZM90.2931 10.8085C90.0365 10.135 91.074 10.7732 90.8173 10.1002C90.3154 10.0881 89.5096 10.5382 90.2931 10.8085ZM67.2408 12.5808C66.7079 12.3635 67.4958 11.904 67.0657 11.6944C66.5323 11.5675 66.429 11.8758 66.0174 11.8714C66.4279 12.8401 65.4693 12.7976 65.3187 13.6426C66.2767 13.5963 66.5144 12.3282 67.2408 12.5808ZM69.1619 13.2885C69.5594 13.2389 69.8182 13.331 69.8601 13.6426C70.2956 13.5538 70.5784 13.3089 70.9084 13.112C70.4544 12.6354 70.381 13.3288 69.8601 13.2885C69.4147 13.0629 70.0221 12.4208 69.685 12.4032C69.6703 12.8599 68.9373 12.5891 69.1619 13.2885ZM62.1758 14.1755C62.7054 13.8434 62.6657 14.0354 63.2236 13.8208C63.2992 13.0359 62.9321 12.6994 62.3498 12.5813C62.6342 13.4617 61.6956 13.636 62.1758 14.1755ZM64.0968 13.6426C64.4568 13.5367 65.3094 13.93 65.1441 13.2885C64.6814 13.2907 64.1159 13.1903 64.0968 13.6426ZM58.3336 13.6426C58.2303 14.7701 59.7963 13.6559 58.8573 13.4661C58.8279 13.673 58.5816 13.6586 58.3336 13.6426ZM73.7022 14.1755C73.2835 14.245 73.7995 13.3679 73.1791 13.6426C72.7545 13.8506 73.4118 14.7558 73.7022 14.1755ZM49.7761 15.9472C49.8609 15.7376 49.962 15.5451 50.1252 15.4149C50.3813 15.6687 50.6787 15.5506 50.6488 15.0602C50.3448 15.0735 50.1061 15.0216 49.9501 14.8832C49.918 15.3476 48.9365 15.6212 49.7761 15.9472ZM230.186 15.4149C230.245 16.0415 230.644 15.8739 231.058 15.7702C231.182 15.1557 230.447 15.1336 230.186 15.4149ZM235.949 16.3008C236.509 16.4553 236.495 16.0272 236.648 15.7696C236.411 15.7128 236.314 15.5175 235.949 15.5926C235.949 15.8286 235.949 16.0642 235.949 16.3008ZM216.039 16.832C216.749 17.1089 217.831 16.7862 218.31 16.3008C217.819 16.2473 216.24 16.062 216.039 16.832ZM222.152 17.0091C222.513 17.0571 222.194 17.794 222.676 17.7184C223.151 17.4636 223.81 17.7808 223.898 16.832C223.372 16.4955 222.415 16.2903 222.152 17.0091ZM37.0262 18.4267C37.5275 18.9143 37.9538 18.3257 38.4231 18.2496C38.4519 16.9578 36.9979 17.3797 37.0262 18.4267ZM237.696 18.0725C237.926 18.0753 237.855 18.3837 238.045 18.4267C238.083 18.2132 238.238 18.3175 238.394 18.4267C238.347 17.9082 239.094 17.7692 238.394 17.5414C238.347 17.906 237.62 17.5833 237.696 18.0725ZM32.4853 19.8438C33.0606 19.413 32.543 18.9683 32.6604 18.0725C32.0786 18.3809 31.8856 17.9826 31.0884 18.0725C31.4272 18.7918 31.456 19.8261 32.4853 19.8438ZM233.853 19.312C233.129 19.2646 233.173 19.5453 232.631 19.312C232.562 20.2122 233.808 20.1041 233.853 19.312ZM226.518 20.5526C225.869 19.675 225.016 20.6055 224.422 20.0214C224.304 21.2713 226.097 21.6105 226.518 20.5526ZM31.263 21.0843C31.5669 21.097 31.8056 21.0451 31.9617 20.9072C32.0139 20.4406 31.7197 20.3253 31.263 20.3761C31.263 20.6121 31.263 20.8471 31.263 21.0843ZM36.8517 20.7302C37.3856 20.6006 37.3649 21.0358 37.9 20.9067C37.8516 20.3198 37.0099 20.3121 36.8517 20.7302ZM178.664 22.1472C178.595 22.6873 179.124 23.0497 178.491 23.2113C178.387 22.8434 178.154 22.6067 177.792 22.5019C177.569 22.8059 176.961 22.7215 176.919 23.2113C177.167 23.2527 177.213 23.5025 177.442 23.5649C177.612 23.3845 177.788 23.2074 177.967 23.0337C178.387 23.7861 179.04 23.5246 179.538 23.0337C179.348 23.871 180.14 23.54 180.237 23.2113C180.387 23.9681 181.051 23.4137 181.634 23.9184C181.579 23.2069 180.748 23.2819 180.761 22.5019C180.994 22.5019 181.228 22.5019 181.459 22.5019C180.897 20.9657 179.326 23.6504 178.664 22.1472ZM224.597 22.8561C224.561 22.6575 224.402 22.5814 224.247 22.5014C224.321 23.4584 223.724 21.9746 223.55 22.679C223.799 23.0756 223.909 23.6117 224.422 23.7408C224.122 23.7325 223.975 23.8782 223.898 24.0966C224.129 24.0988 224.058 24.4066 224.247 24.4507C224.552 24.2362 225.173 24.8065 225.121 25.1596C225.274 24.6355 225.259 25.6952 225.819 25.3355C225.836 25.0575 225.796 24.7221 226.168 24.8054C225.835 23.9135 226.327 23.4843 226.518 22.6795C225.986 22.5097 225.815 21.9746 224.947 22.1472C224.995 22.5516 224.904 22.813 224.597 22.8561ZM29.517 22.8561C29.5241 23.0993 29.4343 23.2455 29.3419 23.3878C29.6323 23.3878 29.9237 23.3878 30.2146 23.3878C30.2021 23.0795 30.2538 22.8368 30.3897 22.6795C29.9688 22.6067 30.0102 23.0022 29.517 22.8561ZM191.938 23.3878C192.174 23.443 192.271 23.6399 192.637 23.5643C192.445 23.1131 193.234 22.6531 192.462 22.6795C192.616 23.2471 192.008 23.0464 191.938 23.3878ZM24.1023 23.5643C24.5384 23.4386 24.8206 24.3437 25.1507 23.7408C24.9391 23.459 24.2083 22.9316 24.1023 23.5643ZM187.747 23.7408C187.708 24.0767 187.944 24.1325 187.921 24.4502C188.546 23.5329 189.622 25.4944 190.018 24.2731C189.534 24.042 188.851 24.1446 189.318 23.3878C188.839 23.9477 188.311 23.4043 187.747 23.7408ZM27.5954 25.6907C27.7025 25.2572 28.2718 24.3801 27.4203 24.4507C27.3284 24.8369 26.9983 25.597 27.5954 25.6907ZM188.271 25.8678C188.238 26.7763 187.982 27.2959 187.048 27.6401C187.467 29.3892 189.007 27.8453 189.318 26.9308C188.77 26.8966 189.172 25.8981 188.794 25.6907C188.765 25.897 188.518 25.8827 188.271 25.8678ZM22.88 26.5766C23.142 26.7802 23.6157 27.1988 23.7527 26.5766C23.241 26.6246 23.1051 25.8662 22.88 26.5766ZM191.938 27.6401C192.583 27.4344 193.14 27.8155 193.16 27.2854C192.673 27.2446 192.499 27.0675 192.288 26.399C192.167 26.8408 191.821 26.0703 191.416 26.2225C191.468 27.2038 190.967 26.8243 190.541 26.5766C190.684 27.65 191.794 26.73 191.938 27.6401ZM194.557 27.6401C194.56 27.4046 194.864 27.4774 194.907 27.2854C194.29 27.0025 193.952 27.4653 193.51 26.9302C193.516 27.5154 194.007 27.6076 194.557 27.6401ZM58.1585 27.9937C58.3064 27.4741 58.7202 28.099 59.0318 27.9937C59.0443 27.6848 58.9926 27.4421 58.8573 27.2854C58.4603 27.254 57.8394 27.8834 58.1585 27.9937ZM207.132 27.9937C207.461 27.954 207.518 28.1934 207.83 28.1702C207.879 27.767 207.79 27.5044 207.481 27.4619C207.439 27.7151 207.194 27.7604 207.132 27.9937ZM208.529 28.3478C208.574 27.9805 209.297 28.2998 209.402 27.9937C209.364 28.3285 209.599 28.3842 209.577 28.7025C208.927 29.0037 209.301 28.5977 208.704 28.5249C208.83 29.0081 208.357 28.8812 208.355 29.2348C208.808 29.3049 208.881 29.7621 209.401 29.7649C209.475 29.5431 209.628 29.403 209.927 29.4108C209.927 29.0561 209.927 28.7025 209.927 28.3473C210.526 28.5287 211.366 28.056 210.974 27.8172C210.428 28.1222 208.228 27.2237 208.529 28.3478ZM28.6437 29.5889C28.5078 29.6275 28.4404 29.7368 28.4692 29.9425C28.5763 29.9949 29.1413 30.3843 29.1674 29.9425C28.9363 29.7489 28.635 28.7301 28.2941 29.2353C28.4898 29.2723 28.566 29.4306 28.6437 29.5889ZM200.67 29.9425C200.893 29.2447 200.192 29.4825 199.972 29.2353C199.892 29.7886 200.124 30.0247 200.67 29.9425ZM203.639 29.9425C203.607 29.1272 204.212 30.2784 204.688 29.7654C204.243 29.5685 203.887 29.2778 203.29 29.2353C203.329 29.5481 203.114 30.1212 203.639 29.9425ZM18.8627 30.8278C19.0846 31.6437 18.5452 31.6872 18.3391 32.0689C19.4135 32.2135 19.233 31.086 19.5614 30.4737C18.9949 28.9375 16.3555 31.5168 16.9422 30.4737C16.4077 30.3457 16.4284 30.7798 15.8938 30.6513C15.9537 31.754 16.8856 30.9023 17.2907 31.5366C17.5452 31.3679 18.226 30.7318 18.3391 31.0054C18.0243 31.4947 18.5773 30.7964 18.8627 30.8278ZM20.4347 31.3596C21.0551 31.3397 21.1378 30.7743 21.1334 30.1201C20.8724 30.1504 20.4885 30.0567 20.4347 30.2972C20.9654 30.5162 20.246 30.9073 20.4347 31.3596ZM44.1863 31.006C43.2766 32.2151 40.9205 31.2084 39.9951 32.5996C39.677 32.2874 39.2028 31.5444 38.7733 31.8919C38.497 32.5858 39.2268 32.2587 39.2969 32.5996C38.4954 32.6454 38.4535 32.7888 37.7249 32.5996C37.6955 32.8649 37.788 33.2549 37.5504 33.3095C37.5602 33.0039 37.4155 32.8555 37.2013 32.7777C37.3753 33.6035 36.6912 33.5583 36.5026 34.0172C36.0431 33.8208 35.9142 33.8594 35.4542 34.1943C35.4874 34.7508 35.7788 35.0459 36.3275 35.0807C36.514 33.8854 37.993 34.8589 38.4231 34.726C38.4622 34.8622 38.4285 35.0746 38.5982 35.0807C38.6536 34.4927 38.6243 33.9902 38.2491 33.8401C38.5683 33.577 38.8401 33.3647 39.1218 33.8401C38.5944 33.5671 38.6623 34.7563 38.9467 34.726C39.4383 34.2588 39.857 33.8837 40.3447 33.8401C40.3719 34.0486 40.3137 34.3421 40.5187 34.3708C40.678 33.8865 41.1315 34.6857 41.392 34.1943C41.4442 33.8462 41.156 33.8429 41.0423 33.6631C41.5877 33.7806 42.815 33.625 43.487 32.9543C43.834 33.3624 43.4435 33.1517 43.3125 33.486C43.7431 33.5097 44.1548 33.5125 44.3609 33.3095C44.1988 32.3767 44.9514 32.3718 45.0596 31.7143C44.9242 31.6745 44.7148 31.7098 44.7105 31.5372C45.1455 31.6271 45.7637 31.5317 45.7577 32.0689C46.5353 32.2074 46.8056 31.8328 47.5043 31.8919C47.5086 30.4908 46.3097 31.3965 45.7577 30.6519C45.4272 31.5355 44.9236 31.1924 44.1863 31.006ZM28.9923 31.5372C29.5409 31.6199 29.7057 31.3165 29.8655 31.006C29.6295 30.9497 29.5322 30.7534 29.1668 30.8278C29.1124 31.0689 28.9183 31.1665 28.9923 31.5372ZM191.763 37.029C192.253 36.826 192.671 36.826 193.159 37.029C192.985 36.4376 193.403 36.4487 193.859 36.4983C193.799 35.6538 192.542 35.2153 192.636 35.6119C193.423 36.4796 191.95 36.5623 191.763 37.029ZM156.485 37.3831C157.074 37.1139 157.243 37.5144 157.533 37.029C157.633 37.6142 158.192 37.2832 158.58 37.206C158.619 37.5204 158.404 38.0941 158.93 37.9159C158.951 37.3902 159.064 37.4222 159.977 37.5601C160.003 36.5011 158.868 37.6556 158.755 36.6754C160.094 36.3582 160.961 36.4569 162.596 36.6754C162.237 36.0703 161.877 36.3869 161.899 35.6113C160.094 36.2882 156.088 34.8926 156.485 37.3831ZM150.023 35.9655C150.139 36.655 150.976 36.8094 151.595 36.4983C151.465 35.5898 150.797 35.9175 150.023 35.9655ZM151.419 37.029C151.66 37.0218 151.803 37.1117 151.945 37.206C152.182 36.7074 151.895 36.2021 152.468 36.8519C152.588 36.2578 152.175 36.2038 151.769 36.1436C151.919 36.7085 151.495 36.6908 151.419 37.029ZM217.611 36.3212C217.61 36.6936 218.312 37.2397 218.484 36.8524C217.726 36.2964 219.369 36.7046 219.356 36.3212C218.523 35.9963 218.392 36.5353 217.611 36.3212ZM215.515 37.029C215.077 36.6809 214.553 36.6152 214.293 37.206C214.724 37.2297 215.134 37.2336 215.34 37.029C215.34 37.1277 215.483 37.2308 215.515 37.029ZM148.625 37.5607C148.955 37.6004 149.01 37.3616 149.324 37.3831C148.979 37.5072 149.367 38.3732 148.975 38.4471C148.644 38.4863 148.589 38.248 148.276 38.2701C148.49 39.584 147.529 38.729 147.228 39.3335C147.602 39.5443 148.204 39.525 148.45 39.8653C148.508 38.8024 149.325 39.9872 149.847 39.5106C149.586 38.7158 150.005 38.4786 150.372 37.9165C150.716 38.5933 151.236 38.1349 152.119 38.8012C152.537 38.5762 152.761 38.1542 153.515 38.2695C153.681 37.9397 152.992 37.6776 153.515 37.5607C153.805 37.5276 153.64 38.8184 154.038 38.093C153.407 37.7196 154.387 37.521 154.388 37.206C153.838 37.4046 153.993 37.222 153.341 37.206C153.098 37.4322 153.263 38.0742 152.816 38.093C152.438 37.6991 151.864 37.3114 151.419 37.9165C150.77 37.4642 149.167 36.543 148.625 37.5607ZM160.327 38.4471C160.985 38.5243 161.123 38.0726 161.374 37.7383C161.144 37.7361 161.216 37.4283 161.026 37.3831C160.878 37.5899 160.794 37.8586 160.851 38.2695C160.6 38.0715 160.425 38.0792 160.327 38.4471ZM197.353 38.2695C197.643 38.2695 197.934 38.2695 198.226 38.2695C198.347 37.6732 197.866 37.6887 197.701 37.3831C197.832 37.9286 197.222 37.724 197.353 38.2695ZM155.611 38.2695C156.34 38.547 157.381 38.8487 157.883 38.093C157.28 38.0538 157.055 37.6313 156.486 37.5607C156.74 38.2458 155.173 37.9838 155.611 38.2695ZM184.078 38.8012C184.421 38.8542 184.425 38.5613 184.602 38.4471C184.648 38.7235 184.985 38.5712 185.127 38.4471C185.137 38.1426 184.992 37.9926 184.777 37.9165C184.505 38.1702 184.17 38.3605 184.078 38.8012ZM190.891 38.6236C191.195 37.8696 191.942 39.0274 192.637 38.9783C192.411 38.2778 193.211 38.617 192.987 37.9165C192.438 38.3528 190.254 37.3577 190.891 38.6236ZM136.227 39.5101C135.811 39.6204 135.414 39.7478 135.353 40.2183C135.929 40.5195 136.225 40.2282 136.575 39.8642C136.164 39.7136 136.721 39.087 136.75 38.8007C136.19 38.9557 136.387 38.3418 136.052 38.269C135.546 38.7808 136.391 38.8239 136.227 39.5101ZM165.043 40.2189C164.608 40.2895 164.526 39.1129 164.868 38.9783C165.1 39.8377 166.726 39.2933 167.488 39.1554C166.421 38.5767 165.304 38.8818 164.344 38.4471C164.424 39.2856 164.192 38.7102 163.645 38.8012C164.332 39.4814 163.793 39.7224 163.821 40.2183C164.109 39.5448 164.969 40.6739 165.043 40.2189ZM42.4409 40.0407C42.6236 39.1471 41.6606 39.4152 41.3931 38.9778C41.4877 39.5917 41.6459 40.1389 42.4409 40.0407ZM126.27 41.2813C126.533 40.8973 127.144 40.8681 127.144 40.2183C126.904 40.226 126.76 40.1339 126.62 40.0407C127.028 40.8813 125.727 40.8885 126.27 41.2813ZM187.571 40.3959C187.819 39.8305 186.527 39.948 186.524 40.2189C186.73 40.423 187.141 40.4191 187.571 40.3959ZM54.4909 40.9277C55.1103 40.8306 54.9205 41.5549 55.5393 41.4583C55.6921 40.8907 55.0863 41.0921 55.0151 40.7506C54.9879 40.5416 55.045 40.2476 54.8411 40.2189C55.0401 40.776 54.566 40.6497 54.4909 40.9277ZM59.556 40.7501C60.0497 40.6022 60.0089 40.9988 60.4292 40.9271C60.4592 40.4836 60.1612 40.3717 59.9056 40.2183C59.8637 40.4715 59.6174 40.5178 59.556 40.7501ZM133.432 40.7501C133.461 41.0154 133.37 41.4032 133.605 41.4578C133.514 40.995 134.618 40.8549 133.955 40.3954C133.978 40.7148 133.782 40.8113 133.432 40.7501ZM41.5671 40.9277C41.8536 41.7551 40.6405 41.3248 40.5192 42.1677C41.0706 42.2543 41.1359 41.8483 41.7421 41.9906C41.6486 41.3629 41.8895 41.0777 42.2658 40.9277C42.2826 41.4307 43.4365 41.2598 43.4881 40.9277C43.2396 40.8847 43.194 40.6353 42.9645 40.5724C42.8351 41.1941 42.0923 40.4897 41.5671 40.9277ZM56.2375 41.2813C56.2299 41.0374 56.319 40.8929 56.4115 40.7501C56.1755 40.6938 56.0781 40.4974 55.7138 40.5724C55.6839 41.0165 55.9814 41.1279 56.2375 41.2813ZM136.051 40.9277C136.076 40.5316 136.491 41.1566 136.924 40.9277C137.156 40.1516 135.379 40.7225 136.051 40.9277ZM113.871 40.9277C113.466 41.653 114.2 41.9123 114.744 42.1677C114.677 41.5091 115.452 41.7049 115.268 40.9277C114.969 41.4898 114.504 41.6172 113.871 40.9277ZM31.6121 42.1677C32.0949 42.4473 32.3962 41.7082 31.9617 41.6359C31.5642 42.1528 31.6322 41.4109 31.7866 41.1047C30.7769 40.8438 30.4892 42.401 31.263 41.9901C30.8361 41.9697 31.2265 41.4048 31.4381 41.4578C31.3984 41.7943 31.6349 41.8494 31.6121 42.1677ZM111.251 42.6989C111.115 42.7386 110.906 42.7044 110.902 42.8759C111.435 43.0039 111.538 42.6956 111.95 42.6989C111.711 42.3475 111.348 41.5896 111.775 41.1047C110.912 41.1687 110.712 42.1373 111.251 42.6989ZM32.4853 42.1677C33.1422 41.685 32.8915 42.0673 33.3586 42.5229C33.2281 41.9763 33.9611 42.3061 33.7088 41.6365C33.0013 41.8814 33.1558 41.252 32.6604 41.2818C32.5615 41.6497 32.1612 41.8538 32.4853 42.1677ZM48.5526 41.813C48.6168 41.2173 47.7957 41.5173 47.5054 41.2813C47.4891 41.829 48.0328 41.8102 48.5526 41.813ZM122.778 41.813C122.651 42.6498 123.409 42.5902 124 42.6983C123.895 42.0392 124.378 41.5096 124.7 41.813C124.729 40.8631 123.463 41.8742 122.778 41.813ZM152.468 42.1677C152.415 41.7595 152.972 41.9702 152.992 41.6359C152.756 41.5802 152.659 41.3833 152.294 41.4583C152.323 41.7231 152.231 42.1125 152.468 42.1677ZM23.5792 42.3448C24.0159 42.3751 24.1257 42.0723 24.2779 41.813C24.0409 41.7573 23.9435 41.5604 23.5792 41.6359C23.5792 41.872 23.5792 42.1087 23.5792 42.3448ZM107.584 41.9901C107.451 42.6564 108.04 42.5902 108.282 42.8754C108.255 42.4352 108.556 42.3271 108.631 41.9901C108.408 41.7479 107.807 41.7479 107.584 41.9901ZM72.1302 42.8759C72.6767 42.9581 72.91 42.722 72.8289 42.1677C72.2819 42.0849 72.0492 42.3221 72.1302 42.8759ZM122.253 42.8759C122.127 42.3927 122.601 42.5196 122.603 42.1677C122.37 42.1677 122.137 42.1677 121.904 42.1677C121.856 42.5709 121.947 42.834 122.253 42.8759ZM30.7393 43.0525C31.4082 43.1402 31.6632 42.8092 31.7866 42.3448C31.1292 42.2681 30.9916 42.7187 30.7393 43.0525ZM55.5387 43.4082C56.226 43.3255 56.4457 43.78 56.7611 43.2306C55.691 43.0365 55.8008 42.7237 54.8406 42.5229C54.8205 42.8572 54.2631 42.6448 54.3164 43.053C54.7492 43.5097 54.939 42.9333 55.1891 42.6989C55.2805 42.9603 55.4479 43.1451 55.5387 43.4082ZM39.2964 45.5341C38.9897 45.4905 38.8989 45.2285 38.9467 44.8253C39.1702 44.5782 39.8026 44.7475 39.82 44.2936C38.7847 44.5501 39.3306 43.3735 39.1213 42.8759C39.018 43.256 37.9152 43.5263 38.4225 43.94C38.4595 43.7409 38.6167 43.6625 38.7722 43.5848C38.6765 43.8424 38.9761 44.5004 38.5976 44.4695C38.5585 44.3333 38.5927 44.1204 38.4225 44.1154C38.1441 44.5285 38.6009 45.3786 38.9462 45.7106C38.9886 45.3791 39.2349 45.811 39.2964 45.5341ZM39.6465 43.2301C39.8706 43.4733 40.6905 43.539 40.6938 43.0525C40.4225 42.7618 39.8787 42.9774 39.6465 43.2301ZM49.601 43.5848C49.9658 43.6873 50.0991 44.0233 50.6482 43.94C50.3503 43.6515 50.465 42.9449 49.9495 42.8759C49.6271 42.9024 49.8424 43.4761 49.601 43.5848ZM48.7277 43.5848C48.3166 43.5296 48.4031 42.9692 47.8545 43.0525C47.5864 43.6962 48.4944 44.0349 48.7277 43.5848ZM42.0912 44.116C42.6198 44.3371 42.996 43.5274 42.6154 43.4082C42.5692 43.6829 42.2315 43.5301 42.0912 43.4082C42.0912 43.6438 42.0912 43.8804 42.0912 44.116ZM113.871 43.94C114.51 43.9008 114.541 43.6962 115.094 43.94C115.23 43.1126 113.855 43.3729 113.871 43.94ZM48.029 44.6471C47.3743 43.9152 47.0943 43.5064 45.7583 43.7624C45.7023 44.1783 45.4826 44.4276 45.5837 45.0024C45.9948 44.998 46.0981 45.308 46.6321 45.1794C46.7012 44.875 46.3727 44.726 46.6321 44.6471C46.7925 44.9582 47.1775 45.0388 47.6794 45.0024C47.5527 44.2268 48.0268 45.1441 48.029 44.6471ZM53.4437 44.2936C53.3077 45.089 54.5344 44.8805 54.6655 44.4695C54.0336 44.1496 54.9738 43.9819 54.8406 43.5848C54.5491 43.5848 54.2582 43.5848 53.9668 43.5848C54.4181 44.3366 54.162 44.1353 53.4437 44.2936ZM52.3953 44.6471C52.5699 44.6471 52.745 44.6471 52.9184 44.6471C52.8988 44.1965 52.8863 43.737 52.3953 43.7624C52.5177 44.3074 52.5177 44.1033 52.3953 44.6471ZM57.984 44.4695C58.0014 44.1286 58.6664 44.7773 58.6827 44.1154C58.3358 44.1132 58.4609 43.6316 57.984 43.7613C58.1509 44.0922 57.4609 44.3542 57.984 44.4695ZM36.8517 44.2936C37.6118 44.1375 37.8184 44.4464 38.0745 43.9394C37.6776 44.068 36.7119 43.6189 36.8517 44.2936ZM30.7393 44.8253C31.3173 44.8529 31.4968 45.1905 31.7866 44.6471C31.5049 44.4028 31.3565 44.0205 30.7393 44.116C30.7393 44.3526 30.7393 44.5876 30.7393 44.8253ZM41.0434 46.2418C41.2223 46.0686 41.3969 45.891 41.5671 45.7106C40.9553 45.7321 40.5916 44.5859 39.9951 45.1789C40.6204 45.2534 40.3779 46.2093 41.0434 46.2418ZM84.1803 46.5971C84.7414 46.3384 85.2303 46.0074 85.5777 45.5341C84.6071 45.0939 84.4962 45.9291 83.6572 45.3571C83.369 45.6323 83.7165 46.0471 83.8318 46.4194C84.3516 46.2446 84.4473 45.9147 84.1803 46.5971ZM66.7161 47.3053C67.1283 47.1327 67.8237 47.2479 67.7639 46.5971C67.4822 46.351 67.2114 46.0946 66.8906 45.8871C66.5916 46.7554 67.5578 46.6517 66.7161 47.3053ZM73.8768 47.4818C74.8011 46.9953 75.1344 48.2684 75.6233 47.4818C74.8191 47.1172 74.6059 46.153 73.3531 46.2424C73.0856 47.1045 73.8594 46.9093 73.8768 47.4818ZM68.6377 47.4818C69.0743 47.7168 69.1836 46.7818 69.3359 47.3059C69.2804 47.5453 69.0879 47.644 69.1613 48.0147C70.1292 47.591 69.169 48.4096 69.8595 48.5459C69.6246 47.6799 70.68 48.0147 70.7333 48.3694C70.7877 47.9551 71.0748 47.6368 70.7333 47.3059C69.6948 47.7604 69.4789 46.8161 68.4626 46.7747C68.3555 47.3423 69.0912 47.0163 68.6377 47.4818ZM76.322 47.8365C76.322 47.6004 76.322 47.3638 76.322 47.1283C75.6494 46.9887 75.6494 47.9766 76.322 47.8365Z" fill="#FF0600"/>
<path fill-rule="evenodd" clip-rule="evenodd" d="M237.171 35.4343C236.622 35.3482 236.709 36.0454 236.298 35.6113C236.194 34.8573 237.034 35.0603 237.346 34.7266C238.039 34.9042 236.577 35.5093 237.52 35.4343C237.478 35.6571 237.174 35.6124 237.171 35.4343Z" fill="#FF0600"/>
<path fill-rule="evenodd" clip-rule="evenodd" d="M108.457 6.20215C109.135 6.84587 107.56 6.69915 107.584 7.26564C107.055 6.77417 108.06 6.3417 108.457 6.20215Z" fill="#FF0600"/>
<path fill-rule="evenodd" clip-rule="evenodd" d="M239.617 13.1128C239.214 13.4228 238.977 13.7758 239.268 14.3528C238.821 14.3329 238.921 13.7587 238.917 13.2893C239.231 13.3119 239.287 13.0736 239.617 13.1128Z" fill="#FF0600"/>
<path fill-rule="evenodd" clip-rule="evenodd" d="M34.581 15.415C34.9518 15.4713 34.3325 15.9628 34.2319 16.1239C34.1764 16.4361 35.2101 16.4405 34.9306 15.9473C35.3216 16.0229 35.0013 16.8194 35.1052 17.1879C34.5674 16.847 33.9753 16.5613 33.8828 15.7703C33.9899 15.5237 34.5554 15.7427 34.581 15.415Z" fill="#FF0600"/>
<path fill-rule="evenodd" clip-rule="evenodd" d="M228.788 22.68C229.256 22.0462 229.581 23.0424 230.186 22.8565C230.199 22.1935 229.432 22.3215 229.66 21.4395C230.426 22.2067 230.543 21.4808 231.932 21.6165C231.726 22.4687 231.19 22.3672 231.932 23.0336C232.166 22.9166 232.258 22.6546 232.282 22.3242C233.029 22.8074 232.083 22.8841 231.932 23.3883C231.804 23.8715 232.28 23.7446 232.282 24.0971C232.732 24.0816 232.464 23.3381 233.154 23.5648C233.154 23.8014 233.154 24.037 233.154 24.2736C232.554 24.3519 232.176 24.2041 231.758 24.0971C231.815 24.6862 232.471 24.6724 232.455 25.336C231.743 25.2052 232.423 26.4839 231.582 26.223C232.187 25.4242 230.69 24.1098 231.058 23.5648C230.248 23.3254 229.724 22.7936 228.788 22.68Z" fill="#FF0600"/>
<path fill-rule="evenodd" clip-rule="evenodd" d="M15.7198 44.116C15.0216 43.908 15.7083 42.9129 16.2439 42.876C16.5098 43.6642 15.5458 43.5887 16.0694 44.116C15.9786 44.8154 15.8106 43.416 15.7198 44.116Z" fill="#FF0600"/>
<path fill-rule="evenodd" clip-rule="evenodd" d="M96.4065 45.887C96.2771 46.1092 96.2466 46.6134 96.4065 47.1281C96.2575 47.1606 96.2418 47.0591 96.232 46.9515C96.1988 46.7497 96.0569 46.8523 96.0569 46.9515C95.6839 46.8407 95.8938 45.8599 96.0569 45.711C96.7154 45.8472 96.8926 45.4942 97.4543 45.5345C96.7763 46.2438 97.1433 46.149 97.4543 46.5974C96.7126 46.7579 96.5751 46.3073 96.4065 45.887Z" fill="#FF0600"/>
<path fill-rule="evenodd" clip-rule="evenodd" d="M51.8718 45.7109C52.1062 45.8268 52.197 46.0893 52.2209 46.4192C51.6717 47.1666 51.2547 46.2681 50.649 46.5968C50.2466 45.8505 51.7593 46.5797 51.8718 45.7109Z" fill="#FF0600"/>
<path fill-rule="evenodd" clip-rule="evenodd" d="M172.378 39.8652C172.626 40.5106 172.693 40.242 172.726 41.1052C172.45 41.1196 172.061 41.0197 172.028 41.2817C171.745 40.9193 171.556 40.461 170.981 40.3964C170.552 40.5525 170.339 40.9271 169.584 40.7511C170.239 39.841 171.276 40.0258 172.378 39.8652Z" fill="#FF0600"/>
</svg>
