<svg width="234" height="243" viewBox="0 0 234 243" fill="none" xmlns="http://www.w3.org/2000/svg">
<circle cx="13.7818" cy="13.7818" r="13.7818" transform="matrix(0.998363 -0.0571995 -0.0571995 -0.998363 206.481 242.011)" fill="#77524A"/>
<circle cx="23.626" cy="23.626" r="23.626" transform="matrix(0.998363 -0.0571995 -0.0571995 -0.998363 163.402 212.925)" fill="#77524A"/>
<path d="M86.5243 32.411C77.4487 20.956 64.709 31.9645 55.1309 36.0397C51.6727 37.508 47.4164 38.5625 43.6323 38.3698C40.1622 38.1926 36.9912 37.0539 34.272 34.8866C32.3899 33.3816 30.1722 31.0518 27.5372 31.5036C25.7668 31.8056 23.8191 34.3323 23.3509 35.9385C22.7593 37.9779 23.3123 40.1524 24.4731 41.8658C30.856 51.3275 42.7212 47.631 51.1675 43.7877C54.6601 42.2004 58.1817 40.5446 61.5528 38.7052C65.2191 36.6985 69.0111 33.8656 73.3325 35.0972C76.5988 36.0298 77.3541 39.5798 79.3048 41.8497C81.8905 44.852 86.3489 42.8668 87.5394 39.4894C88.2116 37.5623 87.8204 34.0415 86.5243 32.411Z" fill="#77524A"/>
<path d="M145.697 173.02C146.986 172.077 148.517 171.622 149.854 170.801C151.672 169.753 152.348 167.6 153.197 165.738C154.082 163.798 154.742 161.789 156.136 160.104C157.486 158.498 158.989 157.133 160.674 155.908C162.654 154.516 165.186 153.711 167.573 153.106C169.977 152.492 173.098 151.896 175.401 153.126C176.361 153.639 177.103 154.507 177.233 155.628C177.317 156.384 177.092 157.917 176.523 158.477C174.793 160.214 171.279 160.991 168.908 161.453C166.546 161.914 164.175 162.376 161.784 162.772C159.922 163.063 157.935 163.603 156.658 165.038C155.324 166.493 154.584 168.667 153.949 170.525C153.289 172.526 151.794 174.751 150.217 176.287C149.09 177.313 146.331 178.482 145.048 177.361C143.394 175.951 144.158 174.052 145.697 173.02Z" fill="#77524A"/>
<path d="M162.898 35.1116C162.511 34.2646 161.355 31.4813 162.555 31.0031C163.345 30.6904 165.179 32.2315 165.793 32.5808C167.292 33.4392 168.913 34.2822 170.573 34.7721C174.972 36.0661 179.62 36.1089 183.974 37.606C187.847 38.9301 191.161 41.2722 193.602 44.6171C197.63 49.9351 198.322 60.5751 189.816 61.2128C185.493 61.5357 185.243 56.4609 184.36 53.4112C183.867 51.7096 183.316 50.003 182.453 48.4564C180.765 45.4445 178.002 43.9565 174.927 42.7622C172.837 41.946 170.712 41.2238 168.693 40.2197C166.386 39.0649 164.021 37.6127 162.916 35.1356C162.906 35.1194 162.898 35.1199 162.898 35.1116Z" fill="#77524A"/>
<path d="M187.983 124.561C185.234 134.237 175.691 138.92 167.912 143.485C156.411 150.236 147.598 159.474 136.959 167.454C127.543 174.503 116.131 179.778 104.177 178.19C96.6725 177.191 91.1921 171.547 84.7216 168.032C78.1235 164.449 71.8011 166.106 64.885 167.037C57.8376 167.976 54.9009 164.601 51.0347 158.948C45.5135 150.866 37.8312 146.476 29.8198 141.662C19.5628 135.898 18.6703 121.76 23.2432 111.42C26.9897 102.473 17.8503 95.2248 19.5624 85.5668C20.3278 80.2332 20.5679 75.9409 19.0726 70.4026C18.2805 68.2252 16.3198 65.2038 16.3491 62.5531C16.2882 54.3003 29.9606 50.9431 36.0814 48.9295C46.3743 45.5403 56.3145 39.4471 66.3819 35.2854C84.4644 27.8065 96.7315 12.1454 115.625 6.88468C124.269 4.47579 131.64 8.46574 137.169 15.4024C142.727 22.3877 146.93 30.4783 152.974 37.0429C158.878 43.4568 166.814 47.1135 172.918 53.2819C177.062 57.4651 179.208 62.1221 180.397 67.0679C182.031 73.8768 181.843 80.9489 182.48 87.8901C183.59 100.077 191.508 112.175 187.983 124.561Z" fill="#77524A"/>
<path d="M10.4662 101.932C10.3817 100.457 9.13928 99.3334 7.68591 99.4167C6.23254 99.5 5.1266 100.758 5.21106 102.233C5.29553 103.707 6.53796 104.831 7.99132 104.747C9.44421 104.656 10.5501 103.397 10.4662 101.932Z" stroke="#77524A" stroke-width="2" stroke-miterlimit="10"/>
<path d="M158.134 4.89149C158.05 3.41722 156.808 2.2934 155.354 2.37667C153.901 2.45994 152.795 3.7183 152.879 5.19257C152.964 6.66685 154.206 7.79064 155.66 7.70737C157.112 7.61577 158.218 6.35744 158.134 4.89149Z" stroke="#77524A" stroke-width="2" stroke-miterlimit="10"/>
<path d="M35.3035 159.441C35.1694 157.1 33.1885 155.308 30.8812 155.441C28.5739 155.573 26.8105 157.579 26.9446 159.92C27.0787 162.26 29.0597 164.052 31.367 163.92C33.6743 163.788 35.4376 161.781 35.3035 159.441Z" fill="#77524A"/>
<path d="M201.63 122.91C201.513 120.869 199.792 119.313 197.781 119.429C195.777 119.543 194.238 121.286 194.355 123.327C194.471 125.359 196.192 126.923 198.203 126.808C200.215 126.693 201.746 124.951 201.63 122.91Z" fill="#77524A"/>
<path d="M196.7 99.2676C196.644 98.2931 195.819 97.5549 194.867 97.6094C193.906 97.6645 193.179 98.5 193.235 99.4662C193.291 100.441 194.107 101.179 195.068 101.124C196.029 101.069 196.756 100.242 196.7 99.2676Z" fill="#77524A"/>
<path d="M77.183 17.3267C77.1272 16.3522 76.3022 15.614 75.3498 15.6685C74.3891 15.7236 73.6626 16.5591 73.7179 17.5253C73.7737 18.4998 74.5904 19.2385 75.5511 19.1835C76.5036 19.1289 77.2388 18.3013 77.183 17.3267Z" fill="#77524A"/>
<path d="M67.5883 181.004C67.5029 179.513 66.2431 178.374 64.7733 178.458C63.3035 178.542 62.1821 179.818 62.2675 181.309C62.3529 182.8 63.6127 183.94 65.0825 183.855C66.5523 183.771 67.6737 182.495 67.5883 181.004Z" fill="#77524A"/>
<path d="M180.84 22.8862C180.64 20.6998 178.727 19.088 176.564 19.2871C174.409 19.4858 172.823 21.4235 173.023 23.6182C173.222 25.8045 175.135 27.4164 177.298 27.2089C179.453 27.0102 181.039 25.0725 180.84 22.8862Z" fill="#77524A"/>
<path d="M181.3 175.567C181.211 174.018 179.9 172.84 178.381 172.927C176.853 173.014 175.693 174.334 175.782 175.884C175.871 177.433 177.174 178.612 178.701 178.524C180.229 178.437 181.389 177.117 181.3 175.567Z" fill="#77524A"/>
</svg>
