<svg width="50" height="50" viewBox="0 0 50 50" fill="none" xmlns="http://www.w3.org/2000/svg">
<g clip-path="url(#clip0_1695_6496)">
<path d="M6.07863 46.471C6.07863 47.6473 5.13758 48.5885 3.96119 48.5885C2.78491 48.5885 1.84375 47.6474 1.84375 46.471V27.3753C1.84375 26.199 2.7848 25.2578 3.96119 25.2578C5.13748 25.2578 6.07863 26.1989 6.07863 27.3753V46.471Z" fill="#80C3FF"/>
<path d="M3.96143 25.2578C5.13771 25.2578 6.07887 26.1989 6.07887 27.3753V46.471C6.07887 47.6473 5.13782 48.5885 3.96143 48.5885" fill="#2A8BF4"/>
<path d="M3.96139 49.1768C2.47139 49.1768 1.25586 47.9612 1.25586 46.4712V27.3755C1.25586 25.8854 2.47139 24.6699 3.96139 24.6699C5.45139 24.6699 6.66692 25.8854 6.66692 27.3755V46.4712C6.66692 47.9612 5.45139 49.1768 3.96139 49.1768ZM3.96139 25.8462C3.09872 25.8462 2.43214 26.552 2.43214 27.3755V46.4712C2.43214 47.3339 3.13796 48.0005 3.96139 48.0005C4.78482 48.0005 5.49064 47.2947 5.49064 46.4712V27.3755C5.49064 26.552 4.82406 25.8462 3.96139 25.8462Z" fill="#33363A"/>
<path d="M3.96173 45.9615C3.64801 45.9615 3.37354 45.687 3.37354 45.3733V44.8636C3.37354 44.5499 3.64801 44.2754 3.96173 44.2754C4.27545 44.2754 4.54993 44.5499 4.54993 44.8636V45.3733C4.54993 45.687 4.31458 45.9615 3.96173 45.9615Z" fill="#33363A"/>
<path d="M3.96173 17.3768C3.64801 17.3768 3.37354 17.1023 3.37354 16.7886V8.47589C3.37354 8.16217 3.64801 7.8877 3.96173 7.8877C4.27545 7.8877 4.54993 8.16217 4.54993 8.47589V16.7886C4.54993 17.1415 4.31458 17.3768 3.96173 17.3768Z" fill="#33363A"/>
<path d="M3.96174 25.7679C3.41278 25.7679 2.98145 25.3365 2.98145 24.7876V18.4354C2.98145 17.8864 3.41278 17.4551 3.96174 17.4551C4.51069 17.4551 4.94203 17.8864 4.94203 18.4354V24.7876C4.94203 25.2973 4.51069 25.7679 3.96174 25.7679Z" fill="#33363A"/>
<path d="M3.9617 17.22C2.15797 17.22 0.667969 15.73 0.667969 13.9263V8.71124C0.667969 8.39752 0.942446 8.12305 1.25616 8.12305C1.56988 8.12305 1.84436 8.39752 1.84436 8.71124V13.9263C1.84436 15.1026 2.78541 16.0438 3.9618 16.0438C5.1382 16.0438 6.07925 15.1027 6.07925 13.9263V8.71124C6.07925 8.39752 6.35372 8.12305 6.66744 8.12305C6.98116 8.12305 7.25564 8.39752 7.25564 8.71124V13.9263C7.25542 15.7693 5.80455 17.22 3.9617 17.22Z" fill="#33363A"/>
<path d="M6.86332 18.0821C6.86332 18.9839 6.11827 19.729 5.21646 19.729H2.70692C1.80511 19.729 1.06006 18.9839 1.06006 18.0821V15.0629C1.06006 14.1611 1.80511 13.416 2.70692 13.416H5.21646C6.11827 13.416 6.86332 14.1611 6.86332 15.0629V18.0821Z" fill="#33363A"/>
<path d="M5.21628 20.2784H2.70674C1.49121 20.2784 0.47168 19.2981 0.47168 18.0434V15.0241C0.47168 13.8086 1.45197 12.7891 2.70674 12.7891H5.21628C6.4318 12.7891 7.45134 13.7694 7.45134 15.0241V18.0434C7.45123 19.2981 6.4318 20.2784 5.21628 20.2784ZM2.70674 14.0047C2.11854 14.0047 1.64807 14.4753 1.64807 15.0634V18.0826C1.64807 18.6708 2.11865 19.1413 2.70674 19.1413H5.21628C5.80447 19.1413 6.27494 18.6707 6.27494 18.0826V15.0634C6.27494 14.4752 5.80437 14.0047 5.21628 14.0047H2.70674Z" fill="#33363A"/>
<path d="M48.8971 29.297C48.8971 40.433 39.8786 49.4515 28.7427 49.4515C17.6067 49.4515 8.62744 40.433 8.62744 29.297C8.62744 18.1611 17.6459 9.14258 28.7427 9.14258C39.8786 9.14258 48.8971 18.1611 48.8971 29.297Z" fill="white"/>
<path d="M28.7817 9.14258C39.9177 9.14258 48.9362 18.1611 48.9362 29.297C48.9362 40.433 39.9177 49.4515 28.7817 49.4515" fill="#C8DBDB"/>
<path d="M28.782 50C17.3716 50 8.07861 40.707 8.07861 29.2573C8.07861 17.8469 17.3716 8.51465 28.782 8.51465C40.1925 8.51465 49.5247 17.8076 49.5247 29.2573C49.4854 40.707 40.1925 50 28.782 50ZM28.782 9.73028C17.999 9.73028 9.2549 18.5136 9.2549 29.2965C9.2549 40.0795 18.0382 48.8628 28.782 48.8628C39.565 48.8628 48.3483 40.0795 48.3483 29.2965C48.3092 18.5136 39.565 9.73028 28.782 9.73028Z" fill="#33363A"/>
<path d="M28.7817 42.6678C36.1663 42.6678 42.1527 36.6814 42.1527 29.2968C42.1527 21.9122 36.1663 15.9258 28.7817 15.9258C21.397 15.9258 15.4106 21.9122 15.4106 29.2968C15.4106 36.6814 21.397 42.6678 28.7817 42.6678Z" fill="white"/>
<path d="M15.4106 29.2968C15.4106 21.9251 21.4099 15.9258 28.7817 15.9258C36.1534 15.9258 42.1527 21.925 42.1527 29.2968" fill="#C8DBDB"/>
<path d="M28.7819 43.2561C21.0965 43.2561 14.8228 36.9824 14.8228 29.297C14.8228 21.6116 21.0965 15.3379 28.7819 15.3379C36.4672 15.3379 42.741 21.6116 42.741 29.297C42.741 36.9824 36.4672 43.2561 28.7819 43.2561ZM28.7819 16.5142C21.7238 16.5142 15.999 22.239 15.999 29.297C15.999 36.355 21.7238 42.0798 28.7819 42.0798C35.8399 42.0798 41.5647 36.355 41.5647 29.297C41.5647 22.2391 35.8399 16.5142 28.7819 16.5142Z" fill="#33363A"/>
<path d="M28.782 37.3737C33.2431 37.3737 36.8595 33.7573 36.8595 29.2962C36.8595 24.8352 33.2431 21.2188 28.782 21.2188C24.321 21.2188 20.7046 24.8352 20.7046 29.2962C20.7046 33.7573 24.321 37.3737 28.782 37.3737Z" fill="#C8DBDB"/>
<path d="M28.782 37.3737C24.312 37.3737 20.7046 33.7662 20.7046 29.2962C20.7046 24.8262 24.312 21.2188 28.782 21.2188" fill="white"/>
<path d="M47.9954 21.6897C45.2114 9.10287 32.7815 1.18227 20.1948 3.96629L25.2138 26.7479L47.9954 21.6897Z" fill="#83ED88"/>
<path d="M45.4857 22.239C43.0154 11.0639 31.9579 4.00593 20.7827 6.47623L25.2527 26.7092L45.4857 22.239Z" fill="#5FCE96"/>
<path d="M43.9174 22.5912C41.6432 12.2787 31.4483 5.76971 21.1357 8.04391L25.2529 26.7084L43.9174 22.5912Z" fill="#F42535"/>
<path d="M25.2529 26.7086L43.9174 22.5914C42.7802 17.4547 39.6434 13.2199 35.5262 10.5928L25.2529 26.7086Z" fill="#FC4259"/>
<path d="M42.6233 22.8657L43.9174 22.5912C41.6432 12.2787 31.4483 5.76971 21.1357 8.04391L21.4102 9.33792C30.8601 7.88705 39.9571 13.6903 42.6233 22.8657Z" fill="#D60024"/>
<path d="M42.898 19.4544C41.3688 15.7294 38.7416 12.6709 35.4871 10.5928L34.5068 12.122C38.3103 14.5531 41.2512 18.2781 42.5843 22.8659L43.8783 22.5914C43.7214 21.8072 43.4862 21.0229 43.2117 20.278C43.1332 20.0034 43.0156 19.7289 42.898 19.4544Z" fill="#F42535"/>
<path d="M21.0967 8.08301L25.2531 26.7082L43.9175 22.5911L26.7038 24.434L21.0967 8.08301Z" fill="#FC4259"/>
<path d="M26.7037 24.4348L25.2529 26.709L43.9174 22.5918L26.7037 24.4348Z" fill="#FF647E"/>
<path d="M25.2529 27.297C24.9785 27.297 24.7432 27.1009 24.6647 26.8264L19.6458 4.04479C19.6065 3.88793 19.6458 3.73107 19.7241 3.61345C19.8025 3.49583 19.9594 3.37822 20.077 3.33898C32.9383 0.476585 45.7211 8.63253 48.5835 21.4937C48.6227 21.6506 48.5835 21.8074 48.5051 21.9251C48.4267 22.0427 48.2699 22.1603 48.1523 22.1995L25.4099 27.2185C25.3313 27.297 25.2921 27.297 25.2529 27.297ZM20.9004 4.43688L25.6842 26.0422L47.2895 21.2585C44.3879 9.53434 32.7422 2.12345 20.9004 4.43688Z" fill="#33363A"/>
<path d="M43.9174 23.1802C43.6429 23.1802 43.4076 22.9841 43.3292 22.7096C41.1333 12.75 31.2129 6.43707 21.2534 8.63288C20.9396 8.71126 20.626 8.51527 20.5476 8.20155C20.4692 7.88783 20.6652 7.57422 20.9789 7.49573C31.6051 5.14306 42.1136 11.8874 44.4663 22.4744C44.5447 22.7881 44.3487 23.1017 44.035 23.1802C43.9957 23.1802 43.9565 23.1802 43.9174 23.1802Z" fill="#33363A"/>
<path d="M31.9972 21.9639C31.9972 28.1985 26.939 33.2567 20.7044 33.2567C14.4698 33.2567 9.41162 28.1985 9.41162 21.9639C9.41162 15.7293 14.4698 10.6711 20.7044 10.6711C26.9389 10.6319 31.9972 15.6901 31.9972 21.9639Z" fill="#A07F3C"/>
<path d="M31.9972 21.9639C31.9972 28.1985 26.939 33.2567 20.7044 33.2567C14.4698 33.2567 9.41162 28.1985 9.41162 21.9639" fill="#84692C"/>
<path d="M20.7046 10.6318V33.2566C26.9392 33.2566 31.9974 28.1984 31.9974 21.9638C31.9974 15.7292 26.9391 10.6318 20.7046 10.6318Z" fill="#84692C"/>
<path d="M20.7046 21.9639V33.2567C26.9392 33.2567 31.9974 28.1985 31.9974 21.9639H20.7046Z" fill="#705622"/>
<path d="M20.7041 33.8448C14.1559 33.8448 8.82324 28.5121 8.82324 21.9639C8.82324 15.4157 14.1559 10.083 20.7041 10.083C23.8802 10.083 26.8603 11.3378 29.0953 13.5728C31.3304 15.8079 32.5851 18.7879 32.5851 21.964C32.585 28.5121 27.2524 33.8448 20.7041 33.8448ZM20.7041 11.2201C14.7833 11.2201 9.99953 16.043 9.99953 21.9247C9.99953 27.8455 14.8225 32.6293 20.7041 32.6293C26.625 32.6293 31.4088 27.8063 31.4088 21.9247C31.4088 19.0623 30.3108 16.3567 28.2719 14.3569C26.2329 12.3572 23.5665 11.2201 20.7041 11.2201Z" fill="#33363A"/>
<path d="M20.7042 29.5714C24.9054 29.5714 28.3111 26.1656 28.3111 21.9644C28.3111 17.7632 24.9054 14.3574 20.7042 14.3574C16.5029 14.3574 13.0972 17.7632 13.0972 21.9644C13.0972 26.1656 16.5029 29.5714 20.7042 29.5714Z" fill="#BEDD05"/>
<path d="M13.0972 21.9644C13.0972 17.7689 16.5085 14.3574 20.7042 14.3574L13.0972 21.9644Z" fill="#DEF21D"/>
<path d="M13.0972 21.9639C13.0972 26.1594 16.5085 29.5709 20.7042 29.5709C24.8998 29.5709 28.3111 26.1595 28.3111 21.9639H13.0972Z" fill="#85C606"/>
<path d="M13.0972 21.9639C13.0972 26.1594 16.5085 29.5709 20.7042 29.5709L13.0972 21.9639Z" fill="#BEDD05"/>
<path d="M20.7046 14.3574V29.5713C24.9001 29.5713 28.3116 26.1599 28.3116 21.9643C28.2723 17.7688 24.9001 14.3574 20.7046 14.3574Z" fill="#85C606"/>
<path d="M28.272 21.9644C28.272 17.7689 24.8607 14.3574 20.665 14.3574L28.272 21.9644Z" fill="#52C408"/>
<path d="M20.7041 21.9648V29.5718C24.8996 29.5718 28.3111 26.1605 28.3111 21.9648H20.7041Z" fill="#52C408"/>
<path d="M20.7046 29.5318C24.9001 29.5318 28.3116 26.1204 28.3116 21.9248L20.7046 29.5318Z" fill="#25C10A"/>
<path d="M20.7046 24.6699C22.1988 24.6699 23.4101 23.4585 23.4101 21.9643C23.4101 20.4701 22.1988 19.2588 20.7046 19.2588C19.2103 19.2588 17.999 20.4701 17.999 21.9643C17.999 23.4585 19.2103 24.6699 20.7046 24.6699Z" fill="#BEDD05"/>
<path d="M20.7046 24.6308C22.1946 24.6308 23.4101 23.4153 23.4101 21.9253C23.4101 20.4353 22.1946 19.2197 20.7046 19.2197C20.7046 19.2589 20.7046 24.6308 20.7046 24.6308Z" fill="#85C606"/>
<path d="M17.999 21.9643H23.4102C23.4102 20.4743 22.1947 19.2588 20.7047 19.2588C19.2146 19.2587 17.999 20.4742 17.999 21.9643Z" fill="#85C606"/>
<path d="M20.7046 21.9643H23.4101C23.4101 20.4743 22.1946 19.2588 20.7046 19.2588V21.9643Z" fill="#52C408"/>
<path d="M20.7043 23.5717C21.5922 23.5717 22.3119 22.8519 22.3119 21.9641C22.3119 21.0762 21.5922 20.3564 20.7043 20.3564C19.8164 20.3564 19.0967 21.0762 19.0967 21.9641C19.0967 22.8519 19.8164 23.5717 20.7043 23.5717Z" fill="#BEDD05"/>
<path d="M22.3119 21.9641C22.3119 21.0623 21.6061 20.3564 20.7043 20.3564C19.8025 20.3564 19.0967 21.0623 19.0967 21.9641H22.3119Z" fill="#85C606"/>
<path d="M20.7043 23.5719V20.3174C19.8025 20.3174 19.0967 21.0232 19.0967 21.925C19.0575 22.8268 19.8024 23.5719 20.7043 23.5719Z" fill="#85C606"/>
<path d="M20.7043 21.9642V20.3174C19.8025 20.3174 19.0967 21.0232 19.0967 21.925H20.7043V21.9642Z" fill="#52C408"/>
<path d="M20.7044 30.1196C16.1951 30.1196 12.5093 26.4338 12.5093 21.9246C12.5093 17.4153 16.1951 13.7295 20.7044 13.7295C25.2136 13.7295 28.8994 17.4153 28.8994 21.9246C28.8602 26.4731 25.2136 30.1196 20.7044 30.1196ZM20.7044 14.945C16.8224 14.945 13.6856 18.0819 13.6856 21.9638C13.6856 25.8457 16.8224 28.9826 20.7044 28.9826C24.5863 28.9826 27.7231 25.8457 27.7231 21.9638C27.6839 18.0819 24.547 14.945 20.7044 14.945Z" fill="#33363A"/>
<path d="M34.9382 13.299C33.9579 16.2398 28.3115 40.7467 31.2524 41.727C34.1932 42.7073 44.6234 19.8472 45.6035 16.9064C46.5837 13.9657 44.7409 11.613 41.8001 10.6327C38.8593 9.65228 35.9577 10.3581 34.9382 13.299Z" fill="#FFE108"/>
<path d="M34.9382 13.2986C33.9579 16.2395 28.3115 40.7463 31.2524 41.7266C34.1932 42.7069 44.6234 19.8468 45.6035 16.906C46.5837 13.9653 44.1528 13.2986 41.2119 12.3183C38.2711 11.2988 35.9577 10.3577 34.9382 13.2986Z" fill="#FFB206"/>
<path d="M34.9382 13.2988C33.9579 16.2397 28.3115 40.7466 31.2524 41.7268C34.1932 42.7071 44.6234 19.847 45.6035 16.9063" fill="#FF8103"/>
<path d="M31.2521 41.7263C29.017 40.9812 31.7226 26.7476 33.6047 18.5918L43.4467 21.9248C39.9961 29.5708 33.4871 42.5105 31.2521 41.7263Z" fill="#FF6B06"/>
<path d="M31.2521 41.7268C29.6053 41.1778 30.6639 33.1396 32.1148 25.6895L40.3491 28.4735C36.9378 35.2569 32.899 42.3148 31.2521 41.7268Z" fill="#ED4706"/>
<path d="M31.252 41.7269C30.0757 41.3348 30.2717 37.2961 30.9775 32.3555L37.1729 34.4729C34.7419 38.8253 32.3892 42.119 31.252 41.7269Z" fill="#D83705"/>
<path d="M31.4876 42.3936C31.2915 42.3936 31.1739 42.3544 31.0562 42.3152C30.3504 42.08 28.7036 41.4918 31.0562 28.16C32.2325 21.4942 33.8794 14.6323 34.3892 13.1422C35.4088 10.1229 38.4671 8.90738 41.9962 10.0837C45.5252 11.2599 47.172 14.1224 46.1526 17.1025C45.6429 18.6317 42.7805 25.0623 39.6828 31.0615C34.4677 41.1388 32.4286 42.3936 31.4876 42.3936ZM35.5264 13.495C35.0167 14.9458 33.4089 21.6509 32.2326 28.2384C30.0761 40.433 31.4485 41.1781 31.4485 41.1781C31.4485 41.1781 33.0169 41.4133 38.7025 30.4342C41.761 24.5133 44.5841 18.2004 45.0547 16.7104C46.035 13.8087 43.7999 11.9266 41.6041 11.1816C39.4083 10.4366 36.5067 10.5934 35.5264 13.495Z" fill="#33363A"/>
<path d="M41.9565 10.8672C42.5055 10.7496 42.8583 10.2399 42.7407 9.69095C42.3094 7.57351 43.6818 5.49542 45.7992 5.10321C46.3482 4.9856 46.701 4.47588 46.5834 3.92693C46.4658 3.37797 45.9561 3.02512 45.4071 3.14274C42.231 3.77007 40.1528 6.90704 40.7802 10.083C40.8978 10.632 41.4076 10.985 41.9565 10.8672Z" fill="#92FC6B"/>
<path d="M45.6817 4.47559C45.9562 4.43635 46.2699 4.47559 46.4659 4.67169C46.3091 4.90693 46.1131 5.06379 45.7994 5.14227C43.6819 5.57361 42.3095 7.61256 42.7409 9.73001C42.8585 10.279 42.5056 10.7887 41.9567 10.9063C41.5646 10.9847 41.1725 10.8279 40.9371 10.5142C40.8195 7.61246 42.7801 5.02454 45.6817 4.47559Z" fill="#70D63A"/>
<path d="M41.7607 11.4952C41.447 11.4952 41.1333 11.4168 40.898 11.2207C40.5451 10.9854 40.3098 10.6325 40.2314 10.2012C39.5256 6.71132 41.7999 3.26084 45.3289 2.55503C46.1915 2.39817 47.015 2.94713 47.1718 3.8098C47.3287 4.67247 46.7797 5.4959 45.9171 5.65276C44.1134 6.00562 42.9371 7.77021 43.2899 9.57382C43.3683 10.0052 43.2899 10.3973 43.0547 10.7501C42.8194 11.103 42.4665 11.3383 42.0351 11.4167C41.9568 11.4952 41.8392 11.4952 41.7607 11.4952ZM45.6034 3.73132C45.5641 3.73132 45.5641 3.73132 45.525 3.73132C42.6626 4.31951 40.7805 7.10342 41.3686 9.96592C41.4078 10.0835 41.447 10.162 41.5254 10.2404C41.6038 10.3188 41.7215 10.3188 41.8392 10.3188C41.9568 10.2795 42.0353 10.2404 42.1136 10.1619C42.192 10.0835 42.192 9.96581 42.192 9.84819C41.7214 7.41714 43.2899 5.02522 45.721 4.55475C45.9562 4.51551 46.0738 4.28027 46.0347 4.08417C45.9563 3.84904 45.7995 3.73132 45.6034 3.73132Z" fill="#33363A"/>
<path d="M42.4273 10.6714C42.8586 10.3185 42.8979 9.69107 42.5057 9.25973C41.094 7.65211 41.2509 5.14257 42.8585 3.73094C43.2506 3.37809 43.3291 2.75065 42.9369 2.31931C42.584 1.88798 41.9566 1.84874 41.5253 2.24094C39.0942 4.39752 38.8197 8.12258 40.9763 10.5536C41.4078 10.9851 42.0351 11.0242 42.4273 10.6714Z" fill="#92FC6B"/>
<path d="M42.4664 3.22162C42.7016 3.02552 42.9761 2.94714 43.2506 2.98638C43.2506 3.26086 43.133 3.53534 42.8978 3.73144C41.2901 5.14306 41.1333 7.65249 42.5449 9.26022C42.8977 9.69156 42.8586 10.3189 42.4665 10.6719C42.1528 10.9463 41.7215 10.9856 41.3686 10.8287C39.8393 8.39744 40.2315 5.1822 42.4664 3.22162Z" fill="#70D63A"/>
<path d="M41.7999 11.4946C41.7606 11.4946 41.7215 11.4946 41.6822 11.4946C41.2509 11.4553 40.8588 11.2593 40.5843 10.9456C39.4472 9.65162 38.8591 7.96562 38.9767 6.24027C39.0943 4.51503 39.8785 2.90731 41.1725 1.77026C41.8391 1.18207 42.8194 1.26055 43.4076 1.92712C43.9958 2.59369 43.9173 3.57398 43.2507 4.16218C42.5842 4.75038 42.1921 5.57381 42.1136 6.43638C42.0743 7.33818 42.3488 8.16162 42.937 8.82829C43.2115 9.14201 43.3683 9.53411 43.3291 9.96545C43.2899 10.3968 43.0939 10.7889 42.7801 11.0634C42.5449 11.377 42.1528 11.4946 41.7999 11.4946ZM42.2312 2.59369C42.1528 2.59369 42.0351 2.63294 41.9567 2.71131C40.898 3.65236 40.2706 4.94637 40.153 6.35789C40.0746 7.76952 40.5058 9.14191 41.447 10.2006C41.5254 10.2789 41.6039 10.3182 41.7215 10.3574C41.8391 10.3574 41.9176 10.3182 42.0352 10.2398C42.1136 10.1614 42.1528 10.083 42.1528 9.96534C42.1528 9.84772 42.1136 9.76924 42.0352 9.69086C41.251 8.78905 40.8589 7.61266 40.9373 6.43638C41.0157 5.22085 41.5646 4.12294 42.4665 3.33875C42.6234 3.18189 42.6626 2.94665 42.5058 2.75055C42.4664 2.63283 42.3488 2.59369 42.2312 2.59369Z" fill="#33363A"/>
<path d="M42.0354 9.1809C41.6825 8.74957 41.7216 8.12224 42.1137 7.76928C43.7214 6.35765 43.8782 3.84822 42.4666 2.24049C42.1137 1.80915 42.1529 1.18182 42.545 0.82886C42.9371 0.4759 43.6036 0.515141 43.9566 0.907236C46.1132 3.33829 45.8779 7.1026 43.4076 9.21993C43.0157 9.65137 42.3883 9.61224 42.0354 9.1809Z" fill="#92FC6B"/>
<path d="M42.9764 1.84895C42.7803 1.61371 42.5058 1.53523 42.2314 1.49609C42.1921 1.77057 42.2706 2.04505 42.4666 2.28028C43.8782 3.88791 43.7214 6.39744 42.1137 7.80907C41.6824 8.16192 41.6432 8.78936 42.0354 9.2207C42.3098 9.53442 42.7412 9.61279 43.094 9.49518C44.8978 7.29925 44.9369 4.04477 42.9764 1.84895Z" fill="#70D63A"/>
<path d="M42.7801 10.1225C42.7409 10.1225 42.7017 10.1225 42.6625 10.1225C42.2311 10.0833 41.839 9.88726 41.5646 9.57354C41.2901 9.25982 41.1332 8.86773 41.1725 8.43639C41.2117 8.00505 41.4077 7.61296 41.7214 7.33848C43.0938 6.12295 43.2507 4.00551 42.0351 2.63313C41.447 1.96655 41.5254 0.986262 42.192 0.398066C42.5057 0.123588 42.8978 -0.0332711 43.3292 0.00597054C43.7605 0.0452122 44.1526 0.241206 44.4271 0.554925C45.5642 1.84894 46.1523 3.53493 46.0347 5.26028C45.9171 6.98552 45.1329 8.59325 43.8389 9.73029C43.5252 10.0049 43.1722 10.1225 42.7801 10.1225ZM43.2507 1.2216C43.1331 1.2216 43.0546 1.26085 42.9762 1.33922C42.8193 1.49608 42.7801 1.73132 42.937 1.92742C44.5838 3.80952 44.3877 6.63277 42.5056 8.27964C42.3488 8.4365 42.3095 8.67173 42.4664 8.86783C42.5448 8.94621 42.6232 8.98545 42.7409 8.98545C42.8585 8.98545 42.937 8.94621 43.0153 8.86783C44.074 7.92678 44.7014 6.63277 44.8191 5.22125C44.9367 3.80962 44.4662 2.43724 43.525 1.37857C43.4859 1.26074 43.3683 1.2216 43.2507 1.2216Z" fill="#33363A"/>
<path d="M41.8 8.71098C41.6823 8.16202 42.0352 7.65231 42.5842 7.53469C44.7016 7.10335 46.074 5.06439 45.6426 2.94695C45.525 2.398 45.8779 1.88829 46.4268 1.77067C46.9758 1.65305 47.4855 2.0059 47.6031 2.55486C48.2305 5.73097 46.1524 8.86783 42.9763 9.49517C42.4274 9.61289 41.8784 9.25993 41.8 8.71098Z" fill="#92FC6B"/>
<path d="M46.2698 2.82868C46.2305 2.5542 46.0345 2.31897 45.7992 2.16211C45.6423 2.39734 45.564 2.67182 45.6031 2.9463C46.0344 5.06374 44.662 7.14183 42.5446 7.53404C41.9957 7.65165 41.6428 8.16137 41.7604 8.71032C41.8388 9.10242 42.1525 9.41614 42.5446 9.49451C45.211 8.51433 46.8579 5.69107 46.2698 2.82868Z" fill="#70D63A"/>
<path d="M42.7407 10.1226C41.9956 10.1226 41.3291 9.61288 41.1722 8.86782C41.0154 8.00515 41.5643 7.18172 42.427 7.02486C44.2307 6.672 45.407 4.90742 45.0541 3.1038C44.8973 2.24113 45.4462 1.41769 46.3089 1.26083C46.7402 1.18246 47.1323 1.26083 47.4852 1.49607C47.838 1.73131 48.0734 2.08427 48.1518 2.5156C48.8576 6.00543 46.5833 9.45591 43.0543 10.1617C42.976 10.1226 42.8583 10.1226 42.7407 10.1226ZM42.3486 8.63259C42.3879 8.86782 42.6231 8.98544 42.8192 8.9463C45.6816 8.35811 47.5637 5.5742 46.9756 2.7117C46.9363 2.59409 46.8972 2.5156 46.8187 2.43723C46.7404 2.35885 46.6226 2.35885 46.505 2.35885C46.2698 2.39809 46.1522 2.63333 46.1913 2.82943C46.6619 5.26048 45.0934 7.6524 42.6623 8.12287C42.4662 8.16201 42.3094 8.39724 42.3486 8.63259Z" fill="#33363A"/>
<path d="M41.3684 11.8082C40.8587 11.6513 40.5842 11.0631 40.7411 10.5534C41.4469 8.51448 40.349 6.27942 38.31 5.5736C37.8003 5.41674 37.5259 4.82855 37.6827 4.31883C37.8788 3.80912 38.4278 3.53464 38.9375 3.6915C42.0351 4.75017 43.682 8.08314 42.6233 11.1808C42.4663 11.6905 41.9174 11.965 41.3684 11.8082Z" fill="#92FC6B"/>
<path d="M38.5064 4.94704C38.2319 4.86866 37.9574 4.9078 37.7222 5.02541C37.8398 5.26065 38.0359 5.49599 38.3104 5.57437C40.3493 6.28018 41.4472 8.476 40.7414 10.5542C40.5846 11.0639 40.859 11.6521 41.3688 11.809C41.7608 11.9266 42.1529 11.809 42.4274 11.5345C42.898 8.71124 41.2904 5.88809 38.5064 4.94704Z" fill="#70D63A"/>
<path d="M41.6823 12.4359C41.5254 12.4359 41.3294 12.3967 41.1726 12.3576C40.3491 12.0831 39.9178 11.1813 40.1923 10.3579C40.4668 9.53442 40.4275 8.63262 40.0354 7.80918C39.6433 7.02499 38.9768 6.39756 38.1141 6.12308C37.2907 5.8486 36.8593 4.94679 37.1338 4.12336C37.4083 3.29993 38.3101 2.86859 39.1335 3.14307C40.7804 3.69203 42.1135 4.86831 42.8586 6.4368C43.6428 8.00529 43.7604 9.76977 43.1723 11.3774C43.0547 11.7695 42.741 12.0832 42.3881 12.2792C42.192 12.3967 41.9568 12.4359 41.6823 12.4359ZM38.6238 4.24087C38.4669 4.24087 38.3101 4.35849 38.2317 4.51535C38.1533 4.71145 38.2709 4.94669 38.4669 5.02506C39.6041 5.41716 40.5059 6.20135 41.0549 7.29926C41.6038 8.39717 41.6822 9.61269 41.2901 10.7498C41.2117 10.9459 41.3293 11.1812 41.5253 11.2596C41.6429 11.2988 41.7214 11.2988 41.839 11.2203C41.9174 11.1811 41.9959 11.1027 42.0351 10.9851C42.5057 9.65194 42.388 8.20107 41.7607 6.9463C41.1333 5.69153 40.0354 4.71124 38.7022 4.2799C38.7023 4.24087 38.663 4.24087 38.6238 4.24087Z" fill="#33363A"/>
<path d="M41.4076 11.8083C41.9174 11.9652 42.5056 11.6907 42.6624 11.181C43.3682 9.14205 45.564 8.04414 47.6422 8.71071C48.152 8.86757 48.7402 8.59309 48.897 8.08338C49.0539 7.57367 48.7794 6.98547 48.2697 6.82861C45.1721 5.76994 41.8391 7.45594 40.7804 10.5144C40.6235 11.0633 40.8979 11.6515 41.4076 11.8083Z" fill="#92FC6B"/>
<path d="M47.8384 8.12254C48.1129 8.20092 48.309 8.43626 48.4266 8.67149C48.1913 8.78911 47.9169 8.82835 47.6424 8.74987C45.6034 8.04406 43.3684 9.14197 42.6626 11.2202C42.5057 11.7299 41.9175 12.0044 41.4078 11.8475C41.0157 11.7299 40.7805 11.3769 40.7412 10.9848C42.0744 8.43626 45.0544 7.18149 47.8384 8.12254Z" fill="#70D63A"/>
<path d="M41.7216 12.4747C41.5648 12.4747 41.3688 12.4355 41.2119 12.3963C40.8198 12.2787 40.5061 11.965 40.3101 11.6122C40.114 11.2593 40.114 10.7887 40.2317 10.3966C41.3689 7.02452 45.0547 5.18156 48.466 6.31871C49.2895 6.59319 49.7208 7.49499 49.4463 8.31843C49.1719 9.14186 48.27 9.57319 47.4466 9.29872C45.7214 8.71052 43.8 9.65157 43.2118 11.3769C43.0155 12.0434 42.3882 12.4747 41.7216 12.4747ZM41.604 11.2592C41.8001 11.3376 42.0353 11.22 42.1137 11.024C42.8979 8.67128 45.4858 7.41651 47.8385 8.20081C48.0346 8.27918 48.2698 8.16157 48.3482 7.96557C48.4266 7.76947 48.309 7.53424 48.0737 7.45586C45.2897 6.51481 42.2705 8.00481 41.3294 10.7888C41.2902 10.9064 41.2902 10.9849 41.3687 11.1025C41.4079 11.1415 41.4863 11.22 41.604 11.2592Z" fill="#33363A"/>
<path d="M45.2111 17.3758C45.1327 17.3758 45.0935 17.3758 45.015 17.3366L42.4271 16.4739C42.1134 16.3563 41.9565 16.0426 42.0743 15.7289C42.1919 15.4152 42.5056 15.2583 42.8193 15.376L45.4072 16.2387C45.7209 16.3563 45.8778 16.67 45.7601 16.9837C45.6817 17.219 45.4465 17.3758 45.2111 17.3758Z" fill="#33363A"/>
<path d="M40.7412 15.8074C40.6628 15.8074 40.6236 15.8074 40.5451 15.7681L40.1138 15.6113C39.8 15.4936 39.6432 15.1799 39.7217 14.8662C39.8393 14.5525 40.153 14.3956 40.4667 14.4741L40.8981 14.631C41.2118 14.7486 41.3686 15.0623 41.2902 15.376C41.2117 15.6506 40.9764 15.8074 40.7412 15.8074Z" fill="#33363A"/>
<path d="M38.5455 15.1019C38.4671 15.1019 38.4279 15.1019 38.3494 15.0626L38.1533 15.0234C37.8396 14.9058 37.6827 14.592 37.7612 14.2783C37.8788 13.9646 38.1926 13.8077 38.5063 13.8862L38.7024 13.9255C39.0161 14.0431 39.173 14.3568 39.0945 14.6705C39.016 14.945 38.7808 15.1019 38.5455 15.1019Z" fill="#33363A"/>
<path d="M36.8595 14.514C36.7811 14.514 36.7419 14.514 36.6634 14.4747L36.4673 14.4355C36.1536 14.3179 35.9967 14.0041 36.0752 13.6904C36.1928 13.3767 36.5065 13.2198 36.8202 13.2983L37.0163 13.3376C37.3301 13.4552 37.4869 13.7689 37.4084 14.0826C37.3692 14.3571 37.134 14.514 36.8595 14.514Z" fill="#33363A"/>
<path d="M44.1525 20.4735C44.0742 20.4735 44.0349 20.4735 43.9564 20.4343L41.3685 19.5716C41.0548 19.454 40.8979 19.1402 41.0157 18.8265C41.1333 18.5128 41.447 18.3559 41.7607 18.4737L44.3486 19.3363C44.6624 19.454 44.8192 19.7677 44.7015 20.0814C44.6231 20.3167 44.3878 20.4735 44.1525 20.4735Z" fill="#33363A"/>
<path d="M39.6826 18.9441C39.6042 18.9441 39.565 18.9441 39.4865 18.9048L39.0552 18.748C38.7415 18.6304 38.5846 18.3166 38.6631 18.0029C38.7807 17.6892 39.0944 17.5323 39.4081 17.6108L39.8395 17.7677C40.1532 17.8853 40.31 18.199 40.2316 18.5127C40.1531 18.7872 39.9178 18.9441 39.6826 18.9441Z" fill="#33363A"/>
<path d="M37.4869 18.1995C37.4477 18.1995 37.3693 18.1995 37.2908 18.1603L37.0947 18.121C36.781 18.0427 36.6241 17.6897 36.7026 17.376C36.7811 17.0623 37.134 16.9054 37.4477 16.9839L37.6438 17.0231C37.9575 17.1015 38.1144 17.4545 38.0359 17.7682C37.9574 18.0427 37.7222 18.1995 37.4869 18.1995Z" fill="#33363A"/>
<path d="M35.8009 17.6507C35.7616 17.6507 35.6833 17.6507 35.6048 17.6114L35.4087 17.5722C35.095 17.4546 34.9381 17.1409 35.0166 16.8271C35.095 16.5134 35.4479 16.3566 35.7616 16.435L35.9577 16.4743C36.2715 16.5919 36.4283 16.9056 36.3498 17.2193C36.3106 17.4938 36.0754 17.6507 35.8009 17.6507Z" fill="#33363A"/>
<path d="M42.9372 23.5321C42.8588 23.5321 42.8196 23.5321 42.7411 23.4928L40.1532 22.6302C39.8395 22.5126 39.6826 22.1988 39.8003 21.8851C39.918 21.5714 40.2317 21.4145 40.5454 21.5323L43.1333 22.3949C43.447 22.5126 43.6039 22.8263 43.4862 23.14C43.4077 23.4145 43.1724 23.5321 42.9372 23.5321Z" fill="#33363A"/>
<path d="M38.4673 22.0027C38.428 22.0027 38.3497 22.0027 38.2712 21.9634L37.8398 21.8066C37.5261 21.689 37.3693 21.3752 37.4477 21.0615C37.5654 20.7478 37.8791 20.5909 38.1928 20.6694L38.6241 20.8263C38.9379 20.9439 39.0947 21.2576 39.0162 21.5713C38.9379 21.8458 38.7026 22.0027 38.4673 22.0027Z" fill="#33363A"/>
<path d="M36.2711 21.2972C36.1927 21.2972 36.1535 21.2972 36.075 21.2579L35.8789 21.2187C35.5652 21.1011 35.4083 20.7873 35.4868 20.4736C35.6044 20.1599 35.9181 20.003 36.2319 20.0815L36.428 20.1208C36.7417 20.2384 36.8985 20.5521 36.8201 20.8658C36.7417 21.1012 36.5064 21.2972 36.2711 21.2972Z" fill="#33363A"/>
<path d="M34.5851 20.7093C34.5458 20.7093 34.4675 20.7093 34.389 20.67L34.1929 20.6308C33.8791 20.5524 33.7223 20.1995 33.8008 19.8857C33.9184 19.572 34.2321 19.4152 34.5458 19.4936L34.7419 19.5329C35.0556 19.6113 35.2125 19.9642 35.134 20.2779C35.0948 20.5524 34.8595 20.7093 34.5851 20.7093Z" fill="#33363A"/>
<path d="M41.4865 26.5126C41.4081 26.5126 41.3689 26.5126 41.2904 26.4733L38.7025 25.6106C38.3888 25.493 38.2319 25.1793 38.3496 24.8656C38.4673 24.5519 38.781 24.395 39.0947 24.5127L41.6826 25.3754C41.9963 25.493 42.1532 25.8067 42.0355 26.1205C41.9571 26.3949 41.7219 26.5126 41.4865 26.5126Z" fill="#33363A"/>
<path d="M37.0163 24.9831C36.9379 24.9831 36.8987 24.9831 36.8202 24.9439L36.3496 24.787C36.0359 24.6694 35.879 24.3557 35.9575 24.042C36.0751 23.7283 36.3888 23.5714 36.7026 23.6499L37.1731 23.8068C37.4869 23.9244 37.6437 24.2381 37.5652 24.5518C37.4869 24.8263 37.2515 24.9831 37.0163 24.9831Z" fill="#33363A"/>
<path d="M34.8204 24.2776C34.742 24.2776 34.7028 24.2776 34.6243 24.2384L34.4282 24.1992C34.1145 24.0815 33.9576 23.7678 34.0361 23.4541C34.1537 23.1404 34.4675 22.9835 34.7812 23.062L34.9773 23.1012C35.291 23.2189 35.4479 23.5326 35.3694 23.8463C35.291 24.0815 35.0557 24.2776 34.8204 24.2776Z" fill="#33363A"/>
<path d="M33.1344 23.6888C33.056 23.6888 33.0168 23.6888 32.9383 23.6495L32.7422 23.6103C32.4285 23.4927 32.2716 23.1789 32.3501 22.8652C32.4677 22.5515 32.7814 22.3947 33.0951 22.4731L33.2912 22.5124C33.605 22.63 33.7618 22.9437 33.6833 23.2574C33.605 23.5319 33.4089 23.6888 33.1344 23.6888Z" fill="#33363A"/>
<path d="M39.9962 29.5319C39.9178 29.5319 39.8785 29.5319 39.8001 29.4927L37.369 28.6692C37.0553 28.5516 36.8984 28.2379 37.0162 27.9242C37.1338 27.6105 37.4475 27.4536 37.7612 27.5713L40.1923 28.3948C40.506 28.5124 40.6628 28.8261 40.5451 29.1398C40.4667 29.3752 40.2706 29.5319 39.9962 29.5319Z" fill="#33363A"/>
<path d="M35.8398 28.0806C35.8006 28.0806 35.7222 28.0806 35.6437 28.0414L35.2124 27.9238C34.8987 27.8454 34.7418 27.4924 34.8203 27.1787C34.8987 26.865 35.2516 26.7081 35.5654 26.7866L35.9967 26.9042C36.3104 26.9826 36.4673 27.3356 36.3888 27.6493C36.3103 27.9238 36.0751 28.0806 35.8398 28.0806Z" fill="#33363A"/>
<path d="M33.8007 27.4144C33.7615 27.4144 33.6831 27.4144 33.6046 27.3751L33.4478 27.3359C33.134 27.2183 32.9772 26.9045 33.0557 26.5908C33.134 26.2771 33.487 26.1202 33.8007 26.1987L33.9576 26.238C34.2713 26.3556 34.4281 26.6693 34.3497 26.983C34.2713 27.2183 34.0752 27.4144 33.8007 27.4144Z" fill="#33363A"/>
<path d="M32.2324 26.8655C32.1931 26.8655 32.1147 26.8655 32.0362 26.8263L31.8794 26.787C31.5657 26.6694 31.4088 26.3557 31.4873 26.042C31.5657 25.7283 31.9186 25.5714 32.2324 25.6499L32.3892 25.6891C32.7029 25.8068 32.8598 26.1205 32.7813 26.4342C32.7421 26.7087 32.5068 26.8655 32.2324 26.8655Z" fill="#33363A"/>
<path d="M38.467 32.4725C38.3886 32.4725 38.3494 32.4725 38.2709 32.4333L35.683 31.5706C35.3693 31.453 35.2124 31.1393 35.3301 30.8256C35.4477 30.5118 35.7615 30.355 36.0752 30.4727L38.6631 31.3354C38.9768 31.453 39.1337 31.7667 39.0159 32.0804C38.9376 32.3157 38.7023 32.4725 38.467 32.4725Z" fill="#33363A"/>
<path d="M33.9971 30.904C33.9578 30.904 33.8794 30.904 33.801 30.8648L33.3696 30.7079C33.0559 30.5903 32.899 30.2766 32.9775 29.9629C33.0559 29.6492 33.4089 29.4923 33.7226 29.5708L34.1539 29.7276C34.4676 29.8453 34.6245 30.159 34.546 30.4727C34.4676 30.7473 34.2323 30.904 33.9971 30.904Z" fill="#33363A"/>
<path d="M31.8014 30.1985C31.723 30.1985 31.6838 30.1985 31.6053 30.1593L31.4092 30.1201C31.0955 30.0024 30.9386 29.6887 31.0171 29.375C31.1347 29.0613 31.4484 28.9044 31.7621 28.9829L31.9582 29.0221C32.272 29.1398 32.4288 29.4535 32.3503 29.7672C32.3111 30.0417 32.0759 30.1985 31.8014 30.1985Z" fill="#33363A"/>
<path d="M36.8596 35.4129C36.7812 35.4129 36.7419 35.4129 36.6635 35.3737L34.0755 34.511C33.7618 34.3934 33.605 34.0797 33.7227 33.766C33.8403 33.4523 34.154 33.2954 34.4677 33.4131L37.0557 34.2758C37.3694 34.3934 37.5262 34.7071 37.4085 35.0209C37.3301 35.2561 37.0948 35.4129 36.8596 35.4129Z" fill="#33363A"/>
<path d="M32.3892 33.8445C32.3499 33.8445 32.2715 33.8445 32.1931 33.8052L31.7617 33.6484C31.448 33.5308 31.2911 33.217 31.3696 32.9033C31.448 32.5896 31.801 32.4327 32.1147 32.5112L32.546 32.6681C32.8597 32.7857 33.0166 33.0994 32.9381 33.4131C32.8596 33.6876 32.6244 33.8445 32.3892 33.8445Z" fill="#33363A"/>
<path d="M35.134 38.2753C35.0556 38.2753 35.0164 38.2753 34.9379 38.236L32.35 37.3733C32.0362 37.2557 31.8794 36.942 31.9971 36.6283C32.1147 36.3146 32.4284 36.1577 32.7422 36.2754L35.3301 37.1381C35.6438 37.2557 35.8007 37.5694 35.6829 37.8832C35.6044 38.1184 35.3692 38.2753 35.134 38.2753Z" fill="#33363A"/>
<path d="M31.0561 36.864C30.9778 36.864 30.9385 36.864 30.86 36.8248L30.4287 36.6679C30.115 36.5503 29.9581 36.2366 30.0366 35.9228C30.1542 35.6091 30.4679 35.4523 30.7817 35.5308L31.213 35.6876C31.5267 35.8052 31.6836 36.1189 31.6051 36.4327C31.5267 36.7071 31.2915 36.864 31.0561 36.864Z" fill="#33363A"/>
<path d="M33.2126 41.0985C33.1342 41.0985 33.095 41.0985 33.0165 41.0593L30.4286 40.1966C30.1149 40.079 29.958 39.7652 30.0757 39.4515C30.1933 39.1378 30.5071 38.9809 30.8208 39.0987L33.4087 39.9613C33.7224 40.079 33.8793 40.3927 33.7615 40.7064C33.6831 40.9416 33.4478 41.0985 33.2126 41.0985Z" fill="#33363A"/>
<path d="M43.0544 37.4132C43.0544 44.1183 36.6631 44.3927 28.7816 44.3927C20.9001 44.3927 14.5088 44.1183 14.5088 37.4132C14.5088 30.7081 20.9001 25.2578 28.7816 25.2578C36.6631 25.2578 43.0544 30.7081 43.0544 37.4132Z" fill="#C17E25"/>
<path d="M43.0544 37.4132C43.0544 44.1183 36.6631 44.3927 28.7816 44.3927C20.9001 44.3927 14.5088 44.1183 14.5088 37.4132C14.5088 30.7081 20.9001 25.2578 28.7816 25.2578C36.6631 25.2578 43.0544 30.7081 43.0544 37.4132Z" fill="white"/>
<path d="M43.0544 37.4133C43.0544 44.1183 36.6631 44.3928 28.7816 44.3928C20.9001 44.3928 14.5088 44.1183 14.5088 37.4133C14.5088 30.7082 20.9001 37.4525 28.7816 37.4525C36.6631 37.4525 43.0544 30.7082 43.0544 37.4133Z" fill="#F4F3E9"/>
<path d="M28.782 40.903C21.6848 40.903 15.8032 35.4527 14.666 39.2169C15.7639 44.1575 21.6848 44.3536 28.782 44.3536C35.8791 44.3536 41.7608 44.1184 42.8979 39.2169C41.7608 35.4918 35.8791 40.903 28.782 40.903Z" fill="#E0DECE"/>
<path d="M28.7819 44.9812C21.4494 44.9812 13.9209 44.9812 13.9209 37.4135C13.9209 30.3947 20.5867 24.6699 28.7819 24.6699C36.9771 24.6699 43.6429 30.3947 43.6429 37.4135C43.6429 44.9812 36.0752 44.9812 28.7819 44.9812ZM28.7819 25.8462C21.2142 25.8462 15.0973 31.022 15.0973 37.4135C15.0973 43.3736 20.5085 43.8048 28.7819 43.8048C37.0554 43.8048 42.4665 43.3735 42.4665 37.4135C42.4665 31.0221 36.3497 25.8462 28.7819 25.8462Z" fill="#33363A"/>
<path d="M35.6832 35.4524C35.6832 41.9222 32.5856 42.628 28.782 42.628C24.9786 42.628 21.8809 41.9222 21.8809 35.4524C21.8809 32.1194 24.9785 29.4531 28.782 29.4531C32.5855 29.4531 35.6832 32.1195 35.6832 35.4524Z" fill="#D3D1C1"/>
<path d="M35.6832 35.4524C35.6832 38.7854 32.5856 40.2361 28.782 40.2361C24.9786 40.2361 21.8809 38.7854 21.8809 35.4524C21.8809 32.1194 24.9785 29.4531 28.782 29.4531C32.5855 29.4531 35.6832 32.1195 35.6832 35.4524Z" fill="#FFBC00"/>
<path d="M28.7819 30.5903C32.3894 30.5903 35.3301 32.9823 35.6831 36.0015C35.7223 35.8054 35.7223 35.6094 35.7223 35.4133C35.7223 32.0803 32.6247 29.4141 28.8212 29.4141C25.0177 29.4141 21.8809 32.1196 21.8809 35.4133C21.8809 35.6094 21.8809 35.8054 21.9201 36.0015C22.2337 32.9822 25.1745 30.5903 28.7819 30.5903Z" fill="#FFCE00"/>
<path d="M35.6832 35.453C35.6832 38.786 32.5856 40.2367 28.782 40.2367C24.9786 40.2367 21.8809 38.786 21.8809 35.453C21.8809 32.12 24.9785 35.453 28.782 35.453C32.5855 35.453 35.6832 32.1201 35.6832 35.453Z" fill="#FF9100"/>
<path d="M28.7817 40.8246C24.1549 40.8246 21.2925 38.7857 21.2925 35.4527C21.2925 31.8061 24.6646 28.8652 28.7817 28.8652C32.9381 28.8652 36.3102 31.8061 36.3102 35.4527C36.271 38.7464 33.4086 40.8246 28.7817 40.8246ZM28.7817 30.0416C25.2919 30.0416 22.4688 32.4727 22.4688 35.4528C22.4688 39.3347 27.331 39.6483 28.7817 39.6483C30.2325 39.6483 35.134 39.3346 35.134 35.4528C35.0947 32.4727 32.2716 30.0416 28.7817 30.0416Z" fill="#33363A"/>
<path d="M23.9198 34.394C23.8806 34.394 23.8414 34.394 23.8022 34.394C23.3708 34.3156 23.0571 33.9234 23.1356 33.4922C23.4493 31.2964 26.5469 29.8848 28.0762 29.8848C28.5075 29.8848 28.8604 30.2376 28.8604 30.669C28.8604 31.1003 28.5075 31.4531 28.0762 31.4531C27.0567 31.4531 24.8608 32.4727 24.6649 33.6882C24.6256 34.1195 24.2728 34.394 23.9198 34.394Z" fill="#FFEF5A"/>
<path d="M23.8021 36.1588C23.7629 36.1588 23.7237 36.1588 23.6845 36.1588C23.2532 36.0805 22.9394 35.6883 23.0179 35.257C23.0963 34.7473 23.5669 34.4336 23.9982 34.4336C24.4296 34.4336 24.7824 34.7864 24.7824 35.2178C24.7824 35.5315 24.5863 35.806 24.3511 35.9236C24.1942 36.0805 23.9982 36.1588 23.8021 36.1588Z" fill="#FFEF5A"/>
<path d="M23.8805 37.0606C23.8805 37.0606 23.8413 37.0606 23.8022 37.0606C23.6061 37.0213 23.4493 36.8253 23.4885 36.6292C23.5277 36.394 23.7237 36.2764 23.9198 36.2764C24.155 36.2764 24.3119 36.4332 24.3119 36.6685C24.3119 36.8253 24.2335 36.9429 24.1158 37.0213C24.0765 37.0213 23.9982 37.0606 23.8805 37.0606Z" fill="#FFEF5A"/>
</g>
<defs>
<clipPath id="clip0_1695_6496">
<rect width="50" height="50" fill="white"/>
</clipPath>
</defs>
</svg>
