<svg width="50" height="50" viewBox="0 0 50 50" fill="none" xmlns="http://www.w3.org/2000/svg">
<g clip-path="url(#clip0_1694_6185)">
<path d="M38.4277 15.4785C38.4277 8.0626 32.4159 2.05078 25 2.05078C21.0839 2.05078 17.5593 3.72725 15.1048 6.40156C15.1048 6.40156 14.9161 6.66162 14.8072 6.78955C12.8123 9.13291 12.0068 12.1599 12.0068 15.4785C12.0068 22.8944 17.5841 28.3604 25 28.3604C28.233 28.3604 30.9475 27.5403 33.2649 25.637C33.4295 25.5019 34.0002 25.4437 34.0002 25.4437C36.7192 22.9863 38.4277 19.4319 38.4277 15.4785Z" fill="#91DAFA"/>
<path d="M33.5166 25.8604C31.1992 27.7637 28.2334 28.9062 25 28.9062C17.584 28.9062 11.5723 22.8945 11.5723 15.4785C11.5723 11.9688 12.9189 8.77441 15.123 6.38184C13.623 8.54883 12.7441 11.1787 12.7441 14.0137C12.7441 21.4297 18.7559 27.4414 26.1719 27.4414C28.5977 27.4414 30.873 26.7979 32.8369 25.6729C32.873 25.6523 33.1475 25.7354 33.5166 25.8604Z" fill="#75CFF9"/>
<path d="M34.0002 25.4437C31.6184 27.5959 28.4629 28.9063 25 28.9063C22.043 28.9063 19.3086 27.9502 17.0898 26.3301C17.6523 25.2295 18.2373 24.4385 18.5234 24.0801C18.9336 23.5654 19.5459 23.2705 20.2021 23.2705C20.3252 23.2705 20.4492 23.2813 20.5703 23.3027C21.2178 23.415 22.917 23.7881 24.7012 24.8242C25.3753 25.2163 25.9943 25.6658 26.5563 26.1661C26.6481 26.248 26.7798 26.2644 26.8889 26.2075C27.2597 26.0144 27.6454 25.8387 28.0449 25.6817C29.9521 24.9337 31.6855 24.7892 32.3418 24.7628C32.3721 24.7618 32.4014 24.7608 32.4307 24.7608C33.0283 24.7607 33.5979 25.0148 34.0002 25.4437Z" fill="#75CFF9"/>
<path d="M33.1391 16.1792C33.1391 16.1479 33.1929 16.0847 33.1929 16.0847C33.145 15.3686 32.549 14.8026 31.8208 14.8026H31.4618C32.2213 14.8026 32.7487 14.1777 32.7487 13.4182C32.7487 13.3871 32.834 13.3348 32.834 13.3348C32.7863 12.6185 32.1902 12.0523 31.4618 12.0523H28.3867C26.9458 12.0523 25.8987 10.7594 26.1643 9.33628L26.4892 7.59478C26.6898 6.519 26.1517 5.44087 25.1735 4.95943C24.7698 4.7607 24.2842 4.96392 24.1401 5.39185L22.6434 10.13C22.1823 11.4107 21.198 12.7127 19.9585 13.3528L19.9713 20.6377C19.9713 21.6584 20.9315 22.4976 23.2982 22.4976H30.6471C31.3237 22.4976 31.7422 22.208 31.7422 21.5314C31.7422 21.4494 31.8488 21.289 31.8488 21.289C31.7374 20.7271 31.2417 20.3036 30.6471 20.3036L31.3672 20.201C32.1267 20.201 32.7138 19.7067 32.7138 18.9472C32.7138 18.9162 32.834 18.836 32.834 18.836C32.7864 18.1196 32.1902 17.5533 31.4618 17.5533L31.7488 17.4663C32.5083 17.4659 33.1391 16.1792 33.1391 16.1792Z" fill="#E3A76F"/>
<path d="M31.8721 21.5283C31.8721 22.2051 31.3242 22.7539 30.6475 22.7539H23.2988C20.9316 22.7539 19.9717 21.9268 19.9717 20.9053V19.4404C19.9717 20.4619 20.9316 21.2891 23.2988 21.2891L31.849 21.289C31.8646 21.3671 31.8721 21.4463 31.8721 21.5283Z" fill="#D6995C"/>
<path d="M16.918 13.0644C16.918 12.5337 17.3481 12.1035 17.8788 12.1035L18.2688 12.0518H19.0958C19.6265 12.0518 20.0566 12.4819 20.0566 13.0126V21.2886L19.8947 21.5901C19.8947 22.1208 19.4646 22.551 18.9339 22.551L17.945 22.5429C17.4144 22.5429 16.9842 22.1127 16.9842 21.582L16.918 13.0644Z" fill="#857E87"/>
<path d="M20.0566 21.2885V21.7924C20.0566 22.3236 19.626 22.7533 19.0957 22.7533H17.7646C17.2344 22.7533 16.8037 22.3236 16.8037 21.7924V13.0121C16.8037 12.4818 17.2344 12.0521 17.7646 12.0521L18.2686 12.0518V20.7025C18.2686 21.0258 18.5312 21.2885 18.8545 21.2885H20.0566Z" fill="#766E7A"/>
<path d="M32.8341 18.8359C32.837 18.8662 32.8369 18.8976 32.8369 18.9288C32.8369 19.6876 32.2217 20.3038 31.4619 20.3038H29.5869C29.1816 20.3038 28.8535 19.9757 28.8535 19.5704V19.5694C28.8535 19.1642 29.1816 18.836 29.5869 18.836L32.8341 18.8359Z" fill="#D6995C"/>
<path d="M28.8535 14.0694V14.0685C28.8535 13.6632 29.1816 13.3351 29.5869 13.3351L32.8341 13.335C32.837 13.3652 32.8369 13.3966 32.8369 13.4278C32.8369 14.1876 32.2217 14.8028 31.4619 14.8028H29.5869C29.1816 14.8028 28.8535 14.4747 28.8535 14.0694Z" fill="#D6995C"/>
<path d="M29.0684 17.3369C28.9355 17.2041 28.8535 17.0215 28.8535 16.8184C28.8535 16.4131 29.1816 16.085 29.5869 16.085H33.1931C33.196 16.1152 33.1963 16.1465 33.1963 16.1777C33.1963 16.9258 32.5996 17.5332 31.8564 17.5518H29.5869C29.3848 17.5518 29.2012 17.4697 29.0684 17.3369Z" fill="#D6995C"/>
<path d="M20.2697 25.0341C20.129 25.0097 19.9873 25.0636 19.8982 25.1753C19.6445 25.4935 19.0993 26.2287 18.5892 27.2585C18.5892 27.2585 18.4881 28.1153 18.321 28.5905C17.7267 30.2814 17.146 32.4113 17.982 34.7123C19.8866 39.9545 25.7934 40.8251 25.7934 40.8251C25.7934 40.8251 29.6519 36.0578 27.8552 31.1123C27.3608 29.7516 26.5486 28.9108 25.7231 28.0824C25.5227 27.8814 25.1848 27.2983 25.1848 27.2983C23.2191 25.6566 20.977 25.1568 20.2697 25.0341Z" fill="#86CC72"/>
<path d="M25.7928 40.8251C25.7928 40.8251 19.8866 39.955 17.9813 34.7128C16.911 31.7645 17.6964 29.0605 18.5889 27.2588C20.2393 27.5059 21.7723 28.1142 23.1073 28.9999C23.2333 29.0839 23.4022 29.0624 23.4969 28.9452C23.9921 28.3378 24.5566 27.7859 25.1845 27.2986C26.2529 28.1912 27.2401 29.4218 27.8553 31.1122C29.6512 36.0585 25.7928 40.8251 25.7928 40.8251Z" fill="#79BF66"/>
<path d="M32.764 26.7067C32.6902 26.5846 32.5568 26.513 32.4142 26.5189C31.3972 26.5608 27.2115 26.937 24.6873 30.2676C24.6873 30.2676 24.493 31.1949 24.2876 31.5663C21.6037 36.4186 24.5396 41.1621 24.5396 41.1621C24.5396 41.1621 30.6319 40.9558 33.1639 36.3782C34.5945 33.7918 34.2078 31.2966 33.6975 29.4455C33.5927 29.0656 33.5622 28.3604 33.5622 28.3604C33.2579 27.5683 32.9346 26.989 32.764 26.7067Z" fill="#98DB7C"/>
<path d="M4.54585 27.9913C4.40307 27.9917 4.273 28.0695 4.20464 28.1948C3.95376 28.6549 3.34614 29.8805 3.01909 31.4946C3.01909 31.4946 3.02397 32.6087 3.00054 33.2162C2.94292 34.7102 3.4479 36.264 4.39282 37.9037C7.20483 42.783 12.8065 42.7265 12.8065 42.7265C12.8065 42.7265 15.8096 37.3071 13.1568 32.704C12.5833 31.7087 11.6808 31.1944 10.943 30.5741C10.5817 30.2703 10.0453 29.5052 10.0453 29.5052C7.73599 28.0972 5.29087 27.9886 4.54585 27.9913Z" fill="#B8EB7C"/>
<path d="M13.1563 32.7041C12.3018 31.2217 11.1904 30.2041 10.0449 29.5059C8.07013 31.0479 6.62286 33.237 6.02188 35.7523C5.96925 35.9725 5.70059 36.0562 5.53565 35.9013C4.95518 35.3563 4.41925 34.7029 3.9669 33.918C3.50108 33.1094 3.19933 32.2939 3.01964 31.4951C2.64366 33.3486 2.6378 35.7139 3.9669 38.0195C6.7794 42.8984 12.8067 42.7266 12.8067 42.7266C12.8067 42.7266 14.6455 35.2881 13.1563 32.7041Z" fill="#98DB7C"/>
<path d="M33.164 36.3779C31.1405 40.0371 26.8417 40.9033 25.1982 41.1035C24.7851 41.1533 24.54 41.1621 24.54 41.1621C24.54 41.1621 24.2958 40.7803 23.998 40.125C23.2187 38.4072 22.0751 34.8105 24.0175 31.2979C24.2226 30.9258 24.4482 30.583 24.6874 30.2676C25.1386 30.7002 25.5536 31.1709 25.9276 31.6738C26.08 31.8799 26.3847 31.8906 26.5448 31.6914C26.578 31.6504 26.6112 31.6104 26.6454 31.5693C28.2919 29.6025 30.7353 28.4727 33.5624 28.3604C34.2773 30.2227 34.8886 33.2607 33.164 36.3779Z" fill="#86CC72"/>
<path d="M26.3842 38.3674C26.3842 33.3674 22.5175 29.2721 17.6163 28.9189C17.6163 28.9189 17.1595 28.95 16.928 28.95C11.7056 28.95 8.11279 33.1354 8.11279 38.3674H26.3842Z" fill="#E27F86"/>
<path d="M17.6602 28.9219C12.7793 29.2969 8.93652 33.3818 8.93652 38.3672H7.47168C7.47168 33.1348 11.7051 28.8936 16.9277 28.8936C17.1738 28.8936 17.4189 28.9043 17.6602 28.9219Z" fill="#DF646E"/>
<path d="M23.2321 38.3671C23.2321 36.9007 22.7332 35.551 21.8962 34.4791L21.3045 34.0421L20.868 33.4367C19.9681 32.7141 18.8661 32.2336 17.6604 32.0938L16.928 32.3322L16.1954 32.0938C15.0159 32.2305 13.9356 32.6934 13.0468 33.3901L12.6768 34.1385L12.0063 34.4203C11.1414 35.5015 10.624 36.8737 10.624 38.3671H23.2321Z" fill="#DF646E"/>
<path d="M35.6525 30.4503C35.6037 30.3138 35.4844 30.2165 35.341 30.1958C34.6898 30.1017 32.7438 29.9186 30.7786 30.6973C30.7786 30.6973 30.3201 30.9352 30.0891 31.056C29.3506 31.4424 28.7493 32.0617 28.1176 32.8159C25.2412 36.2502 27.0775 40.4681 27.0775 40.4681C27.0775 40.4681 31.749 41.3771 34.4625 38.1372C37.0521 35.0453 35.9815 31.3697 35.6525 30.4503Z" fill="#B8EB7C"/>
<path d="M33.2324 39.264C30.4971 41.178 26.8857 40.6019 26.8857 40.6019C26.8857 40.6019 25.1162 36.1331 27.9922 32.6985C28.8262 31.7024 29.8137 31.0781 30.7951 30.6914C30.3244 31.0195 29.8711 31.4222 29.457 31.9173C26.581 35.3519 28.3506 39.8206 28.3506 39.8206C28.3506 39.8206 30.8271 40.2151 33.2324 39.264Z" fill="#98DB7C"/>
<path d="M46.1511 31.1199C46.0796 30.9936 45.9447 30.9182 45.7997 30.9231C45.2284 30.9424 43.6885 31.0709 42.1582 31.8616C42.1582 31.8616 41.4628 32.4364 41.0954 32.727C40.5008 33.1973 39.8762 33.6636 39.4314 34.4353C37.3317 38.0785 39.693 41.919 39.693 41.919C39.693 41.919 44.0781 41.7922 46.059 38.3552C46.2978 37.9407 46.5682 37.5158 46.7053 37.108C46.8906 36.557 47.1782 35.5581 47.1782 35.5581C47.3396 33.4403 46.4757 31.693 46.1511 31.1199Z" fill="#B8EB7C"/>
<path d="M42.6989 37.2069C43.0232 35.4251 42.8451 33.5676 42.1579 31.8623C41.1352 32.4012 40.092 33.257 39.4316 34.4359C37.332 38.0795 39.6923 41.9193 39.6923 41.9193C39.6923 41.9193 39.6999 41.9192 39.7132 41.9187C39.7181 41.9187 39.7238 41.9184 39.7303 41.9182C39.8225 41.9147 40.0799 41.9018 40.4472 41.8539C40.4474 41.8537 40.4476 41.8534 40.4478 41.8532C41.8411 41.6699 44.8084 40.9813 46.2929 38.4047C46.8544 37.4301 47.1086 36.4604 47.178 35.559C45.8804 36.7908 44.2077 37.3208 43.0429 37.5486C42.8393 37.5885 42.6616 37.4111 42.6989 37.2069Z" fill="#98DB7C"/>
<path d="M27.8623 41.1617C30.9396 44.2447 35.7097 44.1389 38.787 41.056C41.5307 38.3074 41.8282 34.0364 39.6797 30.9575C39.6797 30.9575 39.277 30.5933 39.055 30.3469C38.906 30.1815 38.6471 30.1774 38.4898 30.335L27.8623 41.1617Z" fill="#FFD05B"/>
<path d="M39.6799 30.9581L28.7021 41.9475C28.3301 41.6867 27.9756 41.3899 27.6426 41.0568L33.5166 36.2701L36.0011 32.6833L38.5029 30.177C38.6602 30.0188 38.9189 30.0236 39.0684 30.1887C39.29 30.4348 39.4943 30.6915 39.6799 30.9581Z" fill="#FFC244"/>
<path d="M30.4292 38.2657C31.9679 39.8072 34.4626 39.8072 36.0013 38.2657C37.5399 36.7242 37.5399 34.2251 36.0013 32.6836L33.4962 36.0526L30.4292 38.2657Z" fill="#FFE077"/>
<path d="M36.8018 33.8384L31.5801 39.0659C31.1631 38.8765 30.7725 38.6089 30.4287 38.2651L36.0011 32.6826C36.3448 33.0273 36.6123 33.4194 36.8018 33.8384Z" fill="#FFD05B"/>
<path d="M41.0111 47.4513L8.62363 47.6609C4.38252 47.6609 1.11426 44.6688 1.11426 40.4277V39.3214C1.11426 38.821 1.51992 38.4153 2.02031 38.4153L2.68555 38.2578H48.3615C48.8619 38.2578 49.2676 38.6635 49.2676 39.1639V40.2702C49.2676 41.1076 49.1336 41.9137 48.8857 42.6682L48.2574 43.4626L48.2268 44.1331C47.8192 44.8319 47.3046 45.4605 46.7053 45.9964C46.7052 45.9964 42.9767 47.4513 41.0111 47.4513Z" fill="#DFBDF0"/>
<path d="M46.7052 45.9963C45.3468 47.2111 43.5537 47.9493 41.5879 47.9493H8.41211C5.57939 47.9493 3.10469 46.4154 1.77354 44.1329L1.87168 43.3066L1.11445 42.6681C0.866504 41.9134 0.732422 41.1071 0.732422 40.2696V39.1642C0.732422 38.6632 1.1377 38.2579 1.63867 38.2579L2.68555 38.2578V38.8673C2.68555 42.8048 5.87695 45.9962 9.81445 45.9962L46.7052 45.9963Z" fill="#CBB0F2"/>
<path d="M33.9284 16.1775C33.9284 15.5488 33.6518 14.9837 33.214 14.5972C33.4384 14.2622 33.5694 13.8596 33.5694 13.4271C33.5694 12.265 32.6239 11.3195 31.4618 11.3195H28.3867C27.9207 11.3195 27.5034 11.1262 27.2119 10.7753C26.9155 10.4185 26.7961 9.94289 26.8843 9.47024L27.2093 7.72863C27.4692 6.33508 26.765 4.92609 25.4972 4.30197C25.1158 4.11428 24.672 4.10031 24.2795 4.2633C23.985 4.38518 23.5918 4.72238 23.4418 5.17082L21.9496 9.89475C21.6389 10.7505 21.0856 11.5542 20.4395 12.129C20.1412 11.6444 19.6074 11.3195 18.9979 11.3195H17.7645C16.8308 11.3195 16.0713 12.079 16.0713 13.0127V16.2812C16.0713 16.6858 16.3992 17.0136 16.8037 17.0136C17.2082 17.0136 17.5361 16.6858 17.5361 16.2812V13.0127C17.5361 12.8867 17.6386 12.7843 17.7645 12.7843H18.9978C19.1237 12.7843 19.2262 12.8867 19.2262 13.0127V21.7926C19.2262 21.9186 19.1237 22.021 18.9978 22.021H17.7645C17.6385 22.021 17.5361 21.9186 17.5361 21.7926V19.699C17.5361 19.2945 17.2082 18.9666 16.8037 18.9666C16.3992 18.9666 16.0713 19.2945 16.0713 19.699V21.7926C16.0713 22.7263 16.8309 23.4859 17.7645 23.4859H18.9978C19.5458 23.4859 20.0324 23.223 20.3421 22.8179C20.9449 23.2026 21.8723 23.4859 23.2982 23.4859H30.647C31.7264 23.4859 32.6046 22.6077 32.6046 21.5282C32.6046 21.2653 32.5524 21.0141 32.458 20.7849C33.119 20.4288 33.5694 19.7299 33.5694 18.9279C33.5694 18.4952 33.4384 18.0926 33.214 17.7577C33.6518 17.3712 33.9284 16.8061 33.9284 16.1775ZM31.8208 16.8202H29.5771C29.1726 16.8202 28.8446 17.1481 28.8446 17.5527C28.8446 17.9572 29.1726 18.2851 29.5771 18.2851H31.4618C31.8162 18.2851 32.1046 18.5735 32.1046 18.9279C32.1046 19.2822 31.8162 19.5706 31.4618 19.5706H29.5771C29.1726 19.5706 28.8446 19.8985 28.8446 20.303C28.8446 20.7076 29.1726 21.0355 29.5771 21.0355H30.6471C30.9187 21.0355 31.1398 21.2566 31.1398 21.5282C31.1398 21.7999 30.9187 22.021 30.6471 22.021H23.2983C21.6737 22.021 20.7038 21.6039 20.7038 20.9052C20.7038 20.9052 20.7053 13.9504 20.6911 13.7721C21.8384 13.038 22.8289 11.7769 23.3327 10.3778C23.3577 10.3455 24.8053 5.63723 24.8503 5.61613C25.5314 5.95139 25.9094 6.70949 25.7694 7.45998L25.4445 9.20148C25.2762 10.1035 25.5098 11.0183 26.0854 11.7112C26.6519 12.3931 27.4907 12.7842 28.3869 12.7842H31.462C31.8164 12.7842 32.1048 13.0726 32.1048 13.427C32.1048 13.7814 31.8164 14.0697 31.462 14.0697H29.5772C29.1728 14.0697 28.8448 14.3976 28.8448 14.8022C28.8448 15.2068 29.1728 15.5346 29.5772 15.5346H31.821C32.1754 15.5346 32.4638 15.823 32.4638 16.1774C32.4638 16.5318 32.1752 16.8202 31.8208 16.8202Z" fill="black"/>
<path d="M48.3615 37.5253H47.5048C48.811 33.8793 46.7402 30.6654 46.643 30.5178C46.5115 30.3183 46.291 30.1955 46.0523 30.1887C45.9278 30.1854 43.2767 30.1321 40.9676 31.7235C40.5552 30.8659 39.999 30.0693 39.3057 29.3747C39.1683 29.2371 38.9817 29.1598 38.7873 29.1598C38.5928 29.1598 38.4063 29.2371 38.2689 29.3747L36.5955 31.0512C36.4303 30.3839 36.2534 29.9701 36.2418 29.9432C36.147 29.7242 35.9514 29.565 35.7177 29.5168C35.6618 29.5053 35.2677 29.4276 34.6606 29.3907C34.3572 28.2187 33.9211 27.2861 33.6131 26.7169C37.097 24.0425 39.1602 19.8875 39.1602 15.4785C39.1602 12.2935 38.1273 9.28516 36.1734 6.779C35.9248 6.45986 35.4645 6.40293 35.1455 6.65166C34.8265 6.90039 34.7695 7.36064 35.0182 7.67959C36.7696 9.92607 37.6953 12.6229 37.6953 15.4785C37.6953 19.5603 35.7229 23.3993 32.4121 25.7849C31.6075 25.8117 28.9701 26.024 26.5425 27.5774C23.8993 24.7385 20.2883 24.2909 20.1275 24.2725C19.8903 24.245 19.6544 24.3352 19.4958 24.514C19.4583 24.5562 18.8987 25.1945 18.2927 26.2575C14.5833 23.9455 12.3047 19.8762 12.3047 15.4785C12.3047 8.47822 17.9998 2.7832 25 2.7832C27.8208 2.7832 30.4913 3.68857 32.7228 5.40146C33.0437 5.64785 33.5034 5.5873 33.7497 5.26641C33.996 4.94561 33.9355 4.48574 33.6147 4.23945C31.1251 2.32852 28.1462 1.31836 25 1.31836C17.1921 1.31836 10.8398 7.67061 10.8398 15.4785C10.8398 20.4305 13.4298 25.0096 17.6372 27.5745C17.5551 27.7665 17.4757 27.9662 17.4 28.1725C17.2431 28.1652 17.0856 28.1615 16.9278 28.1615C15.0037 28.1615 13.1583 28.6939 11.5618 29.6882C8.37441 27.0537 4.44639 27.2559 4.27334 27.2659C4.03496 27.2802 3.81846 27.41 3.69336 27.6135C3.65488 27.6761 2.74561 29.1716 2.30449 31.3327C2.22363 31.7291 2.47939 32.116 2.87568 32.1969C2.9251 32.207 2.97432 32.2118 3.02285 32.2118C3.36367 32.2117 3.66895 31.9726 3.73975 31.6257C4.01064 30.2982 4.48789 29.2441 4.75205 28.7276C5.70039 28.7535 8.19551 28.9832 10.3341 30.5861C10.1415 30.7503 9.9541 30.9223 9.77236 31.1019C8.0209 32.8328 6.97119 35.0924 6.77373 37.5253H4.53154C4.05937 36.6707 3.7499 35.7481 3.61504 34.779C3.55928 34.3783 3.18848 34.0983 2.78867 34.1545C2.38799 34.2103 2.1084 34.5803 2.16416 34.981C2.2873 35.8654 2.53301 36.7176 2.89463 37.5253H1.63848C0.734961 37.5253 0 38.2603 0 39.1637V40.2699C0 44.9081 3.77344 48.6816 8.41162 48.6816H41.5883C46.2265 48.6816 49.9999 44.9081 49.9999 40.2699V39.1637C50 38.2603 49.265 37.5253 48.3615 37.5253ZM45.6147 31.6671C46.072 32.5449 47.0883 34.9814 45.922 37.5252H41.5808C41.9353 36.0682 41.8988 34.5591 41.5037 33.146C43.0031 31.9751 44.8254 31.7212 45.6147 31.6671ZM38.7605 30.9557C40.2449 32.7863 40.7397 35.2547 40.0647 37.5252H37.4119C38.1535 35.9933 38.0155 34.1319 36.9953 32.7239L38.7605 30.9557ZM35.9403 33.781C36.6534 34.937 36.5682 36.4566 35.6842 37.5253H32.2027L35.9403 33.781ZM35.3455 32.3033L30.1329 37.5253H27.0809C27.0703 36.2292 27.3625 34.5915 28.5541 33.1688C30.6521 30.664 33.914 30.7735 35.0311 30.8962C35.1309 31.2067 35.2635 31.6967 35.3455 32.3033ZM32.2417 27.2634C32.4724 27.6699 32.8534 28.4249 33.145 29.4075C31.4142 29.5517 29.146 30.1807 27.4312 32.2282C26.8963 32.8669 26.5088 33.5365 26.2325 34.2056C25.8283 33.2995 25.2907 32.4547 24.6354 31.6962C24.6434 31.6816 24.6508 31.6668 24.6589 31.6522C26.7112 27.9416 30.937 27.3556 32.2417 27.2634ZM20.3461 25.794C21.2508 25.9771 23.5646 26.6061 25.3641 28.4647C24.7021 29.0482 24.0857 29.7586 23.5632 30.6231C22.2206 29.4677 20.616 28.6917 18.9004 28.354C19.3873 27.1522 20.0084 26.2417 20.3461 25.794ZM16.9278 29.6264C21.4557 29.6264 25.1821 33.0198 25.6109 37.5253H23.9147C23.7267 35.9363 23.0083 34.4676 21.8523 33.3329C20.5293 32.0344 18.7804 31.3192 16.9277 31.3192C15.0751 31.3192 13.3262 32.0344 12.0031 33.3329C10.8472 34.4676 10.1289 35.9363 9.94082 37.5253H8.24502C8.67168 33.109 12.4263 29.6264 16.9278 29.6264ZM12.5354 34.9509L13.31 35.7269C13.453 35.8701 13.6406 35.9418 13.8283 35.9418C14.0155 35.9418 14.2027 35.8705 14.3457 35.7278C14.632 35.442 14.6324 34.9782 14.3467 34.692L13.5777 33.9217C14.3285 33.3507 15.2247 32.9653 16.1954 32.8348V34.2096C16.1954 34.6142 16.5233 34.942 16.9278 34.942C17.3323 34.942 17.6603 34.6142 17.6603 34.2096V32.8348C18.6566 32.9688 19.5745 33.3715 20.3372 33.9676L19.6141 34.692C19.3283 34.9783 19.3287 35.4421 19.615 35.7278C19.758 35.8705 19.9452 35.9418 20.1324 35.9418C20.32 35.9418 20.5077 35.8701 20.6508 35.7269L21.3659 35.0104C21.9143 35.7337 22.2908 36.5928 22.434 37.5253H11.4217C11.5688 36.5671 11.9623 35.6863 12.5354 34.9509ZM41.5884 47.2168H8.41162C6.00957 47.2168 3.88877 45.991 2.64072 44.1324H32.695C33.0995 44.1324 33.4274 43.8046 33.4274 43.4C33.4274 42.9954 33.0995 42.6676 32.695 42.6676H1.8916C1.61582 41.9199 1.46484 41.1123 1.46484 40.2699V39.1637C1.46484 39.068 1.54268 38.9901 1.63848 38.9901H48.3615C48.4572 38.9901 48.5352 39.068 48.5352 39.1637V40.2699C48.5352 41.1122 48.3842 41.9198 48.1084 42.6676H36.113C35.7085 42.6676 35.3806 42.9954 35.3806 43.4C35.3806 43.8046 35.7085 44.1324 36.113 44.1324H47.3592C46.1112 45.991 43.9904 47.2168 41.5884 47.2168Z" fill="black"/>
</g>
<defs>
<clipPath id="clip0_1694_6185">
<rect width="50" height="50" fill="white"/>
</clipPath>
</defs>
</svg>
