<svg width="50" height="50" viewBox="0 0 50 50" fill="none" xmlns="http://www.w3.org/2000/svg">
<g clip-path="url(#clip0_1987_15198)">
<path d="M25 50C38.8071 50 50 38.8071 50 25C50 11.1929 38.8071 0 25 0C11.1929 0 0 11.1929 0 25C0 38.8071 11.1929 50 25 50Z" fill="#EAB14D"/>
<path d="M24.9982 0C24.552 0 24.1085 0.012207 23.668 0.0352539C36.8566 0.726855 47.3378 11.6392 47.3378 25C47.3378 38.3608 36.8566 49.2731 23.668 49.9647C24.1085 49.9878 24.552 50 24.9982 50C38.8054 50 49.9982 38.8071 49.9982 25C49.9982 11.1929 38.8054 0 24.9982 0Z" fill="#E49542"/>
<path d="M25.0007 44.4809C35.7598 44.4809 44.4818 35.7589 44.4818 24.9997C44.4818 14.2406 35.7598 5.51855 25.0007 5.51855C14.2415 5.51855 5.51953 14.2406 5.51953 24.9997C5.51953 35.7589 14.2415 44.4809 25.0007 44.4809Z" fill="#F4FBFF"/>
<path d="M25.0005 5.51855C24.4609 5.51855 23.9269 5.5415 23.3984 5.58447C33.4081 6.39932 41.2776 14.7801 41.2776 24.9997C41.2776 35.2193 33.4081 43.6 23.3984 44.4149C23.9269 44.458 24.4609 44.481 25.0005 44.481C35.7597 44.481 44.4816 35.7589 44.4816 24.9998C44.4816 14.2407 35.7597 5.51855 25.0005 5.51855Z" fill="#DAF1F4"/>
<path d="M25.0006 11.5148C24.5839 11.5148 24.2461 11.1771 24.2461 10.7604V9.65293C24.2461 9.23623 24.5839 8.89844 25.0006 8.89844C25.4173 8.89844 25.7552 9.23623 25.7552 9.65293V10.7604C25.7552 11.1771 25.4173 11.5148 25.0006 11.5148Z" fill="#2B4D66"/>
<path d="M35.028 15.7023C34.8348 15.7023 34.6418 15.6285 34.4944 15.4813C34.1998 15.1865 34.1998 14.7089 34.4945 14.4142L35.2776 13.6312C35.5722 13.3364 36.05 13.3365 36.3447 13.6312C36.6393 13.9259 36.6393 14.4035 36.3446 14.6983L35.5615 15.4814C35.4141 15.6285 35.2211 15.7023 35.028 15.7023Z" fill="#2B4D66"/>
<path d="M40.2643 25.7551H39.1568C38.74 25.7551 38.4023 25.4173 38.4023 25.0006C38.4023 24.5839 38.7401 24.2461 39.1568 24.2461H40.2643C40.6811 24.2461 41.0187 24.5839 41.0187 25.0006C41.0187 25.4173 40.681 25.7551 40.2643 25.7551Z" fill="#2B4D66"/>
<path d="M35.7524 36.5655C35.5594 36.5655 35.3662 36.4918 35.2188 36.3445L34.4358 35.5615C34.1412 35.2668 34.1412 34.7892 34.4358 34.4943C34.7305 34.1998 35.2082 34.1998 35.503 34.4943L36.286 35.2773C36.5806 35.5721 36.5806 36.0497 36.286 36.3445C36.1386 36.4918 35.9455 36.5655 35.7524 36.5655Z" fill="#2B4D66"/>
<path d="M24.9186 41.0197C24.5019 41.0197 24.1641 40.6819 24.1641 40.2652V39.1578C24.1641 38.741 24.5019 38.4033 24.9186 38.4033C25.3353 38.4033 25.673 38.7411 25.673 39.1578V40.2652C25.673 40.6819 25.3353 41.0197 24.9186 41.0197Z" fill="#2B4D66"/>
<path d="M14.1061 36.5079C13.913 36.5079 13.7198 36.4342 13.5726 36.2868C13.2778 35.9922 13.2779 35.5145 13.5726 35.2198L14.3557 34.4367C14.6504 34.1422 15.128 34.1421 15.4228 34.4368C15.7174 34.7315 15.7174 35.2092 15.4227 35.5039L14.6396 36.2869C14.4923 36.4343 14.2991 36.5079 14.1061 36.5079Z" fill="#2B4D66"/>
<path d="M10.7604 25.673H9.65293C9.23623 25.673 8.89844 25.3353 8.89844 24.9186C8.89844 24.5019 9.23623 24.1641 9.65293 24.1641H10.7604C11.1771 24.1641 11.5148 24.5019 11.5148 24.9186C11.5149 25.3353 11.1771 25.673 10.7604 25.673Z" fill="#2B4D66"/>
<path d="M14.9478 15.6447C14.7547 15.6447 14.5616 15.571 14.4143 15.4237L13.6312 14.6406C13.3365 14.3459 13.3364 13.8683 13.6311 13.5736C13.9258 13.2789 14.4034 13.2788 14.6982 13.5735L15.4813 14.3566C15.7759 14.6512 15.776 15.1289 15.4814 15.4237C15.3339 15.5709 15.1408 15.6447 14.9478 15.6447Z" fill="#2B4D66"/>
<path d="M24.9986 25.7545H18.5904C18.1737 25.7545 17.8359 25.4166 17.8359 24.9999C17.8359 24.5832 18.1737 24.2454 18.5904 24.2454H24.244V14.6461C24.244 14.2294 24.5818 13.8916 24.9985 13.8916C25.4152 13.8916 25.753 14.2294 25.753 14.6461V24.9999C25.7531 25.4166 25.4153 25.7545 24.9986 25.7545Z" fill="#2B4D66"/>
<path d="M32.7416 29.7354C32.6254 29.7354 32.5076 29.7084 32.3971 29.6517L24.6557 25.6708C24.2851 25.4803 24.1392 25.0254 24.3298 24.6548C24.5203 24.2842 24.9752 24.1382 25.3459 24.3288L33.0873 28.3096C33.4579 28.5002 33.6039 28.9551 33.4133 29.3256C33.2794 29.5859 33.0153 29.7354 32.7416 29.7354Z" fill="#DA4A54"/>
<path d="M24.9982 27.0141C26.1105 27.0141 27.0121 26.1124 27.0121 25.0002C27.0121 23.888 26.1105 22.9863 24.9982 22.9863C23.886 22.9863 22.9844 23.888 22.9844 25.0002C22.9844 26.1124 23.886 27.0141 24.9982 27.0141Z" fill="#365E7D"/>
</g>
<defs>
<clipPath id="clip0_1987_15198">
<rect width="50" height="50" fill="white"/>
</clipPath>
</defs>
</svg>
