<svg width="60" height="60" viewBox="0 0 60 60" fill="none" xmlns="http://www.w3.org/2000/svg">
<g clip-path="url(#clip0_1667_11256)">
<path d="M56.8562 28.727C56.0107 27.675 55.711 26.2781 56.0561 24.9733C57.3786 19.9739 55.4242 14.483 50.8428 11.5291C46.2614 8.57521 40.4533 9.06162 36.4455 12.3297C35.3994 13.1826 34.0035 13.4861 32.6962 13.1503C28.5328 12.0807 23.976 13.7206 21.5188 17.5316C18.4587 22.278 20.5822 26.8171 20.5873 26.8271C20.7078 27.1364 25.5352 40.6737 20.6639 52.8727C20.1279 54.2149 20.6135 55.7484 21.8281 56.5315C23.0428 57.3147 24.6399 57.1239 25.6412 56.0818C34.7419 46.6098 49.0649 45.4192 49.3964 45.4013C49.4075 45.4018 54.4183 45.4626 57.4785 40.7162C59.936 36.9052 59.5488 32.0778 56.8562 28.727Z" fill="#7EC66A"/>
<path d="M42.9264 9.63867C40.5791 9.8851 38.3161 10.8039 36.4455 12.3292C35.3994 13.1822 34.0035 13.4857 32.6962 13.1499C28.5328 12.0802 23.976 13.7202 21.5188 17.5312C18.4587 22.2776 20.5822 26.8167 20.5873 26.8267C20.7078 27.136 25.5352 40.6733 20.6639 52.8723C20.1279 54.2145 20.6135 55.748 21.8282 56.5311C23.0429 57.3142 24.6401 57.1236 25.6414 56.0814C28.0399 53.585 30.8012 51.6644 33.5734 50.1884C36.8466 43.4348 42.563 38.8334 43.3538 38.2181C44.1525 37.6786 45.5601 36.5894 46.9547 34.837C49.3469 31.8311 50.6391 28.1906 50.6918 24.3094C50.7731 18.3088 47.7694 12.8291 42.9264 9.63867Z" fill="#5AAA4F"/>
<path d="M43.164 23.4397C41.5696 22.4118 29.2992 38.4219 22.0737 48.2211C21.7392 49.7717 21.2801 51.3301 20.6666 52.8674C20.1301 54.2116 20.6125 55.747 21.8289 56.5312C23.0452 57.3154 24.6428 57.1211 25.6457 56.0776C26.7926 54.8842 28.0227 53.8228 29.297 52.8782C35.2403 42.2522 44.7583 24.4677 43.164 23.4397Z" fill="#FFCD00"/>
<path d="M36.7747 14.3811C35.4999 13.9377 34.5049 12.9124 34.1054 11.6232C32.5747 6.68362 28.0055 3.06533 22.555 2.99139C17.1044 2.91745 12.4387 6.41047 10.7746 11.3067C10.3404 12.5846 9.31785 13.5824 8.03156 13.9911C3.93459 15.2928 0.94146 19.1 0.87994 23.6342C0.803305 29.2811 5.01113 32.0025 5.02074 32.0084C5.28709 32.2066 16.5598 41.1222 18.9008 54.0474C19.1584 55.4695 20.3834 56.512 21.8286 56.5316C23.2737 56.5512 24.5265 55.5424 24.8227 54.1278C27.5135 41.2707 39.024 32.6643 39.2956 32.4733C39.3053 32.4678 43.5854 29.8615 43.6621 24.2146C43.7235 19.6804 40.8346 15.7934 36.7747 14.3811Z" fill="#92DD7A"/>
<path d="M18.5747 15.8771C18.316 8.50378 23.3693 5.3071 27.1472 3.95027C25.7332 3.35429 24.1839 3.01353 22.5549 2.99139C17.1042 2.91745 12.4386 6.41047 10.7744 11.3067C10.3401 12.5847 9.31762 13.5824 8.03133 13.9911C3.93459 15.2928 0.94146 19.1 0.87994 23.6342C0.803305 29.2811 5.01113 32.0026 5.02074 32.0084C5.28709 32.2066 16.5598 41.1222 18.9008 54.0475C19.1584 55.4696 20.3834 56.5121 21.8286 56.5317C23.2737 56.5513 24.5265 55.5424 24.8227 54.1279C25.0854 52.8725 25.4332 51.6583 25.8454 50.4879C8.27565 31.9342 18.9399 26.2792 18.5747 15.8771Z" fill="#7EC66A"/>
<path d="M22.3624 17.1621C20.4656 17.1364 18.5556 37.2172 17.6279 49.3569C18.167 50.8487 18.6043 52.4134 18.8996 54.042C19.1577 55.466 20.3811 56.5118 21.8283 56.5314C23.2753 56.5511 24.5266 55.5389 24.8234 54.1224C25.1627 52.5024 25.6425 50.9501 26.2217 49.4734C25.6236 37.313 24.2592 17.1879 22.3624 17.1621Z" fill="#FFEB99"/>
<path d="M21.8281 56.5314C23.2752 56.5511 24.5264 55.5389 24.8233 54.1224C25.0859 52.869 25.4332 51.6565 25.845 50.4877C22.3122 46.7572 19.9203 43.5478 18.3514 40.7168C18.0716 43.7778 17.827 46.7505 17.6279 49.357C18.167 50.8488 18.6043 52.4135 18.8996 54.0421C19.1577 55.466 20.3811 56.5117 21.8281 56.5314Z" fill="#FFDE55"/>
<path d="M57.5414 28.1764C56.8709 27.342 56.6334 26.2286 56.9059 25.198C58.3665 19.6765 56.1214 13.8865 51.3192 10.7905C47.146 8.09989 41.8836 7.97919 37.5856 10.4758C37.1659 10.7197 37.0234 11.2575 37.2671 11.6773C37.511 12.097 38.0488 12.2396 38.4686 11.9958C42.1921 9.83263 46.7513 9.93681 50.3668 12.2678C54.5268 14.9499 56.4719 19.9654 55.2067 24.7485C54.7918 26.3166 55.1524 28.0097 56.1713 29.2774C58.7058 32.4313 58.9344 36.8368 56.7404 40.24C54.0261 44.4499 49.7029 44.5227 49.416 44.5227C49.4126 44.5227 45.5073 44.8106 40.5462 46.3572C37.0615 47.4436 34.172 48.7853 31.7989 50.1837C33.1201 47.7888 34.6688 44.944 36.2184 42.012C39.1994 40.6084 43.0276 39.3745 47.4577 39.2145C47.9428 39.197 48.3218 38.7896 48.3043 38.3045C48.2869 37.8192 47.8784 37.4418 47.3943 37.4579C43.6005 37.5948 40.2437 38.4785 37.5131 39.5402C38.7695 37.1196 39.9828 34.7108 41.0287 32.5129C42.5858 32.0297 44.714 31.5698 47.329 31.4875C47.8142 31.4723 48.1951 31.0666 48.1799 30.5816C48.1646 30.0964 47.7594 29.7155 47.274 29.7308C45.552 29.7849 44.0201 29.9891 42.6834 30.2684C43.6577 28.8183 44.5056 26.8197 44.5407 24.2263C44.6059 19.4195 41.601 15.1293 37.0635 13.551C36.0524 13.1991 35.2604 12.3813 34.9448 11.363C33.2543 5.90745 28.28 2.19002 22.5668 2.11257C20.2182 2.08034 17.9032 2.67691 15.8745 3.83723C15.4531 4.07827 15.3069 4.61507 15.5478 5.03633C15.7888 5.45783 16.3257 5.60395 16.747 5.36303C18.5032 4.35868 20.5033 3.84215 22.543 3.87004C27.4922 3.93718 31.8015 7.15753 33.2659 11.8833C33.7461 13.4326 34.9498 14.6766 36.486 15.2111C40.3075 16.5404 42.838 20.1537 42.7831 24.2026C42.7145 29.2707 39.0024 31.6214 38.8386 31.7224C38.822 31.7324 35.6852 34.0349 32.2994 37.9781C29.9214 40.7476 28.1835 43.4179 26.9136 45.8621C26.7658 43.1805 26.5693 39.9399 26.3257 36.6041C28.1123 33.8241 30.7059 30.7379 34.37 28.2569C34.7719 27.9848 34.8771 27.4384 34.6049 27.0364C34.3328 26.6344 33.7863 26.5294 33.3844 26.8015C30.2404 28.9302 27.8633 31.4602 26.1115 33.809C25.9714 32.0679 25.8189 30.3365 25.6537 28.6801C25.5586 27.7255 25.4623 26.8275 25.3649 25.9842C26.4711 24.6973 28.0272 23.2058 30.1623 21.7748C30.5655 21.5046 30.6732 20.9587 30.4029 20.5556C30.1326 20.1522 29.5865 20.0447 29.1836 20.3149C27.4993 21.4438 26.1425 22.5493 25.0606 23.5569C24.8906 22.3142 24.7181 21.2394 24.5443 20.3442C24.0472 17.7842 23.5328 16.2991 22.3743 16.2835C22.3682 16.2834 22.3622 16.2834 22.3561 16.2834C21.2102 16.2834 20.6585 17.7518 20.0951 20.2838C19.8897 21.2071 19.6806 22.3235 19.4691 23.6202C18.4253 22.4998 17.1079 21.3005 15.4584 20.1287C15.0629 19.8477 14.5141 19.9406 14.233 20.3361C13.9519 20.7318 14.0448 21.2806 14.4405 21.5615C16.5735 23.0767 18.0919 24.6372 19.1217 25.9011C19.0015 26.741 18.8808 27.6355 18.76 28.5866C18.5502 30.2379 18.3507 31.9646 18.1635 33.7012C16.4761 31.3058 14.1683 28.7122 11.0833 26.4989C10.6889 26.2158 10.1398 26.3062 9.85692 26.7007C9.57393 27.095 9.66428 27.6443 10.0587 27.9271C13.6571 30.5087 16.1652 33.6591 17.8744 36.482C17.5401 39.8129 17.2554 43.0504 17.0348 45.7293C15.453 42.482 13.5259 39.7452 11.8648 37.7009C8.58763 33.6678 5.57399 31.3245 5.54551 31.3033C5.52957 31.2915 5.5134 31.2802 5.49665 31.2695C5.32287 31.1553 1.68993 28.7047 1.7586 23.6459C1.81344 19.5971 4.44121 16.0537 8.29725 14.8286C9.84731 14.3362 11.0845 13.1254 11.6064 11.5894C12.1172 10.0864 12.9239 8.72833 14.0039 7.55313C14.3324 7.19561 14.3088 6.63971 13.9514 6.31125C13.594 5.98256 13.038 6.00635 12.7097 6.36363C11.4632 7.72011 10.5321 9.28798 9.94223 11.0239C9.59912 12.0332 8.78519 12.8293 7.76502 13.1535C3.18644 14.6083 0.0662838 18.8153 0.00113164 23.6223C-0.0771447 29.3906 3.9296 32.3292 4.5019 32.7179C4.85345 32.9922 15.7666 41.6738 18.0361 54.204C18.3531 55.954 19.8175 57.2617 21.5674 57.3979C22.1579 57.727 22.8087 57.8887 23.457 57.8887C24.4916 57.8887 25.5181 57.4792 26.2756 56.6906C35.1237 47.4816 49.0726 46.3065 49.4379 46.2793C50.1159 46.2693 55.1039 46.022 58.2178 41.1924C60.8227 37.1521 60.5509 31.9213 57.5414 28.1764ZM19.7656 53.8907C19.4731 52.2761 19.0421 50.7262 18.5177 49.2516C18.8489 44.9356 19.5191 36.8367 20.3757 29.8358C21.2475 22.7097 21.9327 19.8288 22.3422 18.6653C22.72 19.8395 23.3268 22.7378 24.005 29.885C24.6715 36.9091 25.1221 45.0271 25.336 49.3494C24.6654 51.0864 24.236 52.6405 23.9624 53.9477C23.7527 54.9495 22.8623 55.6615 21.8405 55.6529C20.8207 55.6391 19.948 54.898 19.7656 53.8907ZM25.4639 55.0106C25.5574 54.7868 27.1471 43.5153 38.029 34.655C34.9056 40.926 30.9522 48.1158 28.6113 52.3037C27.3551 53.2453 26.3143 54.1672 25.4639 55.0106Z" fill="black"/>
</g>
<defs>
<clipPath id="clip0_1667_11256">
<rect width="60" height="60" fill="white"/>
</clipPath>
</defs>
</svg>
