<svg width="60" height="60" viewBox="0 0 60 60" fill="none" xmlns="http://www.w3.org/2000/svg">
<g clip-path="url(#clip0_2065_7990)">
<path d="M4.64981 42.2276H34.2373V33.7393H3.24356V40.8214C3.24356 41.598 3.8732 42.2276 4.64981 42.2276Z" fill="#A298A5"/>
<path d="M5.42429 33.7393V38.7689C5.42429 39.4748 5.99652 40.047 6.70234 40.047H34.2373V42.2277H4.64981C3.8732 42.2277 3.24356 41.5981 3.24356 40.8215V33.7394H5.42429V33.7393Z" fill="#8B818E"/>
<path d="M52.5635 44.801H36.6526C35.0346 44.801 33.7229 43.4893 33.7229 41.8713V33.4268H52.5635V44.801Z" fill="#A298A5"/>
<path d="M36.0102 33.4268V41.5264C36.0102 42.0716 36.4521 42.5135 36.9973 42.5135H51.4189V44.801H36.6524C35.0344 44.801 33.7227 43.4893 33.7227 41.8713V33.4268H36.0102Z" fill="#8B818E"/>
<path d="M52.1353 38.2108C51.39 36.7549 49.8921 35.8388 48.2565 35.8388H39.272H34.7919V17.7998H52.1664C53.1843 17.7998 54.111 18.3868 54.5459 19.3071L58.8762 28.4698C59.051 28.8397 59.1416 29.2437 59.1416 29.6529V41.0604C59.1416 42.1979 58.2195 43.12 57.0819 43.12H55.1381C54.8374 43.12 54.5621 42.9516 54.4252 42.684L52.1353 38.2108Z" fill="#B3E59F"/>
<path d="M49.8243 33.4219C51.4598 33.4219 52.9577 34.3378 53.703 35.7939L55.9929 40.2671C56.1299 40.5348 56.4053 40.7032 56.7059 40.7032H58.6496C58.8196 40.7032 58.9836 40.6804 59.1416 40.6416V41.0605C59.1416 42.198 58.2195 43.1202 57.0819 43.1202H55.138C54.8373 43.1202 54.562 42.9518 54.425 42.6841L52.1352 38.2109C51.3899 36.7549 49.892 35.8389 48.2564 35.8389H39.2719H34.7918V33.4219H49.8243Z" fill="#95D6A4"/>
<path d="M52.1663 17.7999C53.1842 17.7999 54.1108 18.3869 54.5458 19.3072L58.7969 28.3021H56.19C55.7853 28.3021 55.3848 28.2175 55.0146 28.0538L46.053 24.0909C45.5972 23.8893 45.3033 23.438 45.3033 22.9398V17.7998H52.1663V17.7999Z" fill="#DDEAFB"/>
<path d="M48.1152 17.7998V25.003L46.0527 24.0909C45.597 23.8893 45.3031 23.438 45.3031 22.9398V17.7998H48.1152Z" fill="#CBE2FF"/>
<path d="M57.6359 38.932H59.1416V35.0664H57.636C56.5685 35.0664 55.7032 35.9317 55.7032 36.9992C55.7031 38.0665 56.5684 38.932 57.6359 38.932Z" fill="#FFD064"/>
<path d="M56.4199 35.4971C56.4148 35.5546 56.4111 35.6126 56.4111 35.6714C56.4111 36.7389 57.2764 37.6042 58.3439 37.6042H59.1416V38.9314H57.636C56.5685 38.9314 55.7032 38.0661 55.7032 36.9986C55.7031 36.392 55.9829 35.8514 56.4199 35.4971Z" fill="#FFC250"/>
<path d="M46.489 52.2212C42.8192 52.2212 39.8443 49.2462 39.8443 45.5764C39.8443 41.9066 42.8192 38.9316 46.489 38.9316C50.1588 38.9316 53.1338 41.9066 53.1338 45.5764C53.1338 49.2462 50.1588 52.2212 46.489 52.2212Z" fill="#756E78"/>
<path d="M42.9477 39.9551C42.3004 40.9805 41.9243 42.1942 41.9243 43.4964C41.9243 47.1662 44.8992 50.1411 48.5691 50.1411C49.8712 50.1411 51.0851 49.7651 52.1104 49.1177C50.9334 50.982 48.8565 52.2212 46.489 52.2212C42.8191 52.2212 39.8442 49.2462 39.8442 45.5764C39.8442 43.2088 41.0835 41.1319 42.9477 39.9551Z" fill="#665E66"/>
<path d="M46.4895 48.0338C45.1326 48.0338 44.0326 46.9338 44.0326 45.577C44.0326 44.2201 45.1326 43.1201 46.4895 43.1201C47.8463 43.1201 48.9463 44.2201 48.9463 45.577C48.9463 46.9338 47.8463 48.0338 46.4895 48.0338Z" fill="#F9EFDA"/>
<path d="M46.1042 43.1533C45.9709 43.456 45.8954 43.7901 45.8954 44.1422C45.8954 45.4989 46.9953 46.599 48.3522 46.599C48.4836 46.599 48.6116 46.5857 48.7373 46.5658C48.3567 47.4298 47.4941 48.0337 46.4893 48.0337C45.1325 48.0337 44.0325 46.9338 44.0325 45.5769C44.0326 44.3514 44.9308 43.3386 46.1042 43.1533Z" fill="#F4DDB1"/>
<path d="M9.42066 52.2212C5.75086 52.2212 2.7759 49.2462 2.7759 45.5764C2.7759 41.9066 5.75086 38.9316 9.42066 38.9316C13.0905 38.9316 16.0654 41.9066 16.0654 45.5764C16.0654 49.2462 13.0905 52.2212 9.42066 52.2212Z" fill="#756E78"/>
<path d="M5.87934 39.9551C5.23199 40.9805 4.85594 42.1942 4.85594 43.4964C4.85594 47.1662 7.83086 50.1411 11.5007 50.1411C12.8029 50.1411 14.0167 49.7651 15.042 49.1177C13.8651 50.982 11.7882 52.2212 9.42063 52.2212C5.75078 52.2212 2.77586 49.2462 2.77586 45.5764C2.77586 43.2088 4.01512 41.1319 5.87934 39.9551Z" fill="#665E66"/>
<path d="M9.42012 48.0338C8.06324 48.0338 6.96328 46.9338 6.96328 45.577C6.96328 44.2201 8.06324 43.1201 9.42012 43.1201C10.777 43.1201 11.877 44.2201 11.877 45.577C11.877 46.9338 10.777 48.0338 9.42012 48.0338Z" fill="#F9EFDA"/>
<path d="M9.03574 43.1533C8.90238 43.456 8.82703 43.7901 8.82703 44.1422C8.82703 45.4989 9.92695 46.599 11.2839 46.599C11.4152 46.599 11.5432 46.5857 11.6689 46.5658C11.2883 47.4298 10.4257 48.0337 9.42094 48.0337C8.06414 48.0337 6.9641 46.9338 6.9641 45.5769C6.96398 44.3514 7.86223 43.3386 9.03574 43.1533Z" fill="#F4DDB1"/>
<path d="M2.02984 37.9834H39.2969C39.9441 37.9834 40.4688 37.4587 40.4688 36.8115V8.9502C40.4688 8.30297 39.9441 7.77832 39.2969 7.77832H2.02984C1.38262 7.77832 0.857968 8.30297 0.857968 8.9502V36.8115C0.857968 37.4587 1.38273 37.9834 2.02984 37.9834Z" fill="#F9EFDA"/>
<path d="M2.02984 7.77832H4.48082V33.2163C4.48082 33.8483 4.99316 34.3607 5.62515 34.3607H40.4688V36.8392C40.4688 37.4712 39.9564 37.9835 39.3244 37.9835H2.02984C1.38262 37.9835 0.857968 37.4589 0.857968 36.8116V8.9502C0.857968 8.30297 1.38273 7.77832 2.02984 7.77832Z" fill="#F4DDB1"/>
<path d="M22.7906 17.1328C23.8161 17.1328 24.7672 17.4492 25.5534 17.9885C25.7089 18.0952 25.9115 18.0952 26.067 17.9885C26.8532 17.4491 27.8043 17.1328 28.8298 17.1328C31.5321 17.1328 33.7227 19.3234 33.7227 22.0256C33.7227 24.7279 31.5321 31.1727 28.8298 31.1727C27.8043 31.1727 26.8532 30.8563 26.067 30.317C25.9115 30.2104 25.7089 30.2104 25.5534 30.317C24.7672 30.8564 23.8161 31.1727 22.7906 31.1727C20.0884 31.1727 17.8977 24.728 17.8977 22.0256C17.8977 19.3233 20.0884 17.1328 22.7906 17.1328Z" fill="#B3E59F"/>
<path d="M20.9633 16.1627C22.422 17.6215 24.469 18.1049 25.5643 18.2636C25.9651 18.3217 26.3084 17.9783 26.2504 17.5774C26.0917 16.4822 25.6083 14.435 24.1496 12.9764C22.6908 11.5177 20.6438 11.0343 19.5486 10.8756C19.1478 10.8175 18.8044 11.1608 18.8624 11.5617C19.0211 12.6568 19.5045 14.704 20.9633 16.1627Z" fill="#95D6A4"/>
<path d="M46.4895 31.8696H44.1176C43.6436 31.8696 43.2595 31.4855 43.2595 31.0115C43.2595 30.5375 43.6437 30.1533 44.1176 30.1533H46.4895C46.9635 30.1533 47.3477 30.5375 47.3477 31.0115C47.3478 31.4855 46.9635 31.8696 46.4895 31.8696Z" fill="black"/>
<path d="M46.4897 42.2617C48.3176 42.2617 49.8047 43.7488 49.8047 45.5767C49.8047 47.4046 48.3176 48.8918 46.4897 48.8918C44.6618 48.8918 43.1747 47.4047 43.1747 45.5767C43.1747 43.7488 44.6619 42.2617 46.4897 42.2617ZM46.4897 47.1753C47.3712 47.1753 48.0882 46.4581 48.0882 45.5766C48.0882 44.6951 47.3711 43.978 46.4897 43.978C45.6083 43.978 44.8911 44.6951 44.8911 45.5766C44.8911 46.4581 45.6083 47.1753 46.4897 47.1753Z" fill="black"/>
<path d="M12.7354 45.5767C12.7354 47.4046 11.2482 48.8918 9.42035 48.8918C7.59246 48.8918 6.10535 47.4047 6.10535 45.5767C6.10535 43.7488 7.59246 42.2617 9.42035 42.2617C11.2482 42.2618 12.7354 43.7489 12.7354 45.5767ZM7.8218 45.5767C7.8218 46.4582 8.53899 47.1754 9.42035 47.1754C10.3018 47.1754 11.0189 46.4582 11.0189 45.5767C11.0189 44.6952 10.3017 43.9782 9.42035 43.9782C8.53887 43.9783 7.8218 44.6954 7.8218 45.5767Z" fill="black"/>
<path d="M2.0025 6.91992H39.3247C40.4289 6.91992 41.3272 7.81828 41.3272 8.92242V16.9413H52.1665C53.5095 16.9413 54.748 17.7259 55.3219 18.94L56.4793 21.3889C56.6818 21.8175 56.4987 22.329 56.0701 22.5316C55.6513 22.7324 55.1306 22.5552 54.9275 22.1224L53.7701 19.6734C53.4784 19.0563 52.849 18.6577 52.1665 18.6577H46.1617V22.9393C46.1617 23.0978 46.2553 23.2416 46.4003 23.3057L55.362 27.2685C55.6246 27.3846 55.9032 27.4434 56.1902 27.4434H57.4423L56.5066 25.4638C56.3041 25.0352 56.4873 24.5237 56.9159 24.3211C57.3441 24.1188 57.8559 24.3019 58.0584 24.7303L59.6523 28.1027C59.8798 28.584 60 29.12 60 29.6525V41.06C60 42.6689 58.691 43.978 57.082 43.978H55.1382C54.2892 44.006 53.713 43.3348 53.4212 42.6057V42.7078C53.7886 43.5921 53.9924 44.5608 53.9924 45.5764C53.9924 49.7136 50.6265 53.0795 46.4893 53.0795C42.38 53.0795 39.0334 49.7584 38.9884 45.6595H36.5625C34.9152 45.6595 33.5166 44.5767 33.0395 43.0856H16.4966C16.772 43.8655 16.9234 44.7035 16.9234 45.5764C16.9234 49.7136 13.5575 53.0795 9.42035 53.0795C7.67074 53.0795 5.96742 52.4643 4.62445 51.3469C4.26 51.0437 4.21043 50.5027 4.51359 50.1382C4.81676 49.7736 5.35805 49.7243 5.72215 50.0273C6.7575 50.8887 8.07094 51.363 9.42035 51.363C12.6111 51.363 15.207 48.7672 15.207 45.5764C15.207 42.3858 12.6111 39.7898 9.42035 39.7898C6.22957 39.7898 3.63375 42.3857 3.63375 45.5764C3.63375 46.1691 3.72281 46.753 3.89836 47.3122C4.04039 47.7643 3.78879 48.2461 3.33656 48.388C2.8841 48.5304 2.40258 48.2786 2.26066 47.8262C2.03285 47.1006 1.9173 46.3436 1.9173 45.5764C1.9173 44.325 2.22691 43.1453 2.77102 42.1068C2.52352 41.7418 2.38582 41.3066 2.38582 40.8543V38.8413H2.0025C0.898361 38.8413 0 37.943 0 36.8388V8.92242C0 7.81828 0.898361 6.91992 2.0025 6.91992ZM58.2836 35.9244H57.6361C57.0436 35.9244 56.5616 36.4065 56.5616 36.9989C56.5616 37.5913 57.0436 38.0734 57.6361 38.0734H58.2836V35.9244ZM55.1733 42.2616H57.082C57.7445 42.2616 58.2836 41.7226 58.2836 41.06V39.79H57.6361C56.0971 39.79 54.8452 38.5379 54.8452 36.999C54.8452 35.46 56.0972 34.2081 57.6361 34.2081H58.2836V29.6527C58.2836 29.4867 58.2588 29.3209 58.2159 29.1601H56.1902C55.6625 29.1601 55.1504 29.052 54.6677 28.8386L45.7062 24.8757C44.9401 24.5372 44.4452 23.7771 44.4452 22.9397V18.658H41.3272V34.9807H48.2566C50.224 34.9807 52.003 36.0686 52.8994 37.8198L55.1733 42.2616ZM46.4893 51.3632C49.6801 51.3632 52.2759 48.7673 52.2759 45.5766C52.2759 42.3859 49.6801 39.79 46.4893 39.79C43.2986 39.79 40.7027 42.3858 40.7027 45.5766C40.7027 48.7673 43.2987 51.3632 46.4893 51.3632ZM36.5625 43.9432H39.1676C39.9154 40.5891 42.9132 38.0735 46.4895 38.0735C48.5147 38.0735 50.3537 38.8814 51.7049 40.19V39.2527L51.3716 38.6016C50.7702 37.4265 49.5766 36.6967 48.2568 36.6967H41.3272V36.8388C41.3272 37.943 40.4289 38.8413 39.3247 38.8413H34.5807V41.9612C34.5806 43.0542 35.4697 43.9432 36.5625 43.9432ZM4.10215 40.2895C4.68621 39.7021 5.36695 39.2112 6.11789 38.8414H4.10215V40.2895ZM1.71645 36.8389C1.71645 36.9967 1.84477 37.125 2.0025 37.125H26.1705C26.6446 37.125 27.0287 37.5091 27.0287 37.9832C27.0287 38.4572 26.6445 38.8413 26.1705 38.8413H12.7228C13.8968 39.4193 14.899 40.2945 15.6294 41.3692H32.8642V38.8413H30.2095C29.7355 38.8413 29.3514 38.4572 29.3514 37.9832C29.3514 37.5091 29.7356 37.125 30.2095 37.125H39.3246C39.4823 37.125 39.6107 36.9967 39.6107 36.8389V8.92242C39.6107 8.76469 39.4823 8.63637 39.3246 8.63637H2.00238C1.84465 8.63637 1.71633 8.76469 1.71633 8.92242V36.8389H1.71645Z" fill="black"/>
<path d="M6.96336 22.4795H13.1096C13.5836 22.4795 13.9678 22.8636 13.9678 23.3377C13.9678 23.8117 13.5835 24.1958 13.1096 24.1958H6.96336C6.48934 24.1958 6.1052 23.8117 6.1052 23.3377C6.1052 22.8636 6.48945 22.4795 6.96336 22.4795Z" fill="black"/>
<path d="M10.2619 26.8057H15.4748C15.9489 26.8057 16.333 27.1898 16.333 27.6638C16.333 28.1379 15.9488 28.522 15.4748 28.522H10.2619C9.78785 28.522 9.40371 28.1379 9.40371 27.6638C9.40371 27.1898 9.78797 26.8057 10.2619 26.8057Z" fill="black"/>
<path d="M15.4748 19.8687H10.2619C9.78785 19.8687 9.40371 19.4845 9.40371 19.0105C9.40371 18.5365 9.78797 18.1523 10.2619 18.1523H15.4748C15.9489 18.1523 16.333 18.5365 16.333 19.0105C16.3331 19.4844 15.9489 19.8687 15.4748 19.8687Z" fill="black"/>
<path d="M20.3905 16.8017C20.3793 16.7907 20.3675 16.7809 20.3564 16.7697C20.3564 16.7697 20.3564 16.7697 20.3564 16.7696C18.7217 15.1348 18.1865 12.8821 18.0131 11.6848C17.8501 10.7489 18.7359 9.86352 19.6715 10.0263C20.8688 10.1998 23.1216 10.7349 24.7564 12.3695C25.456 13.0691 25.9524 13.8813 26.3068 14.6757C26.3581 14.6152 27.368 13.685 27.4541 13.603C27.8013 13.2804 28.3443 13.3003 28.667 13.6475C28.9896 13.9948 28.9696 14.5378 28.6224 14.8604L27.6119 15.7993C27.3652 16.0285 27.1571 16.2925 26.9911 16.5796C27.579 16.3807 28.1977 16.275 28.83 16.275C32.0011 16.275 34.5811 18.855 34.5811 22.0261C34.5811 23.5675 33.9602 26.011 33.0711 27.9678C32.2289 29.8216 30.8095 32.0313 28.83 32.0313C27.7557 32.0313 26.7175 31.7357 25.8103 31.1741C24.903 31.7357 23.8648 32.0313 22.7907 32.0313C20.8112 32.0313 19.3917 29.8216 18.5496 27.9678C17.6606 26.011 17.0396 23.5675 17.0396 22.0261C17.0396 19.7114 18.4147 17.7129 20.3905 16.8017ZM23.5428 13.5833C22.3955 12.436 20.7987 11.9695 19.768 11.7812C19.9563 12.812 20.4229 14.4086 21.5702 15.5559C22.5699 16.5556 23.9107 17.0383 24.9212 17.2705C24.975 17.0035 25.048 16.7414 25.1432 16.4873C24.8782 15.5511 24.401 14.4414 23.5428 13.5833ZM22.7907 30.3147C23.6081 30.3147 24.3955 30.0709 25.0682 29.6094C25.5192 29.3001 26.1017 29.3002 26.5527 29.6095C27.2251 30.0709 28.0126 30.3147 28.83 30.3147C29.6254 30.3147 30.6518 29.1434 31.5084 27.2578C32.3988 25.2979 32.8646 23.1424 32.8646 22.0259C32.8646 19.8011 31.0546 17.9913 28.83 17.9913C28.1251 17.9913 27.4429 18.1735 26.8373 18.5192C26.5265 18.9634 25.9694 19.1932 25.4414 19.1129C24.6377 18.9964 23.3587 18.7152 22.1102 18.0499C20.2086 18.3745 18.7562 20.0333 18.7562 22.0261C18.7561 24.7655 20.975 30.3147 22.7907 30.3147Z" fill="black"/>
</g>
<defs>
<clipPath id="clip0_2065_7990">
<rect width="60" height="60" fill="white" transform="matrix(-1 0 0 1 60 0)"/>
</clipPath>
</defs>
</svg>
