<svg width="60" height="60" viewBox="0 0 60 60" fill="none" xmlns="http://www.w3.org/2000/svg">
<path d="M30 19.6875C34.6599 19.6875 38.4375 15.9099 38.4375 11.25C38.4375 6.5901 34.6599 2.8125 30 2.8125C25.3401 2.8125 21.5625 6.5901 21.5625 11.25C21.5625 15.9099 25.3401 19.6875 30 19.6875Z" fill="#ED8F4F"/>
<path d="M17.4605 19.6353L14.0625 18.125L10.6645 19.6353C10.0016 19.9299 9.43842 20.4104 9.04315 21.0186C8.64788 21.6268 8.4375 22.3367 8.4375 23.062V35.625H19.6875V23.062C19.6875 22.3367 19.4771 21.6268 19.0818 21.0186C18.6866 20.4104 18.1234 19.9299 17.4605 19.6353Z" fill="#05A056"/>
<path d="M11.25 26.2972V25.3125C11.25 24.5666 10.9537 23.8512 10.4262 23.3238C9.89879 22.7963 9.18342 22.5 8.4375 22.5C7.69158 22.5 6.97621 22.7963 6.44876 23.3238C5.92132 23.8512 5.625 24.5666 5.625 25.3125V26.2972C5.625 26.8413 5.78278 27.3736 6.07924 27.8298C6.37569 28.286 6.79809 28.6464 7.29524 28.8673L8.4375 29.375L9.57976 28.8673C10.0769 28.6464 10.4993 28.286 10.7958 27.8298C11.0922 27.3736 11.25 26.8413 11.25 26.2972Z" fill="#FCDCC8"/>
<path d="M11.8355 30.8853L8.4375 29.375L5.03946 30.8853C4.37661 31.1799 3.81342 31.6604 3.41815 32.2686C3.02288 32.8768 2.8125 33.5867 2.8125 34.312V42.1875H14.0625V34.312C14.0625 33.5867 13.8521 32.8768 13.4568 32.2686C13.0616 31.6604 12.4984 31.1799 11.8355 30.8853Z" fill="#0CBF6A"/>
<path d="M16.875 15.0472V14.0625C16.875 13.3166 16.5787 12.6012 16.0512 12.0738C15.5238 11.5463 14.8084 11.25 14.0625 11.25C13.3166 11.25 12.6012 11.5463 12.0738 12.0738C11.5463 12.6012 11.25 13.3166 11.25 14.0625V15.0472C11.25 15.5913 11.4078 16.1236 11.7042 16.5798C12.0007 17.036 12.4231 17.3964 12.9202 17.6173L14.0625 18.125L15.2048 17.6173C15.7019 17.3964 16.1243 17.036 16.4208 16.5798C16.7172 16.1236 16.875 15.5913 16.875 15.0472Z" fill="#FCDCC8"/>
<path d="M22.5 26.2972V25.3125C22.5 24.5666 22.2037 23.8512 21.6762 23.3238C21.1488 22.7963 20.4334 22.5 19.6875 22.5C18.9416 22.5 18.2262 22.7963 17.6988 23.3238C17.1713 23.8512 16.875 24.5666 16.875 25.3125V26.2972C16.875 26.8413 17.0328 27.3736 17.3292 27.8298C17.6257 28.286 18.0481 28.6464 18.5452 28.8673L19.6875 29.375L20.8298 28.8673C21.3269 28.6464 21.7493 28.286 22.0458 27.8298C22.3422 27.3736 22.5 26.8413 22.5 26.2972Z" fill="#FCDCC8"/>
<path d="M23.0855 30.8853L19.6875 29.375L16.2895 30.8853C15.6266 31.1799 15.0634 31.6604 14.6682 32.2686C14.2729 32.8768 14.0625 33.5867 14.0625 34.312V42.1875H25.3125V34.312C25.3125 33.5867 25.1021 32.8768 24.7068 32.2686C24.3116 31.6604 23.7484 31.1799 23.0855 30.8853Z" fill="#04B263"/>
<path d="M21.5625 33.75V50.625H25.3125C27.5503 50.625 29.6964 49.7361 31.2787 48.1537C32.8611 46.5714 33.75 44.4253 33.75 42.1875C33.75 39.9497 32.8611 37.8036 31.2787 36.2213C29.6964 34.6389 27.5503 33.75 25.3125 33.75H21.5625Z" fill="#ED8F4F"/>
<path d="M21.5625 50.625C26.2224 50.625 30 46.8474 30 42.1875C30 37.5276 26.2224 33.75 21.5625 33.75C16.9026 33.75 13.125 37.5276 13.125 42.1875C13.125 46.8474 16.9026 50.625 21.5625 50.625Z" fill="#F7A46B"/>
<path d="M30 27.1875L35.625 21.5625H32.8125V13.125H27.1875V21.5625H24.375L30 27.1875Z" fill="#FFC542"/>
<path d="M41.25 15.9375H57.1875L56.25 18.75L56.2664 18.8238C57.4905 24.3324 57.4905 30.0426 56.2664 35.5512L56.25 35.625L57.1875 38.4375H41.25L42.1875 35.625L42.1711 35.5512C40.947 30.0426 40.947 24.3324 42.1711 18.8238L42.1875 18.75L41.25 15.9375Z" fill="#FFD168"/>
<path d="M48.75 25.3125C49.7855 25.3125 50.625 24.473 50.625 23.4375C50.625 22.402 49.7855 21.5625 48.75 21.5625C47.7145 21.5625 46.875 22.402 46.875 23.4375C46.875 24.473 47.7145 25.3125 48.75 25.3125Z" fill="#E5B13B"/>
<path d="M51.5625 28.125H45.9375V30H51.5625V28.125Z" fill="#E5B13B"/>
<path d="M52.5 31.875H45V33.75H52.5V31.875Z" fill="#E5B13B"/>
<path d="M43.6622 45C43.3108 45 42.9664 44.9012 42.6684 44.715L36.0804 40.5975C35.7825 40.4113 35.4381 40.3125 35.0867 40.3125H24.3744V41.25C24.3744 42.2446 24.7695 43.1984 25.4728 43.9016C26.176 44.6049 27.1299 45 28.1244 45H33.7494L27.0297 50.2264C26.5079 50.6323 25.8881 50.893 25.233 50.9821C24.5779 51.0712 23.911 50.9856 23.2997 50.7339L11.2616 45.7771C10.7487 45.5659 10.1748 45.5566 9.65539 45.7512C9.13593 45.9458 8.70938 46.3298 8.46145 46.826L7.5 48.7503L20.2016 55.4354C23.4926 57.1675 27.3065 57.6264 30.9145 56.7244L40.3119 54.375H52.5V45H43.6622Z" fill="#FCDCC8"/>
<path d="M50.5833 13.7071C47.5816 9.91389 43.5913 7.02267 39.0518 5.3519L39.6983 3.5918C44.5617 5.38157 48.8367 8.47878 52.0527 12.5423L50.5833 13.7071Z" fill="#FFE7B1"/>
<path d="M14.0095 9.18029L12.8662 7.69416C15.122 5.95726 17.6291 4.57395 20.3013 3.5918L20.9479 5.3519C18.4542 6.26837 16.1145 7.5593 14.0095 9.18029Z" fill="#FFE7B1"/>
<path d="M34.6869 44.0625H33.75C33.2322 44.0625 32.8125 44.4822 32.8125 45C32.8125 45.5178 33.2322 45.9375 33.75 45.9375H34.6869C35.2047 45.9375 35.6244 45.5178 35.6244 45C35.6244 44.4822 35.2047 44.0625 34.6869 44.0625Z" fill="#EFC8B4"/>
<path d="M26.25 19.8433V20.6246H24.375C24.1896 20.6246 24.0083 20.6796 23.8542 20.7827C23.7 20.8857 23.5799 21.0321 23.5089 21.2034C23.4379 21.3747 23.4194 21.5632 23.4555 21.745C23.4917 21.9269 23.581 22.094 23.7121 22.2251L29.3371 27.8501C29.5129 28.0259 29.7514 28.1246 30 28.1246C30.2487 28.1246 30.4871 28.0259 30.663 27.8501L36.288 22.2251C36.4191 22.094 36.5083 21.9269 36.5445 21.745C36.5806 21.5632 36.5621 21.3747 36.4911 21.2034C36.4202 21.0321 36.3 20.8857 36.1458 20.7827C35.9917 20.6796 35.8104 20.6246 35.625 20.6246H33.75V19.8433C35.724 18.9818 37.3412 17.4668 38.3296 15.5532C39.318 13.6396 39.6173 11.444 39.1773 9.33557C38.7372 7.22719 37.5846 5.33462 35.9133 3.9761C34.242 2.61759 32.1538 1.87598 30 1.87598C27.8462 1.87598 25.7581 2.61759 24.0867 3.9761C22.4154 5.33462 21.2628 7.22719 20.8228 9.33557C20.3827 11.444 20.6821 13.6396 21.6705 15.5532C22.6588 17.4668 24.276 18.9818 26.25 19.8433ZM30 25.8613L26.6383 22.4996H27.1875C27.4361 22.4996 27.6746 22.4008 27.8504 22.225C28.0262 22.0492 28.125 21.8108 28.125 21.5621V14.0621H31.875V21.5621C31.875 21.8108 31.9738 22.0492 32.1496 22.225C32.3254 22.4008 32.5639 22.4996 32.8125 22.4996H33.3617L30 25.8613ZM30 3.74962C31.6511 3.74973 33.2559 4.29461 34.5658 5.29976C35.8756 6.30491 36.8172 7.71416 37.2445 9.30895C37.6718 10.9038 37.5609 12.595 36.9291 14.1204C36.2973 15.6457 35.1798 16.92 33.75 17.7456V13.1246C33.75 12.876 33.6512 12.6375 33.4754 12.4617C33.2996 12.2859 33.0611 12.1871 32.8125 12.1871H27.1875C26.9389 12.1871 26.7004 12.2859 26.5246 12.4617C26.3488 12.6375 26.25 12.876 26.25 13.1246V17.7456C24.8202 16.92 23.7027 15.6457 23.0709 14.1204C22.4391 12.595 22.3283 10.9038 22.7556 9.30895C23.1829 7.71416 24.1244 6.30491 25.4343 5.29976C26.7441 4.29461 28.349 3.74973 30 3.74962Z" fill="black"/>
<path d="M57.2213 35.574C58.414 30.0466 58.414 24.3284 57.2213 18.801L58.077 16.234C58.124 16.0931 58.1368 15.943 58.1144 15.7961C58.092 15.6493 58.035 15.5099 57.9481 15.3893C57.8613 15.2688 57.747 15.1707 57.6148 15.103C57.4825 15.0353 57.3361 15 57.1875 15H41.2501C41.1015 15 40.9551 15.0353 40.8228 15.103C40.6906 15.1707 40.5763 15.2688 40.4895 15.3893C40.4026 15.5099 40.3456 15.6493 40.3232 15.7961C40.3008 15.943 40.3136 16.0931 40.3606 16.234L41.2163 18.801C40.0236 24.3284 40.0236 30.0466 41.2163 35.574L40.3606 38.141C40.3136 38.2819 40.3008 38.432 40.3232 38.5789C40.3456 38.7257 40.4026 38.8651 40.4895 38.9857C40.5763 39.1062 40.6906 39.2043 40.8228 39.272C40.9551 39.3397 41.1015 39.375 41.2501 39.375H57.1875C57.3361 39.375 57.4825 39.3397 57.6148 39.272C57.747 39.2043 57.8613 39.1062 57.9481 38.9857C58.035 38.8651 58.092 38.7257 58.1144 38.5789C58.1368 38.432 58.124 38.2819 58.077 38.141L57.2213 35.574ZM55.3606 35.9215L55.8868 37.5H42.5508L43.077 35.9215C43.1306 35.7605 43.1396 35.5878 43.1028 35.4221L43.0864 35.3478C41.8999 29.9721 41.9 24.4024 43.0865 19.0267L43.1029 18.9529C43.1396 18.7872 43.1307 18.6145 43.077 18.4535L42.5508 16.875H55.8868L55.3606 18.4535C55.307 18.6145 55.298 18.7872 55.3348 18.9529L55.3512 19.0272C56.5377 24.4029 56.5376 29.9726 55.3511 35.3483L55.3347 35.4221C55.298 35.5878 55.3069 35.7605 55.3606 35.9215Z" fill="black"/>
<path d="M48.75 26.25C49.3063 26.25 49.85 26.0851 50.3125 25.776C50.7751 25.467 51.1355 25.0277 51.3484 24.5138C51.5613 23.9999 51.617 23.4344 51.5085 22.8888C51.3999 22.3432 51.1321 21.8421 50.7387 21.4488C50.3454 21.0554 49.8443 20.7876 49.2987 20.679C48.7531 20.5705 48.1876 20.6262 47.6737 20.8391C47.1598 21.052 46.7205 21.4124 46.4115 21.875C46.1025 22.3375 45.9375 22.8812 45.9375 23.4375C45.9384 24.1832 46.2349 24.898 46.7622 25.4253C47.2895 25.9526 48.0043 26.2491 48.75 26.25ZM48.75 22.5C48.9354 22.5 49.1167 22.555 49.2708 22.658C49.425 22.761 49.5452 22.9074 49.6161 23.0787C49.6871 23.25 49.7057 23.4385 49.6695 23.6204C49.6333 23.8023 49.544 23.9693 49.4129 24.1004C49.2818 24.2315 49.1148 24.3208 48.9329 24.357C48.751 24.3932 48.5625 24.3746 48.3912 24.3036C48.2199 24.2327 48.0735 24.1125 47.9705 23.9583C47.8675 23.8042 47.8125 23.6229 47.8125 23.4375C47.8128 23.1889 47.9116 22.9507 48.0874 22.7749C48.2632 22.5991 48.5014 22.5003 48.75 22.5Z" fill="black"/>
<path d="M51.5625 28.125H45.9375V30H51.5625V28.125Z" fill="black"/>
<path d="M52.5 31.875H45V33.75H52.5V31.875Z" fill="black"/>
<path d="M43.1654 43.92L36.5773 39.8024C36.1303 39.5229 35.6138 39.3748 35.0867 39.375H34.2565C33.6938 37.586 32.6073 36.0069 31.1376 34.8419C29.6678 33.677 27.8824 32.9798 26.0121 32.8405C25.8086 32.2195 25.4767 31.6483 25.0381 31.1639C24.5995 30.6794 24.064 30.2926 23.4662 30.0285L21.8936 29.3296C22.3715 28.9815 22.7605 28.5253 23.0288 27.9984C23.2971 27.4714 23.4371 26.8886 23.4375 26.2973V25.3125C23.4363 24.4417 23.1325 23.5983 22.5781 22.9268C22.0238 22.2552 21.2532 21.7971 20.3984 21.631C20.1969 21.0023 19.865 20.4233 19.4243 19.9318C18.9837 19.4402 18.4442 19.0472 17.8412 18.7785L16.2686 18.0796C16.7465 17.7315 17.1355 17.2753 17.4038 16.7484C17.6721 16.2214 17.8121 15.6386 17.8125 15.0473V14.0625C17.8125 13.0679 17.4174 12.1141 16.7141 11.4108C16.0109 10.7076 15.0571 10.3125 14.0625 10.3125C13.0679 10.3125 12.1141 10.7076 11.4108 11.4108C10.7076 12.1141 10.3125 13.0679 10.3125 14.0625V15.0473C10.3129 15.6386 10.4529 16.2214 10.7212 16.7484C10.9895 17.2753 11.3785 17.7315 11.8564 18.0796L10.2838 18.7785C9.6808 19.0472 9.14134 19.4402 8.70068 19.9318C8.26003 20.4233 7.92809 21.0023 7.72659 21.631C6.87176 21.7971 6.10124 22.2552 5.54687 22.9268C4.99249 23.5983 4.68871 24.4417 4.6875 25.3125V26.2973C4.68786 26.8886 4.8279 27.4714 5.09619 27.9984C5.36449 28.5253 5.75346 28.9815 6.23142 29.3296L4.65877 30.0285C3.8305 30.3972 3.12679 30.998 2.63275 31.7581C2.13872 32.5183 1.87552 33.4054 1.875 34.312V42.1875H3.75V34.312C3.75032 33.768 3.90824 33.2358 4.20466 32.7797C4.50108 32.3236 4.9233 31.9631 5.42027 31.7419L8.4375 30.401L11.4547 31.7419C11.9517 31.9631 12.3739 32.3236 12.6703 32.7797C12.9668 33.2358 13.1247 33.768 13.125 34.312V38.1029C12.5803 39.2281 12.2659 40.4507 12.2 41.699C12.1341 42.9473 12.3181 44.1962 12.7413 45.3725L11.6185 44.9102C10.8863 44.6118 10.0685 44.6001 9.32802 44.8775C8.58756 45.1549 7.97874 45.701 7.6228 46.407L6.66138 48.3314C6.55178 48.5507 6.53248 48.8043 6.60764 49.0377C6.68279 49.2711 6.84641 49.4657 7.06341 49.5799L19.765 56.2649C23.2595 58.1061 27.3104 58.5935 31.1419 57.6338L40.4273 55.3125H52.5V53.4375H40.3119C40.2353 53.4375 40.1589 53.4469 40.0845 53.4655L30.6871 55.8149C27.3028 56.6624 23.7248 56.2319 20.6382 54.6057L8.74889 48.3482L9.30004 47.245C9.44294 46.9614 9.68743 46.7421 9.9848 46.6307C10.2822 46.5193 10.6106 46.524 10.9046 46.6439L22.9427 51.6008C23.707 51.9145 24.5405 52.0209 25.3591 51.9095C26.1777 51.7981 26.9525 51.4728 27.6052 50.9664L34.071 45.9375H35.6244V44.0625H28.1244C27.3788 44.0616 26.6639 43.7651 26.1366 43.2378C25.6094 42.7105 25.3128 41.9957 25.3119 41.25H35.0867C35.2624 41.25 35.4346 41.2993 35.5836 41.3925L42.1716 45.5101C42.6185 45.7895 43.1351 45.9376 43.6622 45.9375H52.5V44.0625H43.6622C43.4865 44.0626 43.3143 44.0132 43.1654 43.92ZM32.265 39.375H30.5053C29.9731 37.6902 28.9748 36.1906 27.6258 35.0495C28.4982 35.3322 29.3109 35.7735 30.0229 36.3514C31.0136 37.1538 31.7849 38.194 32.265 39.375ZM22.7047 31.7419C23.2146 31.9677 23.6456 32.3404 23.9425 32.8125H21.5619C19.1064 32.8113 16.7491 33.7769 15 35.5003V34.312C15.0003 33.768 15.1582 33.2358 15.4547 32.7797C15.7511 32.3236 16.1733 31.9631 16.6703 31.7419L19.6875 30.401L22.7047 31.7419ZM21.5625 25.3125V26.2973C21.5623 26.6599 21.457 27.0147 21.2594 27.3188C21.0618 27.6229 20.7803 27.8632 20.449 28.0107L19.6875 28.3491L18.926 28.0107C18.5947 27.8632 18.3132 27.6229 18.1156 27.3188C17.918 27.0147 17.8127 26.6599 17.8125 26.2973V25.3125C17.8125 24.8152 18.01 24.3383 18.3617 23.9867C18.7133 23.635 19.1902 23.4375 19.6875 23.4375C20.1848 23.4375 20.6617 23.635 21.0133 23.9867C21.365 24.3383 21.5625 24.8152 21.5625 25.3125ZM12.1875 14.0625C12.1875 13.5652 12.385 13.0883 12.7367 12.7367C13.0883 12.385 13.5652 12.1875 14.0625 12.1875C14.5598 12.1875 15.0367 12.385 15.3883 12.7367C15.74 13.0883 15.9375 13.5652 15.9375 14.0625V15.0473C15.9373 15.4099 15.832 15.7647 15.6344 16.0688C15.4368 16.3729 15.1553 16.6132 14.824 16.7607L14.0625 17.0991L13.301 16.7607C12.9697 16.6132 12.6882 16.3729 12.4906 16.0688C12.293 15.7647 12.1877 15.4099 12.1875 15.0473V14.0625ZM10.3125 26.2973C10.3123 26.6599 10.207 27.0147 10.0094 27.3188C9.81179 27.6229 9.5303 27.8632 9.19899 28.0107L8.4375 28.3491L7.67601 28.0107C7.3447 27.8632 7.06321 27.6229 6.86559 27.3188C6.66798 27.0147 6.5627 26.6599 6.5625 26.2973V25.3125C6.5625 24.8152 6.76004 24.3383 7.11167 23.9867C7.46331 23.635 7.94022 23.4375 8.4375 23.4375C8.93478 23.4375 9.41169 23.635 9.76332 23.9867C10.115 24.3383 10.3125 24.8152 10.3125 25.3125V26.2973ZM12.2162 30.0285L10.6436 29.3296C11.1215 28.9815 11.5105 28.5253 11.7788 27.9984C12.0471 27.4714 12.1871 26.8886 12.1875 26.2973V25.3125C12.1865 24.5374 11.9457 23.7816 11.4982 23.1487C11.0507 22.5158 10.4183 22.0369 9.68782 21.7776C9.98037 21.2068 10.4593 20.7531 11.0453 20.4919L14.0625 19.151L17.0797 20.4919C17.6657 20.7531 18.1446 21.2068 18.4372 21.7776C17.7067 22.0369 17.0743 22.5158 16.6268 23.1487C16.1793 23.7816 15.9385 24.5374 15.9375 25.3125V26.2973C15.9379 26.8886 16.0779 27.4714 16.3462 27.9984C16.6145 28.5253 17.0035 28.9815 17.4814 29.3296L15.9088 30.0285C15.1775 30.3537 14.5418 30.861 14.0625 31.5019C13.5832 30.861 12.9475 30.3537 12.2162 30.0285ZM28.1244 45.9375H31.0171L26.454 49.4864C26.0624 49.7903 25.5976 49.9855 25.1064 50.0523C24.6152 50.1192 24.1151 50.0552 23.6565 49.8671L15.4031 46.4686C14.5254 45.2139 14.057 43.7187 14.0619 42.1875C14.0621 40.4469 14.6676 38.7606 15.7746 37.4175C16.8817 36.0743 18.4214 35.158 20.13 34.8256C21.8385 34.4931 23.6094 34.7652 25.1394 35.5952C26.6693 36.4252 27.8629 37.7615 28.5158 39.375H24.3744C24.1258 39.375 23.8873 39.4738 23.7115 39.6496C23.5357 39.8254 23.4369 40.0639 23.4369 40.3125V41.25C23.4383 42.4928 23.9327 43.6842 24.8114 44.563C25.6902 45.4418 26.8817 45.9361 28.1244 45.9375Z" fill="black"/>
<path d="M50.5833 13.7071L52.0527 12.5423C48.8367 8.47878 44.5617 5.38157 39.6983 3.5918L39.0518 5.3519C43.5913 7.02267 47.5816 9.91389 50.5833 13.7071Z" fill="black"/>
<path d="M20.9479 5.3519L20.3013 3.5918C17.6291 4.57395 15.122 5.95726 12.8662 7.69416L14.0095 9.18029C16.1145 7.5593 18.4542 6.26837 20.9479 5.3519Z" fill="black"/>
</svg>
