<svg width="60" height="60" viewBox="0 0 60 60" fill="none" xmlns="http://www.w3.org/2000/svg">
<g clip-path="url(#clip0_2065_8162)">
<path d="M57.8523 31.7771C51.7521 27.9748 43.9119 28.2713 38.108 32.5231L36.3047 33.8624L38.8539 38.5491L40.8694 37.1752C44.8915 33.9576 50.5621 33.5793 54.9896 36.3246C56.7921 37.4423 59.1206 36.181 59.1206 34.0596C59.1207 33.1301 58.6408 32.2689 57.8523 31.7771Z" fill="#938BD8"/>
<path d="M54.9012 4.24936C54.8659 4.21409 54.8306 4.17999 54.7964 4.1446C54.1528 3.50102 53.1797 3.35161 52.3538 3.73164C51.0795 4.32038 48.9747 4.09245 46.4768 6.59188C44.6578 8.40965 44.2718 10.0452 43.9907 11.2383C43.7659 12.1913 43.6307 12.7654 42.7565 13.6384C41.8846 14.5115 41.3093 14.6468 40.3575 14.8715C39.1644 15.1527 37.529 15.5386 35.7111 17.3575C33.9485 19.1189 33.5315 20.7091 33.2515 21.8915C32.9976 22.964 32.8785 23.5175 31.9919 24.4041C31.8039 24.592 31.5963 24.7771 31.3801 24.9335L30 26.3302L33.1081 29.7046L34.7475 28.2622C35.6543 27.4797 36.4466 26.5424 36.9863 25.4887C37.4533 24.5773 37.6463 23.7604 37.8054 23.0852C38.0302 22.1333 38.1654 21.5579 39.0385 20.685C39.9115 19.812 40.4857 19.6766 41.4375 19.452C42.6317 19.1707 44.266 18.7848 46.085 16.9671C47.904 15.148 48.29 13.5139 48.5711 12.3195C48.7958 11.3676 48.9311 10.7924 49.8041 9.91935C50.6771 9.04632 51.2525 8.91097 52.2043 8.68633C52.7738 8.55215 53.4433 8.39337 54.1856 8.06748C55.7013 7.40269 56.0707 5.41887 54.9012 4.24936Z" fill="#7EE6FD"/>
<path d="M26.575 2.1472C26.0742 1.34436 25.2021 0.878906 24.2925 0.878906C22.1711 0.878906 20.9098 3.20737 22.0275 5.0099C24.6288 9.205 24.438 14.5525 21.6181 18.5418L20.6562 20.1553L25.3948 22.7039L26.3469 21.1432C30.0961 15.4395 30.219 7.99331 26.575 2.1472Z" fill="#15DFB5"/>
<path d="M38.108 32.523L36.3047 33.8623L38.8539 38.549L40.8694 37.1751C41.8141 36.4192 42.8431 35.8255 43.9197 35.3888C43.0906 33.7774 42.1667 32.2223 41.154 30.7314C40.0978 31.2183 39.0765 31.8136 38.108 32.523Z" fill="#786ACD"/>
<path d="M31.9919 24.4042C31.8039 24.5921 31.5963 24.7772 31.3801 24.9336L30 26.3303L33.1081 29.7047C34.9182 28.1079 34.975 28.0759 35.3193 27.7315C36.1088 26.9425 36.6281 26.1878 36.9863 25.4888C35.8124 24.2195 34.5654 23.0182 33.2515 21.8916C32.9976 22.964 32.8785 23.5175 31.9919 24.4042Z" fill="#00D5FD"/>
<path d="M20.6562 20.1547L25.3948 22.7032C26.5116 20.828 27.1982 19.9649 27.9811 18.0026C26.4541 17.0405 24.8635 16.1687 23.2177 15.3936C22.8455 16.4964 22.3132 17.5578 21.6182 18.541L20.6562 20.1547Z" fill="#00D297"/>
<path d="M58.234 50.7054C59.0811 50.8278 59.42 51.8702 58.807 52.4679L56.8822 54.3445C56.6387 54.5821 56.5269 54.9234 56.5845 55.2586L57.0387 57.9083C57.1834 58.7531 56.2975 59.3967 55.5398 58.9978L53.1596 57.747C52.8596 57.5883 52.4995 57.5883 52.1983 57.747L49.8192 58.9978C49.0603 59.3967 48.1744 58.7531 48.3191 57.9083L48.7733 55.2586C48.831 54.9232 48.7204 54.5821 48.4769 54.3445L46.552 52.4679C45.9378 51.8701 46.2767 50.8278 47.1238 50.7054L49.784 50.3184C50.1205 50.2689 50.4124 50.0583 50.563 49.7525L51.7525 47.3428C52.1314 46.5745 53.2268 46.5745 53.6057 47.3428L54.7964 49.7525C54.9458 50.0584 55.2376 50.269 55.5741 50.3184L58.234 50.7054Z" fill="#FCE75F"/>
<path d="M12.8762 4.81772C13.7233 4.94006 14.0622 5.98254 13.448 6.5803L11.5231 8.45689C11.2796 8.69337 11.169 9.03579 11.2267 9.37105L11.6809 12.0207C11.8256 12.8655 10.9397 13.5091 10.1807 13.1102L7.8016 11.8595C7.50043 11.7007 7.14032 11.7007 6.84033 11.8595L4.46007 13.1102C3.70236 13.5091 2.81644 12.8655 2.96116 12.0207L3.41537 9.37105C3.47303 9.03579 3.36123 8.69337 3.11772 8.45689L1.19273 6.58018C0.579735 5.98242 0.918634 4.94006 1.76576 4.8176L4.42597 4.43066C4.76241 4.38121 5.05432 4.17063 5.20373 3.86477L6.39444 1.4551C6.7733 0.68684 7.86874 0.68684 8.2476 1.4551L9.43703 3.86466C9.58761 4.17051 9.8794 4.38121 10.216 4.43054L12.8762 4.81772Z" fill="#FCE75F"/>
<path d="M5.27098 20.1238C5.42329 18.9151 4.56692 17.8118 3.35823 17.6595C2.14954 17.5072 1.04624 18.3635 0.893936 19.5722C0.741631 20.7809 1.598 21.8842 2.80669 22.0365C4.01537 22.1888 5.11868 21.3325 5.27098 20.1238Z" fill="#15DFB5"/>
<path d="M52.0038 41.5596C52.284 40.3741 51.5501 39.1859 50.3646 38.9056C49.179 38.6254 47.9908 39.3593 47.7105 40.5448C47.4303 41.7303 48.1642 42.9186 49.3497 43.1988C50.5353 43.4791 51.7235 42.7452 52.0038 41.5596Z" fill="#15DFB5"/>
<path d="M57.3214 19.5447C58.2403 21.1366 57.0907 23.1274 55.2518 23.1274H52.3997C50.5607 23.1274 49.4112 21.1366 50.3301 19.5447L51.7573 17.0738C52.6762 15.4819 54.9752 15.4819 55.8942 17.0738L57.3214 19.5447Z" fill="#15DFB5"/>
<path d="M39.8882 4.47878C41.1884 5.77895 40.5941 7.99913 38.8175 8.4756L36.0619 9.21328C34.2853 9.68975 32.6604 8.06499 33.1369 6.28823L33.8745 3.53263C34.351 1.75599 36.5713 1.16187 37.8714 2.46191L39.8882 4.47878Z" fill="#15DFB5"/>
<path d="M42.8627 41.7722C38.6352 30.1052 29.4445 21.1992 18.2275 17.1369C14.4369 15.7631 10.2149 17.8956 9.14892 21.8692C8.69096 23.5646 1.54257 50.0242 1.08696 51.7109C-0.0874651 56.0937 3.92494 60.0821 8.28878 58.9127C9.97554 58.4569 36.4347 51.3088 38.1305 50.8507C42.0724 49.7923 44.2461 45.5896 42.8627 41.7722Z" fill="#FCE75F"/>
<path d="M5.51373 55.2346C6.00321 53.4228 13.6823 24.9982 14.1744 23.177C14.9451 20.3042 17.252 18.3296 19.9191 17.7936C19.36 17.5624 18.796 17.3429 18.2271 17.1369C14.4365 15.7631 10.2146 17.8956 9.14857 21.8692C8.69061 23.5646 1.54222 50.0242 1.08661 51.7109C0.15698 55.1801 2.48228 58.4141 5.66654 59.0181C5.24702 57.8676 5.15655 56.5672 5.51373 55.2346Z" fill="#FFCE59"/>
<path d="M5.51679 35.3145L3.71777 41.9739C9.84853 44.0615 15.9155 50.0858 18.025 56.2812L24.6845 54.4821C21.9709 45.9899 13.9853 38.0205 5.51679 35.3145Z" fill="#FF9389"/>
<path d="M5.51679 35.3145L3.71777 41.9739C5.32719 42.5219 6.92758 43.3404 8.45239 44.3577C9.05425 42.13 9.6956 39.7559 10.3236 37.4313C8.76258 36.5535 7.14918 35.836 5.51679 35.3145Z" fill="#FF675A"/>
<path d="M33.6248 40.151C35.0296 41.5535 35.2626 43.5983 34.1449 44.7162C33.0272 45.8351 30.9835 45.6045 29.5785 44.2008C28.1737 42.7983 27.9408 40.7535 29.0585 39.6356C30.1762 38.5167 32.2199 38.7474 33.6248 40.151Z" fill="#FDAFBF"/>
<path d="M23.131 31.884C24.67 30.3426 25.9312 31.3133 27.3079 32.6888C28.6845 34.0642 29.6564 35.3244 28.1162 36.8644C26.5773 38.4058 24.2135 38.5399 22.837 37.1633C21.4603 35.788 21.592 33.4241 23.131 31.884Z" fill="#415460"/>
<path d="M19.8397 26.3782C21.2445 27.7818 21.4763 29.8255 20.3597 30.9445C19.242 32.0634 17.197 31.8316 15.7934 30.4291C14.3886 29.0255 14.1556 26.9818 15.2733 25.8628C16.39 24.7439 18.4348 24.9757 19.8397 26.3782Z" fill="#FDAFBF"/>
<path d="M28.7379 37.4859C29.6879 36.5359 29.9919 35.5116 29.6414 34.4413C29.3731 33.6225 28.7629 32.8999 27.9294 32.067C27.0958 31.2341 26.3727 30.6245 25.5535 30.357C24.4829 30.0075 23.4587 30.3123 22.5097 31.2627C20.6711 33.1028 20.4541 36.0244 22.2158 37.7848C23.9123 39.4816 26.8278 39.3984 28.7379 37.4859ZM22.7684 34.6343C22.812 33.8532 23.1615 33.097 23.7532 32.505C24.1632 32.0944 24.4639 31.9762 24.712 31.9762C25.3531 31.9762 26.219 32.843 26.6869 33.3105C27.2538 33.877 27.8018 34.4723 27.9708 34.9884C28.0706 35.2931 28.082 35.656 27.4949 36.2431C27.4705 36.2602 26.6773 37.1564 25.3661 37.2307C23.8296 37.3185 22.6825 36.1738 22.7684 34.6343Z" fill="black"/>
<path d="M22.0897 29.5127C22.4321 29.8546 22.9886 29.8563 23.3326 29.5116C24.341 28.5013 24.3403 26.8582 23.3308 25.849C22.5058 25.024 21.4869 25.0886 21.4986 25.0909C20.807 25.0914 20.1567 25.361 19.6675 25.8502C19.3243 26.1934 19.3244 26.7499 19.6675 27.0932C20.0109 27.4364 20.5673 27.4363 20.9106 27.0932C21.1769 26.8268 21.512 26.8464 21.5002 26.8488C21.7223 26.8488 21.9309 26.9352 22.0878 27.0921C22.4124 27.4167 22.4128 27.945 22.0884 28.27C21.7455 28.6132 21.7461 29.1697 22.0897 29.5127Z" fill="black"/>
<path d="M34.1516 36.6584C33.3254 35.8338 32.308 35.8981 32.3197 35.9005C31.6278 35.9007 30.9774 36.1707 30.4883 36.6608C30.1454 37.0044 30.1459 37.5609 30.4896 37.9037C30.833 38.2466 31.3896 38.2461 31.7325 37.9025C32.0574 37.577 32.5832 37.5766 32.9096 37.9025C33.234 38.2262 33.2341 38.7539 32.9098 39.0787C32.5668 39.4222 32.5673 39.9787 32.9109 40.3216C33.0826 40.4928 33.3072 40.5785 33.5319 40.5785C33.7571 40.5785 33.9823 40.4925 34.1539 40.3204C35.1629 39.3097 35.1618 37.6668 34.1516 36.6584Z" fill="black"/>
<path d="M2.50481 9.08756C2.54067 9.12248 2.55708 9.17287 2.54841 9.22267L2.09432 11.8723C1.97033 12.5955 2.26212 13.3125 2.85567 13.7434C3.44944 14.1746 4.22099 14.2292 4.86831 13.8883L7.25103 12.6363C7.29451 12.6133 7.34677 12.6136 7.39212 12.6374L9.77121 13.8882C10.4204 14.2294 11.1924 14.1737 11.7856 13.7428C12.3788 13.312 12.6704 12.5953 12.5465 11.8722L12.0923 9.22209C12.0836 9.17205 12.0996 9.12178 12.1361 9.08615L14.0603 7.21003C14.5862 6.69828 14.7721 5.94677 14.5452 5.24882C14.3186 4.5511 13.7269 4.0526 13.0021 3.94795L10.3431 3.56101C10.2915 3.55339 10.2473 3.52187 10.2245 3.47558L9.03517 1.0665C8.7108 0.408623 8.05375 0 7.32029 0C6.58695 0 5.92977 0.408623 5.60587 1.0658L4.41329 3.4791C4.39184 3.52304 4.3486 3.55363 4.29868 3.56101L1.63941 3.94795C0.914032 4.05272 0.322366 4.5511 0.0953789 5.24859C-0.131725 5.94631 0.0535439 6.69769 0.578532 7.20967L2.50481 9.08756ZM1.7669 5.79244C1.79655 5.70127 1.86745 5.69096 1.8917 5.68744L4.55309 5.30027C5.17838 5.20839 5.71661 4.81594 5.99094 4.25416L7.18201 1.8439C7.19256 1.82257 7.22443 1.75789 7.32029 1.75789C7.41614 1.75789 7.44802 1.82269 7.45857 1.8439C7.46642 1.85972 8.6378 4.23248 8.64776 4.25299C8.92548 4.81723 9.4636 5.20874 10.0885 5.3005L12.7498 5.68768C12.773 5.69108 12.8439 5.70127 12.8734 5.79221C12.9031 5.88349 12.8514 5.93388 12.8337 5.95099L10.9104 7.82642C10.4587 8.26492 10.2528 8.89807 10.3598 9.51962L10.8139 12.1692C10.818 12.1927 10.8302 12.2643 10.7525 12.3208C10.6746 12.3774 10.6102 12.3435 10.589 12.3324L8.21089 11.0822C7.65286 10.788 6.98666 10.7872 6.43086 11.0816L4.05001 12.3325C4.02915 12.3435 3.96564 12.3771 3.8883 12.3209C3.81049 12.2644 3.82279 12.1927 3.82678 12.1693L4.28087 9.51997C4.38762 8.89854 4.18138 8.26539 3.73057 7.82771L1.80569 5.95099C1.7887 5.93447 1.73702 5.88408 1.7669 5.79244Z" fill="black"/>
<path d="M58.3613 49.8358L55.7023 49.4488C55.6512 49.4413 55.608 49.4106 55.5848 49.363L54.3944 46.9542C54.0701 46.2964 53.4131 45.8877 52.6797 45.8877C52.6796 45.8877 52.6796 45.8877 52.6796 45.8877C51.9463 45.8877 51.2892 46.2963 50.9649 46.9538L49.7751 49.3643C49.7527 49.4097 49.7085 49.4412 49.658 49.4487L46.9987 49.8357C45.4303 50.0622 44.8039 51.9926 45.939 53.0973L47.8637 54.9736C47.9 55.009 47.9164 55.06 47.9078 55.1103L47.4535 57.7599C47.186 59.322 48.8257 60.5128 50.2291 59.7758L52.6091 58.5245C52.6534 58.5011 52.7059 58.5009 52.7516 58.5251L55.1314 59.7756C56.5334 60.5135 58.1736 59.3216 57.906 57.7598L57.4517 55.1097C57.4433 55.0603 57.4602 55.0095 57.4967 54.9737L59.4216 53.097C59.9467 52.585 60.1319 51.8337 59.9049 51.1359C59.6774 50.4388 59.0858 49.9404 58.3613 49.8358ZM58.1942 51.8387L56.269 53.7156C55.8181 54.1557 55.6124 54.7882 55.7189 55.4073L56.173 58.0569C56.1771 58.0804 56.1894 58.1521 56.1116 58.2086C56.0343 58.2647 55.9706 58.2312 55.9493 58.22L53.5714 56.9704C53.0141 56.6753 52.3478 56.675 51.79 56.9693L49.4111 58.22C49.3897 58.2311 49.3255 58.2651 49.2474 58.2084C49.1697 58.1519 49.1819 58.0803 49.1861 58.0569L49.6402 55.4074C49.7467 54.7873 49.5414 54.1547 49.0911 53.7152L47.1655 51.8379C47.1485 51.8213 47.0967 51.771 47.1265 51.6797C47.156 51.5887 47.2268 51.5784 47.2509 51.5749L49.9123 51.1876C50.5361 51.096 51.0744 50.7045 51.3517 50.1412L52.5412 47.7312C52.5518 47.7099 52.5837 47.6451 52.6796 47.6451C52.7319 47.6451 52.7844 47.6633 52.8183 47.7318L54.0072 50.1379C54.2834 50.7033 54.8217 51.0957 55.4481 51.1877L58.1093 51.5749C58.1326 51.5783 58.2035 51.5885 58.2333 51.6798C58.2628 51.7718 58.2111 51.8222 58.1942 51.8387Z" fill="black"/>
<path d="M43.6887 41.4725C43.1917 40.1013 42.6184 38.748 41.9821 37.4402C45.7785 34.7608 50.7406 34.7239 54.5261 37.0714C55.6566 37.7725 57.0221 37.807 58.1777 37.1637C60.5781 35.8277 60.5828 32.4449 58.317 31.0311C52.2831 27.2701 44.4441 27.2506 38.3235 31.3027C37.5542 30.2317 36.7948 29.2755 35.9717 28.3216C37.9406 26.3389 38.374 24.5036 38.6612 23.2856C38.8754 22.3783 38.964 22.0027 39.66 21.3067C40.3559 20.6106 40.7313 20.5219 41.6389 20.3077C42.8616 20.0198 44.7092 19.5847 46.7065 17.5887C48.7037 15.5915 49.1387 13.7437 49.4271 12.5192C49.6412 11.6121 49.7299 11.2367 50.4256 10.541C51.1215 9.84511 51.497 9.75652 52.4059 9.54196C52.9901 9.40438 53.7172 9.23306 54.5388 8.87248C55.5153 8.44417 56.2162 7.56212 56.4135 6.5132C56.756 4.69273 55.4946 3.60878 55.482 3.58792C55.4172 3.5237 55.4398 3.54538 55.4179 3.52347C54.5293 2.63497 53.1504 2.39802 51.9852 2.93414C50.8892 3.4405 48.5296 3.29484 45.8554 5.97063C43.859 7.9657 43.4234 9.81394 43.1351 11.0375C42.921 11.9452 42.8324 12.3209 42.1346 13.0178C41.44 13.7133 41.0647 13.8019 40.1557 14.0164C38.9326 14.3047 37.0846 14.7402 35.0898 16.7363C33.0933 18.7315 32.6577 20.5797 32.3694 21.8026C32.1565 22.7057 32.0672 23.0827 31.3792 23.7739C30.1584 22.7374 28.8729 21.766 27.5448 20.8776C31.0622 14.9295 30.9508 7.50611 27.3205 1.68202C25.9043 -0.587727 22.5224 -0.576243 21.188 1.82136C20.5448 2.97715 20.5794 4.34223 21.2805 5.47295C23.5166 9.07943 23.5799 13.7276 21.297 17.4306C20.3851 17.024 19.4566 16.6475 18.5265 16.3105C14.1947 14.7407 9.48442 17.2253 8.30003 21.6399C8.29652 21.6529 2.09299 44.6137 1.71824 46.0011C1.59168 46.4697 1.86894 46.9521 2.33756 47.0787C2.80606 47.2051 3.28863 46.9279 3.41519 46.4594L4.31341 43.1341C9.61848 45.2744 14.725 50.3812 16.8651 55.6858L8.06098 58.0636C4.34329 59.0602 0.93802 55.6611 1.93514 51.9398L2.34107 50.436C2.46763 49.9674 2.19026 49.485 1.72163 49.3585C1.25278 49.2317 0.770562 49.5093 0.64412 49.978L0.237723 51.4832C-1.10908 56.5095 3.48468 61.1092 8.51776 59.761C18.9988 56.9298 18.2566 57.1316 18.2974 57.1185L31.1459 53.6475C31.6145 53.5209 31.8917 53.0384 31.7651 52.5699C31.6385 52.1012 31.1561 51.8236 30.6875 51.9506L25.2521 53.419C22.3315 45.2422 14.7616 37.6693 6.58035 34.7473L9.99769 22.0969C10.9215 18.6542 14.5859 16.752 17.9281 17.9632C25.6341 20.7542 32.5123 25.9391 37.3648 32.9936C37.3757 33.0108 37.3873 33.0275 37.3994 33.0439C39.0668 35.4766 40.0237 37.4661 40.1022 37.6057C40.8329 39.044 41.4837 40.5462 42.0365 42.0716C42.2256 42.5937 42.3422 43.133 42.383 43.6772C42.6097 46.5841 40.7254 49.244 37.9013 50.0022L34.6645 50.8765C34.196 51.0031 33.9187 51.4857 34.0453 51.9542C34.1715 52.4214 34.6527 52.7004 35.1229 52.5735L38.3583 51.6996C41.9983 50.7224 44.428 47.291 44.1357 43.5432C44.0826 42.8415 43.9324 42.145 43.6887 41.4725ZM23.5476 53.879L18.5726 55.223C16.2698 49.3345 10.6668 43.73 4.77582 41.4263L6.1197 36.4512C13.6768 39.2151 20.7527 46.2374 23.5476 53.879ZM22.7742 4.54637C22.414 3.9656 22.3953 3.26636 22.7238 2.67599C23.3976 1.46523 25.1107 1.46078 25.8289 2.61188C29.094 7.85028 29.2217 14.5429 26.0622 19.9307C25.0352 19.3049 23.9761 18.7206 22.8974 18.1843C25.4183 13.9557 25.3323 8.67174 22.7742 4.54637ZM36.3326 17.979C37.9745 16.3362 39.4074 15.9985 40.5617 15.7264C41.5499 15.4931 42.3305 15.3087 43.3774 14.2604C44.4284 13.2108 44.6125 12.4296 44.846 11.4399C45.1174 10.2884 45.4551 8.85537 47.0983 7.21326C49.4286 4.88152 51.2604 5.20495 52.721 4.5302C53.2261 4.29782 53.7941 4.38899 54.1706 4.76199C54.1966 4.78883 54.2218 4.81367 54.2795 4.87086C55.0119 5.60338 54.7841 6.84518 53.8324 7.2626C51.9 8.1109 50.8355 7.64497 49.1825 9.29786C48.1338 10.3467 47.9495 11.127 47.7154 12.1181C47.4444 13.2693 47.1072 14.702 45.4635 16.3454C43.8199 17.988 42.3871 18.3254 41.2342 18.5968C40.2462 18.8301 39.4659 19.0142 38.4168 20.0635C37.3677 21.1125 37.1835 21.8932 36.9498 22.8834C36.6836 24.0123 36.3529 25.4119 34.7923 27.0134C34.1252 26.3037 33.4561 25.6394 32.697 24.9386C33.6709 23.9326 33.8536 23.1668 34.0802 22.2055C34.3517 21.0542 34.6895 19.6213 36.3326 17.979ZM57.3867 32.5225C57.9104 32.8491 58.2414 33.425 58.2414 34.0594C58.2414 35.4827 56.6786 36.3378 55.4524 35.5774C51.1348 32.9002 45.5119 32.9161 41.1721 35.8615C40.601 34.8023 39.9812 33.7621 39.3193 32.7532C44.8544 29.1035 51.934 29.1238 57.3867 32.5225Z" fill="black"/>
<path d="M53.8253 15.0018C52.6439 15.0018 51.5861 15.6125 50.9957 16.635L49.5685 19.1059C49.5684 19.106 49.5684 19.106 49.5684 19.106C48.3116 21.2833 49.8814 24.007 52.3991 24.007H55.2512C57.7655 24.007 59.3405 21.2863 58.0818 19.1058L56.6547 16.6352C55.655 14.9032 53.8136 14.9987 53.8253 15.0018ZM55.2513 22.2494H52.3993C51.2361 22.2494 50.5102 20.991 51.0907 19.9851L52.518 17.514C53.0985 16.5085 54.5512 16.5071 55.1326 17.5143L56.5598 19.9849C57.1409 20.9919 56.4137 22.2494 55.2513 22.2494Z" fill="black"/>
<path d="M35.4273 10.1775C36.1475 10.1775 36.3957 10.0028 39.0444 9.32519C41.4729 8.67364 42.2893 5.63856 40.5089 3.85794L38.492 1.8413C36.7144 0.0636106 33.6775 0.87324 33.0249 3.30611L32.2872 6.06136C31.7125 8.20373 33.3677 10.1775 35.4273 10.1775ZM33.9852 6.51639L34.7229 3.76114C35.0249 2.63523 36.4279 2.26293 37.2493 3.08416L39.266 5.10091C40.0876 5.9225 39.7133 7.3259 38.5892 7.62742L35.8337 8.3651C34.7112 8.66626 33.6835 7.64101 33.9852 6.51639Z" fill="black"/>
<path d="M46.7695 41.0293C46.7695 42.7304 48.1535 44.1143 49.8544 44.1143C51.5556 44.1143 52.9394 42.7304 52.9394 41.0293C52.9394 39.3283 51.5555 37.9443 49.8544 37.9443C48.1535 37.9445 46.7695 39.3283 46.7695 41.0293ZM51.1818 41.0293C51.1818 41.7612 50.5864 42.3566 49.8545 42.3566C49.1227 42.3566 48.5274 41.7612 48.5274 41.0293C48.5274 40.2975 49.1227 39.7021 49.8545 39.7021C50.5864 39.7022 51.1818 40.2975 51.1818 41.0293Z" fill="black"/>
<path d="M3.08598 22.9356C4.78704 22.9356 6.17099 21.5517 6.17099 19.8506C6.17099 18.1496 4.78704 16.7656 3.08598 16.7656C1.38493 16.7656 0.000976562 18.1496 0.000976562 19.8506C0.000976562 21.5517 1.38493 22.9356 3.08598 22.9356ZM3.08598 18.5234C3.8178 18.5234 4.41322 19.1187 4.41322 19.8506C4.41322 20.5825 3.8178 21.1779 3.08598 21.1779C2.35416 21.1779 1.75875 20.5825 1.75875 19.8506C1.75875 19.1188 2.35416 18.5234 3.08598 18.5234Z" fill="black"/>
</g>
<defs>
<clipPath id="clip0_2065_8162">
<rect width="60" height="60" fill="white"/>
</clipPath>
</defs>
</svg>
