<svg width="60" height="58" viewBox="0 0 60 58" fill="none" xmlns="http://www.w3.org/2000/svg">
<path d="M4.67379 55.5674C6.76969 55.5674 8.46879 53.8683 8.46879 51.7724L10.7611 44.1824L8.46879 36.6614C8.46879 34.5656 6.76969 32.8665 4.67379 32.8665C2.57789 32.8665 0.878906 34.5656 0.878906 36.6614V51.7724C0.878906 53.8683 2.57789 55.5674 4.67379 55.5674Z" fill="#62DBFB"/>
<path d="M8.46891 44.1824L13.4541 47.0823L8.46891 51.7724C8.46891 53.868 6.76957 55.5674 4.67391 55.5674C2.57824 55.5674 0.878906 53.868 0.878906 51.7724V44.1824C0.878906 46.278 2.57824 47.9774 4.67391 47.9774C6.76957 47.9774 8.46891 46.278 8.46891 44.1824Z" fill="#01D0FB"/>
<path d="M32.2679 32.7868H21.5407C20.3565 32.7868 19.3966 31.827 19.3966 30.6429V23.3468C19.3966 21.0152 17.5488 19.0648 15.2177 19.0259C12.8363 18.986 10.8934 20.9045 10.8934 23.2767V28.2459C9.43133 29.2266 8.46875 30.8941 8.46875 32.7868V49.7321C8.46875 53.7574 11.7318 57.0205 15.7571 57.0205H28.2263C29.6864 57.0205 30.9205 55.8758 30.9604 54.4164C31.0019 52.9022 29.7869 51.6616 28.2821 51.6616H29.7308C31.4946 51.6616 32.9718 50.2182 32.9381 48.4546C32.9054 46.7455 31.5098 45.3701 29.7929 45.3701H30.9682C32.7322 45.3701 34.2093 43.9266 34.1756 42.1629C34.1429 40.4538 32.7472 39.0784 31.0303 39.0784H32.2679C34.0052 39.0784 35.4137 37.67 35.4137 35.9326C35.4137 34.1953 34.0052 32.7868 32.2679 32.7868Z" fill="#FFDFCF"/>
<path d="M19.5493 57.0205H15.7565C11.7312 57.0205 8.46875 53.758 8.46875 49.7327V32.787C8.46875 30.8939 9.43074 29.2267 10.8931 28.2458V23.2773C10.8931 20.9048 12.8361 18.9864 15.2173 19.0262C15.8705 19.0372 16.485 19.1979 17.0319 19.4757C15.6403 20.1743 14.686 21.6145 14.686 23.2773V28.2458C13.2235 29.2267 12.2604 30.8939 12.2604 32.787V49.7327C12.2604 53.758 15.524 57.0205 19.5493 57.0205Z" fill="#FFCEBF"/>
<path d="M51.3387 0.979103H30.133C25.8344 0.979103 22.3496 4.46379 22.3496 8.76246V20.642C22.3496 24.9407 25.8344 28.4254 30.133 28.4254H42.8541V31.4037C42.8541 33.9195 46.0261 35.0259 47.5909 33.0559L51.269 28.4254H51.3387C55.6374 28.4254 59.1221 24.9407 59.1221 20.642V8.76246C59.1221 4.46379 55.6374 0.979103 51.3387 0.979103Z" fill="#F9F7F8"/>
<path d="M25.4306 8.76262V20.6419C25.4306 24.9405 28.916 28.4248 33.2145 28.4248H30.1336C25.835 28.4248 22.3496 24.9405 22.3496 20.6419V8.76262C22.3496 4.46406 25.835 0.978672 30.1336 0.978672H33.2145C28.916 0.978672 25.4306 4.46406 25.4306 8.76262Z" fill="#DEDBEE"/>
<path d="M47.0532 33.5746C45.3985 34.7791 42.8535 33.6572 42.8535 31.4035V28.4247H45.9345V31.4035C45.9345 32.3635 46.3954 33.118 47.0532 33.5746Z" fill="#DEDBEE"/>
<path d="M30.6073 11.3063L31.0078 12.1179C31.1877 12.4825 31.5354 12.735 31.9377 12.7935L32.8335 12.9237C33.8465 13.0709 34.2509 14.3158 33.5179 15.0301L32.8697 15.662C32.5786 15.9457 32.4459 16.3545 32.5145 16.7551L32.6676 17.6473C32.8407 18.6562 31.7816 19.4255 30.8757 18.9491L30.0746 18.528C29.7147 18.3388 29.2848 18.3388 28.9252 18.528L28.124 18.9491C27.2179 19.4255 26.159 18.6562 26.3321 17.6473L26.485 16.7551C26.5538 16.3545 26.4209 15.9457 26.1298 15.662L25.4818 15.0301C24.7487 14.3158 25.1532 13.0709 26.1661 12.9237L27.0619 12.7935C27.4641 12.735 27.8119 12.4825 27.9918 12.1179L28.3923 11.3063C28.8454 10.3883 30.1543 10.3883 30.6073 11.3063Z" fill="#FEE45A"/>
<path d="M41.8417 11.3063L42.2422 12.1179C42.4222 12.4825 42.7699 12.735 43.1721 12.7935L44.0679 12.9237C45.0809 13.0709 45.4853 14.3158 44.7523 15.0301L44.1042 15.662C43.8131 15.9457 43.6802 16.3545 43.749 16.7551L43.9021 17.6473C44.075 18.6562 43.0161 19.4255 42.1101 18.9491L41.3089 18.528C40.9492 18.3388 40.5193 18.3388 40.1596 18.528L39.3584 18.9491C38.4524 19.4255 37.3935 18.6562 37.5664 17.6473L37.7195 16.7551C37.7882 16.3545 37.6554 15.9457 37.3643 15.662L36.7161 15.0301C35.9831 14.3158 36.3875 13.0709 37.4006 12.9237L38.2963 12.7935C38.6986 12.735 39.0463 12.4825 39.2262 12.1179L39.6267 11.3063C40.0798 10.3883 41.3886 10.3883 41.8417 11.3063Z" fill="#FEE45A"/>
<path d="M53.078 11.3063L53.4785 12.1179C53.6585 12.4825 54.0062 12.735 54.4085 12.7935L55.3042 12.9237C56.3172 13.0709 56.7217 14.3158 55.9887 15.0301L55.3405 15.662C55.0494 15.9457 54.9166 16.3545 54.9853 16.7551L55.1384 17.6473C55.3114 18.6562 54.2525 19.4255 53.3465 18.9491L52.5453 18.528C52.1855 18.3388 51.7557 18.3388 51.3959 18.528L50.5947 18.9491C49.6887 19.4255 48.6298 18.6562 48.8028 17.6473L48.9558 16.7551C49.0245 16.3545 48.8917 15.9457 48.6006 15.662L47.9525 15.0301C47.2194 14.3158 47.6239 13.0709 48.6369 12.9237L49.5327 12.7935C49.9349 12.735 50.2826 12.4825 50.4625 12.1179L50.8632 11.3063C51.3161 10.3883 52.6251 10.3883 53.078 11.3063Z" fill="#FEE45A"/>
<path d="M32.268 38.1995H31.0305C30.5452 38.1995 30.1516 38.593 30.1516 39.0784C30.1516 39.5638 30.5452 39.9573 31.0305 39.9573C32.2568 39.9573 33.2736 40.9542 33.2971 42.1797C33.3084 42.7753 33.0783 43.3444 32.6489 43.7821C32.2069 44.2327 31.5942 44.4912 30.9684 44.4912H29.793C29.3077 44.4912 28.9141 44.8847 28.9141 45.3701C28.9141 45.8555 29.3077 46.249 29.793 46.249C31.0194 46.249 32.0361 47.2459 32.0596 48.4713C32.0709 49.067 31.8408 49.6359 31.4115 50.0736C30.9694 50.5242 30.3568 50.7827 29.7309 50.7827H28.2823C27.7969 50.7827 27.4034 51.1763 27.4034 51.6616C27.4034 52.147 27.7969 52.5405 28.2823 52.5405C28.7726 52.5405 29.2309 52.7341 29.5729 53.0856C29.9147 53.4369 30.0955 53.901 30.0821 54.3922C30.0557 55.3569 29.2233 56.1416 28.2265 56.1416H15.7574C12.2269 56.1416 9.35426 53.2724 9.34816 49.7434L9.34781 32.7868C9.34781 31.2552 10.1087 29.8306 11.3831 28.9759C11.6265 28.8127 11.7725 28.5389 11.7725 28.2459V23.2767C11.7725 22.3652 12.1305 21.5112 12.7806 20.8719C13.4166 20.2465 14.2542 19.9041 15.1451 19.9041C15.1644 19.9041 15.1839 19.9042 15.2032 19.9045C17.031 19.9351 18.518 21.4792 18.518 23.3467V30.6428C18.518 32.3097 19.8739 33.6657 21.5408 33.6657H32.268C33.5181 33.6657 34.5349 34.6826 34.5349 35.9326C34.5349 37.1825 33.5181 38.1995 32.268 38.1995ZM32.268 31.9079H21.5408C20.8433 31.9079 20.2758 31.3404 20.2758 30.6428V23.3467C20.2758 20.526 18.0134 18.1934 15.2325 18.147C13.8462 18.1225 12.5365 18.6464 11.5479 19.6186C10.5592 20.591 10.0147 21.8902 10.0147 23.2767V27.7989C8.48812 28.9981 7.59 30.8291 7.59 32.7868V33.0132C6.78984 32.3726 5.77605 31.9881 4.67344 31.9881C3.42457 31.9881 2.25082 32.4741 1.3684 33.3565C0.485977 34.2389 0 35.4127 0 36.6615V46.8896C0 47.375 0.393516 47.7686 0.878906 47.7686C1.36441 47.7686 1.75781 47.375 1.75781 46.8896V36.6615C1.75781 35.8821 2.06098 35.1498 2.61141 34.5994C3.16172 34.0491 3.89402 33.7459 4.67344 33.7459C6.27809 33.7459 7.58391 35.0477 7.59 36.6503L7.59035 51.7729C7.59035 53.3805 6.28184 54.6885 4.67344 54.6885C3.06586 54.6885 1.75781 53.3805 1.75781 51.7729V50.4053C1.75781 49.9199 1.36441 49.5264 0.878906 49.5264C0.393516 49.5264 0 49.9199 0 50.4053V51.7729C0 54.3498 2.0966 56.4463 4.67344 56.4463C6.45023 56.4463 7.99828 55.4501 8.78906 53.9871C10.2259 56.3317 12.8119 57.8994 15.7574 57.8994H28.2265C30.1663 57.8994 31.787 56.3477 31.8393 54.4404C31.8608 53.6528 31.6291 52.9003 31.1794 52.2735C31.7346 52.0631 32.2451 51.7339 32.6662 51.3046C33.4289 50.5273 33.8375 49.5091 33.817 48.4377C33.7979 47.4373 33.4059 46.5223 32.7764 45.8259C33.1924 45.6218 33.5753 45.3478 33.9037 45.013C34.6664 44.2357 35.075 43.2176 35.0545 42.146C35.0355 41.1536 34.6496 40.2455 34.029 39.5513C35.3681 38.8969 36.2927 37.5206 36.2927 35.9326C36.2927 33.7133 34.4872 31.9079 32.268 31.9079Z" fill="black"/>
<path d="M58.4052 3.75207C58.124 3.35633 57.5752 3.2634 57.1796 3.54453C56.784 3.82555 56.6911 4.37434 56.9721 4.77008C57.8035 5.94043 58.243 7.3209 58.243 8.76219V20.6416C58.243 24.4488 55.1456 27.5462 51.3383 27.5462H51.2691C51.0011 27.5462 50.7477 27.6685 50.581 27.8784L46.9024 32.5086C46.3235 33.2374 45.5015 33.2823 44.9251 33.0814C44.3486 32.8804 43.7328 32.3337 43.7328 31.4028V28.4251C43.7328 27.9397 43.3393 27.5462 42.8539 27.5462H30.1332C26.3259 27.5462 23.2285 24.4488 23.2285 20.6416V8.76219C23.2285 4.955 26.3259 1.8575 30.1332 1.8575H51.3383C52.4803 1.8575 53.6114 2.14168 54.6113 2.67957C54.7433 2.75844 54.8975 2.80391 55.0625 2.80391C55.5479 2.80391 55.9414 2.40969 55.9414 1.9243C55.9414 1.6025 55.7654 1.30637 55.4827 1.15239C54.218 0.463791 52.7848 0.0996895 51.3383 0.0996895H30.1332C25.3566 0.0996895 21.4707 3.98574 21.4707 8.76219V20.6416C21.4707 25.418 25.3566 29.304 30.1332 29.304H41.975V31.4028C41.975 32.9284 42.9057 34.2387 44.3462 34.7411C44.7386 34.878 45.1386 34.9443 45.5322 34.9443C46.5834 34.9443 47.5886 34.4709 48.2788 33.602L51.6992 29.2966C56.3089 29.1066 60.0008 25.2971 60.0008 20.6416V8.76219C60.0008 6.9541 59.4491 5.2216 58.4052 3.75207Z" fill="black"/>
<path d="M32.9028 14.4013L32.2546 15.0331C31.7562 15.5188 31.529 16.2183 31.6467 16.9042L31.7996 17.7963C31.8322 17.9862 31.7248 18.096 31.658 18.1445C31.5911 18.1931 31.4534 18.2613 31.283 18.1717L30.4818 17.7505C30.1738 17.5886 29.836 17.5076 29.4981 17.5076C29.1603 17.5076 28.8223 17.5886 28.5145 17.7505L27.7133 18.1717C27.5429 18.2613 27.4052 18.1931 27.3383 18.1445C27.2713 18.096 27.164 17.9862 27.1966 17.7963L27.3496 16.9042C27.4673 16.2183 27.2399 15.5188 26.7417 15.0332L26.0935 14.4013C25.9556 14.2669 25.9778 14.1149 26.0034 14.0363C26.0289 13.9576 26.1003 13.8216 26.2908 13.7939L27.1867 13.6638C27.8753 13.5636 28.4703 13.1314 28.7783 12.5074L29.1788 11.6958C29.2641 11.5229 29.4155 11.4973 29.4981 11.4973C29.5808 11.4973 29.7322 11.5229 29.8175 11.6957L30.218 12.5074C30.526 13.1314 31.1209 13.5638 31.8097 13.6638L32.7053 13.7939C32.896 13.8217 32.9674 13.9576 32.9929 14.0364C33.0184 14.1149 33.0407 14.2669 32.9028 14.4013ZM34.1297 15.66C34.7102 15.0943 34.9151 14.2641 34.6647 13.4931C34.4142 12.7222 33.7604 12.171 32.9581 12.0544L32.0626 11.9243C31.9464 11.9074 31.8461 11.8345 31.7943 11.7295L31.3938 10.9178C31.0351 10.191 30.3087 9.73946 29.4981 9.73946C28.6876 9.73946 27.9612 10.191 27.6025 10.9178L27.202 11.7294C27.1501 11.8345 27.0499 11.9074 26.9338 11.9243L26.0381 12.0544C25.2359 12.171 24.5821 12.7222 24.3316 13.4931C24.0811 14.2641 24.2861 15.0943 24.8665 15.66L25.5147 16.2919C25.5986 16.3737 25.6369 16.4914 25.6171 16.6071L25.4641 17.4991C25.3271 18.298 25.6493 19.0902 26.305 19.5667C26.9607 20.0432 27.8137 20.1047 28.5312 19.7276L29.3326 19.3063C29.4363 19.2519 29.5601 19.2519 29.6638 19.3064L30.4651 19.7276C30.777 19.8916 31.1147 19.9726 31.4506 19.9726C31.8871 19.9726 32.3207 19.8359 32.6913 19.5667C33.3469 19.0902 33.6692 18.298 33.5322 17.4993L33.3792 16.607C33.3593 16.4914 33.3976 16.3737 33.4815 16.2919L34.1297 15.66Z" fill="black"/>
<path d="M44.139 14.4013L43.4909 15.0331C42.9926 15.5188 42.7653 16.2183 42.883 16.9042L43.0359 17.7963C43.0685 17.9862 42.9611 18.096 42.8943 18.1445C42.8274 18.1931 42.6899 18.2613 42.5192 18.1717L41.7181 17.7505C41.4102 17.5886 41.0723 17.5076 40.7345 17.5076C40.3966 17.5076 40.0586 17.5886 39.7507 17.7505L38.9496 18.1717C38.7791 18.2613 38.6415 18.1931 38.5746 18.1445C38.5077 18.096 38.4003 17.9862 38.4329 17.7963L38.5859 16.9042C38.7036 16.2183 38.4763 15.5188 37.978 15.0332L37.3298 14.4013C37.1919 14.2669 37.2142 14.1149 37.2397 14.0364C37.2652 13.9576 37.3366 13.8217 37.5272 13.7939L38.4229 13.6638C39.1115 13.5638 39.7066 13.1314 40.0146 12.5073L40.4151 11.6958C40.5003 11.5229 40.6517 11.4973 40.7345 11.4973C40.8171 11.4973 40.9685 11.5229 41.0537 11.6958L41.4543 12.5074C41.7623 13.1314 42.3573 13.5636 43.046 13.6638L43.9417 13.7939C44.1323 13.8216 44.2036 13.9576 44.2291 14.0363C44.2547 14.1149 44.2769 14.2669 44.139 14.4013ZM45.3659 15.66C45.9464 15.0943 46.1513 14.2641 45.9009 13.4931C45.6505 12.7222 44.9966 12.171 44.1944 12.0544L43.2988 11.9243C43.1827 11.9074 43.0824 11.8345 43.0306 11.7294L42.6301 10.9178C42.2713 10.191 41.5449 9.73946 40.7345 9.73946C39.9239 9.73946 39.1976 10.191 38.8387 10.9178L38.4383 11.7294C38.3864 11.8345 38.2861 11.9074 38.1702 11.9243L37.2744 12.0544C36.4722 12.171 35.8183 12.7222 35.5679 13.4931C35.3175 14.2641 35.5224 15.0943 36.1029 15.66L36.751 16.2919C36.8349 16.3737 36.8733 16.4914 36.8534 16.6071L36.7004 17.4991C36.5634 18.298 36.8856 19.0902 37.5413 19.5667C38.197 20.0432 39.0499 20.1047 39.7676 19.7276L40.5688 19.3063C40.6726 19.2519 40.7965 19.2519 40.9002 19.3064L41.7014 19.7276C42.0133 19.8916 42.3511 19.9726 42.6869 19.9726C43.1234 19.9726 43.557 19.8359 43.9276 19.5667C44.5833 19.0902 44.9055 18.298 44.7685 17.4993L44.6155 16.607C44.5957 16.4914 44.6339 16.3737 44.7179 16.2919L45.3659 15.66Z" fill="black"/>
<path d="M55.3754 14.4013L54.7273 15.0331C54.2289 15.5188 54.0017 16.2183 54.1193 16.9042L54.2722 17.7963C54.3048 17.9862 54.1975 18.096 54.1307 18.1445C54.0638 18.1931 53.9261 18.2613 53.7557 18.1717L52.9545 17.7505C52.6465 17.5886 52.3086 17.5076 51.9708 17.5076C51.6329 17.5076 51.295 17.5886 50.9871 17.7505L50.1859 18.1717C50.0154 18.2613 49.8778 18.1931 49.8109 18.1445C49.744 18.096 49.6367 17.9862 49.6692 17.7963L49.8223 16.9042C49.9399 16.2183 49.7126 15.5188 49.2143 15.0332L48.5661 14.4013C48.4282 14.2669 48.4505 14.1149 48.476 14.0363C48.5016 13.9576 48.5729 13.8216 48.7635 13.7939L49.6594 13.6638C50.348 13.5636 50.9429 13.1314 51.2509 12.5074L51.6515 11.6958C51.7368 11.5229 51.8881 11.4973 51.9708 11.4973C52.0534 11.4973 52.2048 11.5229 52.29 11.6957L52.6907 12.5074C52.9986 13.1314 53.5936 13.5638 54.2823 13.6638L55.178 13.7939C55.3686 13.8217 55.44 13.9576 55.4656 14.0364C55.4911 14.1149 55.5134 14.2669 55.3754 14.4013ZM56.6024 15.66C57.1827 15.0943 57.3878 14.2641 57.1374 13.4931C56.8868 12.7222 56.233 12.171 55.4308 12.0544L54.5352 11.9243C54.4191 11.9074 54.3188 11.8345 54.267 11.7294L53.8664 10.9178C53.5077 10.191 52.7814 9.73946 51.9708 9.73946C51.1603 9.73946 50.4339 10.191 50.0752 10.9178L49.6746 11.7294C49.6227 11.8345 49.5225 11.9074 49.4065 11.9243L48.5107 12.0544C47.7086 12.171 47.0548 12.7222 46.8042 13.4931C46.5538 14.2641 46.7588 15.0943 47.3392 15.66L47.9874 16.2919C48.0713 16.3737 48.1096 16.4914 48.0898 16.6071L47.9367 17.4991C47.7997 18.298 48.122 19.0902 48.7777 19.5667C49.4333 20.0432 50.2863 20.1047 51.0039 19.7276L51.8052 19.3063C51.9089 19.2519 52.0328 19.2519 52.1365 19.3064L52.9377 19.7276C53.2497 19.8916 53.5874 19.9726 53.9233 19.9726C54.3598 19.9726 54.7934 19.8359 55.1639 19.5667C55.8196 19.0902 56.1418 18.298 56.0049 17.4993L55.8518 16.607C55.832 16.4914 55.8702 16.3737 55.9541 16.2919L56.6024 15.66Z" fill="black"/>
</svg>
