<svg width="35" height="35" viewBox="0 0 35 35" fill="none" xmlns="http://www.w3.org/2000/svg">
<g clip-path="url(#clip0_2086_20257)">
<path d="M27.9784 22.5249C26.6744 21.2209 24.5525 21.2207 23.2483 22.5249L21.1791 24.5942C16.9413 21.6793 13.3225 18.0605 10.4071 13.8222L12.4764 11.7529C13.7804 10.4488 13.7804 8.32689 12.4764 7.02279L9.59339 4.13974C8.2893 2.83578 6.16735 2.83564 4.86326 4.13974L1.4362 7.56693C0.229179 8.77389 -0.093204 10.4939 0.594696 12.0558C2.78138 17.0215 5.8369 21.486 9.6761 25.3252C13.5153 29.1644 17.9798 32.2198 22.9454 34.4066C23.489 34.646 24.0515 34.763 24.605 34.763C25.6421 34.763 26.6475 34.352 27.4344 33.5651L30.8614 30.1381C31.4919 29.5077 31.8391 28.6678 31.8391 27.7731C31.8391 26.8784 31.4919 26.0385 30.8614 25.408L27.9784 22.525V22.5249ZM29.653 28.9296L26.226 32.3566C25.5291 33.0536 24.5358 33.2396 23.6342 32.8425C14.0195 28.6086 6.39273 20.9817 2.15869 11.3671C1.76152 10.4654 1.94773 9.47225 2.64459 8.77539L6.07165 5.34833C6.39055 5.02943 6.80938 4.87002 7.22829 4.87002C7.6472 4.87002 8.06603 5.02943 8.38493 5.34833L11.2679 8.23132C11.9056 8.86911 11.9056 9.90681 11.2679 10.5446L8.7002 13.1123C8.41262 13.4 8.36757 13.8504 8.59261 14.1892C11.8287 19.0622 15.9399 23.1734 20.8121 26.4088C21.151 26.6338 21.6015 26.5888 21.8891 26.3012L24.4568 23.7334C25.0945 23.0956 26.1323 23.0957 26.77 23.7334L29.653 26.6164C29.9607 26.9241 30.1301 27.3348 30.1301 27.7731C30.1301 28.2113 29.9607 28.622 29.653 28.9296L29.653 28.9296ZM17.2277 11.2891C17.2277 10.8172 17.6103 10.4346 18.0822 10.4346C21.6578 10.4346 24.5667 13.3436 24.5667 16.9191C24.5667 17.391 24.1841 17.7736 23.7122 17.7736C23.2403 17.7736 22.8577 17.391 22.8577 16.9191C22.8577 14.2858 20.7154 12.1436 18.0822 12.1436C17.6103 12.1436 17.2277 11.761 17.2277 11.2891ZM34.764 16.9191C34.764 17.391 34.3814 17.7736 33.9095 17.7736C33.4376 17.7736 33.055 17.391 33.055 16.9191C33.055 8.66308 26.3382 1.94629 18.0822 1.94629C17.6103 1.94629 17.2277 1.56368 17.2277 1.0918C17.2277 0.619912 17.6103 0.237305 18.0822 0.237305C22.5381 0.237305 26.7272 1.97254 29.878 5.12336C33.0288 8.27411 34.7641 12.4633 34.7641 16.9191H34.764ZM17.2277 6.21232C17.2277 5.74044 17.6103 5.35783 18.0822 5.35783C24.4571 5.35783 29.6435 10.5442 29.6435 16.9191C29.6435 17.391 29.2609 17.7736 28.789 17.7736C28.3171 17.7736 27.9345 17.391 27.9345 16.9191C27.9345 11.4865 23.5148 7.06682 18.0822 7.06682C17.6103 7.06682 17.2277 6.68428 17.2277 6.21232Z" fill="#FF0600"/>
</g>
<defs>
<clipPath id="clip0_2086_20257">
<rect width="35" height="35" fill="white"/>
</clipPath>
</defs>
</svg>
