<svg width="60" height="60" viewBox="0 0 60 60" fill="none" xmlns="http://www.w3.org/2000/svg">
<path d="M34.1998 35.7402V57.6013C34.1998 58.264 33.6625 58.8013 32.9998 58.8013H26.9998C26.3371 58.8013 25.7998 58.264 25.7998 57.6013V35.7402H34.1998Z" fill="#F9B938"/>
<path d="M34.2027 35.7373V57.6013C34.2027 58.2612 33.6628 58.8013 33.0027 58.8013H32.6307V38.7732H25.8027V35.7373H34.2027Z" fill="#ECB021"/>
<path d="M31.2917 2.29759V34.7518C31.2917 35.1461 30.9721 35.4657 30.5778 35.4657H29.7998C29.4055 35.4657 29.0859 35.1461 29.0859 34.7518V2.29759C29.0859 1.69044 29.5781 1.19824 30.1853 1.19824H30.1923C30.7995 1.19824 31.2917 1.69044 31.2917 2.29759Z" fill="#474646"/>
<path d="M41.6726 58.7986C41.6351 58.7986 41.5964 58.7974 41.5577 58.7927C40.8979 58.7306 40.414 58.1447 40.4772 57.4849L41.6772 44.9353C41.7394 44.2756 42.3241 43.7658 42.9851 43.8549C43.6448 43.917 44.1288 44.5041 44.0655 45.1627L42.8655 57.7123C42.8069 58.3334 42.2843 58.7986 41.6726 58.7986Z" fill="#ECB021"/>
<path d="M54.2696 58.7981C53.6579 58.7981 53.1352 58.3329 53.0767 57.7118L51.8767 45.1622C51.8134 44.5036 52.2974 43.9164 52.9571 43.8543C53.6216 43.7629 54.2028 44.275 54.2649 44.9348L55.4649 57.4844C55.5282 58.1442 55.0442 58.7301 54.3845 58.7922C54.3458 58.7969 54.3071 58.7981 54.2696 58.7981Z" fill="#ECB021"/>
<path d="M54.9344 46.8488H40.0715C39.0777 46.8488 38.2715 46.0426 38.2715 45.0488C38.2715 44.0551 39.0777 43.2488 40.0715 43.2488H53.3254L55.1828 26.7488C55.2941 25.7609 56.1836 25.0391 57.1727 25.1621C58.1605 25.2734 58.8707 26.1641 58.7594 27.152L56.7227 45.2504C56.6207 46.1609 55.8508 46.8488 54.9344 46.8488Z" fill="#F9B938"/>
<path d="M58.7558 27.1488L56.7275 45.2447C56.6197 46.1567 55.8516 46.8527 54.9398 46.8527H40.0717C39.2317 46.8527 38.5356 46.2887 38.3438 45.5088C38.4876 45.5567 38.6558 45.5808 38.8116 45.5808H53.6678C54.5798 45.5808 55.3597 44.8968 55.4558 43.9848L57.4957 25.8887C57.5197 25.6608 57.4957 25.4329 57.4356 25.2168C58.2756 25.4447 58.8636 26.2488 58.7558 27.1488Z" fill="#ECB021"/>
<path d="M18.3272 58.7986C19.0356 58.7986 19.5902 58.19 19.5226 57.4849L18.3226 44.9353C18.2604 44.2756 17.6757 43.7658 17.0147 43.8549C16.355 43.917 15.871 44.5041 15.9343 45.1627L17.1343 57.7123C17.1929 58.3334 17.7155 58.7986 18.3272 58.7986Z" fill="#ECB021"/>
<path d="M5.72919 58.7981C6.34091 58.7981 6.86357 58.3329 6.92216 57.7118L8.12216 45.1622C8.18544 44.5036 7.70146 43.9164 7.04169 43.8543C6.37724 43.7629 5.79599 44.275 5.73388 44.9348L4.53388 57.4844C4.4706 58.1442 4.95459 58.7301 5.61435 58.7922C5.65302 58.7969 5.69169 58.7981 5.72919 58.7981Z" fill="#ECB021"/>
<path d="M5.06501 46.8488H19.9279C20.9216 46.8488 21.7279 46.0426 21.7279 45.0488C21.7279 44.0551 20.9216 43.2488 19.9279 43.2488H6.67399L4.81657 26.7488C4.70524 25.7609 3.81579 25.0391 2.82672 25.1621C1.83883 25.2734 1.12868 26.1641 1.24001 27.152L3.27672 45.2504C3.37868 46.1609 4.1486 46.8488 5.06501 46.8488Z" fill="#F9B938"/>
<path d="M1.24419 27.1488L3.27241 45.2447C3.38022 46.1567 4.14839 46.8527 5.06011 46.8527H19.9283C20.7682 46.8527 21.4643 46.2887 21.6562 45.5088C21.5124 45.5567 21.3442 45.5808 21.1883 45.5808H6.33218C5.42016 45.5808 4.64028 44.8968 4.54419 43.9848L2.50425 25.8887C2.48022 25.6608 2.50425 25.4329 2.56431 25.2168C1.72436 25.4447 1.13638 26.2488 1.24419 27.1488Z" fill="#ECB021"/>
<path d="M45.7934 36.1372L45.7932 33.761C45.7932 33.1562 45.303 32.666 44.6982 32.666H15.2982C14.6934 32.666 14.2031 33.1563 14.2031 33.761V36.1372C14.2031 36.742 14.6934 37.2323 15.2982 37.2323H44.6983C45.3031 37.2323 45.7934 36.742 45.7934 36.1372Z" fill="#F9B938"/>
<path opacity="0.3" d="M25.7615 33.7764L20.4898 33.7768C20.1877 33.7768 19.9433 34.0212 19.9434 34.3232C19.9434 34.6252 20.188 34.8696 20.4901 34.8696L25.7618 34.8692C26.0639 34.8691 26.3083 34.6247 26.3082 34.3227C26.3081 34.0207 26.0636 33.7763 25.7615 33.7764Z" fill="white"/>
<path opacity="0.3" d="M18.3137 33.7773L17.5328 33.7774C17.2307 33.7774 16.9863 34.0218 16.9863 34.3238C16.9864 34.6258 17.2309 34.8702 17.5331 34.8702L18.314 34.8701C18.6161 34.8701 18.8605 34.6257 18.8604 34.3237C18.8604 34.0217 18.6158 33.7773 18.3137 33.7773Z" fill="white"/>
<path d="M50.7138 20.6411C50.8962 21.6566 49.7581 22.3703 48.951 21.7278C45.5853 19.0487 40.6914 19.472 37.9012 22.7073C37.4575 23.2217 36.6875 23.225 36.2398 22.714C33.1295 19.1638 27.3892 19.0123 24.1485 22.7757C23.7035 23.2924 22.9283 23.2919 22.4829 22.7756C19.717 19.5695 14.8033 19.0885 11.4345 21.8011C10.6288 22.4499 9.48292 21.744 9.66232 20.7251C11.3847 10.9442 19.9082 3.51425 30.1443 3.48932C40.4232 3.46428 48.9572 10.8608 50.7138 20.6411Z" fill="#FC6559"/>
<path d="M48.9611 21.7339C48.5625 21.4256 48.1645 21.1616 47.7223 20.9197C47.7221 20.8536 47.7218 20.743 47.6995 20.6548C46.0427 11.3609 38.2293 4.22435 28.6426 3.58517C29.0183 3.54005 29.4156 3.51697 29.7909 3.51606C29.9235 3.49376 30.034 3.49349 30.1445 3.49322C30.2551 3.49295 30.3651 3.49269 30.4977 3.51434C40.6132 3.64431 48.9787 10.9783 50.7028 20.6475C50.9042 21.6629 49.7575 22.3725 48.9611 21.7339Z" fill="#F05543"/>
<path d="M37.0155 23.0882C36.7286 23.0667 36.4409 22.957 36.2419 22.7145C36.1089 22.5602 35.9538 22.4061 35.8213 22.2738C35.5112 21.9876 35.1794 21.7012 34.8251 21.4591C34.6042 21.3051 34.3828 21.1511 34.1393 21.0411C31.7523 19.4574 27.2219 19.6651 24.7343 22.1683C24.624 22.2791 24.4917 22.3898 24.4035 22.5004C24.2637 22.641 24.1631 22.7423 24.1394 22.7661C23.941 23.0095 23.654 23.1427 23.3672 23.1655C23.5625 12.542 26.3241 4.05466 29.7903 3.51606C29.9229 3.49376 30.0334 3.49349 30.144 3.49322C30.2545 3.49295 30.3645 3.49269 30.4972 3.51434C33.966 4.03604 36.7692 12.4658 37.0155 23.0882Z" fill="#E4E3FF"/>
<path d="M37.0159 23.0882C36.729 23.0667 36.4414 22.957 36.2424 22.7145C36.1094 22.5602 35.9542 22.4061 35.8218 22.2738C35.5116 21.9876 35.1799 21.7012 34.8256 21.4591C34.7591 21.4152 34.6711 21.349 34.6047 21.3271C34.163 12.3837 31.8716 5.32199 28.9746 3.80516C29.239 3.65004 29.504 3.56097 29.7908 3.51606C29.9234 3.49376 30.0339 3.49349 30.1444 3.49322C30.255 3.49295 30.365 3.49269 30.4976 3.51434C33.9664 4.03604 36.7696 12.4658 37.0159 23.0882Z" fill="#D0D0F7"/>
<g opacity="0.3">
<path d="M21.1104 10.4027C20.9309 10.3289 20.773 10.1978 20.6679 10.0186C20.4092 9.5798 20.5556 9.01617 20.9936 8.75911C21.2478 8.60906 21.5048 8.46604 21.7655 8.32841C22.2157 8.09382 22.7724 8.26647 23.0083 8.71335C23.2453 9.16257 23.0726 9.71927 22.6234 9.9562C22.3875 10.0807 22.1553 10.2106 21.9274 10.3442C21.6686 10.4963 21.3664 10.508 21.1104 10.4027Z" fill="white"/>
<path d="M14.5913 17.3058C14.5664 17.2955 14.5422 17.2836 14.5179 17.2717C14.0656 17.039 13.8895 16.4846 14.1222 16.0323C15.2217 13.8979 16.7149 12.0304 18.5563 10.483C18.9467 10.1577 19.5309 10.2115 19.8532 10.5948C20.1809 10.9841 20.1301 11.5657 19.7414 11.8917C18.0851 13.282 16.7463 14.9584 15.7574 16.8759C15.5366 17.304 15.0285 17.4856 14.5913 17.3058Z" fill="white"/>
</g>
<path opacity="0.3" d="M28.491 51.6072L28.4905 45.51C28.4905 45.1605 28.2078 44.8778 27.8585 44.8779C27.5092 44.878 27.2265 45.1608 27.2266 45.5103L27.2271 51.6075C27.2271 51.957 27.5098 52.2397 27.8591 52.2396C28.2084 52.2395 28.491 51.9567 28.491 51.6072Z" fill="white"/>
<path opacity="0.3" d="M28.4905 42.9933L28.4905 42.09C28.4905 41.7406 28.2078 41.4579 27.8585 41.458C27.5092 41.4581 27.2265 41.7409 27.2266 42.0904L27.2266 42.9936C27.2266 43.343 27.5093 43.6257 27.8586 43.6256C28.2079 43.6255 28.4906 43.3427 28.4905 42.9933Z" fill="white"/>
</svg>
