<svg width="60" height="60" viewBox="0 0 60 60" fill="none" xmlns="http://www.w3.org/2000/svg">
<path d="M29.0081 47.8121L40.1887 50.8121C40.9092 51.0051 41.6768 50.9041 42.3227 50.5312C42.9686 50.1583 43.44 49.5441 43.6331 48.8237C43.7294 48.4666 43.7543 48.0941 43.7064 47.7275C43.6586 47.3608 43.5389 47.0071 43.3542 46.6868C43.1695 46.3664 42.9234 46.0856 42.6301 45.8605C42.3368 45.6353 42.0019 45.4702 41.6447 45.3746L27.6572 41.6246C26.7344 41.3775 25.7639 41.3694 24.8372 41.6012L18.75 43.1246V54.3746L21.3122 55.6562C22.0933 56.0463 22.9544 56.2495 23.8275 56.2496H37.8684C38.8555 56.251 39.8256 55.9923 40.6809 55.4996L56.4309 46.4059C57.0774 46.0329 57.5492 45.4184 57.7426 44.6976C57.936 43.9767 57.8351 43.2086 57.4622 42.5621C57.0892 41.9157 56.4747 41.4438 55.7539 41.2504C55.033 41.057 54.2649 41.1579 53.6184 41.5309L43.6125 47.3059" fill="#FFBCAB"/>
<path d="M15.9375 27.1875C15.4402 27.1875 14.9633 27.385 14.6117 27.7367C14.26 28.0883 14.0625 28.5652 14.0625 29.0625C14.0625 29.5598 14.26 30.0367 14.6117 30.3883C14.9633 30.74 15.4402 30.9375 15.9375 30.9375H55.3125C55.8098 30.9375 56.2867 30.74 56.6383 30.3883C56.99 30.0367 57.1875 29.5598 57.1875 29.0625C57.1875 28.5652 56.99 28.0883 56.6383 27.7367C56.2867 27.385 55.8098 27.1875 55.3125 27.1875H15.9375Z" fill="#FFA733"/>
<path d="M11.25 40.3125H18.75V57.1875H11.25V40.3125Z" fill="#006DF0"/>
<path d="M3.75 42.1875H11.25V55.3125H3.75V42.1875Z" fill="#57A4FF"/>
<path d="M18.75 36.5625H52.5L54.375 30.9375H16.875L18.75 36.5625Z" fill="#FFC477"/>
<path d="M54.0628 31.875L54.375 30.9375H16.875L17.1872 31.875H54.0628Z" fill="#FFB655"/>
<path d="M35.625 8.4375C30.6522 8.4375 25.8831 10.4129 22.3667 13.9292C18.8504 17.4456 16.875 22.2147 16.875 27.1875H54.375C54.375 24.7252 53.89 22.287 52.9477 20.0122C52.0055 17.7373 50.6244 15.6703 48.8833 13.9292C47.1422 12.1881 45.0752 10.807 42.8003 9.86476C40.5255 8.92248 38.0873 8.4375 35.625 8.4375Z" fill="#FFC477"/>
<path d="M35.625 8.4375C37.1783 8.4375 38.4375 7.1783 38.4375 5.625C38.4375 4.0717 37.1783 2.8125 35.625 2.8125C34.0717 2.8125 32.8125 4.0717 32.8125 5.625C32.8125 7.1783 34.0717 8.4375 35.625 8.4375Z" fill="#FF9811"/>
<path d="M9.375 42.1875H11.25V55.3125H9.375V42.1875Z" fill="#2488FF"/>
<path d="M46.875 12.2129V18.7501C46.875 20.7392 46.0848 22.6469 44.6783 24.0534C43.2718 25.4599 41.3641 26.2501 39.375 26.2501H16.9219C16.9069 26.5623 16.875 26.8707 16.875 27.1876H54.375C54.3749 24.2803 53.6969 21.4132 52.395 18.8137C51.0931 16.2143 49.2031 13.9542 46.875 12.2129Z" fill="#FFB655"/>
<path d="M55.3125 26.2501H55.2656C55.0454 21.7354 53.2789 17.4339 50.2625 14.0676C47.2461 10.7013 43.1635 8.47504 38.7 7.76257C39.0924 7.20042 39.3232 6.54146 39.3672 5.85732C39.4113 5.17318 39.267 4.49005 38.95 3.88219C38.633 3.27433 38.1554 2.765 37.5692 2.40957C36.983 2.05414 36.3106 1.86621 35.625 1.86621C34.9394 1.86621 34.267 2.05414 33.6808 2.40957C33.0946 2.765 32.617 3.27433 32.3 3.88219C31.983 4.49005 31.8387 5.17318 31.8828 5.85732C31.9268 6.54146 32.1576 7.20042 32.55 7.76257C28.0865 8.47504 24.0039 10.7013 20.9875 14.0676C17.9711 17.4339 16.2046 21.7354 15.9844 26.2501H15.9375C15.1916 26.2501 14.4762 26.5464 13.9488 27.0738C13.4213 27.6013 13.125 28.3167 13.125 29.0626C13.125 29.8085 13.4213 30.5239 13.9488 31.0513C14.4762 31.5788 15.1916 31.8751 15.9375 31.8751H16.2L17.8594 36.8626C17.924 37.0477 18.0442 37.2084 18.2036 37.3225C18.3631 37.4366 18.5539 37.4986 18.75 37.5001H52.5C52.6961 37.4986 52.8869 37.4366 53.0464 37.3225C53.2058 37.2084 53.326 37.0477 53.3906 36.8626L55.05 31.8751H55.3125C56.0584 31.8751 56.7738 31.5788 57.3012 31.0513C57.8287 30.5239 58.125 29.8085 58.125 29.0626C58.125 28.3167 57.8287 27.6013 57.3012 27.0738C56.7738 26.5464 56.0584 26.2501 55.3125 26.2501ZM35.625 3.75007C35.9958 3.75007 36.3584 3.86004 36.6667 4.06607C36.975 4.2721 37.2154 4.56493 37.3573 4.90754C37.4992 5.25015 37.5363 5.62715 37.464 5.99087C37.3916 6.35458 37.2131 6.68868 36.9508 6.9509C36.6886 7.21312 36.3545 7.3917 35.9908 7.46405C35.6271 7.53639 35.2501 7.49926 34.9075 7.35735C34.5649 7.21543 34.272 6.97511 34.066 6.66677C33.86 6.35843 33.75 5.99591 33.75 5.62507C33.7515 5.12825 33.9495 4.6522 34.3008 4.30089C34.6521 3.94958 35.1282 3.75156 35.625 3.75007ZM35.625 9.37507C40.1847 9.38118 44.5689 11.1336 47.8766 14.2721C51.1843 17.4107 53.1642 21.6969 53.4094 26.2501H17.8406C18.0858 21.6969 20.0657 17.4107 23.3734 14.2721C26.6811 11.1336 31.0653 9.38118 35.625 9.37507ZM51.825 35.6251H19.425L18.1781 31.8751H53.0719L51.825 35.6251ZM55.3125 30.0001H15.9375C15.6889 30.0001 15.4504 29.9013 15.2746 29.7255C15.0988 29.5497 15 29.3112 15 29.0626C15 28.8139 15.0988 28.5755 15.2746 28.3997C15.4504 28.2238 15.6889 28.1251 15.9375 28.1251H55.3125C55.5611 28.1251 55.7996 28.2238 55.9754 28.3997C56.1512 28.5755 56.25 28.8139 56.25 29.0626C56.25 29.3112 56.1512 29.5497 55.9754 29.7255C55.7996 29.9013 55.5611 30.0001 55.3125 30.0001Z" fill="#231F20"/>
<path d="M58.2656 42.0938C57.768 41.2339 56.9501 40.6061 55.9908 40.3478C55.0315 40.0895 54.0089 40.2218 53.1469 40.7156L44.0062 45.9938C43.5071 45.2458 42.7547 44.7032 41.8875 44.4656L27.9 40.725C26.8236 40.4346 25.6906 40.4249 24.6094 40.6969L19.6875 41.925V40.3125C19.6875 40.0639 19.5887 39.8254 19.4129 39.6496C19.2371 39.4738 18.9986 39.375 18.75 39.375H11.25C11.0014 39.375 10.7629 39.4738 10.5871 39.6496C10.4113 39.8254 10.3125 40.0639 10.3125 40.3125V41.25H3.75C3.50136 41.25 3.2629 41.3488 3.08709 41.5246C2.91127 41.7004 2.8125 41.9389 2.8125 42.1875V55.3125C2.8125 55.5611 2.91127 55.7996 3.08709 55.9754C3.2629 56.1512 3.50136 56.25 3.75 56.25H10.3125V57.1875C10.3125 57.4361 10.4113 57.6746 10.5871 57.8504C10.7629 58.0262 11.0014 58.125 11.25 58.125H18.75C18.9986 58.125 19.2371 58.0262 19.4129 57.8504C19.5887 57.6746 19.6875 57.4361 19.6875 57.1875V55.8937L20.8969 56.4937C21.8086 56.9476 22.8128 57.185 23.8312 57.1875H37.8656C39.0182 57.19 40.1507 56.8859 41.1469 56.3063L56.8969 47.2125C57.7548 46.713 58.3802 45.8944 58.6367 44.9354C58.8931 43.9763 58.7597 42.9548 58.2656 42.0938ZM10.3125 54.375H4.6875V43.125H10.3125V54.375ZM17.8125 56.25H12.1875V41.25H17.8125V56.25ZM55.9594 45.5906L40.2094 54.6844C39.4971 55.0966 38.6886 55.3133 37.8656 55.3125H23.8312C23.102 55.314 22.3826 55.1438 21.7313 54.8156L19.6875 53.7938V43.8562L25.0594 42.5156C25.8324 42.3202 26.6427 42.3266 27.4125 42.5344L41.4 46.2844C41.7599 46.3778 42.0836 46.5766 42.3298 46.8552C42.5759 47.1339 42.7333 47.4797 42.7816 47.8483C42.83 48.217 42.7671 48.5916 42.6011 48.9243C42.4352 49.257 42.1736 49.5326 41.85 49.7156C41.6387 49.8403 41.4045 49.9211 41.1613 49.9533C40.918 49.9855 40.6708 49.9685 40.4344 49.9031L29.25 46.9031C29.0088 46.8385 28.7518 46.8723 28.5356 46.9971C28.3193 47.1219 28.1615 47.3276 28.0969 47.5688C28.0322 47.8099 28.066 48.0669 28.1909 48.2832C28.3157 48.4994 28.5213 48.6572 28.7625 48.7219L39.9469 51.7125C40.2649 51.7981 40.5926 51.8422 40.9219 51.8437C41.5778 51.8447 42.222 51.6699 42.7875 51.3375C43.216 51.0928 43.5916 50.7654 43.8926 50.3743C44.1935 49.9832 44.4138 49.5363 44.5406 49.0594C44.6446 48.6461 44.6795 48.2184 44.6437 47.7937L54.0844 42.3469C54.5151 42.1078 55.022 42.0455 55.4978 42.1732C55.9737 42.3009 56.3812 42.6086 56.6344 43.0313C56.8834 43.4604 56.9521 43.9707 56.8256 44.4504C56.6991 44.9301 56.3876 45.3401 55.9594 45.5906Z" fill="#231F20"/>
<path d="M15 55.3125C15.2486 55.3125 15.4871 55.2137 15.6629 55.0379C15.8387 54.8621 15.9375 54.6236 15.9375 54.375V53.4375C15.9375 53.1889 15.8387 52.9504 15.6629 52.7746C15.4871 52.5988 15.2486 52.5 15 52.5C14.7514 52.5 14.5129 52.5988 14.3371 52.7746C14.1613 52.9504 14.0625 53.1889 14.0625 53.4375V54.375C14.0625 54.6236 14.1613 54.8621 14.3371 55.0379C14.5129 55.2137 14.7514 55.3125 15 55.3125Z" fill="#231F20"/>
<path d="M51.0584 23.2037C50.4291 20.7942 49.2468 18.5645 47.6055 16.6916C45.9641 14.8186 43.9088 13.3541 41.6027 12.414C41.4883 12.3656 41.3653 12.3403 41.241 12.3399C41.1168 12.3394 40.9936 12.3636 40.8788 12.4111C40.7639 12.4586 40.6597 12.5285 40.5721 12.6167C40.4845 12.7049 40.4154 12.8096 40.3686 12.9248C40.3219 13.04 40.2985 13.1633 40.2999 13.2876C40.3012 13.4118 40.3273 13.5346 40.3765 13.6487C40.4257 13.7629 40.4972 13.866 40.5867 13.9523C40.6762 14.0386 40.7819 14.1062 40.8977 14.1512C42.9327 14.9807 44.7463 16.2731 46.1947 17.9259C47.643 19.5786 48.6862 21.5462 49.2415 23.6724C49.2934 23.8736 49.4108 24.0519 49.575 24.1792C49.7393 24.3064 49.9412 24.3755 50.149 24.3756C50.2284 24.3757 50.3075 24.3656 50.3843 24.3456C50.5035 24.3149 50.6156 24.261 50.714 24.187C50.8124 24.113 50.8953 24.0203 50.9579 23.9143C51.0205 23.8082 51.0616 23.6909 51.0788 23.569C51.096 23.447 51.0891 23.3229 51.0584 23.2037Z" fill="#231F20"/>
<path d="M37.6163 11.3738C36.9557 11.2912 36.2907 11.2499 35.625 11.25C35.3764 11.25 35.1379 11.3488 34.9621 11.5246C34.7863 11.7004 34.6875 11.9389 34.6875 12.1875C34.6875 12.4361 34.7863 12.6746 34.9621 12.8504C35.1379 13.0262 35.3764 13.125 35.625 13.125C36.213 13.1249 36.8004 13.1615 37.3837 13.2347C37.4226 13.2395 37.4618 13.242 37.5009 13.2422C37.7404 13.2434 37.9712 13.1529 38.1461 12.9893C38.3209 12.8257 38.4266 12.6014 38.4413 12.3624C38.4561 12.1235 38.3788 11.8879 38.2254 11.704C38.072 11.5202 37.854 11.402 37.6163 11.3738Z" fill="#231F20"/>
</svg>
