<svg width="60" height="60" viewBox="0 0 60 60" fill="none" xmlns="http://www.w3.org/2000/svg">
<path d="M47.2678 58.8283V51.5434C47.2678 48.6088 45.3943 46.0019 42.613 45.066L32.7225 41.738C31.7954 41.4261 31.1709 40.557 31.1709 39.5788V35.8691H21.0334V39.5788C21.0334 40.557 20.4089 41.4261 19.4818 41.738L9.59133 45.066C6.81 46.0019 4.93652 48.6088 4.93652 51.5434V58.8283C4.93652 59.4755 5.46117 60.0002 6.1084 60.0002H46.0959C46.7432 60.0002 47.2678 59.4755 47.2678 58.8283Z" fill="#F8F5F9"/>
<path d="M33.5945 42.0314L30.9645 41.738C30.0375 41.4261 29.413 40.557 29.413 39.5788V35.8691H21.0332V39.5788C21.0332 40.557 20.4088 41.4261 19.4817 41.738L18.3301 42.1254L24.0065 46.5236L33.5945 42.0314Z" fill="#F1CCBD"/>
<path d="M27.6553 35.8691V41.3366C27.6553 42.3148 28.2798 43.1839 29.2068 43.4958L29.9415 43.743L33.5946 42.0314L32.7225 41.738C31.7954 41.4261 31.1709 40.557 31.1709 39.5788V35.8691H27.6553Z" fill="#EAAD9C"/>
<path d="M26.1024 39.5366C26.1024 39.5366 22.5164 39.7395 21.0335 39.0187C17.2844 37.1964 14.7002 33.3514 14.7002 28.9029V22.059L25.9411 16.8008L37.1819 22.059V28.9029C37.1819 33.2226 34.7452 36.9732 31.1715 38.8554C29.6091 39.6781 27.9908 39.5366 26.1024 39.5366Z" fill="#F1CCBD"/>
<path d="M33.6659 20.3008V28.9025C33.6892 29.6624 33.7223 33.3231 30.9393 36.2417C27.0394 40.3316 21.3104 39.0832 21.0332 39.018C21.8859 39.4271 23.2184 39.942 24.9214 40.0975C24.9214 40.0975 25.4432 40.1433 25.9407 40.1433C32.1489 40.1433 37.1815 35.1106 37.1815 28.9025V22.0586L33.6659 20.3008Z" fill="#EAAD9C"/>
<path d="M37.9517 28.7874H37.1816V24.4375H37.9517C39.1529 24.4375 40.1267 25.4112 40.1267 26.6125C40.1267 27.8137 39.1529 28.7874 37.9517 28.7874Z" fill="#F1CCBD"/>
<path d="M13.9299 28.7874H14.6999V24.4375H13.9299C12.7287 24.4375 11.7549 25.4112 11.7549 26.6125C11.755 27.8137 12.7287 28.7874 13.9299 28.7874Z" fill="#EAAD9C"/>
<path d="M38.947 8.66578C38.6427 5.82984 36.3883 3.55008 33.557 3.20438C32.7774 3.1091 32.0236 3.16219 31.3171 3.33551C31.0173 3.4091 30.703 3.30457 30.5033 3.06914C29.3676 1.72969 27.6736 0.878906 25.78 0.878906C23.8863 0.878906 22.1923 1.72969 21.0566 3.06914C20.857 3.30445 20.5426 3.4091 20.243 3.33551C19.6593 3.1923 19.0435 3.13125 18.4075 3.16793C15.2608 3.3498 12.7251 5.91445 12.5827 9.06316C12.4819 11.2922 13.5608 13.2748 15.2472 14.4429C15.5083 14.6237 15.6392 14.9406 15.5843 15.2534L14.6999 22.0587C18.0594 21.5807 21.9707 21.2427 26.3278 21.2638C30.3678 21.2834 34.0142 21.608 37.1817 22.0587C36.8768 20.3032 36.5718 16.795 36.2669 15.0395C36.2153 14.7424 36.3305 14.44 36.5693 14.2557C38.2033 12.9956 39.1909 10.9386 38.947 8.66578Z" fill="#F8F5F9"/>
<path d="M31.3174 3.33528C31.317 3.43489 31.3796 3.52254 31.4727 3.55782C33.6063 4.36852 35.1829 6.33071 35.4323 8.67047C35.6742 10.9402 34.6879 12.9941 33.0567 14.2535C32.8173 14.4383 32.6996 14.7404 32.7514 15.0384C33.0334 16.6611 33.3154 19.782 33.5974 21.6314C34.8507 21.7522 36.0477 21.8971 37.182 22.0584C36.877 20.3025 36.572 16.7931 36.2669 15.038C36.2152 14.741 36.3307 14.4397 36.5695 14.2556C38.2023 12.9965 39.1898 10.9417 38.9481 8.67094C38.6476 5.8493 36.4162 3.5734 33.6021 3.20965C32.8064 3.10688 32.0374 3.15856 31.3174 3.33528Z" fill="#DAD9E4"/>
<path d="M42.6134 45.0657L33.595 42.0312L23.1525 46.9237C21.6585 47.6237 20.7041 49.1247 20.7041 50.7746V59.1209V59.9998H46.0963C46.7435 59.9998 47.2682 59.4752 47.2682 58.828V51.5431C47.2682 48.6085 45.3948 46.0016 42.6134 45.0657Z" fill="#DBD8EA"/>
<path d="M39.0971 46.8235C41.8785 47.7594 43.752 50.3664 43.752 53.3009V59.9998H46.0957C46.7429 59.9998 47.2676 59.4752 47.2676 58.828V51.5431C47.2676 48.6085 45.3942 46.0016 42.6128 45.0657L33.5944 42.0312L29.9297 43.7483L39.0971 46.8235Z" fill="#D0CDE4"/>
<path d="M40.999 31.6406V40.0781C40.999 41.0489 41.7861 41.8359 42.7568 41.8359H43.8115C44.7823 41.8359 45.5693 42.623 45.5693 43.5938V54.1406C45.5693 55.1114 46.3564 55.8984 47.3271 55.8984H48.7334C49.7042 55.8984 50.4912 55.1114 50.4912 54.1406V43.5938C50.4912 42.623 51.2782 41.8359 52.249 41.8359H53.3037C54.2745 41.8359 55.0615 41.0489 55.0615 40.0781V31.6406C55.0615 30.6698 54.2745 29.8828 53.3037 29.8828H42.7568C41.7861 29.8828 40.999 30.6698 40.999 31.6406Z" fill="#EBF4FF"/>
<path d="M49.5182 59.1215H44.6834C43.9339 59.1215 43.3262 58.5139 43.3262 57.7643V51.0702C43.3262 50.3206 43.9338 49.7129 44.6834 49.7129H49.5182C51.2947 49.7129 52.7347 51.1529 52.7347 52.9293V55.905C52.7347 57.6815 51.2947 59.1215 49.5182 59.1215Z" fill="#F1CCBD"/>
<path d="M49.5186 49.7129H46.0029C47.7794 49.7129 49.2194 51.153 49.2194 52.9293V55.905C49.2194 57.6813 47.7794 59.1214 46.0029 59.1214H49.5186C51.295 59.1214 52.735 57.6813 52.735 55.905V52.9293C52.735 51.153 51.295 49.7129 49.5186 49.7129Z" fill="#EAAD9C"/>
<path d="M13.7261 52.9688C13.2405 52.9688 12.8471 53.3621 12.8471 53.8477V59.1211C12.8471 59.6066 13.2405 60 13.7261 60C14.2116 60 14.605 59.6066 14.605 59.1211V53.8477C14.605 53.3621 14.2114 52.9688 13.7261 52.9688ZM25.2875 55.8984C24.8022 55.8984 24.4086 56.292 24.4086 56.7773C24.4086 57.2627 24.8022 57.6562 25.2875 57.6562C25.7729 57.6562 26.1664 57.2627 26.1664 56.7773C26.1664 56.292 25.7729 55.8984 25.2875 55.8984ZM30.561 55.8984C30.0756 55.8984 29.6821 56.292 29.6821 56.7773C29.6821 57.2627 30.0756 57.6562 30.561 57.6562C31.0464 57.6562 31.4399 57.2627 31.4399 56.7773C31.4399 56.292 31.0464 55.8984 30.561 55.8984ZM25.2875 50.625C24.8022 50.625 24.4086 51.0185 24.4086 51.5039C24.4086 51.9893 24.8022 52.3828 25.2875 52.3828C25.7729 52.3828 26.1664 51.9893 26.1664 51.5039C26.1664 51.0185 25.7729 50.625 25.2875 50.625ZM30.561 50.625C30.0756 50.625 29.6821 51.0185 29.6821 51.5039C29.6821 51.9893 30.0756 52.3828 30.561 52.3828C31.0464 52.3828 31.4399 51.9893 31.4399 51.5039C31.4399 51.0185 31.0464 50.625 30.561 50.625ZM53.3046 29.0039H42.7577C41.3039 29.0039 40.121 30.1868 40.121 31.6406V40.0781C40.121 41.532 41.3039 42.7148 42.7577 42.7148H43.8124C44.2971 42.7148 44.6913 43.1091 44.6913 43.5938V45.1124C44.135 44.7443 43.5311 44.4475 42.8938 44.2325L33.0032 40.9045C32.332 40.6782 32.0006 40.0436 32.0503 39.3666C35.4366 37.3818 37.779 33.8007 38.0366 29.6637C39.6816 29.6188 41.0063 28.2676 41.0063 26.612C41.0063 24.9646 39.6948 23.6186 38.0612 23.5609C38.0627 23.3888 38.0711 22.0703 38.0507 21.9296C37.923 21.0471 37.7488 19.7514 37.5979 18.4479C37.4487 17.1596 37.2943 15.828 37.1398 14.9261C39.0841 13.4087 40.0861 11.0367 39.8215 8.57203C39.7281 7.70063 39.4743 6.86379 39.067 6.08426C38.8423 5.65394 38.3111 5.48754 37.8811 5.71219C37.4509 5.93695 37.2843 6.46781 37.509 6.89812C37.8138 7.4816 38.0038 8.10773 38.0736 8.75953C38.2739 10.6254 37.511 12.4198 36.0332 13.5596C35.5355 13.9433 35.2934 14.5679 35.4013 15.1898C35.5497 16.043 35.7032 17.3685 35.8518 18.6502C35.9463 19.4666 36.043 20.3005 36.1404 21.0313C32.893 20.618 29.5992 20.4006 26.3326 20.3848C22.7967 20.3691 19.2327 20.5859 15.7198 21.0341L16.4543 15.3823C16.5578 14.7404 16.2822 14.0903 15.7482 13.7203C14.2328 12.6705 13.3778 10.9444 13.4611 9.10266C13.5823 6.42164 15.7775 4.20012 18.4586 4.0452C18.9904 4.01461 19.5206 4.06289 20.0341 4.18898C20.6597 4.34227 21.3089 4.13109 21.7275 3.63738C22.7405 2.44301 24.2177 1.75781 25.7805 1.75781C27.3432 1.75781 28.8205 2.44301 29.8336 3.6375C30.2521 4.13109 30.9007 4.3425 31.5271 4.1891C32.1544 4.03523 32.8015 3.9975 33.4509 4.07672C33.986 4.14211 34.5063 4.28918 34.9973 4.51383C35.439 4.71586 35.9603 4.5218 36.1622 4.08047C36.3643 3.63902 36.1702 3.11754 35.7288 2.91562C35.0733 2.61551 34.3787 2.41922 33.6641 2.33203C32.8173 2.22832 31.9713 2.27555 31.1497 2.47184C29.8028 0.900469 27.8481 0 25.7805 0C23.7129 0 21.7583 0.900352 20.4114 2.47184C19.7405 2.31152 19.0495 2.25 18.3572 2.29055C16.6177 2.39098 14.9794 3.13488 13.7438 4.38516C12.5078 5.63578 11.7838 7.28297 11.7052 9.02344C11.595 11.4591 12.7187 13.743 14.713 15.1417C14.7006 15.2115 13.826 21.957 13.8233 22.023C13.8218 22.0617 13.8203 23.5208 13.8216 23.5609C12.188 23.6186 10.8765 24.9647 10.8765 26.612C10.8765 28.2675 12.201 29.6186 13.8457 29.6637C13.9245 30.9398 14.201 32.184 14.6725 33.3715C14.8536 33.828 15.3718 34.0393 15.8135 33.8641C16.2648 33.6852 16.4852 33.1741 16.3062 32.7231C15.8239 31.5079 15.5794 30.2224 15.5794 28.9025V22.8284C19.1333 22.3581 22.7429 22.1259 26.3242 22.1427C29.6491 22.1588 33.0019 22.391 36.3034 22.8279V28.9025C36.3034 34.6161 31.655 39.2645 25.9413 39.2645C23.0534 39.2645 20.2745 38.0454 18.3169 35.9197C17.988 35.5628 17.432 35.5397 17.0749 35.8686C16.7179 36.1975 16.695 36.7534 17.0238 37.1106C17.9331 38.0979 18.9942 38.9173 20.1545 39.5473V39.5789C20.1545 40.1801 19.7715 40.7128 19.2015 40.9045L9.31078 44.2327C6.16863 45.2905 4.05762 48.2287 4.05762 51.5438V59.1211C4.05762 59.6066 4.45102 60 4.93652 60C5.42203 60 5.81543 59.6066 5.81543 59.1211V51.5438C5.81543 48.984 7.44551 46.7155 9.87152 45.8986L18.1641 43.1082L22.3532 46.354C20.8036 47.2686 19.8252 48.9548 19.8252 50.7748V59.1211C19.8252 59.6066 20.2186 60 20.7041 60C21.1896 60 21.583 59.6066 21.583 59.1211V50.7747C21.583 49.4716 22.3454 48.2723 23.5253 47.7197L33.6491 42.9765L42.3323 45.8984C43.2261 46.1999 44.0347 46.7107 44.6911 47.3815V48.8337H44.6838C43.4509 48.8337 42.4478 49.8369 42.4478 51.0698V57.7638C42.4478 58.9968 43.4509 60 44.6838 60H49.5188C51.777 60 53.614 58.1627 53.614 55.9046V52.929C53.614 51.3373 52.7005 49.9555 51.3707 49.2782V43.5938C51.3707 43.1091 51.7649 42.7148 52.2496 42.7148H53.3043C54.7581 42.7148 55.941 41.532 55.941 40.0781V31.6406C55.9413 30.1868 54.7584 29.0039 53.3046 29.0039ZM38.0612 25.3205C38.7251 25.3759 39.2484 25.9339 39.2484 26.612C39.2484 27.29 38.7251 27.8481 38.0612 27.9035V25.3205ZM13.8214 27.9034C13.1576 27.848 12.6342 27.2899 12.6342 26.6119C12.6342 25.9338 13.1576 25.3758 13.8214 25.3204V27.9034ZM24.1208 45.4996L20.1384 42.414C20.9961 41.9966 21.6142 41.2171 21.8289 40.299C23.1368 40.7716 24.5278 41.0223 25.9414 41.0223C27.4978 41.0223 28.9862 40.7266 30.3544 40.1898C30.4999 40.929 30.9041 41.5862 31.4864 42.0486L24.1208 45.4996ZM51.8565 52.929V55.9046C51.8565 57.1936 50.8079 58.2422 49.5191 58.2422H44.6842C44.4205 58.2422 44.2059 58.0276 44.2059 57.7638V51.0698C44.2059 50.8061 44.4205 50.5915 44.6842 50.5915H49.5191C50.8078 50.5915 51.8565 51.6401 51.8565 52.929ZM54.1835 40.0781C54.1835 40.5628 53.7893 40.957 53.3046 40.957H52.2499C50.7961 40.957 49.6132 42.1399 49.6132 43.5938V48.836C49.5284 48.8323 46.542 48.834 46.4491 48.8336V43.5938C46.4491 42.1399 45.2663 40.957 43.8124 40.957H42.7577C42.273 40.957 41.8788 40.5628 41.8788 40.0781V31.6406C41.8788 31.1559 42.273 30.7617 42.7577 30.7617H53.3046C53.7893 30.7617 54.1835 31.1559 54.1835 31.6406V40.0781ZM24.9016 11.7919V16.0057C24.9016 16.4912 25.295 16.8846 25.7805 16.8846C26.2661 16.8846 26.6595 16.4912 26.6595 16.0057V11.7919C26.6595 11.3064 26.2661 10.913 25.7805 10.913C25.295 10.913 24.9016 11.3064 24.9016 11.7919ZM30.2271 11.4544L28.4745 15.6682C28.288 16.1163 28.5002 16.6308 28.9485 16.8172C29.3865 16.9995 29.9093 16.7971 30.0975 16.3432L31.8502 12.1294C32.0366 11.6812 31.8244 11.1668 31.3761 10.9804C30.928 10.7939 30.4136 11.0061 30.2271 11.4544ZM31.9473 28.423V26.6091C31.9473 26.1236 31.5539 25.7302 31.0684 25.7302C30.5829 25.7302 30.1895 26.1236 30.1895 26.6091V28.423C30.1895 28.9085 30.5829 29.3019 31.0684 29.3019C31.5539 29.3019 31.9473 28.9085 31.9473 28.423ZM44.5155 32.5195C44.03 32.5195 43.6366 32.9129 43.6366 33.3984V38.3203C43.6366 38.8058 44.03 39.1992 44.5155 39.1992C45.0011 39.1992 45.3945 38.8058 45.3945 38.3203V33.3984C45.3945 32.9129 45.0011 32.5195 44.5155 32.5195ZM20.1848 10.9804C19.7366 11.1668 19.5244 11.6811 19.7108 12.1294L21.4635 16.3432C21.6517 16.797 22.1734 16.9998 22.6125 16.8172C23.0607 16.6308 23.273 16.1164 23.0865 15.6682L21.3339 11.4544C21.1474 11.0061 20.633 10.794 20.1848 10.9804ZM48.0312 32.5195C47.5457 32.5195 47.1523 32.9129 47.1523 33.3984V38.3203C47.1523 38.8058 47.5457 39.1992 48.0312 39.1992C48.5167 39.1992 48.9101 38.8058 48.9101 38.3203V33.3984C48.9101 32.9129 48.5167 32.5195 48.0312 32.5195ZM51.5468 32.5195C51.0613 32.5195 50.6679 32.9129 50.6679 33.3984V38.3203C50.6679 38.8058 51.0613 39.1992 51.5468 39.1992C52.0323 39.1992 52.4257 38.8058 52.4257 38.3203V33.3984C52.4257 32.9129 52.0323 32.5195 51.5468 32.5195ZM26.0711 34.435C26.9622 34.4031 27.6311 34.0542 28.0352 33.7672C28.4311 33.4862 28.5241 32.9375 28.243 32.5418C27.9622 32.1461 27.4134 32.0529 27.0176 32.334C26.8468 32.4552 26.4886 32.6612 26.008 32.6783C25.4618 32.6978 25.0582 32.4707 24.8644 32.3334C24.468 32.0527 23.9196 32.1466 23.6392 32.5426C23.3585 32.9387 23.4523 33.4874 23.8484 33.7678C24.1835 34.0051 25.1089 34.4694 26.0711 34.435ZM21.6932 28.423V26.6091C21.6932 26.1236 21.2998 25.7302 20.8143 25.7302C20.3288 25.7302 19.9354 26.1236 19.9354 26.6091V28.423C19.9354 28.9085 20.3288 29.3019 20.8143 29.3019C21.2998 29.3019 21.6932 28.9085 21.6932 28.423Z" fill="black"/>
</svg>
