<svg width="60" height="60" viewBox="0 0 60 60" fill="none" xmlns="http://www.w3.org/2000/svg">
<g clip-path="url(#clip0_2232_7759)">
<path d="M59.1137 42.8536L56.5366 40.7576L56.8138 31.9222L59.1137 29.8932V10.8982C59.1137 7.40775 56.2841 4.57812 52.7936 4.57812H36.3191C32.8286 4.57812 29.999 7.40775 29.999 10.8982V49.1013C29.999 52.5918 32.8286 55.4214 36.3191 55.4214H52.7936C56.2841 55.4214 59.1137 52.5918 59.1137 49.1013V42.8536Z" fill="#D4F2F6"/>
<path d="M34.9739 49.5588V9.80078C34.9739 7.67186 35.9466 5.78032 37.4538 4.57812H36.3191C32.8286 4.57812 29.999 7.40775 29.999 10.8982V49.1013C29.999 52.5918 32.8286 55.4214 36.3191 55.4214H38.4301C36.3794 54.3343 34.9739 52.1181 34.9739 49.5588Z" fill="#A6E7F0"/>
<path d="M17.7391 14.3115H15.0625V11.471C15.0625 10.8177 15.5921 10.2881 16.2454 10.2881H16.5562C17.2095 10.2881 17.7391 10.8177 17.7391 11.471V14.3115Z" fill="#CBC4CC"/>
<path d="M2.08008 26.3012C2.08008 19.138 7.88699 13.3311 15.0502 13.3311H17.7516C24.9149 13.3311 30.7218 19.138 30.7218 26.3012V29.498H2.08008V26.3012Z" fill="#F9F3F1"/>
<path d="M6.43809 27.0851C6.43809 19.8808 11.8803 13.9663 18.8078 13.3734C18.4344 13.341 18.0553 13.3281 17.6735 13.3281H14.9721C7.80886 13.3281 2.00195 19.135 2.00195 26.2983V29.4951H6.43809V27.0851Z" fill="#F3EAE6"/>
<path d="M29.4255 31.5631H3.37672C1.78251 31.5631 0.490234 30.2708 0.490234 28.6766V28.0365C0.490234 27.8178 0.667448 27.6406 0.886157 27.6406H31.916C32.1347 27.6406 32.312 27.8178 32.312 28.0365V28.6766C32.312 30.2708 31.0196 31.5631 29.4255 31.5631Z" fill="#CBC4CC"/>
<path d="M6.43901 29.1206V27.6406H0.845607C0.64936 27.6406 0.490234 27.8087 0.490234 28.016V28.8266C0.490234 30.338 1.65022 31.5631 3.08105 31.5631H7.86204C7.01806 31.1121 6.43901 30.1881 6.43901 29.1206Z" fill="#B5ADB6"/>
<path d="M51.0784 4.57812L50.7274 6.32863C50.379 8.06624 48.8902 9.31312 47.1637 9.31312H41.9488C40.2223 9.31312 38.7336 8.06624 38.3852 6.32863L38.0342 4.57812H51.0784Z" fill="#CBC4CC"/>
<path d="M19.7885 35.14C19.571 35.043 19.3747 34.9059 19.2081 34.7404C18.8558 34.3869 18.637 33.8987 18.637 33.3608C18.637 32.2838 19.5107 31.4101 20.5877 31.4101H26.8688L28.8892 30.8639C29.9012 30.5908 30.9356 30.4561 31.9665 30.4561C33.9148 30.4561 35.8489 30.9384 37.5891 31.883L47.7845 31.8558V40.3642H36.6528L28.8797 41.8987C26.7896 42.3113 24.6238 42.0961 22.6554 41.2816L7.79025 35.1329C7.07856 34.8385 6.64941 34.1505 6.64941 33.4258C6.64941 33.1893 6.69552 32.9493 6.79128 32.7176C7.16013 31.8298 8.14964 31.3723 9.06586 31.669L19.7885 35.14Z" fill="#F1B0A2"/>
<path d="M29.1551 40.0785C27.0954 40.4795 24.9612 40.2703 23.0214 39.4787L8.37296 33.5029C7.7419 33.2454 7.33734 32.6779 7.26251 32.0537C7.06366 32.2323 6.89992 32.4554 6.79128 32.7172C6.69552 32.9489 6.64941 33.1889 6.64941 33.4253C6.64941 34.15 7.07856 34.8381 7.79025 35.1324L22.6554 41.2811C24.6238 42.0957 26.7896 42.3108 28.8797 41.8982L36.6528 40.3637H47.7845V38.5871H36.815L29.1551 40.0785Z" fill="#EB9C8D"/>
<path d="M31.849 33.7705H18.6806C18.7607 34.1444 18.9473 34.4795 19.2076 34.7405C19.3743 34.906 19.5706 35.0432 19.7881 35.1401L16.9648 34.2262C17.1223 34.8892 17.4603 35.4994 17.9578 35.9986C18.2818 36.3205 18.6549 36.5768 19.0579 36.7562C19.5408 36.9743 20.0554 37.0848 20.5873 37.0848H28.5347C30.3651 37.0848 31.849 35.6009 31.849 33.7705Z" fill="#EB9C8D"/>
<path d="M35.4206 30.9739V35.3114H20.5874C20.3025 35.3114 20.0317 35.2499 19.7882 35.14C19.5707 35.043 19.3744 34.9059 19.2077 34.7404C18.8554 34.3869 18.6367 33.8987 18.6367 33.3608C18.6367 32.2838 19.5104 31.4101 20.5874 31.4101H26.8685L28.8889 30.8639C29.9008 30.5908 30.9353 30.4561 31.9662 30.4561C33.1354 30.4561 34.2998 30.6298 35.4206 30.9739Z" fill="#F1B0A2"/>
<path d="M44.3212 42.854H59.1133V29.8936H44.3212C43.0906 29.8936 42.0928 30.8912 42.0928 32.122V40.6256C42.0928 41.8564 43.0904 42.854 44.3212 42.854Z" fill="#FEF0AE"/>
<path d="M42.8233 38.8966C42.5671 38.8966 42.3219 38.8512 42.0928 38.7715V40.6247C42.0928 41.8555 43.0904 42.8532 44.3212 42.8532H59.1133V38.8966H42.8233Z" fill="#FEE97D"/>
<path d="M52.7932 3.69141H36.3187C32.345 3.69141 29.112 6.9244 29.112 10.8982V15.3922C29.112 15.882 29.509 16.2789 29.9986 16.2789C30.4884 16.2789 30.8853 15.882 30.8853 15.3922V10.8982C30.8853 7.90209 33.3227 5.46473 36.3187 5.46473H37.2852L37.5166 6.58759C37.9476 8.68058 39.8116 10.1997 41.9486 10.1997H47.1633C49.3001 10.1997 51.1643 8.68058 51.5954 6.58771L51.8268 5.46473H52.7932C55.7893 5.46473 58.2267 7.90209 58.2267 10.8982V29.0064H50.6031C50.1133 29.0064 49.7164 29.4032 49.7164 29.893C49.7164 30.3828 50.1133 30.7797 50.6031 30.7797H58.2267V41.9668H44.3213C43.5814 41.9668 42.9795 41.3649 42.9795 40.625V32.1214C42.9795 31.3815 43.5814 30.7796 44.3213 30.7796H46.8245C47.3143 30.7796 47.7111 30.3827 47.7111 29.8929C47.7111 29.4031 47.3143 29.0062 46.8245 29.0062H44.3213C43 29.0062 41.8691 29.8334 41.417 30.9967H37.8098C36.2184 30.1691 34.496 29.6957 32.7446 29.5886C32.7814 29.39 32.802 29.1871 32.802 28.9808V27.7112C32.802 26.9608 32.1914 26.3502 31.4409 26.3502H31.4103V26.2518C31.4103 22.9374 30.2231 19.7278 28.0675 17.2144C27.7487 16.8426 27.1888 16.7998 26.8172 17.1185C26.4455 17.4373 26.4026 17.9971 26.7214 18.3688C28.6015 20.561 29.637 23.3606 29.637 26.2518V26.3502H11.5637C11.074 26.3502 10.677 26.747 10.677 27.2368C10.677 27.7266 11.074 28.1235 11.5637 28.1235H31.0287V28.9808C31.0287 29.2018 30.9816 29.4154 30.8919 29.6126C30.1435 29.6771 29.3961 29.808 28.6578 30.0076L26.7512 30.5228H3.3154C2.46515 30.5228 1.77332 29.8309 1.77332 28.9807V28.1234H7.7851C8.27478 28.1234 8.67176 27.7265 8.67176 27.2367C8.67176 26.7469 8.27478 26.35 7.7851 26.35H3.1649V26.2517C3.1649 19.5709 8.60024 14.1357 15.281 14.1357H17.521C19.8309 14.1357 22.077 14.7881 24.0164 16.0225C24.4297 16.2856 24.9777 16.1636 25.2405 15.7506C25.5034 15.3374 25.3816 14.7893 24.9686 14.5265C23.2956 13.4618 21.4242 12.7748 19.4728 12.4995V11.4981C19.4728 9.80427 18.0948 8.42629 16.401 8.42629C14.7071 8.42629 13.3291 9.80427 13.3291 11.4981V12.5002C6.59143 13.4522 1.39158 19.2557 1.39158 26.2519V26.3503H1.36096C0.610613 26.3503 0 26.9609 0 27.7114V28.9809C0 30.8091 1.48734 32.2963 3.3154 32.2963H6.01037C5.99784 32.3239 5.9833 32.35 5.97159 32.3781C5.69141 33.0531 5.69105 33.7966 5.97065 34.4716C6.25024 35.1468 6.77597 35.6724 7.45125 35.9519L22.3157 42.1013C23.7431 42.6918 25.2562 42.9906 26.7797 42.9906C27.5374 42.9906 28.2978 42.9167 29.0515 42.7679L36.7391 41.2502H41.2693C41.5595 42.6693 42.8177 43.7402 44.3213 43.7402H58.2267V49.1014C58.2267 52.0975 55.7893 54.5348 52.7932 54.5348H36.3187C33.3227 54.5348 30.8853 52.0975 30.8853 49.1014V45.2923C30.8853 44.8025 30.4884 44.4056 29.9986 44.4056C29.509 44.4056 29.112 44.8025 29.112 45.2923V49.1014C29.112 53.0751 32.345 56.3081 36.3187 56.3081H52.7934C56.7671 56.3081 60.0001 53.0751 60.0001 49.1014V10.8982C60 6.9244 56.7671 3.69141 52.7932 3.69141ZM49.8586 6.22985C49.5963 7.50262 48.4628 8.4264 47.1633 8.4264H41.9486C40.6491 8.4264 39.5156 7.50274 39.2533 6.22985L39.0958 5.46473H50.0163L49.8586 6.22985ZM15.1025 11.4983C15.1025 10.7822 15.6851 10.1997 16.4011 10.1997C17.117 10.1997 17.6996 10.7823 17.6996 11.4983V12.3657C17.64 12.3649 17.5807 12.3625 17.5211 12.3625H15.2812C15.2215 12.3625 15.1621 12.364 15.1025 12.3647V11.4983ZM17.9576 32.2963C17.824 32.6252 17.7497 32.9844 17.7497 33.3607C17.7497 33.4246 17.7526 33.4879 17.7568 33.5508L13.8817 32.2963H17.9576ZM36.6525 39.4769C36.5949 39.4769 36.5372 39.4825 36.4808 39.4936L28.708 41.028C26.7828 41.4081 24.8068 41.2127 22.9936 40.4625L8.12925 34.3132C7.8921 34.2151 7.70743 34.0304 7.60919 33.7934C7.51095 33.5563 7.51107 33.2951 7.60943 33.058C7.79988 32.5992 8.31923 32.3597 8.79176 32.5128L19.4745 35.9709C19.8164 36.1172 20.1924 36.1985 20.5873 36.1985H26.7504C27.2401 36.1985 27.6371 35.8016 27.6371 35.3118C27.6371 34.822 27.2401 34.4251 26.7504 34.4251H20.5873C20.0004 34.4251 19.5229 33.9476 19.5229 33.3608C19.5229 32.7739 20.0004 32.2965 20.5873 32.2965H26.8689C26.905 32.2965 26.9406 32.2936 26.9757 32.2894C26.9849 32.2883 26.994 32.2866 27.0033 32.2851C27.0312 32.2808 27.0585 32.2754 27.0854 32.2686C27.0903 32.2674 27.0952 32.2669 27.1002 32.2656L29.1205 31.7197C31.8362 30.9859 34.6937 31.3204 37.166 32.6628C37.296 32.7333 37.4413 32.7702 37.589 32.7702H41.2062V39.4769H36.6525Z" fill="black"/>
</g>
<defs>
<clipPath id="clip0_2232_7759">
<rect width="60" height="60" fill="white"/>
</clipPath>
</defs>
</svg>
