<svg width="64" height="60" viewBox="0 0 64 60" fill="none" xmlns="http://www.w3.org/2000/svg">
<g clip-path="url(#clip0_1202_2040)">
<path d="M25.9198 0.32054C25.7195 0.505748 25.6068 0.765038 25.6068 0.999634C25.6068 1.29597 25.4316 1.5676 24.8056 2.222C23.804 3.27151 23.5912 3.69131 23.5036 4.66674C23.4159 5.77798 23.6913 6.40768 24.768 7.51893C25.5943 8.37088 25.6319 8.44496 25.5568 8.87711C25.5067 9.21049 25.3064 9.49447 24.7806 10.0007C23.9417 10.7909 23.4785 11.6799 23.4785 12.5072C23.4785 13.0011 23.5286 13.1245 23.8791 13.4085C24.5677 13.9765 25.419 13.6184 25.5693 12.6924C25.6319 12.2973 25.8322 11.9886 26.4832 11.3095C28.1734 9.50682 28.1358 7.8523 26.3705 6.11135C25.707 5.44461 25.6068 5.28409 25.6068 4.88898C25.6068 4.48153 25.707 4.33336 26.3455 3.72835C26.7461 3.34559 27.1593 2.86405 27.2719 2.65415C27.5724 2.08618 27.7727 1.17249 27.6851 0.814426C27.4848 0.024209 26.4957 -0.259775 25.9198 0.32054Z" fill="#77524A"/>
<path d="M32.5177 0.0983286C32.3048 0.184759 31.9918 0.802116 31.9918 1.12314C31.9918 1.28366 31.6788 1.70346 31.2532 2.14795C29.9887 3.45675 29.6382 4.50626 30.0388 5.8521C30.2015 6.40772 30.4269 6.74109 31.1155 7.46957C32.2798 8.70429 32.2798 8.87715 31.1655 10.0131C29.9261 11.2848 29.5255 12.5813 30.164 13.2974C30.7774 14.0136 31.9918 13.5444 31.9918 12.5936C31.9918 12.3097 32.1796 12.0257 32.8432 11.3342C33.8698 10.2724 34.1953 9.50685 34.0826 8.46969C33.995 7.59305 33.6069 6.91395 32.7305 6.04965C31.7164 5.06188 31.7414 4.59269 32.8807 3.61726C33.4817 3.09869 33.995 2.12326 34.0826 1.3207C34.1452 0.715686 34.1202 0.616909 33.8322 0.332925C33.5192 0.0242462 32.9558 -0.0745306 32.5177 0.0983286Z" fill="#77524A"/>
<path d="M38.7024 0.394546C38.5146 0.616795 38.3769 0.925473 38.3769 1.13538C38.3769 1.40701 38.2016 1.6663 37.6257 2.23427C36.6617 3.16031 36.3237 3.87644 36.3237 4.95064C36.3237 5.95076 36.7118 6.72863 37.7008 7.66701C38.6648 8.59305 38.6398 8.86469 37.5255 10.05C36.6617 10.976 36.2485 11.8033 36.2485 12.6182C36.2485 13.0627 36.7118 13.569 37.2 13.6677C37.6883 13.7542 38.3769 13.2356 38.3769 12.7787C38.3769 12.3095 38.6898 11.8157 39.2407 11.3835C39.9293 10.8402 40.5052 9.6796 40.5052 8.83999C40.5052 7.85222 40.1797 7.0867 39.4535 6.38291C38.1139 5.07411 38.0889 4.87656 39.1781 3.72828C40.1546 2.70346 40.3925 2.27131 40.4676 1.35762C40.5302 0.715572 40.5052 0.616795 40.2172 0.332809C39.7415 -0.136381 39.128 -0.111688 38.7024 0.394546Z" fill="#77524A"/>
<path d="M12.524 16.1121C11.7853 16.4579 11.1844 17.0505 10.8714 17.7296C10.6836 18.1371 10.646 18.6804 10.6085 20.9399C10.5584 24.039 10.7086 26.1257 11.1468 27.8666C11.4723 29.2248 11.6977 29.5211 12.4238 29.5211C12.7118 29.5211 12.9496 29.4224 13.1625 29.2001C13.5255 28.8544 13.5255 28.6445 13.1625 27.1134C13.0498 26.6319 12.9246 25.7923 12.8745 25.2243L12.7994 24.2119H15.6288C18.3956 24.2119 18.4582 24.1995 18.7837 23.9279C19.2595 23.5328 19.2595 22.792 18.7837 22.3968C18.4582 22.1129 18.3956 22.1129 15.5787 22.1129H12.6992L12.7368 20.3102C12.7744 18.5075 12.7744 18.5075 13.1249 18.2112L13.4754 17.9148H31.9919H50.5083L50.8589 18.2112C51.2094 18.5075 51.2094 18.5075 51.247 20.3102L51.2845 22.1129H37.6883H24.092L23.7916 22.4215C23.3659 22.829 23.3659 23.4957 23.7916 23.9032L24.092 24.2119H37.6257H51.1468V24.8416C51.1468 25.5701 50.7337 27.6444 50.3831 28.7186C49.9825 29.9163 48.8307 32.0893 47.9919 33.2253C45.3127 36.8677 43.272 41.646 42.2579 46.7207L42.1202 47.4245H40.4927C38.9277 47.4245 38.8526 47.4368 38.5646 47.7332C38.1014 48.1777 38.139 48.795 38.6398 49.2025L39.0279 49.5235H46.4019H53.7884L54.0889 49.8322C54.5021 50.2273 54.5146 50.8817 54.1265 51.2892C53.6507 51.7954 50.0451 54.5858 49.7071 54.7093C49.5067 54.7834 46.7024 54.8328 42.4958 54.8328C35.8229 54.8328 35.61 54.8451 35.3722 55.0797C34.7712 55.6724 35.0216 56.5737 35.8479 56.8083C36.1609 56.9071 38.452 56.9318 43.1969 56.9071C49.8823 56.8701 50.0952 56.8577 50.646 56.6108C51.1593 56.3762 54.5146 53.8327 55.5161 52.9313C56.5177 52.03 56.8182 50.4372 56.2298 49.2148C55.8792 48.474 55.4035 48.0172 54.6523 47.6838C54.1139 47.4368 53.851 47.4245 49.2438 47.4245C45.3878 47.4245 44.3862 47.3875 44.3862 47.264C44.3862 46.9677 45.2751 45.2761 45.826 44.5106C47.0028 42.8808 48.8808 41.6707 50.7712 41.3127C51.2845 41.2262 52.5114 41.0904 53.488 41.0163C56.067 40.8311 57.6319 40.2879 59.4222 38.942C61.4128 37.4604 62.9653 34.9415 63.754 31.9535C64.2798 29.9409 63.9794 28.5951 62.7775 27.4839C61.5881 26.3973 61.5255 26.3726 57.0686 26.3356L53.1625 26.2985L53.2501 25.7182C53.3002 25.3972 53.3377 23.6069 53.3377 21.7424C53.3377 19.1866 53.3002 18.2235 53.1625 17.8654C52.9246 17.1987 52.1985 16.4455 51.4598 16.1121L50.8338 15.8158H31.9919H13.1499L12.524 16.1121ZM60.6992 28.5828C61.2376 28.805 61.7634 29.4224 61.8636 29.9656C61.9136 30.262 61.8636 30.7682 61.6883 31.4226C60.9121 34.5341 59.1969 36.8924 56.8808 38.0407C55.6539 38.6457 54.5646 38.8679 52.2736 39.0161C50.7587 39.1025 50.2454 39.189 49.2814 39.51C48.1171 39.8927 47.3158 40.2879 46.5271 40.8558L46.1139 41.1645L46.2016 40.8682C46.6648 39.4112 48.1421 36.6701 49.4191 34.8922C50.9215 32.7931 51.8354 31.0892 52.4113 29.2989L52.6992 28.4099H56.4927C59.4222 28.4099 60.3862 28.4469 60.6992 28.5828Z" fill="#77524A"/>
<path d="M9.09363 31.8056C7.39097 32.1884 5.53807 33.2749 4.12336 34.7195C2.14527 36.7568 0.880794 39.3003 0.229777 42.5476C-0.108251 44.2268 -0.0706923 47.684 0.292375 49.3632C1.74464 56.006 6.22665 60.2534 11.5224 59.9941C13.5506 59.883 13.8886 59.5743 13.7008 57.9815C13.513 56.4382 13.0248 55.4133 11.6101 53.5613C10.7212 52.413 10.3957 51.3635 10.4958 49.9065C10.5709 48.5483 10.8839 47.7705 11.8604 46.4987C13.2376 44.696 13.7384 43.3625 13.7384 41.4364C13.7384 39.5596 13.2251 38.1273 11.9606 36.5099C11.2971 35.6579 10.5835 34.3244 10.5835 33.9293C10.5835 33.7565 10.6961 33.7194 11.247 33.7194C13.6132 33.7194 16.4176 35.5344 17.8448 37.9915C18.3456 38.8311 18.6461 39.0781 19.1844 39.0781C19.5224 39.0781 19.7102 38.9916 19.9356 38.72C20.3738 38.2261 20.2611 37.7569 19.4348 36.5222C17.9074 34.275 15.7791 32.6329 13.463 31.9291C12.4989 31.6451 10.1328 31.571 9.09363 31.8056ZM8.59284 34.7319C8.80568 35.5591 9.40662 36.6704 10.1453 37.6211C10.5209 38.1026 10.9841 38.8188 11.1719 39.2262C11.4974 39.893 11.5224 40.0782 11.5224 41.4364C11.5224 42.7946 11.4974 42.9798 11.1844 43.6342C10.9966 44.0293 10.5083 44.7948 10.0952 45.3257C8.83072 46.9802 8.32993 48.3508 8.32993 50.2028C8.32993 52.0426 8.83072 53.4131 10.0827 55.0553C10.8714 56.0924 11.2345 56.7468 11.4348 57.4506L11.56 57.9198H10.9215C7.81663 57.9075 4.79942 55.4504 3.18439 51.6351C2.97156 51.1412 2.65857 50.1041 2.47078 49.3509C2.03259 47.4988 2.00756 44.4367 2.40818 42.6094C3.24699 38.8682 5.27516 35.8431 7.89175 34.4849C8.16718 34.3368 8.40505 34.2256 8.41757 34.2133C8.43009 34.2133 8.50521 34.4479 8.59284 34.7319Z" fill="#77524A"/>
<path d="M26.0201 38.3373C21.6257 39.1646 17.4817 42.3131 15.4661 46.3506C14.0514 49.2152 13.6382 52.4007 14.4144 54.6726C15.4536 57.7223 18.2579 59.8214 21.5381 59.9819C27.0842 60.2535 32.718 56.6111 35.1593 51.1537C35.8604 49.6103 36.1609 48.1533 36.1734 46.2518C36.186 44.6591 36.1609 44.4492 35.8354 43.5355C35.3722 42.239 34.7838 41.3006 33.8573 40.3993C33.0185 39.5844 31.6163 38.7942 30.427 38.4855C29.3753 38.2015 27.1343 38.1274 26.0201 38.3373ZM29.6507 40.4487C30.0514 40.5475 30.6523 40.7697 30.9903 40.9426C31.6163 41.2512 32.4927 41.9427 32.4927 42.1155C32.4927 42.2884 31.416 42.6094 30.2642 42.7946C28.3487 43.1033 27.1969 43.6466 26.0576 44.7702C24.9434 45.8567 24.3174 47.1655 24.1046 48.8447C23.9168 50.277 23.5537 51.0796 22.6773 51.9439C21.7885 52.8205 21.0623 53.1415 19.4598 53.3514C18.8839 53.4255 18.0701 53.6354 17.657 53.7959C17.2439 53.9688 16.8307 54.117 16.7306 54.1293C16.4426 54.1664 16.2423 53.2897 16.2298 51.9809C16.1797 46.0543 21.9137 40.3746 28.0482 40.2758C28.5365 40.2758 29.2626 40.3499 29.6507 40.4487ZM33.8698 44.4245C34.4583 46.4247 33.8949 49.3263 32.4176 51.7957C31.8041 52.8329 30.1891 54.5862 29.0498 55.4505C26.4708 57.4137 23.2282 58.3027 20.6993 57.747C19.7353 57.5371 18.5584 56.9445 17.9825 56.3765L17.6695 56.0802L18.2329 55.8332C18.5334 55.6974 19.3221 55.4999 19.9731 55.4011C21.9011 55.0924 22.8777 54.6602 24.0295 53.6107C25.2689 52.4748 25.97 51.0425 26.2329 49.1164C26.3831 47.9434 26.7963 47.0421 27.5099 46.3259C28.2861 45.5604 29.1374 45.1159 30.164 44.9554C31.5913 44.7208 32.6554 44.4615 33.1187 44.2146C33.7071 43.8935 33.7071 43.9059 33.8698 44.4245Z" fill="#77524A"/>
</g>
<defs>
<clipPath id="clip0_1202_2040">
<rect width="64" height="60" fill="white"/>
</clipPath>
</defs>
</svg>
