<svg width="66" height="60" viewBox="0 0 66 60" fill="none" xmlns="http://www.w3.org/2000/svg">
<g clip-path="url(#clip0_1202_2057)">
<path d="M18.1204 0.347407C17.6767 0.778464 17.6906 0.95923 18.2174 2.37755C18.8275 4.00444 18.8414 5.534 18.2729 7.23041C17.5658 9.33008 17.6074 11.3602 18.4254 13.4877C18.9939 14.9616 19.7565 15.4066 20.4774 14.6696C20.9211 14.2247 20.9073 13.9187 20.3804 12.5839C19.7703 11.0404 19.7426 9.49694 20.3249 7.78662C21.032 5.68695 20.9905 3.65681 20.1724 1.52934C19.6039 0.0554008 18.8414 -0.389561 18.1204 0.347407Z" fill="#77524A"/>
<path d="M28.5053 0.319718C28.0339 0.73687 28.0339 1.16793 28.533 2.36376C28.8242 3.05901 28.9213 3.5735 28.9767 4.54686C29.0322 5.70098 28.9906 5.96517 28.5746 7.32787C28.1725 8.62104 28.1032 9.02429 28.1171 10.2201C28.1171 11.416 28.1864 11.8053 28.5885 12.9733C28.8381 13.7242 29.1431 14.4612 29.2679 14.6141C29.6284 15.0452 30.2662 15.0869 30.7237 14.7254C31.0565 14.4612 31.0981 14.3499 31.0426 13.8493C31.0149 13.5295 30.8208 12.8343 30.6267 12.3059C30.0859 10.8876 30.1137 9.51096 30.696 7.7033C31.0565 6.52137 31.1258 6.11813 31.1258 4.86667C31.1397 3.5596 31.0842 3.25368 30.6683 2.01614C30.4048 1.25136 30.0582 0.486579 29.878 0.305814C29.4897 -0.0835285 28.9767 -0.0835285 28.5053 0.319718Z" fill="#77524A"/>
<path d="M38.7793 0.347105C38.3356 0.792068 38.3494 1.09798 38.8763 2.43287C39.2507 3.37841 39.32 3.72604 39.32 4.79673C39.3339 5.83961 39.2645 6.24285 38.9179 7.23011C38.5436 8.2869 38.502 8.5789 38.502 10.0806C38.502 11.791 38.7238 12.8199 39.3755 14.1826C39.8469 15.1421 40.8729 15.2672 41.3443 14.4329C41.5384 14.0853 41.5107 13.9602 41.0809 12.7087C40.4015 10.7759 40.3599 9.77474 40.9284 7.99489C41.6771 5.61712 41.6493 3.65651 40.8313 1.52904C40.2628 0.0550995 39.5003 -0.389863 38.7793 0.347105Z" fill="#77524A"/>
<path d="M3.9086 21.1354C3.64516 21.3996 3.6313 21.5942 3.6313 26.169C3.6313 28.797 3.70062 31.4946 3.76995 32.1899C4.31069 36.8481 6.00223 41.2699 8.71979 45.0938C10.3836 47.4298 13.323 50.1969 15.9019 51.8516L17.0111 52.5608H8.80298H0.594842L0.31754 52.9223C-0.347984 53.7705 -0.126143 54.0486 2.64688 55.9536C6.02996 58.2758 7.92948 59.1379 10.9105 59.7497C12.0751 59.9861 13.2953 60 29.4204 60C45.5455 60 46.7656 59.9861 47.9303 59.7497C49.5802 59.416 51.3411 58.8181 52.7137 58.1228C54.0032 57.4693 58.0241 54.7995 58.5093 54.285C58.9114 53.8262 58.8976 53.3256 58.4677 52.9084L58.135 52.5608H50.1903H42.2456L43.3548 51.8516C45.1572 50.6975 46.5854 49.5017 48.2214 47.8053L49.7466 46.2062L50.6201 46.1088C54.2528 45.6917 58.5648 43.2027 61.4765 39.8377C65.6083 35.0821 67.1057 29.5618 65.1507 26.2941C64.5684 25.3347 63.376 24.2223 62.3638 23.7356C61.4626 23.2906 60.0345 22.943 59.0778 22.943C58.44 22.943 56.2909 23.2767 55.8472 23.4436C55.6531 23.5131 55.6254 23.388 55.6254 22.4702C55.6254 21.5942 55.5699 21.3578 55.3481 21.1354C55.0708 20.8573 54.8905 20.8573 29.6283 20.8573C4.36615 20.8573 4.1859 20.8573 3.9086 21.1354ZM53.5456 26.5166C53.5456 28.4911 53.4763 30.7159 53.407 31.4529C52.686 38.9338 48.7899 45.5805 42.7447 49.6546C41.1225 50.7531 40.0549 51.3232 38.197 52.0602L36.9214 52.5747L29.462 52.533L22.0025 52.4913L20.4774 51.8377C13.2259 48.6952 8.09586 42.4379 6.34886 34.6094C5.84971 32.3289 5.71106 30.6186 5.71106 26.5444V22.943H29.6283H53.5456V26.5166ZM59.9097 25.1678C61.0744 25.3625 61.934 25.8214 62.7382 26.6835C63.7642 27.7681 64.0692 28.9361 63.8058 30.6742C63.0155 35.9164 58.0102 41.6036 52.5196 43.4669C51.9927 43.6476 51.5491 43.7867 51.5213 43.7589C51.5075 43.745 51.7848 43.2027 52.1453 42.5491C54.5716 38.1273 55.4729 34.5955 55.5838 29.0751L55.6531 25.8353L56.1661 25.6267C56.6098 25.432 58.2598 25.0705 58.8144 25.0427C58.9253 25.0427 59.4244 25.0983 59.9097 25.1678ZM53.6843 55.0776C52.1453 56.2039 50.1071 57.066 47.7916 57.6083C46.5715 57.8864 46.1555 57.9003 30.5989 57.9421C13.628 57.9977 12.4495 57.9699 10.0647 57.358C8.58113 56.9687 6.34886 55.9536 5.22578 55.1471L4.53253 54.6466H29.4065H54.2805L53.6843 55.0776Z" fill="#77524A"/>
</g>
<defs>
<clipPath id="clip0_1202_2057">
<rect width="66" height="60" fill="white"/>
</clipPath>
</defs>
</svg>
