<svg width="44" height="60" viewBox="0 0 44 60" fill="none" xmlns="http://www.w3.org/2000/svg">
<g clip-path="url(#clip0_1202_2066)">
<path d="M15.7234 0.169395C12.2784 0.866692 8.47527 3.43175 6.3144 6.51978C5.57354 7.56573 4.73388 9.20936 4.38815 10.3176C3.01754 14.5636 3.67197 19.5817 6.28971 24.8487C6.8824 26.0441 7.11701 26.6418 7.00588 26.6791C6.93179 26.704 6.20327 26.9655 5.40067 27.2519C3.56084 27.9119 2.63476 28.3726 2.09145 28.9329C0.930759 30.1034 0.00467297 33.5276 0.00467297 36.7152C-0.00767484 38.72 0.387455 40.6874 1.83215 45.8673C2.19024 47.1623 3.07928 50.574 3.79545 53.4255C4.51162 56.2894 5.19075 58.842 5.28954 59.091C5.63527 59.9128 5.7711 60 6.83301 60C8.0184 60 9.51249 59.6264 11.7721 58.7548C14.4269 57.7338 14.6492 57.6591 17.6373 56.8746C21.2676 55.9158 22.774 55.4053 24.2434 54.6458C24.8855 54.3096 25.9968 53.8239 26.713 53.5749C29.5283 52.6161 31.1088 51.5826 31.4298 50.4993C31.7015 49.5779 31.1705 48.0339 29.7135 45.5311C29.3801 44.9583 28.5528 43.352 27.8613 41.945C26.5772 39.2679 25.9598 38.0974 23.589 33.8264C21.8603 30.7011 21.5639 30.2528 20.2551 28.7586C19.1438 27.4885 18.8598 27.3017 16.81 26.5297C16.1186 26.2558 15.0813 25.8075 14.5257 25.5211C13.2168 24.8487 12.4266 24.6744 11.5252 24.8736C10.9819 24.9857 9.59892 25.5087 8.6111 25.9569C8.42588 26.0441 6.98119 23.118 6.38849 21.4619C5.59823 19.233 5.33893 17.8509 5.26484 15.485C5.19075 13.0694 5.38832 11.8118 6.09214 9.96891C7.46275 6.38281 11.1547 3.10801 15.1678 1.90018C16.6742 1.45192 19.1438 1.33986 20.6749 1.6636C23.5766 2.24883 26.1326 3.90491 27.0217 5.76022C27.3057 6.35791 27.3921 6.70656 27.4292 7.59063C27.5032 8.98523 27.2192 9.94401 26.2808 11.5627C24.9102 13.9286 24.5645 15.0119 24.6386 16.6679C24.7373 18.5233 25.4782 19.9054 27.5156 21.9724C28.1947 22.6697 29.2937 23.6409 29.9605 24.139C30.9483 24.8861 31.1582 25.0978 31.1088 25.3095C30.973 25.9196 30.8865 26.5546 30.7384 28.3726L30.5655 30.3026L31.1458 31.2365C31.4545 31.747 32.1831 32.8179 32.7511 33.6023C33.3191 34.3868 34.1217 35.5323 34.5291 36.1549C35.4552 37.5744 36.4184 38.583 36.8135 38.583C37.2086 38.583 37.6902 38.2842 39.6782 36.7775C40.5919 36.0927 41.7279 35.2459 42.1971 34.9097C43.2097 34.2 43.9999 33.4031 43.9999 33.1167C43.9999 33.0046 43.6418 32.2949 43.1973 31.5602C41.6538 28.9703 39.0731 25.5211 38.3693 25.1102C37.7766 24.7616 34.4551 24.0145 33.1091 23.9273L31.8991 23.8526L30.6396 22.8316C27.5032 20.3288 26.1203 18.0501 26.2438 15.622C26.3055 14.4515 26.6266 13.6671 27.9231 11.5627C28.8615 10.0436 29.0838 9.39613 29.0838 8.17586C29.0714 4.27847 25.6881 1.04102 20.6873 0.169395C19.4154 -0.0547371 16.8224 -0.0547371 15.7234 0.169395ZM35.7022 25.8698C36.6036 26.0068 37.4679 26.1935 37.6284 26.2931C37.8631 26.455 39.8511 29.2318 41.0735 31.112C41.2711 31.4233 41.6168 31.9462 41.8391 32.2824L42.2465 32.8926L41.5551 33.3533C41.1599 33.6148 40.4684 34.1626 39.9869 34.586C39.5177 35.0218 38.7274 35.6444 38.2335 35.9806C37.7519 36.3168 37.3198 36.6405 37.2704 36.7152C37.1345 36.9394 36.9987 36.8522 36.6283 36.2421C36.4307 35.9183 35.7886 35.0965 35.2083 34.3992C34.2081 33.1914 32.8375 31.3112 32.2818 30.3524C32.0225 29.9166 32.0225 29.8294 32.146 28.2107C32.3312 25.7204 32.5165 25.3468 33.4796 25.5336C33.8006 25.5958 34.8008 25.7453 35.7022 25.8698ZM13.3774 26.5795C13.7478 26.7539 14.6368 27.1274 15.353 27.4013C17.1311 28.0862 18.3041 28.7212 18.5634 29.1446C18.6869 29.3438 18.8968 30.1158 19.045 30.8505C19.1808 31.5976 19.5142 32.9299 19.7859 33.8015C20.6379 36.5783 21.4775 39.9153 22.7493 45.4688C24.5398 53.3134 24.441 52.7904 24.1817 52.9772C24.0582 53.0644 22.2307 53.7119 20.1193 54.4092C13.9454 56.4388 13.5255 56.5758 11.6487 57.298C9.59892 58.0949 8.17892 58.4809 7.20345 58.5307L6.52432 58.5681L6.3144 57.6964C3.69667 47.1872 1.90624 39.492 1.74571 38.1721C1.5605 36.6405 1.73337 34.8599 2.27667 32.7556C2.79528 30.7135 3.10397 30.0909 3.75841 29.7049C4.53632 29.2442 6.09214 28.5843 8.5617 27.6753C9.7471 27.227 11.056 26.7414 11.4634 26.5795C12.4142 26.1935 12.5624 26.1935 13.3774 26.5795ZM22.5394 34.9097C24.8855 39.0562 25.8857 40.9613 27.3304 44.0493C28.0589 45.5933 28.8985 47.3615 29.1949 47.9841C29.8123 49.2666 29.9234 50.1756 29.5159 50.6363C29.0838 51.1095 26.0956 52.4542 25.898 52.255C25.7869 52.1305 25.2559 50.0013 24.5521 46.8634C23.5766 42.5302 22.0085 36.267 21.3417 34.0381C21.0453 33.0046 20.786 32.1206 20.786 32.0458C20.786 31.8342 20.996 32.1704 22.5394 34.9097Z" fill="#77524A"/>
<path d="M6.61076 49.8645C6.46259 49.9641 6.33911 50.1758 6.33911 50.3376C6.33911 50.5991 7.37633 54.1728 7.67267 54.895C7.87024 55.393 8.42589 55.8787 8.90746 55.9658C9.15441 56.0156 9.67302 55.9907 10.0558 55.9036C10.772 55.7541 12.2167 55.2187 12.4883 54.9821C12.7353 54.7829 12.6118 54.2599 12.2537 53.9985C11.945 53.7619 11.9327 53.7619 10.8214 54.1479C9.47546 54.5961 9.24085 54.6086 9.01859 54.235C8.9198 54.0856 8.57406 53.0895 8.26537 52.0311C7.57389 49.74 7.30224 49.3789 6.61076 49.8645Z" fill="#77524A"/>
<path d="M13.4017 53.2265C13.0069 53.5004 13.0315 54.0856 13.4511 54.3596C13.7472 54.5463 13.8089 54.5463 14.1051 54.3845C14.5493 54.1354 14.611 53.5004 14.2161 53.2265C13.8706 52.9774 13.7472 52.9774 13.4017 53.2265Z" fill="#77524A"/>
</g>
<defs>
<clipPath id="clip0_1202_2066">
<rect width="44" height="60" fill="white"/>
</clipPath>
</defs>
</svg>
