<svg width="58" height="60" viewBox="0 0 58 60" fill="none" xmlns="http://www.w3.org/2000/svg">
<g clip-path="url(#clip0_1202_2051)">
<path d="M30.844 0.069458C24.6078 0.937592 20.0669 6.34584 18.8695 14.3233C18.6086 16.0361 18.6086 19.1802 18.8695 20.8812C18.9762 21.5734 19.0473 22.1717 19.0236 22.1952C18.9999 22.2186 18.5968 22.1013 18.1225 21.9371C11.4239 19.6377 4.02575 22.1952 1.18031 27.8146C0.243681 29.6564 -0.171279 32.0262 0.0658414 34.1614C0.563794 38.549 2.66231 42.4438 6.4918 46.1158C12.1115 51.4889 19.8179 53.9994 25.6392 52.3218C26.1728 52.1693 26.6707 52.0285 26.7419 52.0168C26.813 51.9933 27.0501 52.4039 27.2635 52.9319C27.8326 54.3045 28.8285 55.724 30.0615 56.8854C30.9744 57.7418 31.342 57.9882 32.5869 58.5982C34.389 59.4781 35.8947 59.8887 37.7324 59.9825C42.1191 60.2054 46.6837 58.1641 50.6791 54.1637C56.3107 48.5325 59.1443 40.4495 57.5675 34.4899C56.2989 29.6799 52.0781 26.2308 46.9445 25.8085C46.3991 25.7733 45.9604 25.7146 45.9604 25.6912C45.9604 25.6677 46.0671 25.2688 46.1976 24.7996C46.6718 23.0633 46.8378 21.6907 46.8378 19.3679C46.8378 17.7841 46.7785 16.7635 46.6244 15.8484C45.7826 10.6513 43.6841 6.33411 40.6015 3.40122C38.254 1.17223 35.8354 0.0929222 32.9781 0.0107994C32.1956 -0.0126648 31.2353 0.0107994 30.844 0.069458ZM35.1122 2.18114C40.1154 3.71797 44.0872 9.80665 44.9053 17.2093C45.095 18.8751 44.9764 21.984 44.6681 23.3918C44.3125 25.0577 43.9686 25.9962 43.7078 25.9962C43.2217 25.9962 41.0758 26.6297 39.9139 27.1224C39.2262 27.404 38.3015 27.8732 37.8391 28.1548L37.0092 28.6827L36.9262 27.2163C36.7365 23.6968 35.7643 21.0455 33.5116 17.9014C31.9111 15.6724 31.0456 13.7485 30.5832 11.4491C30.3342 10.2173 30.3105 7.519 30.5358 6.28719C30.7373 5.13749 31.3183 3.35429 31.7569 2.48616L32.1126 1.794L33.1915 1.86439C33.7962 1.89958 34.6617 2.04036 35.1122 2.18114ZM29.4095 3.33083C28.7574 5.27827 28.5914 6.32238 28.5914 8.75081C28.5914 10.6044 28.627 11.0971 28.8641 12.153C29.4213 14.6283 30.3342 16.611 31.9229 18.8165C34.2467 22.0309 35.1003 24.5415 35.1003 28.1313L35.1122 29.9615L33.6065 31.4396L32.1008 32.9178L31.6621 32.2491C30.8085 30.9235 29.8837 29.7855 28.5321 28.4129C26.5047 26.3481 24.5841 24.9169 22.1536 23.6382C21.0391 23.0516 21.0747 23.0985 20.7664 21.1159C19.8061 14.8512 21.4541 8.52791 24.9279 5.0671C25.3191 4.67996 25.9475 4.14031 26.3388 3.84702C27.2754 3.16659 29.1723 2.21633 29.6703 2.19287C29.7414 2.18114 29.6347 2.66213 29.4095 3.33083ZM16.2019 23.2745C23.7779 25.0107 30.9863 31.9558 32.3972 38.8892C32.6936 40.3908 32.5869 42.7489 32.16 43.9924C31.9822 44.4969 31.7688 45.0483 31.6858 45.2125C31.5317 45.4941 31.5317 45.4823 30.9863 44.5555C28.1409 39.6752 23.2443 36.6015 17.4705 36.0853C16.6761 36.015 15.6565 35.8742 15.1941 35.7803C10.6888 34.8535 6.91861 32.0028 4.79639 27.9202C4.48813 27.3101 4.2273 26.7353 4.2273 26.6532C4.2273 26.4655 5.4129 25.3392 6.13612 24.8465C7.39285 24.0018 9.20682 23.2862 10.6651 23.0516C11.744 22.8873 15.0755 23.0281 16.2019 23.2745ZM48.6873 27.9671C49.1853 28.1079 49.7544 28.2839 49.9678 28.3777L50.359 28.5302L49.3631 29.1285C45.1898 31.6625 42.3325 35.7451 41.4552 40.4143C41.3366 41.1064 41.1706 42.3852 41.0995 43.2651C40.7794 47.3594 39.1195 50.7029 36.0607 53.4481C35.2426 54.1754 33.6065 55.2547 32.575 55.7357L31.8281 56.0877L31.093 55.3251C30.2038 54.3866 29.5399 53.4129 29.1131 52.4039C28.5677 51.09 28.5558 51.2073 29.4569 50.5386C32.2905 48.4504 34.1163 45.2242 34.4483 41.7165C34.638 39.6635 34.2704 37.3875 33.4524 35.6395C33.2271 35.1585 33.073 34.7127 33.1204 34.6306C33.3694 34.2083 34.555 32.9765 35.5864 32.0731C38.0999 29.8442 40.6964 28.4481 43.4114 27.8732C44.8341 27.5682 47.3713 27.6152 48.6873 27.9671ZM4.5237 31.0056C5.35362 32.1553 7.30986 34.0323 8.59031 34.8887C9.19497 35.2993 10.2857 35.9211 11.0208 36.2613C13.0719 37.235 14.4946 37.587 17.921 37.9624C19.6401 38.1384 21.1695 38.5842 22.7819 39.3702C25.1176 40.4847 27.0027 42.045 28.4728 44.0745C29.362 45.2946 30.2394 47.0309 30.1445 47.3946C30.0141 47.9108 28.046 49.4124 26.7774 49.9403C21.3829 52.2397 14.0204 50.3978 8.29391 45.3298C3.87162 41.3997 1.44114 36.2848 1.9628 31.9324C2.08136 30.9235 2.53189 29.1989 2.82829 28.6593C2.92314 28.4716 3.01799 28.5654 3.4448 29.3162C3.72935 29.809 4.21544 30.5598 4.5237 31.0056ZM52.9911 30.3955C54.2359 31.5922 55.1488 33.2111 55.6942 35.1468C55.9432 36.0384 55.9788 36.3904 55.9788 38.4317C55.9788 40.9891 55.8602 41.7634 55.1251 43.9455C53.5957 48.4856 50.2049 52.8849 46.1976 55.5245C42.9727 57.6597 39.3566 58.5513 36.2859 57.9647C35.2545 57.7653 33.8673 57.3429 33.8673 57.2256C33.8673 57.1787 34.1756 56.9792 34.555 56.7681C36.3926 55.7709 38.7994 53.5419 40.0443 51.6883C41.8346 49.0253 42.7238 46.3974 42.9846 42.9366C43.0557 42.0802 43.198 40.9774 43.2928 40.4729C44.1939 36.144 47.1105 32.3312 51.0585 30.3017C51.6513 29.9967 52.1848 29.7503 52.2323 29.7503C52.2915 29.7503 52.6354 30.0436 52.9911 30.3955Z" fill="#77524A"/>
</g>
<defs>
<clipPath id="clip0_1202_2051">
<rect width="58" height="60" fill="white"/>
</clipPath>
</defs>
</svg>
