<svg width="22" height="29" viewBox="0 0 22 29" fill="none" xmlns="http://www.w3.org/2000/svg">
<path fill-rule="evenodd" clip-rule="evenodd" d="M21.9169 11.6489C22.3308 12.0799 21.2481 12.6195 17.5417 15.9713C15.358 17.9468 15.6764 15.9292 12.3062 18.2057C10.0048 19.7602 7.77189 22.0343 5.98399 23.6948C4.95291 24.6539 0.97229 28.0567 0.113449 26.9664C-0.747191 25.8776 3.53261 22.9639 4.73805 22.2107C6.82603 20.9083 9.63721 19.3231 11.7291 17.5181C14.79 14.8759 12.6579 14.7316 15.1534 13.1278C19.3887 10.4055 20.1897 9.52998 20.5402 10.0102L16.2466 13.1868C16.1598 13.2524 16.1523 13.3818 16.2298 13.4732C16.3567 13.6235 16.4263 13.594 16.5259 13.5202C17.9309 12.4855 19.3347 11.451 20.7394 10.4163C21.0578 10.1806 21.3204 10.4991 20.9969 10.7448L16.8428 13.8982C16.7549 13.9638 16.7561 14.1007 16.826 14.1834C16.8959 14.2662 17.0355 14.2971 17.1222 14.2304C18.5014 13.1662 19.8818 12.1034 21.2619 11.0389C21.5721 10.7992 21.8002 11.0885 21.4974 11.3328L17.4391 14.607C17.3422 14.686 17.2957 14.7427 17.4223 14.8934C17.4988 14.9847 17.6318 15.0071 17.7185 14.9403" fill="#010F1C"/>
<path fill-rule="evenodd" clip-rule="evenodd" d="M19.288 23.5898C20.8576 24.7858 22.478 26.2879 21.8686 26.9754C21.2273 27.696 19.1962 26.3711 17.6065 25.1251C16.3608 24.1471 13.2962 20.408 11.8534 20.7062C10.9838 20.8849 11.2227 21.178 10.6439 20.7358C7.04843 17.9862 3.78275 15.7774 1.01014 12.2616C0.10749 11.1177 -0.358064 9.82972 0.330215 9.8871C1.17038 9.95987 12.9645 19.0792 13.0979 19.1786C15.1395 20.7089 18.1522 22.7237 19.288 23.5898Z" fill="#010F1C"/>
<path fill-rule="evenodd" clip-rule="evenodd" d="M8.47069 12.4846C7.8879 11.8452 7.34924 11.0479 7.08634 9.74093C6.57494 7.20442 7.41236 6.1721 8.18267 1.41486C8.20381 1.27888 8.44526 1.35903 8.85095 1.27888C7.97921 6.4978 7.08756 7.5061 7.66483 10.3659C7.84347 11.246 8.12874 11.9253 8.47069 12.4846ZM14.5643 0.55575C15.4651 5.90014 16.5087 7.05853 15.8907 9.90393C14.9727 14.1268 11.2792 13.6286 11.487 17.7281V24.61C11.487 25.971 13.2544 26.2457 14.3216 26.4282C15.5644 26.6389 15.8668 26.7413 15.8288 27.0234C15.789 27.8336 11.8461 28.0029 11.0035 28.0029C10.1593 28.0029 6.21368 27.8333 6.17415 27.0234C6.13708 26.7413 6.43828 26.6389 7.68261 26.4282C8.7483 26.2457 10.4856 25.9713 10.4856 24.61V17.7281C10.6919 13.6286 7.02996 14.1268 6.11318 9.90393C5.49362 7.05823 6.50814 5.89624 7.43963 0.55575C7.56587 -0.178188 14.4389 -0.184492 14.5643 0.55575Z" fill="#FF9D2D"/>
</svg>
