<svg width="3000" height="2000" viewBox="0 0 3000 2000" fill="none" xmlns="http://www.w3.org/2000/svg">
<path d="M2573.27 1840.87C2425.08 1840.87 421.61 1836.55 421.61 1836.31C420.78 1834.37 167.28 1523.66 486.49 1198.81C644.66 1037.85 341.24 829.32 486.49 650.27C735.3 343.57 981.48 516.3 1186.56 430.04C1222.8 414.81 1259.16 390.31 1295.56 352.7C1316.05 331.55 1338.5 313.06 1362.54 297.09C1366.23 294.63 1369.95 292.23 1373.71 289.9C1388.1 280.97 1403.03 272.9 1418.4 265.64C1428.73 260.77 1439.24 256.27 1449.96 252.13H1449.97C1466.97 245.56 1484.44 239.89 1502.28 235.1C1527.61 228.29 1553.7 223.22 1580.3 219.79C1591.9 218.28 1603.6 217.1 1615.38 216.21C1844.54 198.98 2102.42 295.88 2235.51 437.51C2262.3 466.03 2384.14 613.59 2288.1 816.42C2227.46 944.48 2481.5 1066.78 2571.77 1213.02C2801.28 1584.81 2575.35 1836.02 2573.27 1840.87Z" fill="#EBF3FA"/>
<g opacity="0.8">
<path d="M2054.76 976.46C2048.64 993.28 2041.14 1009.22 2032.41 1024.16C2011.46 1060.02 1983.52 1090.17 1951.02 1113.48C1875.51 1167.66 1775.42 1184.85 1681.48 1150.7C1569.73 1110.08 1497.95 1008.2 1490.31 896.75C1489.29 882.06 1489.39 867.21 1490.68 852.31C1492.8 827.29 1498.24 802.13 1507.22 777.42C1514.49 757.43 1523.72 738.71 1534.61 721.42C1534.73 721.22 1534.86 721.03 1534.98 720.83C1565.22 673.07 1608.17 636.2 1657.57 613.09C1671.58 606.53 1686.12 601.08 1701.04 596.81C1708.15 594.77 1715.37 593 1722.63 591.52C1773.6 581.03 1828.01 584.08 1880.52 603.17C1887.48 605.7 1894.29 608.47 1900.93 611.47C1910.31 615.68 1919.36 620.35 1928.07 625.43C1964.76 646.82 1995.46 675.53 2019 708.95H2019.01C2033.68 729.76 2045.55 752.38 2054.34 776.22C2058.96 788.74 2062.73 801.58 2065.6 814.67C2067.39 822.82 2068.83 831.04 2069.92 839.36C2072.54 859.33 2073.08 879.7 2071.44 900.18C2069.39 925.64 2063.92 951.28 2054.76 976.46Z" fill="#D7E5FF"/>
<path d="M1732.53 720.58C1715.32 733.91 1719.88 769.58 1690.08 749.48C1660.28 729.37 1641.58 718.44 1633.14 735.99C1624.69 753.54 1651.1 763.14 1644.15 782.26C1637.2 801.38 1623.06 803.4 1608.16 787.7C1593.24 772 1592.81 756.89 1568.67 757.39C1544.52 757.89 1534.22 747.96 1535.4 729.83C1535.6 726.64 1535.28 723.88 1534.61 721.42C1534.73 721.22 1534.86 721.03 1534.98 720.83C1565.22 673.07 1608.17 636.2 1657.57 613.09C1671.58 606.53 1686.12 601.08 1701.04 596.81C1708.15 594.77 1715.37 593 1722.63 591.52C1731.05 594.94 1740.08 601.88 1744.86 615.8C1755.37 646.43 1772.42 639.22 1757.94 664.88C1743.45 690.53 1749.42 696.83 1765.22 701.54C1781.03 706.25 1799.24 712.87 1796.76 725.37C1794.27 737.88 1749.75 707.25 1732.53 720.58Z" fill="#AEC3FF"/>
<path d="M2054.76 976.46C2048.64 993.28 2041.14 1009.22 2032.41 1024.16C2011.46 1060.02 1983.52 1090.17 1951.02 1113.48C1942.92 1113.23 1935.55 1110.48 1929.34 1104.94C1900.16 1078.87 1938.83 1051.19 1959.19 1037.71C1979.55 1024.24 1941.75 1019.77 1922.69 993.52C1903.63 967.27 1948.26 931.69 1919.58 929.77C1890.9 927.85 1856.02 925.99 1850.18 895.27C1844.34 864.55 1874.51 870.87 1869.23 844.99C1863.95 819.11 1888.9 814.26 1915.59 821.65C1942.28 829.03 1945.57 809.36 1978.65 818.29C2011.73 827.22 1996.16 867.94 2032.66 878.12C2069.16 888.3 2064.58 895.91 2064.58 895.91C2067.16 896.77 2069.45 898.21 2071.43 900.16C2069.39 925.64 2063.92 951.28 2054.76 976.46Z" fill="#AEC3FF"/>
<path d="M2069.93 839.35C2035.18 842.98 2037.53 799.6 2008.03 802.18C1978.28 804.77 1991.01 783.62 1976.29 761.78C1961.55 739.94 1911.9 751.78 1921.99 729.67C1932.08 707.58 1959.81 724.86 1972.8 708.98C1985.79 693.09 2013.27 708.23 2013.27 708.23C2015.15 708.2 2017.07 708.44 2019.01 708.95C2019.01 708.95 2019.01 708.94 2019.02 708.95C2033.69 729.76 2045.56 752.38 2054.35 776.22C2058.97 788.74 2062.74 801.58 2065.61 814.67C2067.39 822.81 2068.84 831.03 2069.93 839.35Z" fill="#AEC3FF"/>
<path d="M1849.72 670.41C1849.72 670.41 1873.31 653.71 1851.13 638.18C1828.94 622.66 1826.26 631.45 1807.89 622.46C1789.51 613.47 1776.62 625.54 1785.09 646.91C1793.55 668.28 1793.89 703.51 1812.87 691.7C1831.85 679.89 1833.89 666.46 1849.72 670.41Z" fill="#AEC3FF"/>
</g>
<path d="M487.77 1837.14H589.37C594.81 1832.52 585.6 1822.03 575.98 1821.33C571.8 1821.01 566.51 1821.89 560.47 1823.16C559.07 1804.59 551.09 1721.11 521 1724.47C487.17 1728.23 521 1761.23 530.56 1780.77C537.65 1795.24 545.12 1816 548.53 1825.8C545.78 1826.39 542.94 1826.98 540.03 1827.51C535.55 1813.74 518.86 1767.43 497.64 1770.13C472.73 1773.29 482.74 1791.86 500.4 1802.88C513.35 1810.99 529.26 1822.51 536.82 1828.07C530.42 1829.12 523.73 1829.82 516.95 1829.66C499.56 1829.25 491.07 1834.38 487.77 1837.14Z" fill="#A8D29F"/>
<path d="M2104.67 1837.14H2010.3C2005.24 1832.85 2013.8 1823.11 2022.74 1822.45C2026.62 1822.16 2031.53 1822.97 2037.14 1824.15C2038.44 1806.9 2045.85 1729.36 2073.8 1732.48C2105.23 1735.97 2073.8 1766.63 2064.92 1784.78C2058.34 1798.22 2051.4 1817.5 2048.22 1826.6C2050.77 1827.15 2053.41 1827.69 2056.11 1828.19C2060.28 1815.4 2075.77 1772.38 2095.48 1774.89C2118.62 1777.83 2109.32 1795.07 2092.92 1805.31C2080.89 1812.84 2066.11 1823.54 2059.09 1828.71C2065.04 1829.68 2071.25 1830.34 2077.55 1830.19C2093.73 1829.81 2101.62 1834.58 2104.67 1837.14Z" fill="#A8D29F"/>
<path d="M2172.07 1218.56C2172.07 1218.56 2174.32 1196.22 2162.64 1196.99C2150.96 1197.75 2147.86 1203.11 2149.17 1207.41C2150.47 1211.7 2161.84 1225.91 2161.84 1225.91L2172.07 1218.56Z" fill="#FFB27D"/>
<path d="M2354.1 1263.32C2354.1 1263.32 2341.17 1278.52 2313.36 1296.05C2310.73 1297.72 2307.97 1299.39 2305.07 1301.08C2294.27 1307.37 2281.6 1313.82 2266.97 1319.83C2265.36 1320.49 2263.47 1321.22 2261.34 1321.99C2244.67 1328.01 2214.01 1336.54 2195.01 1337.31C2193.36 1337.38 2191.79 1337.38 2190.33 1337.32C2161.41 1336.15 2157.88 1223.9 2157.88 1223.9C2157.88 1223.9 2161.1 1212.67 2175.96 1215.5C2175.96 1215.5 2198.53 1278.9 2206.61 1284.07C2213.79 1288.66 2255.08 1226.08 2290.62 1221.7C2314.54 1218.73 2354.1 1263.32 2354.1 1263.32Z" fill="#739AF0"/>
<path d="M2276.39 1810.74C2276.39 1810.74 2278.53 1835.45 2273.3 1838.02L2206.45 1837.88C2206.45 1837.88 2206.45 1830.16 2217.19 1828.45C2227.93 1826.74 2246.79 1820.45 2249.98 1806.45C2253.18 1792.45 2276.39 1810.74 2276.39 1810.74Z" fill="#1C3154"/>
<path d="M2227.32 1511.66C2227.65 1527.82 2228.43 1544.49 2229.95 1559.47C2237.17 1630.55 2239.71 1716.43 2240.75 1732.99C2242.55 1761.73 2248.23 1807.65 2248.23 1807.65C2248.23 1807.65 2259.49 1818.34 2281.44 1813.24C2281.44 1813.24 2299.63 1747.11 2303.69 1677.47C2303.75 1676.33 2303.81 1675.18 2303.87 1674.03C2304.34 1664.82 2304.83 1654.3 2305.34 1642.95C2308.68 1566.92 2312.32 1453.97 2312.32 1453.97L2228.43 1434.27C2228.42 1434.25 2226.49 1471.38 2227.32 1511.66Z" fill="#2A4E96"/>
<path d="M2227.32 1511.66C2248.58 1548.34 2289.1 1615.92 2305.34 1642.93C2308.68 1566.9 2312.32 1453.95 2312.32 1453.95L2228.43 1434.25C2228.42 1434.25 2226.49 1471.38 2227.32 1511.66Z" fill="#233862"/>
<path d="M2261.33 1321.98C2244.66 1328 2214 1336.53 2195 1337.3C2197.91 1336.76 2219.07 1332.56 2226.89 1323.12C2235.29 1312.96 2249.44 1285.38 2260.7 1296.64C2266 1301.93 2264.45 1312.4 2261.33 1321.98Z" fill="#6385DB"/>
<path d="M2402.29 1499.71C2402.29 1499.71 2407.5 1520.13 2406.64 1524.67C2405.79 1529.21 2400.7 1544.57 2397.53 1548.39C2394.36 1552.21 2394.23 1531.82 2392.12 1528.61C2390.01 1525.41 2391.15 1536.22 2389.46 1537.11C2387.77 1538 2384.95 1528.92 2383.7 1525.7C2382.45 1522.48 2388.2 1511.28 2388.74 1503.25C2389.28 1495.22 2402.29 1499.71 2402.29 1499.71Z" fill="#FFB27D"/>
<path d="M2442.92 1782.66C2442.92 1782.66 2454.82 1793.52 2452.5 1801.23C2450.18 1808.95 2439.44 1814.09 2437.99 1823.52C2436.54 1832.95 2430.74 1838.09 2425.51 1838.09C2420.28 1838.09 2400.61 1838.09 2400.61 1838.09C2400.61 1838.09 2396.76 1831.45 2406.05 1829.45C2415.34 1827.45 2418.84 1816.37 2418.26 1806.08C2417.68 1795.79 2419.13 1782.08 2419.13 1782.08L2438.86 1777.51L2442.92 1782.66Z" fill="#1C3154"/>
<path d="M2241.64 1455.67C2241.64 1455.67 2320.17 1623.69 2361.96 1697.41C2403.75 1771.13 2416.81 1791.71 2416.81 1791.71C2416.81 1791.71 2440.75 1782.28 2442.93 1775.85C2442.93 1775.85 2426.95 1633.52 2398.96 1598.83C2383.15 1579.23 2364.57 1520.39 2363.7 1499.82C2362.83 1479.25 2344.48 1430.14 2344.48 1430.14L2241.64 1455.67Z" fill="#2A4E96"/>
<path d="M2227.01 1446.93C2227.01 1446.93 2252.58 1474.45 2296.03 1482.76C2315.1 1486.41 2353.81 1489.94 2363.41 1476.36C2365.66 1473.17 2365.68 1468.45 2365.18 1461.08C2363.89 1441.93 2359.07 1404.9 2380.82 1330.49C2382.85 1323.57 2384.21 1316.93 2385 1310.6C2389.75 1272.53 2389.23 1243.8 2356.21 1228.45C2306.72 1205.45 2286.41 1224.37 2286.41 1224.37C2286.41 1224.37 2260.09 1236.67 2248.06 1272.51C2224.02 1344.21 2227.01 1446.93 2227.01 1446.93Z" fill="#739AF0"/>
<path d="M2326.5 1222.13C2318.17 1228.05 2303.51 1231.54 2289.54 1224.55C2288.46 1224.01 2288.6 1216.62 2288.87 1209.36C2289.14 1202.24 2289.81 1195.24 2289.81 1195.24L2307.42 1183.68L2324.22 1172.66C2322.2 1210.57 2330.26 1219.44 2326.5 1222.13Z" fill="#FFB27D"/>
<path d="M2321.26 1188.31C2321.26 1188.31 2309.83 1205.46 2288.87 1209.36C2289.14 1202.24 2289.9 1194.39 2289.9 1194.39L2307.42 1183.69L2321.26 1188.31Z" fill="#ED985F"/>
<path d="M2274.03 1190.79C2274.03 1190.79 2316.63 1206.69 2326.11 1180.44C2335.59 1154.19 2347.47 1138.57 2320.67 1127.31C2293.87 1116.05 2284.94 1124.17 2279.61 1132.16C2274.29 1140.15 2263.2 1185.98 2274.03 1190.79Z" fill="#FFB27D"/>
<path d="M2352.65 1130.26C2353.14 1129.88 2354.13 1129.69 2356.21 1129.99C2356.21 1129.99 2354.77 1128.64 2352.59 1128.15C2352.72 1125.21 2352.2 1119.86 2347.54 1117.67C2347.54 1117.67 2349.9 1119.6 2349.65 1122.7C2345.12 1115.74 2333.77 1109.08 2299.51 1105.08C2254.35 1099.81 2263.38 1131.17 2268.47 1135.7C2273.56 1140.23 2289.88 1133.79 2300.44 1136.76C2311 1139.73 2309.98 1155.63 2313.19 1158.47C2316.41 1161.32 2315.72 1157.27 2321.08 1156.02C2326.44 1154.77 2325.3 1163.02 2322.83 1168.04C2320.36 1173.06 2325.74 1181.4 2325.74 1181.4C2325.74 1181.4 2325.74 1181.4 2334.03 1175.39C2342.32 1169.38 2354.92 1139.47 2353.13 1132.21C2352.97 1131.56 2352.81 1130.91 2352.65 1130.26Z" fill="#2C3A64"/>
<path d="M2365.18 1461.08C2363.89 1441.93 2359.07 1404.9 2380.82 1330.49C2382.85 1323.57 2384.21 1316.93 2385 1310.6C2368.84 1305.27 2339.4 1317.12 2339.4 1317.12C2339.4 1317.12 2332.47 1415.49 2365.18 1461.08Z" fill="#6385DB"/>
<path d="M2365.12 1233.43C2365.12 1233.43 2385 1240.66 2397.69 1293.31C2406.07 1328.09 2421.5 1379.22 2423.24 1395.29C2424.98 1411.36 2405.6 1505.42 2405.6 1505.42C2405.6 1505.42 2402.87 1507.41 2396.17 1506.07C2389.76 1504.79 2386.78 1500.45 2386.78 1500.45C2386.78 1500.45 2382.15 1437.76 2383.34 1408.16C2383.84 1395.86 2326.41 1318.09 2295.41 1308.07C2283.24 1304.13 2365.12 1233.43 2365.12 1233.43Z" fill="#739AF0"/>
<path d="M2086.99 1165.28C2086.99 1165.28 2144.46 1163.65 2210.78 1175.86L2217.71 1158.4L2225.31 1139.27C2225.31 1139.27 2158.73 1110.61 2118.71 1070.69L2086.99 1165.28Z" fill="#AEC3FF"/>
<path d="M2119.62 1069.75L2086.62 1167.15C2081.79 1165.72 2079.16 1160.54 2080.84 1155.8L2109.88 1073.96C2111.29 1070 2115.77 1068.06 2119.62 1069.75Z" fill="#F99746"/>
<path d="M2151.12 1237.77C2157.54 1239.05 2163.83 1234.85 2165.12 1228.44L2176.48 1171.59C2177.76 1165.17 2173.56 1158.88 2167.15 1157.59C2160.73 1156.31 2154.44 1160.51 2153.15 1166.92L2141.79 1223.77C2140.5 1230.19 2144.7 1236.49 2151.12 1237.77Z" fill="#F99746"/>
<path d="M2086.99 1165.28C2086.99 1165.28 2144.46 1163.65 2210.78 1175.86L2217.71 1158.4C2155.4 1145.67 2086.99 1165.28 2086.99 1165.28Z" fill="#739AF0"/>
<path d="M2192.45 1172.34L2210.41 1175.5C2210.14 1175.51 2227.09 1178.8 2232.65 1163.77C2233.16 1162.74 2233.49 1161.73 2233.72 1160.53C2238.04 1141.8 2227.76 1138.35 2227.76 1138.35L2204.65 1129.34L2197.31 1155.33C2197.31 1155.33 2197.31 1155.33 2197.31 1155.42L2192.45 1172.34Z" fill="#F99746"/>
<path d="M2192.45 1172.34L2210.41 1175.5C2210.14 1175.51 2227.09 1178.8 2232.65 1163.77C2222.49 1156.38 2197.3 1155.32 2197.3 1155.32C2197.3 1155.32 2197.3 1155.32 2197.3 1155.41L2192.45 1172.34Z" fill="#ED7D2B"/>
<path d="M2152.65 1182.73C2152.65 1182.73 2161.44 1186.23 2159.82 1190.1C2158.21 1193.97 2147.04 1199.29 2145.28 1196.24C2143.52 1193.18 2147.12 1179.46 2152.65 1182.73Z" fill="#FFB27D"/>
<path d="M2172.24 1215.04C2172.24 1215.04 2173.9 1206.05 2174 1201.92C2174.1 1197.79 2174.59 1194.42 2173.62 1194.3C2172.65 1194.18 2171.94 1194.94 2171.55 1196.27C2171.15 1197.6 2169.63 1205.83 2169.63 1205.83L2170.4 1213.78L2172.24 1215.04Z" fill="#FFB27D"/>
<path d="M1303.31 1209.17L1253.54 1800.97C1253.54 1800.97 1248.33 1836.84 1275.01 1836.91C1318.88 1837.01 1493.39 1836.91 1493.39 1836.91C1493.39 1836.91 1460.37 1829.44 1460.77 1812.64C1461.24 1792.84 1518.94 1203.57 1518.94 1203.57L1303.31 1209.17Z" fill="#7599EA"/>
<path d="M1509.81 1826.41C1501.18 1826.44 1332.24 1826.72 1289.51 1826.17C1270.89 1825.94 1267.62 1809.61 1267.47 1799.05C1267.39 1793.99 1268.04 1790.24 1268.04 1790.24L1269.33 1774.86L1272.63 1735.66L1275.54 1701.02L1279.29 1656.51L1282.44 1618.94L1317.81 1198.42L1533.44 1192.82C1533.44 1192.82 1509.14 1439.43 1491.95 1618.93C1490.03 1638.93 1488.21 1658.11 1486.52 1676.01C1485.97 1681.73 1485.45 1687.31 1484.93 1692.75C1483.34 1709.73 1481.88 1725.33 1480.61 1739.1C1479.94 1746.36 1479.32 1753.1 1478.77 1759.28C1476.58 1783.49 1475.29 1798.95 1475.27 1801.89C1475.26 1803.6 1475.41 1805.2 1475.69 1806.68C1479.23 1825.56 1506.57 1826.41 1509.81 1826.41Z" fill="#90AFF4"/>
<path d="M779.65 887.13L900.89 1374.12L917.49 1440.81L973.95 1667.63H2023L1814.88 887.13H779.65Z" fill="#AEC3FF"/>
<path d="M779.65 887.13L762.85 892.73L951.62 1684.57L973.96 1667.63L779.65 887.13Z" fill="#90AFF4"/>
<path d="M951.62 1684.57H1994.21L2023 1667.63H973.96L951.62 1684.57Z" fill="#7599EA"/>
<path d="M1317.74 1837.14H1543.48V1826.41H1317.74V1837.14Z" fill="#AEC3FF"/>
<path d="M1486.1 1684.57L1484.93 1692.77L1272.64 1735.66L1275.55 1701.02L1276.94 1684.57H1486.1Z" fill="#5888DD"/>
<path opacity="0.4" d="M1509.81 1826.41C1501.18 1826.44 1332.24 1826.72 1289.51 1826.17C1270.89 1825.94 1267.62 1809.61 1267.47 1799.05L1478.76 1759.3C1476.57 1783.51 1475.28 1798.97 1475.26 1801.91C1475.25 1803.62 1475.4 1805.22 1475.68 1806.7C1479.23 1825.56 1506.57 1826.41 1509.81 1826.41Z" fill="#5888DD"/>
<path d="M779.65 887.13H1814.88L1982.84 1514.41H935.81L779.65 887.13Z" fill="#AEC3FF"/>
<path d="M1934.02 1487.22H964.73L930.09 1349.24L916.69 1295.85L911.23 1274.08L875.63 1132.28L873.78 1124.9L854.97 1049.94L846.55 1016.41L839.37 987.8L822.53 920.74H1777.84L1796.33 987.8L1804.22 1016.41L1813.46 1049.94L1874.37 1270.89V1270.9L1879.53 1289.62L1881.93 1298.31L1923.99 1450.84L1934.02 1487.22Z" fill="#739AF0"/>
<path d="M1796.33 987.8H839.37L822.53 920.73H1777.85L1796.33 987.8Z" fill="#607CF4"/>
<path d="M862.05 951.04C860.9 946.41 863.71 942.66 868.34 942.66C872.97 942.66 877.66 946.41 878.81 951.04C879.96 955.67 877.15 959.42 872.52 959.42C867.9 959.43 863.21 955.67 862.05 951.04Z" fill="#E9F3FE"/>
<path d="M889.91 951.04C888.76 946.41 891.57 942.66 896.2 942.66C900.83 942.66 905.52 946.41 906.67 951.04C907.82 955.67 905.01 959.42 900.38 959.42C895.76 959.43 891.07 955.67 889.91 951.04Z" fill="#E9F3FE"/>
<path d="M919.91 951.04C918.76 946.41 921.57 942.66 926.2 942.66C930.83 942.66 935.52 946.41 936.67 951.04C937.82 955.67 935.01 959.42 930.38 959.42C925.75 959.43 921.06 955.67 919.91 951.04Z" fill="#E9F3FE"/>
<path d="M1587.81 530.83C1626.99 484.83 1687.4 392.43 1728.07 345.12C1736.44 335.38 1729.48 320.35 1716.64 320.35H1642.63L1712.44 162.49C1715.42 155.75 1706.24 150.38 1701.82 156.28L1533.02 382.2C1528.1 388.79 1533.48 398.07 1541.65 397.06L1625.44 386.74L1575.59 523.68C1572.85 531.22 1582.61 536.93 1587.81 530.83Z" fill="#F77D48"/>
<path d="M1239.36 810.99C1248.17 765.78 1253.74 681.82 1263.05 635.18C1264.97 625.58 1254.72 618.2 1246.19 623L1197.03 650.68L1184.35 519.72C1183.81 514.13 1175.7 514 1174.98 519.57L1147.37 732.76C1146.57 738.98 1153.61 743.13 1158.66 739.4L1210.45 701.21L1228.56 810.81C1229.57 816.85 1238.19 816.99 1239.36 810.99Z" fill="#AEC3FF"/>
<path d="M1976.36 1500.58L1134.13 1571.54C1070.18 1576.93 1023.9 1511.73 1050.08 1453.14L1406.9 654.57C1433.97 593.99 1517.18 586.98 1554 642.18L2039.41 1369.79C2075.03 1423.17 2040.31 1495.19 1976.36 1500.58Z" fill="#E6EFFF"/>
<path d="M1979.04 1532.43L1136.81 1603.39C1095.39 1606.88 1056.29 1588.73 1032.23 1554.83C1008.17 1520.93 1003.93 1478.04 1020.89 1440.09L1377.71 641.52C1395.24 602.28 1431.28 576.7 1474.11 573.09C1516.94 569.48 1556.75 588.67 1580.6 624.43L2066.01 1352.04C2089.08 1386.62 2092.08 1429.62 2074.03 1467.06C2055.97 1504.5 2020.46 1528.94 1979.04 1532.43ZM1479.48 636.8C1460.2 638.42 1443.98 649.94 1436.09 667.6L1079.27 1466.17C1071.64 1483.25 1073.55 1502.56 1084.38 1517.81C1095.21 1533.07 1112.81 1541.24 1131.45 1539.67L1973.68 1468.71C1992.32 1467.14 2008.31 1456.14 2016.43 1439.29C2024.55 1422.44 2023.21 1403.08 2012.82 1387.52L1527.41 659.91C1516.67 643.82 1498.75 635.18 1479.48 636.8Z" fill="#F77D48"/>
<path d="M1459.74 1378.4C1458.83 1367.55 1459.91 1357.35 1463.02 1347.81C1466.12 1338.28 1470.92 1329.84 1477.43 1322.5C1483.94 1315.17 1492 1309.18 1501.63 1304.56C1511.25 1299.95 1522.3 1297.1 1534.77 1296.05C1547.23 1295 1558.69 1295.95 1569.11 1298.87C1579.54 1301.8 1588.58 1306.35 1596.22 1312.49C1603.87 1318.64 1610.01 1326.16 1614.66 1335.03C1619.31 1343.92 1622.09 1353.78 1623.01 1364.64C1623.92 1375.49 1622.82 1385.61 1619.71 1394.98C1616.6 1404.36 1611.79 1412.71 1605.28 1420.05C1598.77 1427.39 1590.62 1433.38 1580.83 1438.01C1571.04 1442.64 1559.91 1445.49 1547.44 1446.54C1534.97 1447.59 1523.6 1446.64 1513.35 1443.7C1503.09 1440.76 1494.14 1436.21 1486.49 1430.06C1478.85 1423.92 1472.7 1416.49 1468.07 1407.76C1463.43 1399.04 1460.66 1389.25 1459.74 1378.4ZM1589.96 1226.03L1468.64 1236.25L1416.53 823.18L1572.22 810.06L1589.96 1226.03Z" fill="#F77D48"/>
<path d="M936.75 1251.36C936.75 1251.36 939.39 1245.42 941.1 1242.61C942.81 1239.8 950.12 1231.56 951.36 1233.42C952.6 1235.29 957.58 1247.84 954.94 1251.36C952.3 1254.88 955.11 1260.99 941.97 1264.7L936.75 1251.36Z" fill="#FFB27D"/>
<path d="M790.68 1213.86C790.68 1213.86 857.97 1270.03 884.2 1264.83C904.72 1260.76 937.15 1250.48 937.15 1250.48C937.15 1250.48 945.71 1258.62 943.29 1268.38C943.29 1268.38 901.97 1307.26 872.53 1307.51C826.51 1307.9 804.81 1284.71 804.81 1284.71L790.68 1213.86Z" fill="#ED7D2B"/>
<path d="M672.67 1806.31C672.67 1806.31 674.62 1837.82 680.72 1838.27C681.53 1838.33 711.64 1838.33 711.64 1838.33L750.08 1838.11C750.08 1838.11 749.83 1828.85 738.59 1826.89C727.36 1824.93 708.55 1817.04 701.74 1802.19C694.58 1786.56 672.67 1806.31 672.67 1806.31Z" fill="#113C68"/>
<path d="M670.45 1808.49C670.45 1808.49 682.13 1812.4 691.26 1812.4C701.44 1812.4 710.68 1809.63 710.68 1809.63C710.68 1809.63 712.88 1788.36 724.98 1741.49C731.33 1716.92 740.39 1685.33 753.28 1646.08C788.93 1537.6 799.77 1474.14 800.76 1468.13C800.81 1467.81 800.83 1467.66 800.83 1467.66L800.71 1467.61L691.1 1419.49C691.1 1419.49 704.65 1569 687.36 1626.39C684.94 1634.41 682.87 1643.76 681.09 1653.88C670.2 1716.2 670.45 1808.49 670.45 1808.49Z" fill="#2A4E96"/>
<path d="M724.99 1741.49C731.34 1716.92 740.4 1685.33 753.29 1646.08C788.94 1537.6 799.78 1474.14 800.77 1468.13C800.76 1467.95 800.75 1467.78 800.73 1467.6L691.12 1419.48C691.12 1419.48 704.67 1568.99 687.38 1626.38C684.97 1634.4 724.99 1741.49 724.99 1741.49Z" fill="#233862"/>
<path d="M758.28 1806.31C758.28 1806.31 760.23 1837.82 766.33 1838.27C767.14 1838.33 797.25 1838.33 797.25 1838.33L835.69 1838.11C835.69 1838.11 835.44 1828.85 824.2 1826.89C812.97 1824.93 794.16 1817.04 787.35 1802.19C780.19 1786.56 758.28 1806.31 758.28 1806.31Z" fill="#15447C"/>
<path d="M820.42 1423C820.42 1423 821.84 1519.88 805.08 1638.84C788.32 1757.8 794 1808.29 794 1808.29C794 1808.29 782.48 1812.02 777.84 1812.4C766 1813.36 753.86 1809.62 753.86 1809.62C753.86 1809.62 729.87 1690.62 736.75 1631.08C743.63 1571.54 703.9 1426.77 703.9 1426.77L820.42 1423Z" fill="#2A4E96"/>
<path d="M742.7 1196.29L764.1 1210.32L783.59 1204.81C787.15 1199.73 788.1 1189.93 788.15 1181.45C788.2 1173.03 787.38 1165.89 787.38 1165.89L758.51 1153.15L747.74 1148.4C747.77 1148.57 748.58 1157.24 748.69 1158.51C750.7 1181 742.7 1196.29 742.7 1196.29Z" fill="#FFB27D"/>
<path d="M820.91 1449.94C794.28 1475.65 693.5 1471.33 687.29 1443C681.09 1414.67 694.06 1201.85 739.55 1188.48C748.99 1185.71 799.46 1202.02 799.46 1202.02C799.46 1202.02 807.38 1222.74 812.57 1249.11C813.58 1254.24 816.52 1308.63 818.72 1359.51C819.75 1383.31 820.62 1406.34 821.06 1423.21C821.46 1439 821.48 1449.38 820.91 1449.94Z" fill="#F99746"/>
<path d="M750.85 1158.9C756.71 1168.8 777.25 1177.47 788.14 1181.44C788.19 1173.02 787.37 1165.88 787.37 1165.88L758.5 1153.14C752.13 1153.05 748.24 1154.48 750.85 1158.9Z" fill="#FCA56B"/>
<path d="M798.26 1164.12C798.26 1164.12 751.75 1178.63 743.16 1149.53C734.57 1120.43 722.78 1102.7 752.12 1092.21C781.45 1081.72 790.53 1091.11 795.76 1100.13C800.98 1109.14 810.14 1159.6 798.26 1164.12Z" fill="#FFB27D"/>
<path d="M793.93 1097.32C793.93 1097.32 790.96 1131.19 783.96 1129.72C776.96 1128.25 769.25 1125.1 770.27 1135.31C771.3 1145.52 763.46 1163.02 753.36 1162.98C731.7 1162.89 708.17 1107.31 714.1 1096.77C731.21 1066.36 818.66 1060.22 793.93 1097.32Z" fill="#163560"/>
<path d="M787.09 1189.21C786.49 1188.96 752.47 1173.7 748.49 1175.01C744.51 1176.32 739.55 1188.48 739.55 1188.48L799.46 1202.02C799.45 1202.02 794.74 1192.43 787.09 1189.21Z" fill="#ED7D2B"/>
<path d="M998.9 1354.03L808.18 1533.6C804.44 1537.12 799.73 1538.24 797.7 1536.09L791.26 1529.25C789.24 1527.1 790.64 1522.46 794.38 1518.94L985.1 1339.37C988.84 1335.85 993.55 1334.73 995.58 1336.88L1002.02 1343.72C1004.04 1345.87 1002.64 1350.51 998.9 1354.03Z" fill="#1F4D84"/>
<path d="M891.87 1454.8L808.18 1533.6C804.44 1537.12 799.73 1538.24 797.7 1536.09L791.26 1529.25C789.24 1527.1 790.64 1522.46 794.38 1518.94L878.07 1440.14L891.87 1454.8Z" fill="#739AF0"/>
<path d="M955.07 1286.23C962.39 1310.36 975.95 1332.96 995.64 1351.48C1055.77 1408.05 1150.38 1405.16 1206.95 1345.04C1262.77 1285.7 1260.7 1192.8 1202.84 1136C1202.07 1135.24 1201.29 1134.48 1200.49 1133.74C1140.37 1077.17 1045.77 1080.04 989.2 1140.17C951.15 1180.62 939.99 1236.67 955.07 1286.23ZM997.79 1148.27C1030.71 1113.28 1077.62 1099.33 1121.67 1106.96C1147.34 1111.4 1172.02 1123.16 1192.41 1142.34C1247.79 1194.44 1250.44 1281.57 1198.34 1336.96C1179.16 1357.35 1155.24 1370.58 1129.9 1376.59C1086.39 1386.89 1038.71 1375.84 1003.72 1342.91C948.34 1290.79 945.68 1203.66 997.79 1148.27Z" fill="#1F4D84"/>
<g opacity="0.5">
<path d="M1198.35 1336.96C1179.17 1357.35 1155.24 1370.58 1129.91 1376.59C1086.4 1386.88 1038.73 1375.83 1003.73 1342.9C948.35 1290.8 945.69 1203.66 997.8 1148.27C1030.72 1113.28 1077.63 1099.33 1121.68 1106.96C1147.35 1111.4 1172.04 1123.16 1192.42 1142.34C1247.79 1194.44 1250.45 1281.57 1198.35 1336.96Z" fill="#B3CFF9"/>
</g>
<path d="M821.06 1423.2C715.97 1348.32 724.71 1248.39 724.71 1248.39C763.12 1270.05 801.23 1317.95 818.72 1359.5C819.74 1383.3 820.61 1406.33 821.06 1423.2Z" fill="#ED7D2B"/>
<path d="M924.78 1389.1C932.19 1387.39 937.17 1381.79 938.2 1380.81C938.2 1380.81 941.36 1381.03 937.68 1387.77C937.37 1388.33 936.69 1389.78 936.17 1390.81C935.96 1391.23 936.25 1391.72 936.72 1391.75C941 1392.08 945.3 1390.38 953.53 1392.1C954.67 1392.34 955 1395.06 954.95 1396.22C954.88 1398.18 955.02 1400.39 952.74 1403.4C951.41 1405.15 947.71 1407.03 939.46 1410.35C936.32 1411.61 927.33 1410.66 918.91 1407.77L912.18 1404.65L914.27 1392.15L915.96 1392.5C918.65 1393.06 921.98 1389.78 924.78 1389.1Z" fill="#FFB27D"/>
<path d="M757.32 1202.02C757.32 1202.02 662.9 1220 785.1 1356.74C804.64 1378.61 910.24 1407.08 910.24 1407.08C910.24 1407.08 920.95 1397.97 915.55 1390.59C915.55 1390.59 842.84 1337.79 826.85 1329.4C819.65 1325.62 798.92 1245.13 787.19 1225.75C775.46 1206.36 757.32 1202.02 757.32 1202.02Z" fill="#F99746"/>
<path d="M939.31 1253.02C939.31 1253.02 942.4 1247.12 943 1244C943.6 1240.89 947.49 1231.81 949.09 1230.21C949.73 1229.57 951.85 1230.4 952.1 1233.15C952.21 1234.35 951.62 1236.53 950.58 1239.12C948.89 1243.35 949.17 1249.08 948.58 1250.99C947.12 1255.75 939.31 1253.02 939.31 1253.02Z" fill="#FFB27D"/>
<path d="M976.89 1018.74C975.28 1020.58 975.08 1022.63 975.87 1024.83C975.87 1024.84 975.88 1024.85 975.89 1024.86C977.36 1028.92 982.21 1033.46 987.85 1037.99C988.57 1038.57 989.21 1039.1 989.77 1039.59C989.92 1039.72 990.06 1039.85 990.2 1039.98C990.31 1040.08 990.42 1040.18 990.53 1040.28C995.79 1045.13 993.81 1046.24 1003.25 1056.08C1014.02 1067.29 1021.43 1067.5 1023.54 1066.47C1025.33 1065.6 1021.7 1059.66 1017.68 1052.97C1017.49 1052.65 1017.29 1052.32 1017.1 1052C1016.56 1051.11 1016.03 1050.21 1015.5 1049.32C1010.79 1041.28 1012 1037.51 1013.12 1025.54C1014.03 1015.82 1028.27 971.22 1028.27 971.22L1007.63 967.66C1007.63 967.66 1001.4 1003.17 994.55 1008.64C990.89 1011.55 986.79 1011.59 983.27 1013.75C983.02 1013.9 982.78 1014.05 982.54 1014.21C980.54 1015.53 978.5 1016.9 976.89 1018.74Z" fill="#FFB27D"/>
<path d="M976.89 1018.74C975.28 1020.58 975.08 1022.63 975.87 1024.83C975.87 1024.84 975.88 1024.85 975.89 1024.86C977.69 1028.92 982.42 1033.43 987.87 1037.95C988.58 1038.54 989.21 1039.08 989.77 1039.59C989.92 1039.72 990.06 1039.85 990.2 1039.98C990.31 1040.08 990.42 1040.18 990.53 1040.28C995.79 1045.13 993.81 1046.24 1003.25 1056.08C1014.02 1067.29 1021.43 1067.5 1023.54 1066.47C1025.33 1065.6 1021.7 1059.66 1017.68 1052.97C1015.58 1052.2 1005.84 1048.24 998.48 1038.81C992.23 1030.83 987.99 1020.67 983.74 1014.42C983.27 1014.33 982.99 1014.28 982.53 1014.19C980.54 1015.53 978.5 1016.9 976.89 1018.74Z" fill="#233862"/>
<path d="M1143.34 1005.91C1144.61 1012.28 1153.7 1011.22 1163.84 1008.75C1173.99 1006.27 1171.58 1009.22 1186.02 1007.63C1200.46 1006.04 1204.84 1000.65 1205.28 998.51C1205.68 996.6 1198.54 995.93 1190.89 995.05C1189.93 994.94 1188.96 994.82 1187.99 994.7C1179.35 993.61 1173.02 988.03 1165.17 983.45C1157.74 979.11 1146.65 961.43 1146.65 961.43L1126.84 962.99C1126.84 962.99 1137.23 978.78 1141.25 985.64C1143.61 989.68 1143.49 995.02 1143.19 999.14C1143.04 1001.37 1142.89 1003.66 1143.34 1005.91Z" fill="#FFB27D"/>
<path d="M1163.84 1008.75C1173.99 1006.27 1171.58 1009.22 1186.02 1007.63C1200.46 1006.04 1204.84 1000.65 1205.28 998.51C1205.68 996.6 1198.54 995.93 1190.89 995.05L1190.82 995.2C1190.82 995.2 1182.16 1001.34 1170.14 1001.62C1160.34 1001.86 1149.97 999.04 1143.2 999.15C1143.05 1001.39 1142.9 1003.68 1143.35 1005.93C1144.61 1012.28 1153.7 1011.22 1163.84 1008.75Z" fill="#233862"/>
<path d="M1067.48 879.24L1048.95 929.05L1024.76 994.09C1024.76 994.09 1018.2 994.72 1011.92 992.91C1006.14 991.24 999.5 986.86 999.5 986.86C999.5 986.86 1006.24 917.01 1018.77 876.92C1021.98 866.63 1025.58 858.31 1029.55 853.62C1048.97 830.7 1067.48 879.24 1067.48 879.24Z" fill="#233862"/>
<path d="M1048.69 800.11C1038.15 796.71 1010.65 800.04 980.82 805.43C972.58 806.92 964.27 803.15 959.93 795.99L884.87 790.1C884.87 790.1 860.08 845.02 873.63 880.03C875.62 885.17 879.99 888.39 886.75 888.5C886.75 888.5 932.11 888.58 946.62 888.58C983.95 888.59 1025.63 862.95 1031.02 861.87C1039.84 860.11 1043.37 877.76 1052.19 896.29C1061.01 914.82 1135.11 978.38 1135.11 978.38C1135.11 978.38 1146.5 978.5 1151.21 976.73C1156.27 974.83 1158.12 972.37 1158.12 972.37C1158.12 972.37 1076.04 808.94 1048.69 800.11Z" fill="#2A4E96"/>
<path d="M952.03 575.56C946.46 572.24 941.02 571.73 937.69 571.82C935.37 571.89 933.06 571.73 930.77 571.4C902.12 567.19 884.86 608.8 883.84 621.37C881.98 644.45 869.76 647.97 852.57 662.42C818.09 691.4 828.19 725.08 847.03 737.61C858.34 745.12 878.27 737.62 878.27 737.62C878.55 737.82 932.79 707.32 959.52 692.62C999.6 686.94 968.13 585.15 952.03 575.56Z" fill="#233862"/>
<path d="M937.13 680.08C937.25 680.16 923.98 684.68 915.11 680.75C906.76 677.06 900.45 663.32 900.57 663.32C904.37 663.15 908.54 659.83 911.75 638.05L913.37 638.63L940.55 648.42C940.55 648.42 938.58 657.14 937.3 665.45C936.22 672.42 935.64 679.1 937.13 680.08Z" fill="#FFB27D"/>
<path d="M940.55 648.42C940.55 648.42 939.46 653.13 937.88 661.92C922.27 659.1 915.57 647.07 913.37 638.63L940.55 648.42Z" fill="#ED975D"/>
<path d="M944.59 657.08C944.59 657.08 907.4 652.07 910.87 628.96C914.34 605.85 911.88 589.63 935.78 591.85C959.67 594.07 962.95 603.58 963.67 611.58C964.39 619.57 954.36 657.78 944.59 657.08Z" fill="#FFB27D"/>
<path d="M962.32 598.9C962.32 598.9 938.5 619.41 922.31 621.06C906.11 622.71 899.98 617.51 899.98 617.51C899.98 617.51 909.53 609.59 915.28 596.8C916.97 593.03 920.55 590.44 924.67 590.09C936.23 589.1 958.15 588.65 962.32 598.9Z" fill="#233862"/>
<path d="M947.43 597.06C947.43 597.06 955.39 604.76 957.9 610.48C960.32 615.99 961.04 629.18 959.11 634.41C959.11 634.41 971.53 610.28 964.51 598.56C957.06 586.12 947.43 597.06 947.43 597.06Z" fill="#233862"/>
<path d="M968.43 734.89C967.28 810.18 968.1 794.45 959.86 801.59C957.87 803.31 952.3 804.33 944.95 804.82C921.86 806.34 881.28 802.53 879.74 798.26C874.42 783.49 878.18 778.91 873.75 756.31C873.29 753.91 872.72 751.3 872.04 748.47C868.34 732.95 864.74 727.66 877.89 702.73C889.82 680.14 902.2 661.81 903.32 662.47C934.76 681.15 937.3 665.46 937.3 665.46C937.3 665.46 968.99 698.16 968.43 734.89Z" fill="#F99746"/>
<path d="M1048.95 929.05L1024.76 994.09C1024.76 994.09 1018.2 994.72 1011.92 992.91C1006.14 991.24 999.5 986.86 999.5 986.86C999.5 986.86 1006.24 917.01 1018.77 876.92L1048.95 929.05Z" fill="#2A4E96"/>
<path d="M937.3 665.44C937.3 665.44 969.65 670.94 973.45 684.87C977.24 698.8 989.72 783.36 989.72 783.36C989.72 783.36 980.59 792.27 973 784.67C965.4 777.07 949.11 705.55 949.11 705.55L937.3 665.44Z" fill="#F99746"/>
<path d="M944.96 804.81C921.87 806.33 881.29 802.52 879.75 798.25C874.43 783.48 878.19 778.9 873.76 756.3L884.91 724.95C884.91 724.95 883.06 759.87 893.35 769.05C903.63 778.24 935.5 786.79 940.51 794.47C942.91 798.15 944.49 801.85 944.96 804.81Z" fill="#ED7D2B"/>
<path d="M918.51 790.12C918.51 790.12 941.29 785.06 944.96 787.08C948.63 789.1 957.61 796.47 958.74 799.03C959.86 801.59 950.56 797.08 947.53 796.27C945.57 795.74 940.41 797.53 937.85 798.39C927.1 801.97 920.51 800.12 920.51 800.12L918.51 790.12Z" fill="#FFB27D"/>
<path d="M903.3 662.44C903.3 662.44 872.72 664.31 862.12 679.08C847.21 699.86 817.61 788.44 834.55 800.26C853.63 813.57 921.39 803.77 921.39 803.77C921.39 803.77 923.65 793.23 920.51 788.13C917.37 783.03 866.39 774.78 864.04 772.42C861.69 770.07 893.47 726.54 893.47 719.48C893.49 712.43 903.3 662.44 903.3 662.44Z" fill="#F99746"/>
<path d="M946.06 793.42C946.06 793.42 950.83 799.58 952.39 800.31C953.95 801.05 954.97 800.86 954.97 800.86L951.76 795.07L946.06 793.42Z" fill="#FFB27D"/>
<path d="M944.96 787.08L958.83 793.82C958.83 793.82 958.24 794.79 956.53 794.71C954.82 794.63 950.51 793.05 950.51 793.05L944.96 787.08Z" fill="#FFB27D"/>
<path d="M1063.44 802.96L918.5 802.91V806.11L1062.15 806.16L1063.44 802.96Z" fill="#233862"/>
<path d="M952.39 806.12L1062.15 806.16L1095.2 724.06L985.61 724.02L952.39 806.12Z" fill="#233862"/>
<path d="M1034.46 765.09C1035.29 762.2 1033.62 759.86 1030.73 759.86C1027.84 759.86 1024.83 762.2 1024 765.08C1023.17 767.97 1024.84 770.31 1027.73 770.31C1030.62 770.32 1033.63 767.98 1034.46 765.09Z" fill="white"/>
<path d="M1777.27 1115.74C1762.48 1110.83 1752.25 1117.03 1752.25 1117.03C1709.68 1118.78 1708.1 1162.42 1713.09 1178.66C1720.11 1201.47 1695.27 1219.45 1722.82 1228.68C1754.78 1239.39 1781.6 1226.68 1779.77 1232.2C1880.84 1240.16 1810.9 1126.9 1777.27 1115.74Z" fill="#163560"/>
<path d="M1733.12 1327.98C1733.12 1327.98 1729.08 1335.99 1721.74 1345.19C1712.9 1356.27 1666.48 1329.98 1670.48 1327.98C1674.48 1325.98 1697.8 1258.78 1703.36 1250.34C1708.92 1241.9 1727.84 1237.51 1727.84 1237.51L1733.12 1327.98Z" fill="#F99746"/>
<path d="M1889.76 1781.18C1889.76 1781.18 1902.57 1792.87 1900.07 1801.18C1897.57 1809.49 1886.01 1815.03 1884.45 1825.18C1882.89 1835.33 1876.64 1840.87 1871.01 1840.87C1865.39 1840.87 1844.19 1840.87 1844.19 1840.87C1844.19 1840.87 1840.05 1833.72 1850.05 1831.57C1860.05 1829.42 1863.82 1817.49 1863.19 1806.41C1862.56 1795.33 1864.13 1780.57 1864.13 1780.57L1885.38 1775.65L1889.76 1781.18Z" fill="#1F447F"/>
<path d="M1781.32 1786.15C1781.32 1786.15 1785.93 1835.68 1780.31 1838.45L1708.33 1838.3C1708.33 1838.3 1708.33 1829.99 1719.89 1828.15C1731.45 1826.3 1751.76 1819.53 1755.2 1804.46C1758.64 1789.39 1781.32 1786.15 1781.32 1786.15Z" fill="#1C3154"/>
<path d="M1836.69 1294.57C1836.69 1294.57 1837.76 1309.69 1836.69 1327.84C1835.98 1339.87 1823.81 1355.98 1822.08 1359.97C1817.75 1369.97 1812.86 1371.59 1812.86 1371.59L1775.07 1380.85L1761.78 1384.1L1719.87 1371.58C1719.87 1371.58 1700.78 1318.31 1708.45 1288.32C1716.11 1258.33 1727.82 1237.5 1727.82 1237.5C1727.82 1237.5 1756.3 1231.1 1806.54 1234.66L1836.69 1294.57Z" fill="#F99746"/>
<path d="M1840.29 1328.26C1839.58 1340.29 1823.81 1355.98 1822.08 1359.97C1817.75 1369.97 1812.86 1371.59 1812.86 1371.59L1775.07 1380.85L1768.25 1361.29C1768.25 1361.29 1823.47 1346.78 1814.59 1295.67L1840.29 1328.26Z" fill="#ED7D2B"/>
<path d="M1722.55 1379.67C1722.55 1379.67 1701.8 1444.26 1700.46 1466.26C1699.13 1488.25 1740.13 1778.68 1741.78 1788.81C1743.33 1798.36 1755.2 1804.45 1755.2 1804.45C1755.2 1804.45 1760.66 1807.67 1768.44 1805.47C1779.24 1802.42 1782.66 1798.77 1782.66 1798.77C1782.66 1798.77 1798.81 1591.64 1788.82 1517.65C1778.82 1443.66 1778.71 1379.67 1778.71 1379.67H1722.55Z" fill="#233862"/>
<path d="M1810.47 1377.75C1810.47 1377.75 1842.13 1420.22 1845.08 1448.94C1848.03 1477.65 1849.71 1578.5 1856 1606.49C1862.29 1634.48 1885.39 1688.35 1885.39 1775.65C1885.39 1775.65 1882.99 1780.65 1875.58 1783.32C1873.21 1784.17 1870.03 1785 1866.95 1785.71C1860.84 1787.11 1854.56 1784.12 1851.77 1778.51C1836.15 1747.07 1786.41 1645.65 1783.85 1624.6C1782.05 1609.7 1766.34 1511.1 1732.07 1453.25C1723.84 1439.36 1737.12 1384.12 1737.12 1384.12L1810.47 1377.75Z" fill="#2A4E96"/>
<path d="M1719.23 1369.7C1719.23 1369.7 1727.56 1376.29 1744.11 1376.62C1763.88 1377.02 1812.86 1371.58 1812.86 1371.58C1812.86 1371.58 1815.04 1377.66 1814.95 1384.08C1814.95 1384.08 1755.12 1399.17 1720.46 1386.28C1720.46 1386.29 1715.99 1377.88 1719.23 1369.7Z" fill="#233862"/>
<path d="M1739.37 1393.66C1734.4 1393.66 1730.35 1389.08 1730.35 1383.45C1730.35 1377.82 1734.4 1373.24 1739.37 1373.24C1744.34 1373.24 1748.39 1377.82 1748.39 1383.45C1748.39 1389.08 1744.35 1393.66 1739.37 1393.66ZM1739.37 1376.23C1736.04 1376.23 1733.34 1379.47 1733.34 1383.45C1733.34 1387.43 1736.05 1390.67 1739.37 1390.67C1742.69 1390.67 1745.4 1387.43 1745.4 1383.45C1745.4 1379.47 1742.7 1376.23 1739.37 1376.23Z" fill="white"/>
<path d="M1782.59 1412.23L1692.67 1413.07L1648.43 1309.09L1738.35 1308.25L1782.59 1412.23Z" fill="#B5453C"/>
<path d="M1770.83 1365.24L1764.24 1357.14C1764.24 1357.14 1759.78 1353.16 1756.54 1352.49C1753.3 1351.81 1746.47 1347.87 1745.81 1348.98C1745.15 1350.09 1751.06 1358.01 1751.06 1358.01L1751.36 1358.05C1744.57 1363.16 1727.43 1358.65 1725.32 1360.73C1722.76 1363.25 1728.85 1368.71 1732.12 1371.78C1735.39 1374.85 1744.74 1379.95 1752.03 1377.69C1757.36 1376.03 1765.74 1374.34 1765.74 1374.34L1770.83 1365.24Z" fill="#FFB27D"/>
<path d="M1655.19 1327.38C1655.19 1327.38 1660.84 1320.96 1664.44 1324.04C1668.04 1327.12 1663.5 1342.28 1660.07 1340.74C1656.64 1339.2 1653.22 1329.26 1655.19 1327.38Z" fill="#FFB27D"/>
<path d="M1806.55 1234.67C1806.55 1234.67 1832.29 1237.51 1850.76 1271.07C1865.33 1297.54 1890.23 1346.33 1880.83 1360.11C1876.71 1366.16 1837.16 1387.69 1760.89 1375.39C1760.89 1375.39 1762.09 1365.76 1768.24 1361.29C1768.24 1361.29 1832.43 1340.68 1832.32 1336.58C1832.11 1328.83 1823.65 1322.12 1787.79 1286.26C1778.05 1276.51 1806.55 1234.67 1806.55 1234.67Z" fill="#F99746"/>
<path d="M1786.74 1236.03C1787.62 1234.84 1786.49 1231.06 1785.07 1224.02C1783.79 1217.64 1781.62 1207.77 1781.66 1196.67L1779.76 1196.99L1747.86 1202.36C1747.86 1202.36 1748.59 1210.89 1748.61 1218.93C1748.61 1219 1748.61 1219.06 1748.61 1219.13C1748.65 1226.11 1746.73 1236.66 1749.08 1238.03C1761.17 1245.11 1783.34 1240.6 1786.74 1236.03Z" fill="#FFB27D"/>
<path d="M1747.87 1202.36C1747.87 1202.36 1748.5 1214.39 1748.53 1222.42C1766.38 1221.99 1775.91 1204.66 1779.78 1196.99L1747.87 1202.36Z" fill="#E8945B"/>
<path d="M1745.94 1216.7C1745.94 1216.7 1787.76 1210.74 1783.65 1184.75C1779.54 1158.76 1782.17 1140.49 1755.29 1143.2C1728.41 1145.9 1724.81 1156.64 1724.07 1165.65C1723.34 1174.66 1734.96 1217.58 1745.94 1216.7Z" fill="#FFB27D"/>
<path d="M1736.2 1145.59C1736.2 1145.59 1752.48 1174.25 1770.72 1175.97C1788.97 1177.68 1795.82 1171.78 1795.82 1171.78C1795.82 1171.78 1780.67 1163.24 1774.91 1145.04C1774.91 1145.04 1742.5 1129.71 1736.2 1145.59Z" fill="#163560"/>
<path d="M1739.42 1147.62C1739.42 1147.62 1731.46 1152.14 1728.95 1158.87C1726.5 1165.45 1724.87 1173.92 1727.11 1183.62C1727.11 1183.62 1715.2 1164.27 1723.01 1151.01C1731.29 1136.94 1739.42 1147.62 1739.42 1147.62Z" fill="#163560"/>
<path d="M2660.86 1844.61H342.52C340.93 1844.61 339.62 1843.31 339.62 1841.71V1840.04C339.62 1838.45 340.92 1837.14 342.52 1837.14H2660.87C2662.46 1837.14 2663.77 1838.44 2663.77 1840.04V1841.71C2663.76 1843.3 2662.46 1844.61 2660.86 1844.61Z" fill="#233862"/>
</svg>
