<svg width="191" height="170" viewBox="0 0 191 170" fill="none" xmlns="http://www.w3.org/2000/svg">
<path fill-rule="evenodd" clip-rule="evenodd" d="M124.025 166.17C124.455 161.243 122.789 156.557 119.022 154.605C118.22 154.189 117.231 154.578 116.93 155.429C115.682 158.966 115.074 163.801 116.12 167.173C117.454 171.472 123.633 170.654 124.025 166.17Z" fill="#FF0600"/>
<path fill-rule="evenodd" clip-rule="evenodd" d="M156.351 122.265C156.893 121.556 160.284 117.522 160.9 116.866C163.361 114.25 166.414 112.144 170.267 111.203C174.296 110.218 190.859 119.937 188.588 108.791C187.323 102.584 175.454 104.439 172.282 98.6936C170.363 95.2114 169.489 81.8707 169.837 77.0627C170.218 71.8757 173.972 65.2027 177.263 63.7921C181.832 61.8347 191.356 66.3873 190.887 60.388C190.334 53.3373 183.807 59.4353 178.852 59.9935C175.156 60.4099 169.385 58.9631 167.038 56.3067C166.758 55.9893 166.502 55.6631 166.266 55.3273C165.991 54.5724 165.727 53.8495 165.451 53.0948C164.682 46.4542 166.203 37.6356 166.311 29.1972C166.314 29.0293 166.316 28.8611 166.317 28.6926C166.334 26.9999 165.919 25.2745 164.896 23.9255C161.121 18.9458 153.786 22.3074 148.427 20.2628C146.465 19.5142 145.016 17.8154 144.361 15.8203L144.353 15.7962C142.487 10.1329 144.118 3.85276 137.344 1.02303C130.73 0.532426 130.939 4.94124 125.274 7.90711C124.535 8.12195 123.842 8.24984 123.16 8.34853C106.038 10.6702 104.208 -3.22553 85.7675 6.44194C85.0341 6.68661 84.2998 6.97984 83.5629 7.314C74.0103 11.6336 64.3273 22.4607 55.3589 16.0063C52.2988 13.7995 49.4786 4.62898 43.0423 8.65064C34.0263 14.286 51.4604 20.4659 53.3864 23.3883C58.4498 31.0812 54.9597 35.6992 49.1235 38.6952C44.3869 41.1267 41.9989 46.4275 43.1905 51.6164C44.1444 55.7694 44.2717 59.4832 42.6999 63.5541C40.6505 68.8543 35.2579 71.7666 35.0177 76.1998C34.8955 78.3885 36.6755 81.579 37.1252 84.8254C37.5422 87.7926 36.5375 91.951 37.1449 93.5796C38.2051 96.4068 42.7443 97.8069 44.6623 101.446C44.9076 101.902 45.0971 102.394 45.2472 102.912C45.4014 103.427 45.5176 103.967 45.5658 104.544C45.3405 109.757 39.7918 114.819 40.918 117.562C44.2977 125.794 53.0186 115.8 59.1169 123.318C59.5761 123.932 60.0013 124.572 60.3837 125.242C61.6426 127.477 62.4004 130.063 62.251 133.214C62.1383 135.588 64.3003 137.368 66.6414 136.958C71.3047 136.141 74.3086 137.165 80.6291 138.517C87.2504 139.933 92.6509 138.888 95.7533 143.99C99.0212 149.371 94.8323 159.568 102.265 158.11C110.123 156.568 103.157 145.55 110.243 140.96C110.935 140.512 111.601 140.195 112.248 139.98C112.894 139.763 113.523 139.648 114.141 139.606C121.051 140.202 122.172 149.545 126.653 151.616C127.987 152.232 129.635 151.836 130.633 150.757C133.555 147.595 131.914 141.308 138.109 139.956C138.793 139.936 139.5 139.963 140.21 140C156.339 140.848 153.259 127.794 156.351 122.265Z" fill="#FF0600"/>
<path fill-rule="evenodd" clip-rule="evenodd" d="M32.5302 110.588C32.778 109.616 31.9866 108.688 30.9866 108.772C24.3037 109.331 10.9485 111.179 13.5414 118.778C15.9948 125.963 30.8092 117.337 32.5302 110.588Z" fill="#FF0600"/>
<path fill-rule="evenodd" clip-rule="evenodd" d="M13.3171 95.7275C13.5044 95.4961 13.5336 95.1537 13.3838 94.8964C11.8028 92.1793 5.80441 91.1555 2.46471 92.152C-0.624603 93.0739 -0.892119 97.4525 2.12992 98.5759C5.14529 99.6968 11.3357 98.1735 13.3171 95.7275Z" fill="#FF0600"/>
<path fill-rule="evenodd" clip-rule="evenodd" d="M36.9599 56.3019C37.255 56.3574 37.3759 56.7205 37.143 56.9099C34.3564 59.178 27.909 59.9174 21.6624 58.1111C16.9217 56.7401 14.3506 51.6887 17.5503 49.3537C21.1604 46.7236 30.1443 55.0205 36.9599 56.3019Z" fill="#FF0600"/>
<path fill-rule="evenodd" clip-rule="evenodd" d="M170.347 19.6519C173.116 19.1666 176.202 17.3442 177.557 14.8156C179.224 11.7037 175.256 8.4859 172.515 10.7105C170.258 12.5422 168.968 15.6759 169.414 18.9616C169.473 19.4031 169.908 19.7287 170.347 19.6519Z" fill="#FF0600"/>
<path fill-rule="evenodd" clip-rule="evenodd" d="M60.9461 0.000194001C60.0756 -0.00996091 59.2118 0.378781 58.7428 1.11216C56.9019 3.99234 57.3938 9.14437 59.7846 10.2116C66.1584 13.0597 69.3832 0.0973003 60.9461 0.000194001Z" fill="#FF0600"/>
</svg>
